G75*
%MOIN*%
%OFA0B0*%
%FSLAX25Y25*%
%IPPOS*%
%LPD*%
%AMOC8*
5,1,8,0,0,1.08239X$1,22.5*
%
%ADD10C,0.00000*%
%ADD11C,0.00400*%
%ADD12C,0.00800*%
%ADD13C,0.01200*%
%ADD14R,0.03740X0.01969*%
%ADD15C,0.00500*%
%ADD16R,0.01969X0.03740*%
%ADD17C,0.01000*%
%ADD18R,0.03346X0.02953*%
%ADD19R,0.05315X0.03543*%
%ADD20C,0.00600*%
%ADD21C,0.00197*%
%ADD22C,0.00394*%
%ADD23C,0.00787*%
%ADD24R,0.03400X0.01600*%
%ADD25R,0.01600X0.03400*%
%ADD26C,0.01000*%
%ADD27R,0.02559X0.01969*%
D10*
X0025622Y0017748D02*
X0183102Y0017748D01*
X0183226Y0017750D01*
X0183349Y0017756D01*
X0183473Y0017765D01*
X0183595Y0017779D01*
X0183718Y0017796D01*
X0183840Y0017818D01*
X0183961Y0017843D01*
X0184081Y0017872D01*
X0184200Y0017904D01*
X0184319Y0017941D01*
X0184436Y0017981D01*
X0184551Y0018024D01*
X0184666Y0018072D01*
X0184778Y0018123D01*
X0184889Y0018177D01*
X0184999Y0018235D01*
X0185106Y0018296D01*
X0185212Y0018361D01*
X0185315Y0018429D01*
X0185416Y0018500D01*
X0185515Y0018574D01*
X0185612Y0018651D01*
X0185706Y0018732D01*
X0185797Y0018815D01*
X0185886Y0018901D01*
X0185972Y0018990D01*
X0186055Y0019081D01*
X0186136Y0019175D01*
X0186213Y0019272D01*
X0186287Y0019371D01*
X0186358Y0019472D01*
X0186426Y0019575D01*
X0186491Y0019681D01*
X0186552Y0019788D01*
X0186610Y0019898D01*
X0186664Y0020009D01*
X0186715Y0020121D01*
X0186763Y0020236D01*
X0186806Y0020351D01*
X0186846Y0020468D01*
X0186883Y0020587D01*
X0186915Y0020706D01*
X0186944Y0020826D01*
X0186969Y0020947D01*
X0186991Y0021069D01*
X0187008Y0021192D01*
X0187022Y0021314D01*
X0187031Y0021438D01*
X0187037Y0021561D01*
X0187039Y0021685D01*
X0187039Y0092551D01*
X0187037Y0092675D01*
X0187031Y0092798D01*
X0187022Y0092922D01*
X0187008Y0093044D01*
X0186991Y0093167D01*
X0186969Y0093289D01*
X0186944Y0093410D01*
X0186915Y0093530D01*
X0186883Y0093649D01*
X0186846Y0093768D01*
X0186806Y0093885D01*
X0186763Y0094000D01*
X0186715Y0094115D01*
X0186664Y0094227D01*
X0186610Y0094338D01*
X0186552Y0094448D01*
X0186491Y0094555D01*
X0186426Y0094661D01*
X0186358Y0094764D01*
X0186287Y0094865D01*
X0186213Y0094964D01*
X0186136Y0095061D01*
X0186055Y0095155D01*
X0185972Y0095246D01*
X0185886Y0095335D01*
X0185797Y0095421D01*
X0185706Y0095504D01*
X0185612Y0095585D01*
X0185515Y0095662D01*
X0185416Y0095736D01*
X0185315Y0095807D01*
X0185212Y0095875D01*
X0185106Y0095940D01*
X0184999Y0096001D01*
X0184889Y0096059D01*
X0184778Y0096113D01*
X0184666Y0096164D01*
X0184551Y0096212D01*
X0184436Y0096255D01*
X0184319Y0096295D01*
X0184200Y0096332D01*
X0184081Y0096364D01*
X0183961Y0096393D01*
X0183840Y0096418D01*
X0183718Y0096440D01*
X0183595Y0096457D01*
X0183473Y0096471D01*
X0183349Y0096480D01*
X0183226Y0096486D01*
X0183102Y0096488D01*
X0025622Y0096488D01*
X0025498Y0096486D01*
X0025375Y0096480D01*
X0025251Y0096471D01*
X0025129Y0096457D01*
X0025006Y0096440D01*
X0024884Y0096418D01*
X0024763Y0096393D01*
X0024643Y0096364D01*
X0024524Y0096332D01*
X0024405Y0096295D01*
X0024288Y0096255D01*
X0024173Y0096212D01*
X0024058Y0096164D01*
X0023946Y0096113D01*
X0023835Y0096059D01*
X0023725Y0096001D01*
X0023618Y0095940D01*
X0023512Y0095875D01*
X0023409Y0095807D01*
X0023308Y0095736D01*
X0023209Y0095662D01*
X0023112Y0095585D01*
X0023018Y0095504D01*
X0022927Y0095421D01*
X0022838Y0095335D01*
X0022752Y0095246D01*
X0022669Y0095155D01*
X0022588Y0095061D01*
X0022511Y0094964D01*
X0022437Y0094865D01*
X0022366Y0094764D01*
X0022298Y0094661D01*
X0022233Y0094555D01*
X0022172Y0094448D01*
X0022114Y0094338D01*
X0022060Y0094227D01*
X0022009Y0094115D01*
X0021961Y0094000D01*
X0021918Y0093885D01*
X0021878Y0093768D01*
X0021841Y0093649D01*
X0021809Y0093530D01*
X0021780Y0093410D01*
X0021755Y0093289D01*
X0021733Y0093167D01*
X0021716Y0093044D01*
X0021702Y0092922D01*
X0021693Y0092798D01*
X0021687Y0092675D01*
X0021685Y0092551D01*
X0021685Y0021685D01*
X0021687Y0021561D01*
X0021693Y0021438D01*
X0021702Y0021314D01*
X0021716Y0021192D01*
X0021733Y0021069D01*
X0021755Y0020947D01*
X0021780Y0020826D01*
X0021809Y0020706D01*
X0021841Y0020587D01*
X0021878Y0020468D01*
X0021918Y0020351D01*
X0021961Y0020236D01*
X0022009Y0020121D01*
X0022060Y0020009D01*
X0022114Y0019898D01*
X0022172Y0019788D01*
X0022233Y0019681D01*
X0022298Y0019575D01*
X0022366Y0019472D01*
X0022437Y0019371D01*
X0022511Y0019272D01*
X0022588Y0019175D01*
X0022669Y0019081D01*
X0022752Y0018990D01*
X0022838Y0018901D01*
X0022927Y0018815D01*
X0023018Y0018732D01*
X0023112Y0018651D01*
X0023209Y0018574D01*
X0023308Y0018500D01*
X0023409Y0018429D01*
X0023512Y0018361D01*
X0023618Y0018296D01*
X0023725Y0018235D01*
X0023835Y0018177D01*
X0023946Y0018123D01*
X0024058Y0018072D01*
X0024173Y0018024D01*
X0024288Y0017981D01*
X0024405Y0017941D01*
X0024524Y0017904D01*
X0024643Y0017872D01*
X0024763Y0017843D01*
X0024884Y0017818D01*
X0025006Y0017796D01*
X0025129Y0017779D01*
X0025251Y0017765D01*
X0025375Y0017756D01*
X0025498Y0017750D01*
X0025622Y0017748D01*
D11*
X0088343Y0032449D02*
X0088343Y0035252D01*
X0091693Y0035252D02*
X0091693Y0032449D01*
X0092283Y0055717D02*
X0092283Y0058520D01*
X0088933Y0058520D02*
X0088933Y0055717D01*
X0071945Y0064669D02*
X0069142Y0064669D01*
X0069142Y0068020D02*
X0071945Y0068020D01*
X0092535Y0067677D02*
X0094535Y0068344D01*
X0094535Y0069403D02*
X0092535Y0069403D01*
X0092535Y0069959D01*
X0092537Y0070005D01*
X0092543Y0070051D01*
X0092552Y0070095D01*
X0092565Y0070140D01*
X0092582Y0070182D01*
X0092602Y0070224D01*
X0092626Y0070263D01*
X0092652Y0070301D01*
X0092682Y0070336D01*
X0092714Y0070368D01*
X0092749Y0070398D01*
X0092787Y0070424D01*
X0092826Y0070448D01*
X0092868Y0070468D01*
X0092910Y0070485D01*
X0092955Y0070498D01*
X0092999Y0070507D01*
X0093045Y0070513D01*
X0093091Y0070515D01*
X0093137Y0070513D01*
X0093183Y0070507D01*
X0093227Y0070498D01*
X0093272Y0070485D01*
X0093314Y0070468D01*
X0093356Y0070448D01*
X0093395Y0070424D01*
X0093433Y0070398D01*
X0093468Y0070368D01*
X0093500Y0070336D01*
X0093530Y0070301D01*
X0093556Y0070263D01*
X0093580Y0070224D01*
X0093600Y0070182D01*
X0093617Y0070140D01*
X0093630Y0070095D01*
X0093639Y0070051D01*
X0093645Y0070005D01*
X0093647Y0069959D01*
X0093647Y0069403D01*
X0093647Y0069959D02*
X0093649Y0070000D01*
X0093655Y0070041D01*
X0093664Y0070081D01*
X0093677Y0070119D01*
X0093694Y0070157D01*
X0093714Y0070193D01*
X0093737Y0070227D01*
X0093763Y0070258D01*
X0093792Y0070287D01*
X0093823Y0070313D01*
X0093857Y0070336D01*
X0093893Y0070356D01*
X0093931Y0070373D01*
X0093969Y0070386D01*
X0094009Y0070395D01*
X0094050Y0070401D01*
X0094091Y0070403D01*
X0094132Y0070401D01*
X0094173Y0070395D01*
X0094213Y0070386D01*
X0094251Y0070373D01*
X0094289Y0070356D01*
X0094325Y0070336D01*
X0094359Y0070313D01*
X0094390Y0070287D01*
X0094419Y0070258D01*
X0094445Y0070227D01*
X0094468Y0070193D01*
X0094488Y0070157D01*
X0094505Y0070119D01*
X0094518Y0070081D01*
X0094527Y0070041D01*
X0094533Y0070000D01*
X0094535Y0069959D01*
X0094535Y0069403D01*
X0094535Y0067011D02*
X0092535Y0067677D01*
X0093091Y0071514D02*
X0094535Y0071514D01*
X0094535Y0072625D02*
X0093091Y0072625D01*
X0093045Y0072623D01*
X0092999Y0072617D01*
X0092955Y0072608D01*
X0092910Y0072595D01*
X0092868Y0072578D01*
X0092826Y0072558D01*
X0092787Y0072534D01*
X0092749Y0072508D01*
X0092714Y0072478D01*
X0092682Y0072446D01*
X0092652Y0072411D01*
X0092626Y0072373D01*
X0092602Y0072334D01*
X0092582Y0072292D01*
X0092565Y0072250D01*
X0092552Y0072205D01*
X0092543Y0072161D01*
X0092537Y0072115D01*
X0092535Y0072069D01*
X0092537Y0072023D01*
X0092543Y0071977D01*
X0092552Y0071933D01*
X0092565Y0071888D01*
X0092582Y0071846D01*
X0092602Y0071804D01*
X0092626Y0071765D01*
X0092652Y0071727D01*
X0092682Y0071692D01*
X0092714Y0071660D01*
X0092749Y0071630D01*
X0092787Y0071604D01*
X0092826Y0071580D01*
X0092868Y0071560D01*
X0092910Y0071543D01*
X0092955Y0071530D01*
X0092999Y0071521D01*
X0093045Y0071515D01*
X0093091Y0071513D01*
X0093702Y0073951D02*
X0093369Y0074563D01*
X0092535Y0074340D02*
X0092537Y0074283D01*
X0092542Y0074226D01*
X0092551Y0074170D01*
X0092563Y0074114D01*
X0092578Y0074059D01*
X0092597Y0074005D01*
X0092619Y0073953D01*
X0092644Y0073901D01*
X0092672Y0073852D01*
X0092703Y0073804D01*
X0092737Y0073758D01*
X0092774Y0073715D01*
X0092813Y0073673D01*
X0093369Y0074562D02*
X0093347Y0074595D01*
X0093323Y0074625D01*
X0093297Y0074654D01*
X0093268Y0074680D01*
X0093237Y0074704D01*
X0093204Y0074725D01*
X0093169Y0074742D01*
X0093133Y0074757D01*
X0093096Y0074769D01*
X0093058Y0074777D01*
X0093019Y0074782D01*
X0092980Y0074784D01*
X0092939Y0074782D01*
X0092898Y0074776D01*
X0092858Y0074767D01*
X0092820Y0074754D01*
X0092782Y0074737D01*
X0092746Y0074717D01*
X0092712Y0074694D01*
X0092681Y0074668D01*
X0092652Y0074639D01*
X0092626Y0074608D01*
X0092603Y0074574D01*
X0092583Y0074538D01*
X0092566Y0074500D01*
X0092553Y0074462D01*
X0092544Y0074422D01*
X0092538Y0074381D01*
X0092536Y0074340D01*
X0094368Y0074674D02*
X0094399Y0074630D01*
X0094427Y0074584D01*
X0094452Y0074537D01*
X0094474Y0074488D01*
X0094492Y0074437D01*
X0094508Y0074386D01*
X0094520Y0074334D01*
X0094528Y0074281D01*
X0094533Y0074228D01*
X0094535Y0074174D01*
X0094533Y0074133D01*
X0094527Y0074092D01*
X0094518Y0074053D01*
X0094505Y0074014D01*
X0094488Y0073976D01*
X0094469Y0073940D01*
X0094445Y0073906D01*
X0094419Y0073875D01*
X0094390Y0073846D01*
X0094359Y0073820D01*
X0094325Y0073797D01*
X0094289Y0073777D01*
X0094251Y0073760D01*
X0094213Y0073747D01*
X0094173Y0073738D01*
X0094132Y0073732D01*
X0094091Y0073730D01*
X0094052Y0073732D01*
X0094013Y0073737D01*
X0093975Y0073745D01*
X0093938Y0073757D01*
X0093902Y0073772D01*
X0093867Y0073789D01*
X0093834Y0073810D01*
X0093803Y0073834D01*
X0093774Y0073860D01*
X0093748Y0073889D01*
X0093724Y0073919D01*
X0093702Y0073952D01*
X0100409Y0074601D02*
X0100409Y0075157D01*
X0100411Y0075203D01*
X0100417Y0075249D01*
X0100426Y0075293D01*
X0100439Y0075338D01*
X0100456Y0075380D01*
X0100476Y0075422D01*
X0100500Y0075461D01*
X0100526Y0075499D01*
X0100556Y0075534D01*
X0100588Y0075566D01*
X0100623Y0075596D01*
X0100661Y0075622D01*
X0100700Y0075646D01*
X0100742Y0075666D01*
X0100784Y0075683D01*
X0100829Y0075696D01*
X0100873Y0075705D01*
X0100919Y0075711D01*
X0100965Y0075713D01*
X0101011Y0075711D01*
X0101057Y0075705D01*
X0101101Y0075696D01*
X0101146Y0075683D01*
X0101188Y0075666D01*
X0101230Y0075646D01*
X0101269Y0075622D01*
X0101307Y0075596D01*
X0101342Y0075566D01*
X0101374Y0075534D01*
X0101404Y0075499D01*
X0101430Y0075461D01*
X0101454Y0075422D01*
X0101474Y0075380D01*
X0101491Y0075338D01*
X0101504Y0075293D01*
X0101513Y0075249D01*
X0101519Y0075203D01*
X0101521Y0075157D01*
X0101521Y0075268D02*
X0101521Y0074824D01*
X0101521Y0075268D02*
X0101523Y0075309D01*
X0101529Y0075350D01*
X0101538Y0075390D01*
X0101551Y0075428D01*
X0101568Y0075466D01*
X0101588Y0075502D01*
X0101611Y0075536D01*
X0101637Y0075567D01*
X0101666Y0075596D01*
X0101697Y0075622D01*
X0101731Y0075645D01*
X0101767Y0075665D01*
X0101805Y0075682D01*
X0101843Y0075695D01*
X0101883Y0075704D01*
X0101924Y0075710D01*
X0101965Y0075712D01*
X0102006Y0075710D01*
X0102047Y0075704D01*
X0102087Y0075695D01*
X0102125Y0075682D01*
X0102163Y0075665D01*
X0102199Y0075645D01*
X0102233Y0075622D01*
X0102264Y0075596D01*
X0102293Y0075567D01*
X0102319Y0075536D01*
X0102342Y0075502D01*
X0102362Y0075466D01*
X0102379Y0075428D01*
X0102392Y0075390D01*
X0102401Y0075350D01*
X0102407Y0075309D01*
X0102409Y0075268D01*
X0102409Y0074601D01*
X0102409Y0073664D02*
X0100409Y0072997D01*
X0102409Y0072330D01*
X0102409Y0070948D02*
X0102409Y0070281D01*
X0102409Y0070948D02*
X0102407Y0070989D01*
X0102401Y0071030D01*
X0102392Y0071070D01*
X0102379Y0071108D01*
X0102362Y0071146D01*
X0102342Y0071182D01*
X0102319Y0071216D01*
X0102293Y0071247D01*
X0102264Y0071276D01*
X0102233Y0071302D01*
X0102199Y0071325D01*
X0102163Y0071345D01*
X0102125Y0071362D01*
X0102087Y0071375D01*
X0102047Y0071384D01*
X0102006Y0071390D01*
X0101965Y0071392D01*
X0101924Y0071390D01*
X0101883Y0071384D01*
X0101843Y0071375D01*
X0101805Y0071362D01*
X0101767Y0071345D01*
X0101731Y0071325D01*
X0101697Y0071302D01*
X0101666Y0071276D01*
X0101637Y0071247D01*
X0101611Y0071216D01*
X0101588Y0071182D01*
X0101568Y0071146D01*
X0101551Y0071108D01*
X0101538Y0071070D01*
X0101529Y0071030D01*
X0101523Y0070989D01*
X0101521Y0070948D01*
X0101521Y0070504D01*
X0101521Y0070837D02*
X0101519Y0070883D01*
X0101513Y0070929D01*
X0101504Y0070973D01*
X0101491Y0071018D01*
X0101474Y0071060D01*
X0101454Y0071102D01*
X0101430Y0071141D01*
X0101404Y0071179D01*
X0101374Y0071214D01*
X0101342Y0071246D01*
X0101307Y0071276D01*
X0101269Y0071302D01*
X0101230Y0071326D01*
X0101188Y0071346D01*
X0101146Y0071363D01*
X0101101Y0071376D01*
X0101057Y0071385D01*
X0101011Y0071391D01*
X0100965Y0071393D01*
X0100919Y0071391D01*
X0100873Y0071385D01*
X0100829Y0071376D01*
X0100784Y0071363D01*
X0100742Y0071346D01*
X0100700Y0071326D01*
X0100661Y0071302D01*
X0100623Y0071276D01*
X0100588Y0071246D01*
X0100556Y0071214D01*
X0100526Y0071179D01*
X0100500Y0071141D01*
X0100476Y0071102D01*
X0100456Y0071060D01*
X0100439Y0071018D01*
X0100426Y0070973D01*
X0100417Y0070929D01*
X0100411Y0070883D01*
X0100409Y0070837D01*
X0100409Y0070281D01*
X0101298Y0068798D02*
X0101298Y0068243D01*
X0101298Y0068798D02*
X0101300Y0068844D01*
X0101306Y0068890D01*
X0101315Y0068934D01*
X0101328Y0068979D01*
X0101345Y0069021D01*
X0101365Y0069063D01*
X0101389Y0069102D01*
X0101415Y0069140D01*
X0101445Y0069175D01*
X0101477Y0069207D01*
X0101512Y0069237D01*
X0101550Y0069263D01*
X0101589Y0069287D01*
X0101631Y0069307D01*
X0101673Y0069324D01*
X0101718Y0069337D01*
X0101762Y0069346D01*
X0101808Y0069352D01*
X0101854Y0069354D01*
X0101900Y0069352D01*
X0101946Y0069346D01*
X0101990Y0069337D01*
X0102035Y0069324D01*
X0102077Y0069307D01*
X0102119Y0069287D01*
X0102158Y0069263D01*
X0102196Y0069237D01*
X0102231Y0069207D01*
X0102263Y0069175D01*
X0102293Y0069140D01*
X0102319Y0069102D01*
X0102343Y0069063D01*
X0102363Y0069021D01*
X0102380Y0068979D01*
X0102393Y0068934D01*
X0102402Y0068890D01*
X0102408Y0068844D01*
X0102410Y0068798D01*
X0102409Y0068798D02*
X0102409Y0068243D01*
X0100409Y0068243D01*
X0101298Y0066638D02*
X0101298Y0066083D01*
X0101298Y0066638D02*
X0101300Y0066684D01*
X0101306Y0066730D01*
X0101315Y0066774D01*
X0101328Y0066819D01*
X0101345Y0066861D01*
X0101365Y0066903D01*
X0101389Y0066942D01*
X0101415Y0066980D01*
X0101445Y0067015D01*
X0101477Y0067047D01*
X0101512Y0067077D01*
X0101550Y0067103D01*
X0101589Y0067127D01*
X0101631Y0067147D01*
X0101673Y0067164D01*
X0101718Y0067177D01*
X0101762Y0067186D01*
X0101808Y0067192D01*
X0101854Y0067194D01*
X0101900Y0067192D01*
X0101946Y0067186D01*
X0101990Y0067177D01*
X0102035Y0067164D01*
X0102077Y0067147D01*
X0102119Y0067127D01*
X0102158Y0067103D01*
X0102196Y0067077D01*
X0102231Y0067047D01*
X0102263Y0067015D01*
X0102293Y0066980D01*
X0102319Y0066942D01*
X0102343Y0066903D01*
X0102363Y0066861D01*
X0102380Y0066819D01*
X0102393Y0066774D01*
X0102402Y0066730D01*
X0102408Y0066684D01*
X0102410Y0066638D01*
X0102409Y0066638D02*
X0102409Y0066083D01*
X0100409Y0066083D01*
X0108283Y0068483D02*
X0108283Y0069149D01*
X0109395Y0069149D01*
X0109395Y0068816D01*
X0109839Y0068039D02*
X0109880Y0068041D01*
X0109921Y0068047D01*
X0109961Y0068056D01*
X0109999Y0068069D01*
X0110037Y0068086D01*
X0110073Y0068106D01*
X0110107Y0068129D01*
X0110138Y0068155D01*
X0110167Y0068184D01*
X0110193Y0068215D01*
X0110216Y0068249D01*
X0110236Y0068285D01*
X0110253Y0068323D01*
X0110266Y0068361D01*
X0110275Y0068401D01*
X0110281Y0068442D01*
X0110283Y0068483D01*
X0110283Y0069149D01*
X0110283Y0070342D02*
X0108283Y0070342D01*
X0108283Y0071453D02*
X0110283Y0071453D01*
X0110283Y0070342D02*
X0108283Y0071453D01*
X0108283Y0072646D02*
X0108283Y0073202D01*
X0108283Y0072646D02*
X0110283Y0072646D01*
X0110283Y0073202D01*
X0110284Y0073202D02*
X0110282Y0073248D01*
X0110276Y0073294D01*
X0110267Y0073338D01*
X0110254Y0073383D01*
X0110237Y0073425D01*
X0110217Y0073467D01*
X0110193Y0073506D01*
X0110167Y0073544D01*
X0110137Y0073579D01*
X0110105Y0073611D01*
X0110070Y0073641D01*
X0110032Y0073667D01*
X0109993Y0073691D01*
X0109951Y0073711D01*
X0109909Y0073728D01*
X0109864Y0073741D01*
X0109820Y0073750D01*
X0109774Y0073756D01*
X0109728Y0073758D01*
X0109728Y0073757D02*
X0108839Y0073757D01*
X0108839Y0073758D02*
X0108793Y0073756D01*
X0108747Y0073750D01*
X0108703Y0073741D01*
X0108658Y0073728D01*
X0108616Y0073711D01*
X0108574Y0073691D01*
X0108535Y0073667D01*
X0108497Y0073641D01*
X0108462Y0073611D01*
X0108430Y0073579D01*
X0108400Y0073544D01*
X0108374Y0073506D01*
X0108350Y0073467D01*
X0108330Y0073425D01*
X0108313Y0073383D01*
X0108300Y0073338D01*
X0108291Y0073294D01*
X0108285Y0073248D01*
X0108283Y0073202D01*
X0108284Y0068483D02*
X0108286Y0068442D01*
X0108292Y0068401D01*
X0108301Y0068361D01*
X0108314Y0068323D01*
X0108331Y0068285D01*
X0108351Y0068249D01*
X0108374Y0068215D01*
X0108400Y0068184D01*
X0108429Y0068155D01*
X0108460Y0068129D01*
X0108494Y0068106D01*
X0108530Y0068086D01*
X0108568Y0068069D01*
X0108606Y0068056D01*
X0108646Y0068047D01*
X0108687Y0068041D01*
X0108728Y0068039D01*
X0108728Y0068038D02*
X0109839Y0068038D01*
X0095335Y0081916D02*
X0095335Y0087438D01*
X0094535Y0087238D02*
X0094535Y0086127D01*
X0094535Y0086682D02*
X0092535Y0086682D01*
X0093369Y0085072D02*
X0093702Y0084461D01*
X0094535Y0084683D02*
X0094533Y0084737D01*
X0094528Y0084790D01*
X0094520Y0084843D01*
X0094508Y0084895D01*
X0094492Y0084946D01*
X0094474Y0084997D01*
X0094452Y0085046D01*
X0094427Y0085093D01*
X0094399Y0085139D01*
X0094368Y0085183D01*
X0093702Y0084461D02*
X0093724Y0084428D01*
X0093748Y0084398D01*
X0093774Y0084369D01*
X0093803Y0084343D01*
X0093834Y0084319D01*
X0093867Y0084298D01*
X0093902Y0084281D01*
X0093938Y0084266D01*
X0093975Y0084254D01*
X0094013Y0084246D01*
X0094052Y0084241D01*
X0094091Y0084239D01*
X0094132Y0084241D01*
X0094173Y0084247D01*
X0094213Y0084256D01*
X0094251Y0084269D01*
X0094289Y0084286D01*
X0094325Y0084306D01*
X0094359Y0084329D01*
X0094390Y0084355D01*
X0094419Y0084384D01*
X0094445Y0084415D01*
X0094469Y0084449D01*
X0094488Y0084485D01*
X0094505Y0084523D01*
X0094518Y0084562D01*
X0094527Y0084601D01*
X0094533Y0084642D01*
X0094535Y0084683D01*
X0092813Y0084183D02*
X0092774Y0084225D01*
X0092737Y0084268D01*
X0092703Y0084314D01*
X0092672Y0084362D01*
X0092644Y0084411D01*
X0092619Y0084463D01*
X0092597Y0084515D01*
X0092578Y0084569D01*
X0092563Y0084624D01*
X0092551Y0084680D01*
X0092542Y0084736D01*
X0092537Y0084793D01*
X0092535Y0084850D01*
X0092536Y0084850D02*
X0092538Y0084891D01*
X0092544Y0084932D01*
X0092553Y0084972D01*
X0092566Y0085010D01*
X0092583Y0085048D01*
X0092603Y0085084D01*
X0092626Y0085118D01*
X0092652Y0085149D01*
X0092681Y0085178D01*
X0092712Y0085204D01*
X0092746Y0085227D01*
X0092782Y0085247D01*
X0092820Y0085264D01*
X0092858Y0085277D01*
X0092898Y0085286D01*
X0092939Y0085292D01*
X0092980Y0085294D01*
X0093019Y0085292D01*
X0093058Y0085287D01*
X0093096Y0085279D01*
X0093133Y0085267D01*
X0093169Y0085252D01*
X0093204Y0085235D01*
X0093237Y0085214D01*
X0093268Y0085190D01*
X0093297Y0085164D01*
X0093323Y0085135D01*
X0093347Y0085105D01*
X0093369Y0085072D01*
X0092535Y0083227D02*
X0093424Y0082783D01*
X0093424Y0082672D02*
X0093424Y0082116D01*
X0093424Y0082672D02*
X0093426Y0082718D01*
X0093432Y0082764D01*
X0093441Y0082808D01*
X0093454Y0082853D01*
X0093471Y0082895D01*
X0093491Y0082937D01*
X0093515Y0082976D01*
X0093541Y0083014D01*
X0093571Y0083049D01*
X0093603Y0083081D01*
X0093638Y0083111D01*
X0093676Y0083137D01*
X0093715Y0083161D01*
X0093757Y0083181D01*
X0093799Y0083198D01*
X0093844Y0083211D01*
X0093888Y0083220D01*
X0093934Y0083226D01*
X0093980Y0083228D01*
X0094026Y0083226D01*
X0094072Y0083220D01*
X0094116Y0083211D01*
X0094161Y0083198D01*
X0094203Y0083181D01*
X0094245Y0083161D01*
X0094284Y0083137D01*
X0094322Y0083111D01*
X0094357Y0083081D01*
X0094389Y0083049D01*
X0094419Y0083014D01*
X0094445Y0082976D01*
X0094469Y0082937D01*
X0094489Y0082895D01*
X0094506Y0082853D01*
X0094519Y0082808D01*
X0094528Y0082764D01*
X0094534Y0082718D01*
X0094536Y0082672D01*
X0094535Y0082672D02*
X0094535Y0082116D01*
X0092535Y0082116D01*
X0086661Y0082344D02*
X0086661Y0082789D01*
X0086661Y0082567D02*
X0084661Y0082567D01*
X0084661Y0082789D02*
X0084661Y0082344D01*
X0085217Y0083739D02*
X0086106Y0083739D01*
X0086152Y0083741D01*
X0086198Y0083747D01*
X0086242Y0083756D01*
X0086287Y0083769D01*
X0086329Y0083786D01*
X0086371Y0083806D01*
X0086410Y0083830D01*
X0086448Y0083856D01*
X0086483Y0083886D01*
X0086515Y0083918D01*
X0086545Y0083953D01*
X0086571Y0083991D01*
X0086595Y0084030D01*
X0086615Y0084072D01*
X0086632Y0084114D01*
X0086645Y0084159D01*
X0086654Y0084203D01*
X0086660Y0084249D01*
X0086662Y0084295D01*
X0086660Y0084341D01*
X0086654Y0084387D01*
X0086645Y0084431D01*
X0086632Y0084476D01*
X0086615Y0084518D01*
X0086595Y0084560D01*
X0086571Y0084599D01*
X0086545Y0084637D01*
X0086515Y0084672D01*
X0086483Y0084704D01*
X0086448Y0084734D01*
X0086410Y0084760D01*
X0086371Y0084784D01*
X0086329Y0084804D01*
X0086287Y0084821D01*
X0086242Y0084834D01*
X0086198Y0084843D01*
X0086152Y0084849D01*
X0086106Y0084851D01*
X0086106Y0084850D02*
X0085217Y0084850D01*
X0085217Y0084851D02*
X0085171Y0084849D01*
X0085125Y0084843D01*
X0085081Y0084834D01*
X0085036Y0084821D01*
X0084994Y0084804D01*
X0084952Y0084784D01*
X0084913Y0084760D01*
X0084875Y0084734D01*
X0084840Y0084704D01*
X0084808Y0084672D01*
X0084778Y0084637D01*
X0084752Y0084599D01*
X0084728Y0084560D01*
X0084708Y0084518D01*
X0084691Y0084476D01*
X0084678Y0084431D01*
X0084669Y0084387D01*
X0084663Y0084341D01*
X0084661Y0084295D01*
X0084663Y0084249D01*
X0084669Y0084203D01*
X0084678Y0084159D01*
X0084691Y0084114D01*
X0084708Y0084072D01*
X0084728Y0084030D01*
X0084752Y0083991D01*
X0084778Y0083953D01*
X0084808Y0083918D01*
X0084840Y0083886D01*
X0084875Y0083856D01*
X0084913Y0083830D01*
X0084952Y0083806D01*
X0084994Y0083786D01*
X0085036Y0083769D01*
X0085081Y0083756D01*
X0085125Y0083747D01*
X0085171Y0083741D01*
X0085217Y0083739D01*
X0084939Y0086843D02*
X0085007Y0086875D01*
X0085076Y0086903D01*
X0085146Y0086928D01*
X0085218Y0086949D01*
X0085290Y0086968D01*
X0085364Y0086983D01*
X0085437Y0086995D01*
X0085512Y0087003D01*
X0085586Y0087008D01*
X0085661Y0087010D01*
X0085661Y0085899D02*
X0085736Y0085901D01*
X0085810Y0085906D01*
X0085885Y0085914D01*
X0085958Y0085926D01*
X0086032Y0085941D01*
X0086104Y0085960D01*
X0086176Y0085981D01*
X0086246Y0086006D01*
X0086315Y0086034D01*
X0086383Y0086066D01*
X0086661Y0086454D02*
X0086659Y0086493D01*
X0086654Y0086532D01*
X0086644Y0086570D01*
X0086631Y0086607D01*
X0086615Y0086643D01*
X0086595Y0086677D01*
X0086573Y0086709D01*
X0086547Y0086738D01*
X0086519Y0086765D01*
X0086488Y0086789D01*
X0086455Y0086810D01*
X0086420Y0086828D01*
X0086383Y0086843D01*
X0086217Y0086899D02*
X0085106Y0086010D01*
X0084662Y0086454D02*
X0084664Y0086493D01*
X0084669Y0086532D01*
X0084679Y0086570D01*
X0084692Y0086607D01*
X0084708Y0086643D01*
X0084728Y0086677D01*
X0084750Y0086709D01*
X0084776Y0086738D01*
X0084804Y0086765D01*
X0084835Y0086789D01*
X0084868Y0086810D01*
X0084903Y0086828D01*
X0084940Y0086843D01*
X0084662Y0086454D02*
X0084664Y0086415D01*
X0084669Y0086376D01*
X0084679Y0086338D01*
X0084692Y0086301D01*
X0084708Y0086265D01*
X0084728Y0086231D01*
X0084750Y0086199D01*
X0084776Y0086170D01*
X0084804Y0086143D01*
X0084835Y0086119D01*
X0084868Y0086098D01*
X0084903Y0086080D01*
X0084940Y0086065D01*
X0085661Y0087010D02*
X0085736Y0087008D01*
X0085810Y0087003D01*
X0085885Y0086995D01*
X0085958Y0086983D01*
X0086032Y0086968D01*
X0086104Y0086949D01*
X0086176Y0086928D01*
X0086246Y0086903D01*
X0086315Y0086875D01*
X0086383Y0086843D01*
X0086661Y0086454D02*
X0086659Y0086415D01*
X0086654Y0086376D01*
X0086644Y0086338D01*
X0086631Y0086301D01*
X0086615Y0086265D01*
X0086595Y0086231D01*
X0086573Y0086199D01*
X0086547Y0086170D01*
X0086519Y0086143D01*
X0086488Y0086119D01*
X0086455Y0086098D01*
X0086420Y0086080D01*
X0086383Y0086065D01*
X0085661Y0085899D02*
X0085586Y0085901D01*
X0085512Y0085906D01*
X0085437Y0085914D01*
X0085364Y0085926D01*
X0085290Y0085941D01*
X0085218Y0085960D01*
X0085147Y0085981D01*
X0085076Y0086006D01*
X0085007Y0086034D01*
X0084939Y0086066D01*
X0078787Y0086426D02*
X0078787Y0086981D01*
X0078788Y0086981D02*
X0078786Y0087027D01*
X0078780Y0087073D01*
X0078771Y0087117D01*
X0078758Y0087162D01*
X0078741Y0087204D01*
X0078721Y0087246D01*
X0078697Y0087285D01*
X0078671Y0087323D01*
X0078641Y0087358D01*
X0078609Y0087390D01*
X0078574Y0087420D01*
X0078536Y0087446D01*
X0078497Y0087470D01*
X0078455Y0087490D01*
X0078413Y0087507D01*
X0078368Y0087520D01*
X0078324Y0087529D01*
X0078278Y0087535D01*
X0078232Y0087537D01*
X0077343Y0087537D01*
X0077297Y0087535D01*
X0077251Y0087529D01*
X0077207Y0087520D01*
X0077162Y0087507D01*
X0077120Y0087490D01*
X0077078Y0087470D01*
X0077039Y0087446D01*
X0077001Y0087420D01*
X0076966Y0087390D01*
X0076934Y0087358D01*
X0076904Y0087323D01*
X0076878Y0087285D01*
X0076854Y0087246D01*
X0076834Y0087204D01*
X0076817Y0087162D01*
X0076804Y0087117D01*
X0076795Y0087073D01*
X0076789Y0087027D01*
X0076787Y0086981D01*
X0076787Y0086426D01*
X0078787Y0086426D01*
X0078787Y0085233D02*
X0076787Y0085233D01*
X0078787Y0084122D01*
X0076787Y0084122D01*
X0076787Y0082929D02*
X0076787Y0082262D01*
X0076788Y0082262D02*
X0076790Y0082221D01*
X0076796Y0082180D01*
X0076805Y0082140D01*
X0076818Y0082102D01*
X0076835Y0082064D01*
X0076855Y0082028D01*
X0076878Y0081994D01*
X0076904Y0081963D01*
X0076933Y0081934D01*
X0076964Y0081908D01*
X0076998Y0081885D01*
X0077034Y0081865D01*
X0077072Y0081848D01*
X0077110Y0081835D01*
X0077150Y0081826D01*
X0077191Y0081820D01*
X0077232Y0081818D01*
X0078343Y0081818D01*
X0078384Y0081820D01*
X0078425Y0081826D01*
X0078465Y0081835D01*
X0078503Y0081848D01*
X0078541Y0081865D01*
X0078577Y0081885D01*
X0078611Y0081908D01*
X0078642Y0081934D01*
X0078671Y0081963D01*
X0078697Y0081994D01*
X0078720Y0082028D01*
X0078740Y0082064D01*
X0078757Y0082102D01*
X0078770Y0082140D01*
X0078779Y0082180D01*
X0078785Y0082221D01*
X0078787Y0082262D01*
X0078787Y0082929D01*
X0077899Y0082929D02*
X0077899Y0082595D01*
X0077899Y0082929D02*
X0076787Y0082929D01*
X0065882Y0088736D02*
X0063079Y0088736D01*
X0063079Y0092087D02*
X0065882Y0092087D01*
X0099729Y0087646D02*
X0101062Y0085646D01*
X0101979Y0085646D02*
X0102423Y0086535D01*
X0102534Y0086535D02*
X0103090Y0086535D01*
X0102534Y0086534D02*
X0102488Y0086536D01*
X0102442Y0086542D01*
X0102398Y0086551D01*
X0102353Y0086564D01*
X0102311Y0086581D01*
X0102269Y0086601D01*
X0102230Y0086625D01*
X0102192Y0086651D01*
X0102157Y0086681D01*
X0102125Y0086713D01*
X0102095Y0086748D01*
X0102069Y0086786D01*
X0102045Y0086825D01*
X0102025Y0086867D01*
X0102008Y0086909D01*
X0101995Y0086954D01*
X0101986Y0086998D01*
X0101980Y0087044D01*
X0101978Y0087090D01*
X0101980Y0087136D01*
X0101986Y0087182D01*
X0101995Y0087226D01*
X0102008Y0087271D01*
X0102025Y0087313D01*
X0102045Y0087355D01*
X0102069Y0087394D01*
X0102095Y0087432D01*
X0102125Y0087467D01*
X0102157Y0087499D01*
X0102192Y0087529D01*
X0102230Y0087555D01*
X0102269Y0087579D01*
X0102311Y0087599D01*
X0102353Y0087616D01*
X0102398Y0087629D01*
X0102442Y0087638D01*
X0102488Y0087644D01*
X0102534Y0087646D01*
X0103090Y0087646D01*
X0103090Y0085646D01*
X0101062Y0087646D02*
X0099729Y0085646D01*
X0107664Y0085646D02*
X0108998Y0087646D01*
X0109791Y0087646D02*
X0110903Y0087646D01*
X0110347Y0087646D02*
X0110347Y0085646D01*
X0108998Y0085646D02*
X0107664Y0087646D01*
D12*
X0083620Y0069345D02*
X0083620Y0066545D01*
X0083693Y0047815D02*
X0083693Y0045015D01*
X0085093Y0046415D02*
X0082293Y0046415D01*
X0101372Y0039087D02*
X0104754Y0039087D01*
X0100272Y0035143D02*
X0100272Y0033030D01*
X0101372Y0029087D02*
X0104754Y0029087D01*
D13*
X0112236Y0026606D02*
X0112236Y0061055D01*
X0112236Y0062039D01*
X0113220Y0063024D01*
X0111252Y0063024D01*
X0112236Y0062039D01*
X0112236Y0061055D02*
X0110268Y0063024D01*
X0111252Y0063024D01*
X0110268Y0063024D02*
X0109283Y0064008D01*
X0112236Y0064008D01*
X0114205Y0065976D01*
X0114205Y0064992D01*
X0113220Y0064008D01*
X0114205Y0064008D01*
X0113220Y0063024D01*
X0113220Y0064008D02*
X0112236Y0064008D01*
X0114205Y0064008D02*
X0114205Y0064992D01*
X0114205Y0065976D02*
X0114205Y0074835D01*
X0114205Y0078772D02*
X0075819Y0078772D01*
X0072866Y0081724D01*
X0072866Y0083693D01*
X0086646Y0074835D02*
X0088614Y0072866D01*
X0088614Y0074835D01*
X0086646Y0074835D01*
X0088614Y0072866D02*
X0088614Y0065976D01*
X0090583Y0064008D01*
X0109283Y0064008D01*
D14*
X0090603Y0059403D03*
X0090603Y0054803D03*
X0090012Y0036135D03*
X0090012Y0031535D03*
D15*
X0093849Y0033319D02*
X0093884Y0033396D01*
X0093916Y0033474D01*
X0093944Y0033554D01*
X0093969Y0033634D01*
X0093989Y0033716D01*
X0094006Y0033799D01*
X0094020Y0033882D01*
X0094029Y0033966D01*
X0094035Y0034050D01*
X0094037Y0034134D01*
X0092784Y0034134D02*
X0092786Y0034218D01*
X0092792Y0034302D01*
X0092801Y0034386D01*
X0092815Y0034469D01*
X0092832Y0034552D01*
X0092852Y0034634D01*
X0092877Y0034714D01*
X0092905Y0034794D01*
X0092937Y0034872D01*
X0092972Y0034949D01*
X0092909Y0034760D02*
X0093912Y0033507D01*
X0093411Y0033006D02*
X0093370Y0033008D01*
X0093329Y0033013D01*
X0093289Y0033022D01*
X0093250Y0033035D01*
X0093212Y0033051D01*
X0093176Y0033070D01*
X0093141Y0033092D01*
X0093109Y0033118D01*
X0093079Y0033146D01*
X0093052Y0033177D01*
X0093027Y0033209D01*
X0093005Y0033244D01*
X0092987Y0033281D01*
X0092972Y0033320D01*
X0093411Y0033006D02*
X0093452Y0033008D01*
X0093493Y0033013D01*
X0093533Y0033022D01*
X0093572Y0033035D01*
X0093610Y0033051D01*
X0093646Y0033070D01*
X0093681Y0033092D01*
X0093713Y0033118D01*
X0093743Y0033146D01*
X0093770Y0033177D01*
X0093795Y0033209D01*
X0093817Y0033244D01*
X0093835Y0033281D01*
X0093850Y0033320D01*
X0092972Y0033319D02*
X0092937Y0033396D01*
X0092905Y0033474D01*
X0092877Y0033554D01*
X0092852Y0033634D01*
X0092832Y0033716D01*
X0092815Y0033799D01*
X0092801Y0033882D01*
X0092792Y0033966D01*
X0092786Y0034050D01*
X0092784Y0034134D01*
X0094037Y0034134D02*
X0094035Y0034218D01*
X0094029Y0034302D01*
X0094020Y0034386D01*
X0094006Y0034469D01*
X0093989Y0034552D01*
X0093969Y0034634D01*
X0093944Y0034714D01*
X0093916Y0034794D01*
X0093884Y0034872D01*
X0093849Y0034949D01*
X0093411Y0035262D02*
X0093370Y0035260D01*
X0093329Y0035255D01*
X0093289Y0035246D01*
X0093250Y0035233D01*
X0093212Y0035217D01*
X0093176Y0035198D01*
X0093141Y0035176D01*
X0093109Y0035150D01*
X0093079Y0035122D01*
X0093052Y0035091D01*
X0093027Y0035059D01*
X0093005Y0035024D01*
X0092987Y0034987D01*
X0092972Y0034948D01*
X0093411Y0035262D02*
X0093452Y0035260D01*
X0093493Y0035255D01*
X0093533Y0035246D01*
X0093572Y0035233D01*
X0093610Y0035217D01*
X0093646Y0035198D01*
X0093681Y0035176D01*
X0093713Y0035150D01*
X0093743Y0035122D01*
X0093770Y0035091D01*
X0093795Y0035058D01*
X0093817Y0035023D01*
X0093835Y0034987D01*
X0093850Y0034948D01*
X0095452Y0034259D02*
X0096518Y0033006D01*
X0095264Y0033006D01*
X0097594Y0033006D02*
X0098095Y0033006D01*
X0098139Y0033008D01*
X0098182Y0033014D01*
X0098225Y0033023D01*
X0098266Y0033036D01*
X0098307Y0033053D01*
X0098346Y0033073D01*
X0098382Y0033097D01*
X0098417Y0033123D01*
X0098449Y0033153D01*
X0098479Y0033185D01*
X0098505Y0033220D01*
X0098529Y0033257D01*
X0098549Y0033295D01*
X0098566Y0033336D01*
X0098579Y0033377D01*
X0098588Y0033420D01*
X0098594Y0033463D01*
X0098596Y0033507D01*
X0098596Y0034760D01*
X0098594Y0034804D01*
X0098588Y0034847D01*
X0098579Y0034890D01*
X0098566Y0034931D01*
X0098549Y0034972D01*
X0098529Y0035011D01*
X0098505Y0035047D01*
X0098479Y0035082D01*
X0098449Y0035114D01*
X0098417Y0035144D01*
X0098382Y0035170D01*
X0098346Y0035194D01*
X0098307Y0035214D01*
X0098266Y0035231D01*
X0098225Y0035244D01*
X0098182Y0035253D01*
X0098139Y0035259D01*
X0098095Y0035261D01*
X0098095Y0035262D02*
X0097594Y0035262D01*
X0095452Y0034259D02*
X0095421Y0034291D01*
X0095392Y0034325D01*
X0095366Y0034361D01*
X0095343Y0034399D01*
X0095322Y0034439D01*
X0095305Y0034480D01*
X0095290Y0034522D01*
X0095279Y0034565D01*
X0095271Y0034609D01*
X0095266Y0034653D01*
X0095264Y0034698D01*
X0095266Y0034745D01*
X0095272Y0034791D01*
X0095281Y0034836D01*
X0095295Y0034881D01*
X0095312Y0034925D01*
X0095332Y0034966D01*
X0095356Y0035006D01*
X0095383Y0035044D01*
X0095413Y0035080D01*
X0095446Y0035113D01*
X0095482Y0035143D01*
X0095520Y0035170D01*
X0095560Y0035194D01*
X0095601Y0035214D01*
X0095645Y0035231D01*
X0095690Y0035245D01*
X0095735Y0035254D01*
X0095781Y0035260D01*
X0095828Y0035262D01*
X0095879Y0035260D01*
X0095929Y0035255D01*
X0095979Y0035246D01*
X0096028Y0035234D01*
X0096076Y0035218D01*
X0096123Y0035199D01*
X0096169Y0035177D01*
X0096212Y0035152D01*
X0096254Y0035123D01*
X0096294Y0035092D01*
X0096332Y0035058D01*
X0096367Y0035022D01*
X0096400Y0034983D01*
X0096429Y0034942D01*
X0096456Y0034899D01*
X0096480Y0034854D01*
X0096500Y0034808D01*
X0096518Y0034760D01*
X0084992Y0037157D02*
X0084992Y0031055D01*
X0084992Y0037157D02*
X0083417Y0037157D01*
X0084992Y0037157D02*
X0055858Y0037157D01*
X0055858Y0030661D01*
X0052577Y0028562D02*
X0050321Y0028562D01*
X0050321Y0029188D02*
X0050321Y0027935D01*
X0052075Y0027935D02*
X0052577Y0028562D01*
X0052577Y0026224D02*
X0052577Y0025597D01*
X0050321Y0025597D01*
X0050321Y0026224D01*
X0050323Y0026273D01*
X0050329Y0026322D01*
X0050338Y0026370D01*
X0050352Y0026418D01*
X0050369Y0026464D01*
X0050389Y0026509D01*
X0050413Y0026552D01*
X0050441Y0026593D01*
X0050471Y0026631D01*
X0050505Y0026667D01*
X0050541Y0026701D01*
X0050579Y0026731D01*
X0050620Y0026759D01*
X0050663Y0026783D01*
X0050708Y0026803D01*
X0050754Y0026820D01*
X0050802Y0026834D01*
X0050850Y0026843D01*
X0050899Y0026849D01*
X0050948Y0026851D01*
X0050997Y0026849D01*
X0051046Y0026843D01*
X0051094Y0026834D01*
X0051142Y0026820D01*
X0051188Y0026803D01*
X0051233Y0026783D01*
X0051276Y0026759D01*
X0051317Y0026731D01*
X0051355Y0026701D01*
X0051391Y0026667D01*
X0051425Y0026631D01*
X0051455Y0026593D01*
X0051483Y0026552D01*
X0051507Y0026509D01*
X0051527Y0026464D01*
X0051544Y0026418D01*
X0051558Y0026370D01*
X0051567Y0026322D01*
X0051573Y0026273D01*
X0051575Y0026224D01*
X0051574Y0026224D02*
X0051574Y0025597D01*
X0051574Y0026224D02*
X0051576Y0026268D01*
X0051582Y0026311D01*
X0051591Y0026354D01*
X0051604Y0026395D01*
X0051621Y0026436D01*
X0051641Y0026475D01*
X0051665Y0026511D01*
X0051691Y0026546D01*
X0051721Y0026578D01*
X0051753Y0026608D01*
X0051788Y0026634D01*
X0051825Y0026658D01*
X0051863Y0026678D01*
X0051904Y0026695D01*
X0051945Y0026708D01*
X0051988Y0026717D01*
X0052031Y0026723D01*
X0052075Y0026725D01*
X0052119Y0026723D01*
X0052162Y0026717D01*
X0052205Y0026708D01*
X0052246Y0026695D01*
X0052287Y0026678D01*
X0052326Y0026658D01*
X0052362Y0026634D01*
X0052397Y0026608D01*
X0052429Y0026578D01*
X0052459Y0026546D01*
X0052485Y0026511D01*
X0052509Y0026475D01*
X0052529Y0026436D01*
X0052546Y0026395D01*
X0052559Y0026354D01*
X0052568Y0026311D01*
X0052574Y0026268D01*
X0052576Y0026224D01*
X0051261Y0024060D02*
X0051637Y0023370D01*
X0052577Y0023621D02*
X0052575Y0023681D01*
X0052569Y0023742D01*
X0052560Y0023801D01*
X0052546Y0023860D01*
X0052529Y0023918D01*
X0052508Y0023975D01*
X0052483Y0024030D01*
X0052455Y0024084D01*
X0052424Y0024135D01*
X0052389Y0024185D01*
X0051636Y0023371D02*
X0051660Y0023334D01*
X0051688Y0023299D01*
X0051717Y0023267D01*
X0051750Y0023237D01*
X0051785Y0023211D01*
X0051822Y0023187D01*
X0051862Y0023167D01*
X0051902Y0023150D01*
X0051944Y0023137D01*
X0051987Y0023128D01*
X0052031Y0023122D01*
X0052075Y0023120D01*
X0052119Y0023122D01*
X0052162Y0023128D01*
X0052205Y0023137D01*
X0052246Y0023150D01*
X0052287Y0023167D01*
X0052326Y0023187D01*
X0052362Y0023211D01*
X0052397Y0023237D01*
X0052429Y0023267D01*
X0052459Y0023299D01*
X0052485Y0023334D01*
X0052509Y0023371D01*
X0052529Y0023409D01*
X0052546Y0023450D01*
X0052559Y0023491D01*
X0052568Y0023534D01*
X0052574Y0023577D01*
X0052576Y0023621D01*
X0050634Y0023057D02*
X0050590Y0023104D01*
X0050549Y0023153D01*
X0050510Y0023205D01*
X0050475Y0023259D01*
X0050444Y0023314D01*
X0050415Y0023372D01*
X0050391Y0023432D01*
X0050369Y0023492D01*
X0050352Y0023554D01*
X0050339Y0023617D01*
X0050329Y0023681D01*
X0050323Y0023745D01*
X0050321Y0023809D01*
X0050323Y0023853D01*
X0050329Y0023896D01*
X0050338Y0023939D01*
X0050351Y0023980D01*
X0050368Y0024021D01*
X0050388Y0024060D01*
X0050412Y0024096D01*
X0050438Y0024131D01*
X0050468Y0024163D01*
X0050500Y0024193D01*
X0050535Y0024219D01*
X0050572Y0024243D01*
X0050610Y0024263D01*
X0050651Y0024280D01*
X0050692Y0024293D01*
X0050735Y0024302D01*
X0050778Y0024308D01*
X0050822Y0024310D01*
X0050866Y0024308D01*
X0050910Y0024302D01*
X0050953Y0024293D01*
X0050995Y0024280D01*
X0051035Y0024263D01*
X0051075Y0024243D01*
X0051112Y0024219D01*
X0051147Y0024193D01*
X0051179Y0024163D01*
X0051209Y0024131D01*
X0051237Y0024096D01*
X0051261Y0024059D01*
X0050948Y0021830D02*
X0052577Y0021830D01*
X0052577Y0020577D02*
X0050948Y0020577D01*
X0050948Y0020576D02*
X0050899Y0020578D01*
X0050850Y0020584D01*
X0050802Y0020593D01*
X0050754Y0020607D01*
X0050708Y0020624D01*
X0050663Y0020644D01*
X0050620Y0020668D01*
X0050579Y0020696D01*
X0050541Y0020726D01*
X0050505Y0020760D01*
X0050471Y0020796D01*
X0050441Y0020834D01*
X0050413Y0020875D01*
X0050389Y0020918D01*
X0050369Y0020963D01*
X0050352Y0021009D01*
X0050338Y0021057D01*
X0050329Y0021105D01*
X0050323Y0021154D01*
X0050321Y0021203D01*
X0050323Y0021252D01*
X0050329Y0021301D01*
X0050338Y0021349D01*
X0050352Y0021397D01*
X0050369Y0021443D01*
X0050389Y0021488D01*
X0050413Y0021531D01*
X0050441Y0021572D01*
X0050471Y0021610D01*
X0050505Y0021646D01*
X0050541Y0021680D01*
X0050579Y0021710D01*
X0050620Y0021738D01*
X0050663Y0021762D01*
X0050708Y0021782D01*
X0050754Y0021799D01*
X0050802Y0021813D01*
X0050850Y0021822D01*
X0050899Y0021828D01*
X0050948Y0021830D01*
X0055858Y0021213D02*
X0055858Y0017669D01*
X0055858Y0017472D02*
X0084992Y0017472D01*
X0086370Y0015110D01*
X0054480Y0015110D01*
X0055858Y0017472D01*
X0055858Y0037157D01*
X0057827Y0037157D01*
X0048472Y0032697D02*
X0048472Y0032303D01*
X0042961Y0032303D01*
X0042961Y0032697D02*
X0048472Y0032697D01*
X0042764Y0032697D02*
X0042764Y0021870D01*
X0022685Y0021870D01*
X0022685Y0092343D01*
X0042764Y0092343D01*
X0042764Y0080925D01*
X0044652Y0084425D02*
X0044652Y0085052D01*
X0044651Y0085052D02*
X0044653Y0085101D01*
X0044659Y0085150D01*
X0044668Y0085198D01*
X0044682Y0085246D01*
X0044699Y0085292D01*
X0044719Y0085337D01*
X0044743Y0085380D01*
X0044771Y0085421D01*
X0044801Y0085459D01*
X0044835Y0085495D01*
X0044871Y0085529D01*
X0044909Y0085559D01*
X0044950Y0085587D01*
X0044993Y0085611D01*
X0045038Y0085631D01*
X0045084Y0085648D01*
X0045132Y0085662D01*
X0045180Y0085671D01*
X0045229Y0085677D01*
X0045278Y0085679D01*
X0045278Y0085678D02*
X0046281Y0085678D01*
X0046281Y0085679D02*
X0046330Y0085677D01*
X0046379Y0085671D01*
X0046427Y0085662D01*
X0046475Y0085648D01*
X0046521Y0085631D01*
X0046566Y0085611D01*
X0046609Y0085587D01*
X0046650Y0085559D01*
X0046688Y0085529D01*
X0046724Y0085495D01*
X0046758Y0085459D01*
X0046788Y0085421D01*
X0046816Y0085380D01*
X0046840Y0085337D01*
X0046860Y0085292D01*
X0046877Y0085246D01*
X0046891Y0085198D01*
X0046900Y0085150D01*
X0046906Y0085101D01*
X0046908Y0085052D01*
X0046907Y0085052D02*
X0046907Y0084425D01*
X0044652Y0084425D01*
X0044652Y0086868D02*
X0044652Y0087369D01*
X0044652Y0087118D02*
X0046907Y0087118D01*
X0046907Y0086868D02*
X0046907Y0087369D01*
X0045968Y0088707D02*
X0045592Y0089396D01*
X0044652Y0089145D02*
X0044654Y0089081D01*
X0044660Y0089017D01*
X0044670Y0088953D01*
X0044683Y0088890D01*
X0044700Y0088828D01*
X0044722Y0088768D01*
X0044746Y0088708D01*
X0044775Y0088650D01*
X0044806Y0088595D01*
X0044841Y0088541D01*
X0044880Y0088489D01*
X0044921Y0088440D01*
X0044965Y0088393D01*
X0045592Y0089395D02*
X0045568Y0089432D01*
X0045540Y0089467D01*
X0045510Y0089499D01*
X0045478Y0089529D01*
X0045443Y0089555D01*
X0045406Y0089579D01*
X0045366Y0089599D01*
X0045326Y0089616D01*
X0045284Y0089629D01*
X0045241Y0089638D01*
X0045197Y0089644D01*
X0045153Y0089646D01*
X0045109Y0089644D01*
X0045066Y0089638D01*
X0045023Y0089629D01*
X0044982Y0089616D01*
X0044941Y0089599D01*
X0044903Y0089579D01*
X0044866Y0089555D01*
X0044831Y0089529D01*
X0044799Y0089499D01*
X0044769Y0089467D01*
X0044743Y0089432D01*
X0044719Y0089396D01*
X0044699Y0089357D01*
X0044682Y0089316D01*
X0044669Y0089275D01*
X0044660Y0089232D01*
X0044654Y0089189D01*
X0044652Y0089145D01*
X0046719Y0089521D02*
X0046754Y0089471D01*
X0046785Y0089420D01*
X0046813Y0089366D01*
X0046838Y0089311D01*
X0046859Y0089254D01*
X0046876Y0089196D01*
X0046890Y0089137D01*
X0046899Y0089078D01*
X0046905Y0089017D01*
X0046907Y0088957D01*
X0046905Y0088913D01*
X0046899Y0088870D01*
X0046890Y0088827D01*
X0046877Y0088786D01*
X0046860Y0088745D01*
X0046840Y0088707D01*
X0046816Y0088670D01*
X0046790Y0088635D01*
X0046760Y0088603D01*
X0046728Y0088573D01*
X0046693Y0088547D01*
X0046657Y0088523D01*
X0046618Y0088503D01*
X0046577Y0088486D01*
X0046536Y0088473D01*
X0046493Y0088464D01*
X0046450Y0088458D01*
X0046406Y0088456D01*
X0046362Y0088458D01*
X0046318Y0088464D01*
X0046275Y0088473D01*
X0046233Y0088486D01*
X0046193Y0088503D01*
X0046153Y0088523D01*
X0046116Y0088547D01*
X0046081Y0088573D01*
X0046048Y0088603D01*
X0046019Y0088635D01*
X0045991Y0088670D01*
X0045967Y0088707D01*
X0045654Y0090934D02*
X0045654Y0091560D01*
X0045656Y0091609D01*
X0045662Y0091658D01*
X0045671Y0091706D01*
X0045685Y0091754D01*
X0045702Y0091800D01*
X0045722Y0091845D01*
X0045746Y0091888D01*
X0045774Y0091929D01*
X0045804Y0091967D01*
X0045838Y0092003D01*
X0045874Y0092037D01*
X0045912Y0092067D01*
X0045953Y0092095D01*
X0045996Y0092119D01*
X0046041Y0092139D01*
X0046087Y0092156D01*
X0046135Y0092170D01*
X0046183Y0092179D01*
X0046232Y0092185D01*
X0046281Y0092187D01*
X0046330Y0092185D01*
X0046379Y0092179D01*
X0046427Y0092170D01*
X0046475Y0092156D01*
X0046521Y0092139D01*
X0046566Y0092119D01*
X0046609Y0092095D01*
X0046650Y0092067D01*
X0046688Y0092037D01*
X0046724Y0092003D01*
X0046758Y0091967D01*
X0046788Y0091929D01*
X0046816Y0091888D01*
X0046840Y0091845D01*
X0046860Y0091800D01*
X0046877Y0091754D01*
X0046891Y0091706D01*
X0046900Y0091658D01*
X0046906Y0091609D01*
X0046908Y0091560D01*
X0046907Y0091560D02*
X0046907Y0090934D01*
X0044652Y0090934D01*
X0054959Y0091234D02*
X0054959Y0089981D01*
X0056212Y0091046D01*
X0057215Y0090670D02*
X0057213Y0090619D01*
X0057208Y0090569D01*
X0057199Y0090519D01*
X0057187Y0090470D01*
X0057171Y0090422D01*
X0057152Y0090375D01*
X0057130Y0090329D01*
X0057105Y0090286D01*
X0057076Y0090244D01*
X0057045Y0090204D01*
X0057011Y0090166D01*
X0056975Y0090131D01*
X0056936Y0090098D01*
X0056895Y0090069D01*
X0056852Y0090042D01*
X0056807Y0090018D01*
X0056761Y0089998D01*
X0056713Y0089980D01*
X0056212Y0091046D02*
X0056244Y0091077D01*
X0056278Y0091106D01*
X0056314Y0091132D01*
X0056352Y0091155D01*
X0056392Y0091176D01*
X0056433Y0091193D01*
X0056475Y0091208D01*
X0056518Y0091219D01*
X0056562Y0091227D01*
X0056606Y0091232D01*
X0056651Y0091234D01*
X0056698Y0091232D01*
X0056744Y0091226D01*
X0056789Y0091217D01*
X0056834Y0091203D01*
X0056878Y0091186D01*
X0056919Y0091166D01*
X0056959Y0091142D01*
X0056997Y0091115D01*
X0057033Y0091085D01*
X0057066Y0091052D01*
X0057096Y0091016D01*
X0057123Y0090978D01*
X0057147Y0090938D01*
X0057167Y0090897D01*
X0057184Y0090853D01*
X0057198Y0090808D01*
X0057207Y0090763D01*
X0057213Y0090717D01*
X0057215Y0090670D01*
X0054959Y0092461D02*
X0054959Y0093715D01*
X0054959Y0092461D02*
X0056212Y0093527D01*
X0057215Y0093151D02*
X0057213Y0093100D01*
X0057208Y0093050D01*
X0057199Y0093000D01*
X0057187Y0092951D01*
X0057171Y0092903D01*
X0057152Y0092856D01*
X0057130Y0092810D01*
X0057105Y0092767D01*
X0057076Y0092725D01*
X0057045Y0092685D01*
X0057011Y0092647D01*
X0056975Y0092612D01*
X0056936Y0092579D01*
X0056895Y0092550D01*
X0056852Y0092523D01*
X0056807Y0092499D01*
X0056761Y0092479D01*
X0056713Y0092461D01*
X0056212Y0093527D02*
X0056244Y0093558D01*
X0056278Y0093587D01*
X0056314Y0093613D01*
X0056352Y0093636D01*
X0056392Y0093657D01*
X0056433Y0093674D01*
X0056475Y0093689D01*
X0056518Y0093700D01*
X0056562Y0093708D01*
X0056606Y0093713D01*
X0056651Y0093715D01*
X0056698Y0093713D01*
X0056744Y0093707D01*
X0056789Y0093698D01*
X0056834Y0093684D01*
X0056878Y0093667D01*
X0056919Y0093647D01*
X0056959Y0093623D01*
X0056997Y0093596D01*
X0057033Y0093566D01*
X0057066Y0093533D01*
X0057096Y0093497D01*
X0057123Y0093459D01*
X0057147Y0093419D01*
X0057167Y0093378D01*
X0057184Y0093334D01*
X0057198Y0093289D01*
X0057207Y0093244D01*
X0057213Y0093198D01*
X0057215Y0093151D01*
X0057215Y0088905D02*
X0057215Y0088404D01*
X0057214Y0088404D02*
X0057212Y0088360D01*
X0057206Y0088317D01*
X0057197Y0088274D01*
X0057184Y0088233D01*
X0057167Y0088192D01*
X0057147Y0088153D01*
X0057123Y0088117D01*
X0057097Y0088082D01*
X0057067Y0088050D01*
X0057035Y0088020D01*
X0057000Y0087994D01*
X0056963Y0087970D01*
X0056925Y0087950D01*
X0056884Y0087933D01*
X0056843Y0087920D01*
X0056800Y0087911D01*
X0056757Y0087905D01*
X0056713Y0087903D01*
X0056713Y0087902D02*
X0055460Y0087902D01*
X0055460Y0087903D02*
X0055416Y0087905D01*
X0055373Y0087911D01*
X0055330Y0087920D01*
X0055289Y0087933D01*
X0055248Y0087950D01*
X0055210Y0087970D01*
X0055173Y0087994D01*
X0055138Y0088020D01*
X0055106Y0088050D01*
X0055076Y0088082D01*
X0055050Y0088117D01*
X0055026Y0088154D01*
X0055006Y0088192D01*
X0054989Y0088233D01*
X0054976Y0088274D01*
X0054967Y0088317D01*
X0054961Y0088360D01*
X0054959Y0088404D01*
X0054959Y0088905D01*
X0052293Y0073951D02*
X0052293Y0072698D01*
X0052293Y0073324D02*
X0054549Y0073324D01*
X0054048Y0072698D01*
X0054550Y0070870D02*
X0054548Y0070919D01*
X0054542Y0070968D01*
X0054533Y0071016D01*
X0054519Y0071064D01*
X0054502Y0071110D01*
X0054482Y0071155D01*
X0054458Y0071198D01*
X0054430Y0071239D01*
X0054400Y0071277D01*
X0054366Y0071313D01*
X0054330Y0071347D01*
X0054292Y0071377D01*
X0054251Y0071405D01*
X0054208Y0071429D01*
X0054163Y0071449D01*
X0054117Y0071466D01*
X0054069Y0071480D01*
X0054021Y0071489D01*
X0053972Y0071495D01*
X0053923Y0071497D01*
X0053874Y0071495D01*
X0053825Y0071489D01*
X0053777Y0071480D01*
X0053729Y0071466D01*
X0053683Y0071449D01*
X0053638Y0071429D01*
X0053595Y0071405D01*
X0053554Y0071377D01*
X0053516Y0071347D01*
X0053480Y0071313D01*
X0053446Y0071277D01*
X0053416Y0071239D01*
X0053388Y0071198D01*
X0053364Y0071155D01*
X0053344Y0071110D01*
X0053327Y0071064D01*
X0053313Y0071016D01*
X0053304Y0070968D01*
X0053298Y0070919D01*
X0053296Y0070870D01*
X0053296Y0070243D01*
X0053296Y0070995D02*
X0052293Y0071497D01*
X0052293Y0070243D02*
X0054549Y0070243D01*
X0054549Y0070870D01*
X0072213Y0071659D02*
X0073466Y0071659D01*
X0072401Y0072913D01*
X0072777Y0073916D02*
X0072828Y0073914D01*
X0072878Y0073909D01*
X0072928Y0073900D01*
X0072977Y0073888D01*
X0073025Y0073872D01*
X0073072Y0073853D01*
X0073118Y0073831D01*
X0073161Y0073806D01*
X0073203Y0073777D01*
X0073243Y0073746D01*
X0073281Y0073712D01*
X0073316Y0073676D01*
X0073349Y0073637D01*
X0073378Y0073596D01*
X0073405Y0073553D01*
X0073429Y0073508D01*
X0073449Y0073462D01*
X0073467Y0073414D01*
X0072401Y0072912D02*
X0072370Y0072944D01*
X0072341Y0072978D01*
X0072315Y0073014D01*
X0072292Y0073052D01*
X0072271Y0073092D01*
X0072254Y0073133D01*
X0072239Y0073175D01*
X0072228Y0073218D01*
X0072220Y0073262D01*
X0072215Y0073306D01*
X0072213Y0073351D01*
X0072215Y0073398D01*
X0072221Y0073444D01*
X0072230Y0073489D01*
X0072244Y0073534D01*
X0072261Y0073578D01*
X0072281Y0073619D01*
X0072305Y0073659D01*
X0072332Y0073697D01*
X0072362Y0073733D01*
X0072395Y0073766D01*
X0072431Y0073796D01*
X0072469Y0073823D01*
X0072509Y0073847D01*
X0072550Y0073867D01*
X0072594Y0073884D01*
X0072639Y0073898D01*
X0072684Y0073907D01*
X0072730Y0073913D01*
X0072777Y0073915D01*
X0074542Y0073915D02*
X0075044Y0073915D01*
X0075088Y0073913D01*
X0075131Y0073907D01*
X0075174Y0073898D01*
X0075215Y0073885D01*
X0075256Y0073868D01*
X0075295Y0073848D01*
X0075331Y0073824D01*
X0075366Y0073798D01*
X0075398Y0073768D01*
X0075428Y0073736D01*
X0075454Y0073701D01*
X0075478Y0073665D01*
X0075498Y0073626D01*
X0075515Y0073585D01*
X0075528Y0073544D01*
X0075537Y0073501D01*
X0075543Y0073458D01*
X0075545Y0073414D01*
X0075545Y0072161D01*
X0075543Y0072117D01*
X0075537Y0072074D01*
X0075528Y0072031D01*
X0075515Y0071990D01*
X0075498Y0071949D01*
X0075478Y0071911D01*
X0075454Y0071874D01*
X0075428Y0071839D01*
X0075398Y0071807D01*
X0075366Y0071777D01*
X0075331Y0071751D01*
X0075295Y0071727D01*
X0075256Y0071707D01*
X0075215Y0071690D01*
X0075174Y0071677D01*
X0075131Y0071668D01*
X0075088Y0071662D01*
X0075044Y0071660D01*
X0075044Y0071659D02*
X0074542Y0071659D01*
X0076640Y0071659D02*
X0077141Y0071659D01*
X0076891Y0071659D02*
X0076891Y0073915D01*
X0077141Y0073915D02*
X0076640Y0073915D01*
X0077100Y0069169D02*
X0077100Y0067915D01*
X0077100Y0068542D02*
X0079356Y0068542D01*
X0078855Y0067915D01*
X0078354Y0066500D02*
X0077100Y0065435D01*
X0077100Y0066688D01*
X0078855Y0065434D02*
X0078903Y0065452D01*
X0078949Y0065472D01*
X0078994Y0065496D01*
X0079037Y0065523D01*
X0079078Y0065552D01*
X0079117Y0065585D01*
X0079153Y0065620D01*
X0079187Y0065658D01*
X0079218Y0065698D01*
X0079247Y0065740D01*
X0079272Y0065783D01*
X0079294Y0065829D01*
X0079313Y0065876D01*
X0079329Y0065924D01*
X0079341Y0065973D01*
X0079350Y0066023D01*
X0079355Y0066073D01*
X0079357Y0066124D01*
X0079356Y0066124D02*
X0079354Y0066171D01*
X0079348Y0066217D01*
X0079339Y0066262D01*
X0079325Y0066307D01*
X0079308Y0066351D01*
X0079288Y0066392D01*
X0079264Y0066432D01*
X0079237Y0066470D01*
X0079207Y0066506D01*
X0079174Y0066539D01*
X0079138Y0066569D01*
X0079100Y0066596D01*
X0079060Y0066620D01*
X0079019Y0066640D01*
X0078975Y0066657D01*
X0078930Y0066671D01*
X0078885Y0066680D01*
X0078839Y0066686D01*
X0078792Y0066688D01*
X0078792Y0066689D02*
X0078747Y0066687D01*
X0078703Y0066682D01*
X0078659Y0066674D01*
X0078616Y0066663D01*
X0078574Y0066648D01*
X0078533Y0066631D01*
X0078493Y0066610D01*
X0078455Y0066587D01*
X0078419Y0066561D01*
X0078385Y0066532D01*
X0078353Y0066501D01*
X0079356Y0064359D02*
X0079356Y0063858D01*
X0079354Y0063814D01*
X0079348Y0063771D01*
X0079339Y0063728D01*
X0079326Y0063687D01*
X0079309Y0063646D01*
X0079289Y0063607D01*
X0079265Y0063571D01*
X0079239Y0063536D01*
X0079209Y0063504D01*
X0079177Y0063474D01*
X0079142Y0063448D01*
X0079105Y0063424D01*
X0079067Y0063404D01*
X0079026Y0063387D01*
X0078985Y0063374D01*
X0078942Y0063365D01*
X0078899Y0063359D01*
X0078855Y0063357D01*
X0078855Y0063356D02*
X0077602Y0063356D01*
X0077602Y0063357D02*
X0077558Y0063359D01*
X0077515Y0063365D01*
X0077472Y0063374D01*
X0077431Y0063387D01*
X0077390Y0063404D01*
X0077352Y0063424D01*
X0077315Y0063448D01*
X0077280Y0063474D01*
X0077248Y0063504D01*
X0077218Y0063536D01*
X0077192Y0063571D01*
X0077168Y0063608D01*
X0077148Y0063646D01*
X0077131Y0063687D01*
X0077118Y0063728D01*
X0077109Y0063771D01*
X0077103Y0063814D01*
X0077101Y0063858D01*
X0077100Y0063858D02*
X0077100Y0064359D01*
X0094620Y0057594D02*
X0094620Y0056341D01*
X0094620Y0056967D02*
X0096876Y0056967D01*
X0096375Y0056341D01*
X0096876Y0055264D02*
X0096876Y0054763D01*
X0096874Y0054719D01*
X0096868Y0054676D01*
X0096859Y0054633D01*
X0096846Y0054592D01*
X0096829Y0054551D01*
X0096809Y0054512D01*
X0096785Y0054476D01*
X0096759Y0054441D01*
X0096729Y0054409D01*
X0096697Y0054379D01*
X0096662Y0054353D01*
X0096625Y0054329D01*
X0096587Y0054309D01*
X0096546Y0054292D01*
X0096505Y0054279D01*
X0096462Y0054270D01*
X0096419Y0054264D01*
X0096375Y0054262D01*
X0095121Y0054262D01*
X0095077Y0054264D01*
X0095034Y0054270D01*
X0094991Y0054279D01*
X0094950Y0054292D01*
X0094909Y0054309D01*
X0094871Y0054329D01*
X0094834Y0054353D01*
X0094799Y0054379D01*
X0094767Y0054409D01*
X0094737Y0054441D01*
X0094711Y0054476D01*
X0094687Y0054513D01*
X0094667Y0054551D01*
X0094650Y0054592D01*
X0094637Y0054633D01*
X0094628Y0054676D01*
X0094622Y0054719D01*
X0094620Y0054763D01*
X0094620Y0055264D01*
X0096124Y0058821D02*
X0096249Y0058821D01*
X0096124Y0058821D02*
X0096080Y0058823D01*
X0096037Y0058829D01*
X0095994Y0058838D01*
X0095953Y0058851D01*
X0095912Y0058868D01*
X0095874Y0058888D01*
X0095837Y0058912D01*
X0095802Y0058938D01*
X0095770Y0058968D01*
X0095740Y0059000D01*
X0095714Y0059035D01*
X0095690Y0059071D01*
X0095670Y0059110D01*
X0095653Y0059151D01*
X0095640Y0059192D01*
X0095631Y0059235D01*
X0095625Y0059278D01*
X0095623Y0059322D01*
X0095623Y0060074D01*
X0096249Y0060074D01*
X0096298Y0060072D01*
X0096347Y0060066D01*
X0096395Y0060057D01*
X0096443Y0060043D01*
X0096489Y0060026D01*
X0096534Y0060006D01*
X0096577Y0059982D01*
X0096618Y0059954D01*
X0096656Y0059924D01*
X0096692Y0059890D01*
X0096726Y0059854D01*
X0096756Y0059816D01*
X0096784Y0059775D01*
X0096808Y0059732D01*
X0096828Y0059687D01*
X0096845Y0059641D01*
X0096859Y0059593D01*
X0096868Y0059545D01*
X0096874Y0059496D01*
X0096876Y0059447D01*
X0096874Y0059398D01*
X0096868Y0059349D01*
X0096859Y0059301D01*
X0096845Y0059253D01*
X0096828Y0059207D01*
X0096808Y0059162D01*
X0096784Y0059119D01*
X0096756Y0059078D01*
X0096726Y0059040D01*
X0096692Y0059004D01*
X0096656Y0058970D01*
X0096618Y0058940D01*
X0096577Y0058912D01*
X0096534Y0058888D01*
X0096489Y0058868D01*
X0096443Y0058851D01*
X0096395Y0058837D01*
X0096347Y0058828D01*
X0096298Y0058822D01*
X0096249Y0058820D01*
X0095623Y0060074D02*
X0095560Y0060072D01*
X0095497Y0060066D01*
X0095435Y0060056D01*
X0095374Y0060042D01*
X0095313Y0060025D01*
X0095254Y0060004D01*
X0095196Y0059979D01*
X0095140Y0059950D01*
X0095086Y0059918D01*
X0095033Y0059882D01*
X0094984Y0059844D01*
X0094936Y0059802D01*
X0094892Y0059758D01*
X0094850Y0059710D01*
X0094812Y0059661D01*
X0094776Y0059608D01*
X0094744Y0059554D01*
X0094715Y0059498D01*
X0094690Y0059440D01*
X0094669Y0059381D01*
X0094652Y0059320D01*
X0094638Y0059259D01*
X0094628Y0059197D01*
X0094622Y0059134D01*
X0094620Y0059071D01*
X0078448Y0052206D02*
X0078448Y0051203D01*
X0078446Y0051154D01*
X0078440Y0051105D01*
X0078431Y0051057D01*
X0078417Y0051009D01*
X0078400Y0050963D01*
X0078380Y0050918D01*
X0078356Y0050875D01*
X0078328Y0050834D01*
X0078298Y0050796D01*
X0078264Y0050760D01*
X0078228Y0050726D01*
X0078190Y0050696D01*
X0078149Y0050668D01*
X0078106Y0050644D01*
X0078061Y0050624D01*
X0078015Y0050607D01*
X0077967Y0050593D01*
X0077919Y0050584D01*
X0077870Y0050578D01*
X0077821Y0050576D01*
X0077772Y0050578D01*
X0077723Y0050584D01*
X0077675Y0050593D01*
X0077627Y0050607D01*
X0077581Y0050624D01*
X0077536Y0050644D01*
X0077493Y0050668D01*
X0077452Y0050696D01*
X0077414Y0050726D01*
X0077378Y0050760D01*
X0077344Y0050796D01*
X0077314Y0050834D01*
X0077286Y0050875D01*
X0077262Y0050918D01*
X0077242Y0050963D01*
X0077225Y0051009D01*
X0077211Y0051057D01*
X0077202Y0051105D01*
X0077196Y0051154D01*
X0077194Y0051203D01*
X0077195Y0051203D02*
X0077195Y0052206D01*
X0077194Y0052206D02*
X0077196Y0052255D01*
X0077202Y0052304D01*
X0077211Y0052352D01*
X0077225Y0052400D01*
X0077242Y0052446D01*
X0077262Y0052491D01*
X0077286Y0052534D01*
X0077314Y0052575D01*
X0077344Y0052613D01*
X0077378Y0052649D01*
X0077414Y0052683D01*
X0077452Y0052713D01*
X0077493Y0052741D01*
X0077536Y0052765D01*
X0077581Y0052785D01*
X0077627Y0052802D01*
X0077675Y0052816D01*
X0077723Y0052825D01*
X0077772Y0052831D01*
X0077821Y0052833D01*
X0077870Y0052831D01*
X0077919Y0052825D01*
X0077967Y0052816D01*
X0078015Y0052802D01*
X0078061Y0052785D01*
X0078106Y0052765D01*
X0078149Y0052741D01*
X0078190Y0052713D01*
X0078228Y0052683D01*
X0078264Y0052649D01*
X0078298Y0052613D01*
X0078328Y0052575D01*
X0078356Y0052534D01*
X0078380Y0052491D01*
X0078400Y0052446D01*
X0078417Y0052400D01*
X0078431Y0052352D01*
X0078440Y0052304D01*
X0078446Y0052255D01*
X0078448Y0052206D01*
X0077445Y0051078D02*
X0076944Y0050577D01*
X0076121Y0051078D02*
X0074868Y0051078D01*
X0075244Y0051579D02*
X0075244Y0050577D01*
X0076121Y0051078D02*
X0075620Y0052833D01*
X0062851Y0046085D02*
X0062225Y0046085D01*
X0062851Y0046085D02*
X0062851Y0043829D01*
X0062851Y0044831D02*
X0062225Y0044831D01*
X0062099Y0044831D02*
X0061598Y0043829D01*
X0060397Y0043829D02*
X0059144Y0043829D01*
X0059770Y0043829D02*
X0059770Y0046085D01*
X0060397Y0045583D01*
X0062225Y0046085D02*
X0062176Y0046083D01*
X0062127Y0046077D01*
X0062079Y0046068D01*
X0062031Y0046054D01*
X0061985Y0046037D01*
X0061940Y0046017D01*
X0061897Y0045993D01*
X0061856Y0045965D01*
X0061818Y0045935D01*
X0061782Y0045901D01*
X0061748Y0045865D01*
X0061718Y0045827D01*
X0061690Y0045786D01*
X0061666Y0045743D01*
X0061646Y0045698D01*
X0061629Y0045652D01*
X0061615Y0045604D01*
X0061606Y0045556D01*
X0061600Y0045507D01*
X0061598Y0045458D01*
X0061600Y0045409D01*
X0061606Y0045360D01*
X0061615Y0045312D01*
X0061629Y0045264D01*
X0061646Y0045218D01*
X0061666Y0045173D01*
X0061690Y0045130D01*
X0061718Y0045089D01*
X0061748Y0045051D01*
X0061782Y0045015D01*
X0061818Y0044981D01*
X0061856Y0044951D01*
X0061897Y0044923D01*
X0061940Y0044899D01*
X0061985Y0044879D01*
X0062031Y0044862D01*
X0062079Y0044848D01*
X0062127Y0044839D01*
X0062176Y0044833D01*
X0062225Y0044831D01*
X0057917Y0044330D02*
X0056663Y0044330D01*
X0057039Y0044831D02*
X0057039Y0043829D01*
X0057917Y0044330D02*
X0057415Y0046085D01*
X0055687Y0056989D02*
X0053431Y0056989D01*
X0053431Y0057615D01*
X0053433Y0057664D01*
X0053439Y0057713D01*
X0053448Y0057761D01*
X0053462Y0057809D01*
X0053479Y0057855D01*
X0053499Y0057900D01*
X0053523Y0057943D01*
X0053551Y0057984D01*
X0053581Y0058022D01*
X0053615Y0058058D01*
X0053651Y0058092D01*
X0053689Y0058122D01*
X0053730Y0058150D01*
X0053773Y0058174D01*
X0053818Y0058194D01*
X0053864Y0058211D01*
X0053912Y0058225D01*
X0053960Y0058234D01*
X0054009Y0058240D01*
X0054058Y0058242D01*
X0055060Y0058242D01*
X0055109Y0058240D01*
X0055158Y0058234D01*
X0055206Y0058225D01*
X0055254Y0058211D01*
X0055300Y0058194D01*
X0055345Y0058174D01*
X0055388Y0058150D01*
X0055429Y0058122D01*
X0055467Y0058092D01*
X0055503Y0058058D01*
X0055537Y0058022D01*
X0055567Y0057984D01*
X0055595Y0057943D01*
X0055619Y0057900D01*
X0055639Y0057855D01*
X0055656Y0057809D01*
X0055670Y0057761D01*
X0055679Y0057713D01*
X0055685Y0057664D01*
X0055687Y0057615D01*
X0055687Y0056989D01*
X0055687Y0060053D02*
X0053932Y0059552D01*
X0053932Y0060805D01*
X0053431Y0060429D02*
X0054434Y0060429D01*
X0090707Y0048460D02*
X0091772Y0047207D01*
X0090519Y0047207D01*
X0092999Y0047207D02*
X0094252Y0047207D01*
X0093626Y0047207D02*
X0093626Y0049463D01*
X0094252Y0048961D01*
X0096080Y0049463D02*
X0096031Y0049461D01*
X0095982Y0049455D01*
X0095934Y0049446D01*
X0095886Y0049432D01*
X0095840Y0049415D01*
X0095795Y0049395D01*
X0095752Y0049371D01*
X0095711Y0049343D01*
X0095673Y0049313D01*
X0095637Y0049279D01*
X0095603Y0049243D01*
X0095573Y0049205D01*
X0095545Y0049164D01*
X0095521Y0049121D01*
X0095501Y0049076D01*
X0095484Y0049030D01*
X0095470Y0048982D01*
X0095461Y0048934D01*
X0095455Y0048885D01*
X0095453Y0048836D01*
X0095455Y0048787D01*
X0095461Y0048738D01*
X0095470Y0048690D01*
X0095484Y0048642D01*
X0095501Y0048596D01*
X0095521Y0048551D01*
X0095545Y0048508D01*
X0095573Y0048467D01*
X0095603Y0048429D01*
X0095637Y0048393D01*
X0095673Y0048359D01*
X0095711Y0048329D01*
X0095752Y0048301D01*
X0095795Y0048277D01*
X0095840Y0048257D01*
X0095886Y0048240D01*
X0095934Y0048226D01*
X0095982Y0048217D01*
X0096031Y0048211D01*
X0096080Y0048209D01*
X0096707Y0048209D01*
X0095955Y0048209D02*
X0095453Y0047207D01*
X0096707Y0047207D02*
X0096707Y0049463D01*
X0096080Y0049463D01*
X0090707Y0048460D02*
X0090676Y0048492D01*
X0090647Y0048526D01*
X0090621Y0048562D01*
X0090598Y0048600D01*
X0090577Y0048640D01*
X0090560Y0048681D01*
X0090545Y0048723D01*
X0090534Y0048766D01*
X0090526Y0048810D01*
X0090521Y0048854D01*
X0090519Y0048899D01*
X0090521Y0048946D01*
X0090527Y0048992D01*
X0090536Y0049037D01*
X0090550Y0049082D01*
X0090567Y0049126D01*
X0090587Y0049167D01*
X0090611Y0049207D01*
X0090638Y0049245D01*
X0090668Y0049281D01*
X0090701Y0049314D01*
X0090737Y0049344D01*
X0090775Y0049371D01*
X0090815Y0049395D01*
X0090856Y0049415D01*
X0090900Y0049432D01*
X0090945Y0049446D01*
X0090990Y0049455D01*
X0091036Y0049461D01*
X0091083Y0049463D01*
X0091134Y0049461D01*
X0091184Y0049456D01*
X0091234Y0049447D01*
X0091283Y0049435D01*
X0091331Y0049419D01*
X0091378Y0049400D01*
X0091424Y0049378D01*
X0091467Y0049353D01*
X0091509Y0049324D01*
X0091549Y0049293D01*
X0091587Y0049259D01*
X0091622Y0049223D01*
X0091655Y0049184D01*
X0091684Y0049143D01*
X0091711Y0049100D01*
X0091735Y0049055D01*
X0091755Y0049009D01*
X0091773Y0048961D01*
X0101103Y0042523D02*
X0102169Y0041270D01*
X0100915Y0041270D01*
X0102169Y0043024D02*
X0102151Y0043072D01*
X0102131Y0043118D01*
X0102107Y0043163D01*
X0102080Y0043206D01*
X0102051Y0043247D01*
X0102018Y0043286D01*
X0101983Y0043322D01*
X0101945Y0043356D01*
X0101905Y0043387D01*
X0101863Y0043416D01*
X0101820Y0043441D01*
X0101774Y0043463D01*
X0101727Y0043482D01*
X0101679Y0043498D01*
X0101630Y0043510D01*
X0101580Y0043519D01*
X0101530Y0043524D01*
X0101479Y0043526D01*
X0101432Y0043524D01*
X0101386Y0043518D01*
X0101341Y0043509D01*
X0101296Y0043495D01*
X0101252Y0043478D01*
X0101211Y0043458D01*
X0101171Y0043434D01*
X0101133Y0043407D01*
X0101097Y0043377D01*
X0101064Y0043344D01*
X0101034Y0043308D01*
X0101007Y0043270D01*
X0100983Y0043230D01*
X0100963Y0043189D01*
X0100946Y0043145D01*
X0100932Y0043100D01*
X0100923Y0043055D01*
X0100917Y0043009D01*
X0100915Y0042962D01*
X0100917Y0042917D01*
X0100922Y0042873D01*
X0100930Y0042829D01*
X0100941Y0042786D01*
X0100956Y0042744D01*
X0100973Y0042703D01*
X0100994Y0042663D01*
X0101017Y0042625D01*
X0101043Y0042589D01*
X0101072Y0042555D01*
X0101103Y0042523D01*
X0103478Y0041896D02*
X0103478Y0043526D01*
X0104732Y0043526D02*
X0104732Y0041896D01*
X0104730Y0041847D01*
X0104724Y0041798D01*
X0104715Y0041750D01*
X0104701Y0041702D01*
X0104684Y0041656D01*
X0104664Y0041611D01*
X0104640Y0041568D01*
X0104612Y0041527D01*
X0104582Y0041489D01*
X0104548Y0041453D01*
X0104512Y0041419D01*
X0104474Y0041389D01*
X0104433Y0041361D01*
X0104390Y0041337D01*
X0104345Y0041317D01*
X0104299Y0041300D01*
X0104251Y0041286D01*
X0104203Y0041277D01*
X0104154Y0041271D01*
X0104105Y0041269D01*
X0104056Y0041271D01*
X0104007Y0041277D01*
X0103959Y0041286D01*
X0103911Y0041300D01*
X0103865Y0041317D01*
X0103820Y0041337D01*
X0103777Y0041361D01*
X0103736Y0041389D01*
X0103698Y0041419D01*
X0103662Y0041453D01*
X0103628Y0041489D01*
X0103598Y0041527D01*
X0103570Y0041568D01*
X0103546Y0041611D01*
X0103526Y0041656D01*
X0103509Y0041702D01*
X0103495Y0041750D01*
X0103486Y0041798D01*
X0103480Y0041847D01*
X0103478Y0041896D01*
X0084992Y0037157D02*
X0084992Y0017472D01*
X0084992Y0017669D02*
X0084992Y0021213D01*
X0084925Y0019937D02*
X0055925Y0019937D01*
X0114305Y0026301D02*
X0114305Y0027554D01*
X0114305Y0026928D02*
X0116561Y0026928D01*
X0116060Y0026301D01*
X0116561Y0024991D02*
X0114932Y0024991D01*
X0114932Y0024992D02*
X0114883Y0024990D01*
X0114834Y0024984D01*
X0114786Y0024975D01*
X0114738Y0024961D01*
X0114692Y0024944D01*
X0114647Y0024924D01*
X0114604Y0024900D01*
X0114563Y0024872D01*
X0114525Y0024842D01*
X0114489Y0024808D01*
X0114455Y0024772D01*
X0114425Y0024734D01*
X0114397Y0024693D01*
X0114373Y0024650D01*
X0114353Y0024605D01*
X0114336Y0024559D01*
X0114322Y0024511D01*
X0114313Y0024463D01*
X0114307Y0024414D01*
X0114305Y0024365D01*
X0114307Y0024316D01*
X0114313Y0024267D01*
X0114322Y0024219D01*
X0114336Y0024171D01*
X0114353Y0024125D01*
X0114373Y0024080D01*
X0114397Y0024037D01*
X0114425Y0023996D01*
X0114455Y0023958D01*
X0114489Y0023922D01*
X0114525Y0023888D01*
X0114563Y0023858D01*
X0114604Y0023830D01*
X0114647Y0023806D01*
X0114692Y0023786D01*
X0114738Y0023769D01*
X0114786Y0023755D01*
X0114834Y0023746D01*
X0114883Y0023740D01*
X0114932Y0023738D01*
X0116561Y0023738D01*
D16*
X0072828Y0066350D03*
X0068228Y0066350D03*
X0066796Y0090406D03*
X0062196Y0090406D03*
D17*
X0062630Y0062630D02*
X0057118Y0062630D01*
X0057118Y0053969D01*
X0062630Y0053969D01*
X0062630Y0062630D01*
D18*
X0059972Y0064500D03*
X0059972Y0052098D03*
D19*
X0059776Y0060661D03*
D20*
X0069402Y0061340D02*
X0073183Y0061340D01*
X0073183Y0058231D01*
X0073183Y0053151D02*
X0073183Y0050140D01*
X0069402Y0050140D01*
X0068055Y0046906D02*
X0071457Y0046906D01*
X0071457Y0044102D02*
X0068055Y0044102D01*
X0091756Y0044465D02*
X0095157Y0044465D01*
X0095157Y0041661D02*
X0091756Y0041661D01*
X0099913Y0039598D02*
X0106213Y0039598D01*
X0106213Y0028575D01*
X0099913Y0028575D01*
X0099913Y0039598D01*
X0042709Y0021906D02*
X0022709Y0021906D01*
X0022709Y0092306D01*
X0042709Y0092306D01*
X0042709Y0021906D01*
X0029109Y0021406D02*
X0022209Y0021406D01*
X0022209Y0092806D01*
X0029109Y0092806D01*
X0051780Y0082244D02*
X0051780Y0078843D01*
X0054583Y0078843D02*
X0054583Y0082244D01*
D21*
X0057433Y0086508D02*
X0057433Y0069776D01*
X0071213Y0069776D01*
X0071213Y0086508D01*
X0057433Y0086508D01*
D22*
X0058417Y0081094D02*
X0058417Y0075189D01*
X0066488Y0075189D01*
X0070228Y0078929D01*
X0070228Y0081094D01*
X0058417Y0081094D01*
X0066488Y0075189D02*
X0070228Y0075189D01*
X0070228Y0078929D01*
D23*
X0070228Y0079224D02*
X0058417Y0079224D01*
X0058417Y0077059D01*
X0070228Y0077059D01*
X0070228Y0079224D01*
X0070228Y0075681D02*
X0070228Y0070760D01*
X0118130Y0080752D02*
X0118130Y0090594D01*
X0122067Y0090594D01*
X0185059Y0090594D02*
X0216555Y0090594D01*
X0216555Y0023665D01*
X0185059Y0023665D01*
X0122067Y0023665D02*
X0118130Y0023665D01*
X0118130Y0033508D01*
D24*
X0053181Y0078043D03*
X0053181Y0083043D03*
D25*
X0067256Y0045504D03*
X0072256Y0045504D03*
X0090957Y0043063D03*
X0095957Y0043063D03*
D26*
X0107063Y0040387D03*
D27*
X0107689Y0037827D03*
X0107689Y0034087D03*
X0107689Y0030346D03*
X0098437Y0030346D03*
X0098437Y0037827D03*
M02*
