G75*
%MOIN*%
%OFA0B0*%
%FSLAX25Y25*%
%IPPOS*%
%LPD*%
%AMOC8*
5,1,8,0,0,1.08239X$1,22.5*
%
%ADD10C,0.00000*%
%ADD11R,0.04331X0.03937*%
%ADD12R,0.03937X0.04331*%
%ADD13R,0.05512X0.05512*%
%ADD14R,0.22441X0.07874*%
%ADD15R,0.05600X0.05600*%
%ADD16C,0.05600*%
%ADD17R,0.03543X0.03150*%
%ADD18C,0.04000*%
%ADD19C,0.05150*%
%ADD20C,0.02400*%
%ADD21C,0.00787*%
%ADD22C,0.02781*%
%ADD23C,0.04000*%
%ADD24C,0.01000*%
%ADD25C,0.02000*%
%ADD26C,0.01200*%
%ADD27C,0.02978*%
%ADD28C,0.00600*%
%ADD29C,0.01600*%
D10*
X0025622Y0017748D02*
X0183102Y0017748D01*
X0183226Y0017750D01*
X0183349Y0017756D01*
X0183473Y0017765D01*
X0183595Y0017779D01*
X0183718Y0017796D01*
X0183840Y0017818D01*
X0183961Y0017843D01*
X0184081Y0017872D01*
X0184200Y0017904D01*
X0184319Y0017941D01*
X0184436Y0017981D01*
X0184551Y0018024D01*
X0184666Y0018072D01*
X0184778Y0018123D01*
X0184889Y0018177D01*
X0184999Y0018235D01*
X0185106Y0018296D01*
X0185212Y0018361D01*
X0185315Y0018429D01*
X0185416Y0018500D01*
X0185515Y0018574D01*
X0185612Y0018651D01*
X0185706Y0018732D01*
X0185797Y0018815D01*
X0185886Y0018901D01*
X0185972Y0018990D01*
X0186055Y0019081D01*
X0186136Y0019175D01*
X0186213Y0019272D01*
X0186287Y0019371D01*
X0186358Y0019472D01*
X0186426Y0019575D01*
X0186491Y0019681D01*
X0186552Y0019788D01*
X0186610Y0019898D01*
X0186664Y0020009D01*
X0186715Y0020121D01*
X0186763Y0020236D01*
X0186806Y0020351D01*
X0186846Y0020468D01*
X0186883Y0020587D01*
X0186915Y0020706D01*
X0186944Y0020826D01*
X0186969Y0020947D01*
X0186991Y0021069D01*
X0187008Y0021192D01*
X0187022Y0021314D01*
X0187031Y0021438D01*
X0187037Y0021561D01*
X0187039Y0021685D01*
X0187039Y0092551D01*
X0187037Y0092675D01*
X0187031Y0092798D01*
X0187022Y0092922D01*
X0187008Y0093044D01*
X0186991Y0093167D01*
X0186969Y0093289D01*
X0186944Y0093410D01*
X0186915Y0093530D01*
X0186883Y0093649D01*
X0186846Y0093768D01*
X0186806Y0093885D01*
X0186763Y0094000D01*
X0186715Y0094115D01*
X0186664Y0094227D01*
X0186610Y0094338D01*
X0186552Y0094448D01*
X0186491Y0094555D01*
X0186426Y0094661D01*
X0186358Y0094764D01*
X0186287Y0094865D01*
X0186213Y0094964D01*
X0186136Y0095061D01*
X0186055Y0095155D01*
X0185972Y0095246D01*
X0185886Y0095335D01*
X0185797Y0095421D01*
X0185706Y0095504D01*
X0185612Y0095585D01*
X0185515Y0095662D01*
X0185416Y0095736D01*
X0185315Y0095807D01*
X0185212Y0095875D01*
X0185106Y0095940D01*
X0184999Y0096001D01*
X0184889Y0096059D01*
X0184778Y0096113D01*
X0184666Y0096164D01*
X0184551Y0096212D01*
X0184436Y0096255D01*
X0184319Y0096295D01*
X0184200Y0096332D01*
X0184081Y0096364D01*
X0183961Y0096393D01*
X0183840Y0096418D01*
X0183718Y0096440D01*
X0183595Y0096457D01*
X0183473Y0096471D01*
X0183349Y0096480D01*
X0183226Y0096486D01*
X0183102Y0096488D01*
X0025622Y0096488D01*
X0025498Y0096486D01*
X0025375Y0096480D01*
X0025251Y0096471D01*
X0025129Y0096457D01*
X0025006Y0096440D01*
X0024884Y0096418D01*
X0024763Y0096393D01*
X0024643Y0096364D01*
X0024524Y0096332D01*
X0024405Y0096295D01*
X0024288Y0096255D01*
X0024173Y0096212D01*
X0024058Y0096164D01*
X0023946Y0096113D01*
X0023835Y0096059D01*
X0023725Y0096001D01*
X0023618Y0095940D01*
X0023512Y0095875D01*
X0023409Y0095807D01*
X0023308Y0095736D01*
X0023209Y0095662D01*
X0023112Y0095585D01*
X0023018Y0095504D01*
X0022927Y0095421D01*
X0022838Y0095335D01*
X0022752Y0095246D01*
X0022669Y0095155D01*
X0022588Y0095061D01*
X0022511Y0094964D01*
X0022437Y0094865D01*
X0022366Y0094764D01*
X0022298Y0094661D01*
X0022233Y0094555D01*
X0022172Y0094448D01*
X0022114Y0094338D01*
X0022060Y0094227D01*
X0022009Y0094115D01*
X0021961Y0094000D01*
X0021918Y0093885D01*
X0021878Y0093768D01*
X0021841Y0093649D01*
X0021809Y0093530D01*
X0021780Y0093410D01*
X0021755Y0093289D01*
X0021733Y0093167D01*
X0021716Y0093044D01*
X0021702Y0092922D01*
X0021693Y0092798D01*
X0021687Y0092675D01*
X0021685Y0092551D01*
X0021685Y0021685D01*
X0021687Y0021561D01*
X0021693Y0021438D01*
X0021702Y0021314D01*
X0021716Y0021192D01*
X0021733Y0021069D01*
X0021755Y0020947D01*
X0021780Y0020826D01*
X0021809Y0020706D01*
X0021841Y0020587D01*
X0021878Y0020468D01*
X0021918Y0020351D01*
X0021961Y0020236D01*
X0022009Y0020121D01*
X0022060Y0020009D01*
X0022114Y0019898D01*
X0022172Y0019788D01*
X0022233Y0019681D01*
X0022298Y0019575D01*
X0022366Y0019472D01*
X0022437Y0019371D01*
X0022511Y0019272D01*
X0022588Y0019175D01*
X0022669Y0019081D01*
X0022752Y0018990D01*
X0022838Y0018901D01*
X0022927Y0018815D01*
X0023018Y0018732D01*
X0023112Y0018651D01*
X0023209Y0018574D01*
X0023308Y0018500D01*
X0023409Y0018429D01*
X0023512Y0018361D01*
X0023618Y0018296D01*
X0023725Y0018235D01*
X0023835Y0018177D01*
X0023946Y0018123D01*
X0024058Y0018072D01*
X0024173Y0018024D01*
X0024288Y0017981D01*
X0024405Y0017941D01*
X0024524Y0017904D01*
X0024643Y0017872D01*
X0024763Y0017843D01*
X0024884Y0017818D01*
X0025006Y0017796D01*
X0025129Y0017779D01*
X0025251Y0017765D01*
X0025375Y0017756D01*
X0025498Y0017750D01*
X0025622Y0017748D01*
D11*
X0026035Y0025425D03*
X0032728Y0025425D03*
X0032728Y0031872D03*
X0026035Y0031872D03*
X0026035Y0038319D03*
X0032728Y0038319D03*
X0032728Y0044766D03*
X0026035Y0044766D03*
X0026035Y0051213D03*
X0032728Y0051213D03*
X0042541Y0051409D03*
X0049234Y0051409D03*
X0049234Y0058299D03*
X0042541Y0058299D03*
X0032728Y0057659D03*
X0026035Y0057659D03*
X0026035Y0064106D03*
X0032728Y0064106D03*
X0032728Y0070553D03*
X0026035Y0070553D03*
X0026035Y0077000D03*
X0032728Y0077000D03*
X0032095Y0083608D03*
X0032095Y0090301D03*
X0075661Y0082315D03*
X0082354Y0082315D03*
X0063575Y0065386D03*
X0056882Y0065386D03*
X0125425Y0022571D03*
X0132118Y0022571D03*
D12*
X0137679Y0022571D03*
X0144372Y0022571D03*
X0149933Y0022571D03*
X0156626Y0022571D03*
X0162187Y0022571D03*
X0168880Y0022571D03*
X0174441Y0022571D03*
X0181134Y0022571D03*
X0082354Y0074244D03*
X0075661Y0074244D03*
X0049234Y0065189D03*
X0042541Y0065189D03*
X0025622Y0083608D03*
X0025622Y0090301D03*
X0138417Y0091764D03*
X0145110Y0091764D03*
X0150622Y0091764D03*
X0157315Y0091764D03*
D13*
X0071291Y0059087D03*
X0063850Y0059087D03*
X0056331Y0059087D03*
X0056331Y0044126D03*
X0063850Y0044126D03*
X0071291Y0044126D03*
D14*
X0059913Y0073024D03*
X0059913Y0091528D03*
D15*
X0109480Y0091606D03*
X0083614Y0053142D03*
X0093732Y0022472D03*
D16*
X0101606Y0022472D03*
X0109480Y0022472D03*
X0083614Y0061016D03*
X0085858Y0091606D03*
X0093732Y0091606D03*
X0101606Y0091606D03*
X0077984Y0091606D03*
D17*
X0045425Y0086954D03*
X0037157Y0083214D03*
X0037157Y0090694D03*
D18*
X0056154Y0027837D03*
X0056154Y0025837D03*
X0056154Y0023837D03*
X0084697Y0023837D03*
X0084697Y0025837D03*
X0084697Y0027837D03*
D19*
X0079972Y0036685D03*
X0060878Y0036685D03*
D20*
X0065031Y0036685D01*
X0071291Y0042945D01*
X0071291Y0044126D01*
X0072531Y0044126D01*
X0073260Y0051213D02*
X0077591Y0055543D01*
X0077591Y0063024D01*
X0081528Y0066961D01*
X0090189Y0066961D01*
X0090583Y0066567D01*
X0090583Y0065583D01*
X0095307Y0065583D01*
X0098654Y0062236D01*
X0101606Y0062236D01*
X0098260Y0065583D01*
X0095307Y0065583D01*
X0096882Y0066961D02*
X0090189Y0066961D01*
X0090583Y0065583D02*
X0085553Y0065583D01*
X0085520Y0065616D01*
X0082085Y0065616D01*
X0078214Y0065616D01*
X0077591Y0064992D01*
X0077591Y0066961D01*
X0079559Y0066961D01*
X0078214Y0065616D01*
X0077591Y0064992D02*
X0077591Y0063024D01*
X0080740Y0066961D02*
X0082085Y0065616D01*
X0081528Y0066961D02*
X0080740Y0066961D01*
X0079559Y0066961D01*
X0077591Y0068929D01*
X0074244Y0072276D01*
X0074244Y0076606D01*
X0072472Y0078378D01*
X0075622Y0078378D01*
X0077591Y0076409D01*
X0077591Y0073260D01*
X0077591Y0072315D01*
X0077591Y0070898D01*
X0081528Y0066961D01*
X0077591Y0066961D02*
X0077591Y0068929D01*
X0077591Y0070898D01*
X0077591Y0072315D02*
X0075661Y0074244D01*
X0075661Y0075189D01*
X0077591Y0073260D01*
X0075661Y0075189D02*
X0074244Y0076606D01*
X0072472Y0078378D02*
X0071291Y0079559D01*
X0067945Y0082906D01*
X0070307Y0082906D01*
X0071291Y0081921D01*
X0071291Y0083496D01*
X0068339Y0086449D01*
X0067945Y0086055D01*
X0067945Y0082906D01*
X0066764Y0084087D01*
X0066764Y0087630D01*
X0066961Y0087827D01*
X0065386Y0089402D01*
X0065386Y0085465D01*
X0066764Y0084087D01*
X0065386Y0085465D02*
X0059913Y0090937D01*
X0059913Y0091528D01*
X0063417Y0091528D01*
X0063417Y0091370D01*
X0065386Y0089402D01*
X0066016Y0091528D02*
X0063417Y0091528D01*
X0066016Y0091528D02*
X0071291Y0086252D01*
X0071291Y0091528D01*
X0068535Y0094283D01*
X0068535Y0094288D01*
X0069948Y0094288D01*
X0072472Y0091764D01*
X0072472Y0086252D01*
X0071291Y0085071D01*
X0071291Y0086252D01*
X0071291Y0085071D02*
X0071291Y0083496D01*
X0071291Y0081921D02*
X0071291Y0079559D01*
X0068142Y0077197D02*
X0065386Y0079953D01*
X0065386Y0077197D01*
X0068142Y0077197D01*
X0070110Y0075228D01*
X0070110Y0074441D01*
X0065386Y0074441D01*
X0065386Y0077197D01*
X0065386Y0074441D02*
X0064992Y0074441D01*
X0063811Y0073260D01*
X0063811Y0079559D01*
X0061843Y0081528D01*
X0061843Y0079559D01*
X0059913Y0079559D01*
X0058319Y0081154D01*
X0058319Y0083870D01*
X0057118Y0085071D01*
X0060268Y0085071D01*
X0061843Y0083496D01*
X0065386Y0079953D01*
X0061843Y0079559D02*
X0061843Y0074953D01*
X0059913Y0073024D01*
X0057276Y0073024D01*
X0056882Y0072630D01*
X0056882Y0065386D01*
X0056882Y0059638D01*
X0056331Y0059087D01*
X0063575Y0059362D02*
X0063850Y0059087D01*
X0071291Y0059087D01*
X0063575Y0059362D02*
X0063575Y0065386D01*
X0059913Y0073024D02*
X0059913Y0074441D01*
X0058319Y0076035D01*
X0058319Y0081154D01*
X0059913Y0082276D02*
X0059913Y0079559D01*
X0059913Y0074441D01*
X0061843Y0081528D02*
X0061843Y0083496D01*
X0059913Y0082276D02*
X0058319Y0083870D01*
X0057118Y0085071D02*
X0047309Y0085071D01*
X0045425Y0086954D01*
X0049244Y0090976D02*
X0050425Y0089795D01*
X0052000Y0091370D01*
X0052000Y0094126D01*
X0053575Y0094126D01*
X0055937Y0091764D01*
X0059677Y0091764D01*
X0059913Y0091528D01*
X0066016Y0091528D02*
X0071291Y0091528D01*
X0072236Y0091528D01*
X0072472Y0091764D01*
X0075661Y0089283D02*
X0077984Y0091606D01*
X0075661Y0089283D02*
X0075661Y0082315D01*
X0082354Y0082315D02*
X0082354Y0074244D01*
X0090583Y0082315D02*
X0100563Y0082315D01*
X0102183Y0083935D01*
X0068339Y0086449D02*
X0066961Y0087827D01*
X0052000Y0094126D02*
X0046094Y0094126D01*
X0048063Y0092157D01*
X0042157Y0092157D01*
X0043339Y0090976D01*
X0049244Y0090976D01*
X0048063Y0092157D01*
X0046094Y0094126D02*
X0040189Y0094126D01*
X0042157Y0092157D01*
X0040189Y0094126D02*
X0029165Y0094126D01*
X0025622Y0090583D01*
X0025622Y0090301D01*
X0032095Y0090301D02*
X0032489Y0090694D01*
X0037157Y0090694D01*
X0035465Y0077197D02*
X0032925Y0077197D01*
X0032728Y0077000D01*
X0032728Y0070553D02*
X0032778Y0070504D01*
X0035465Y0070504D01*
X0041764Y0065189D02*
X0042157Y0065189D01*
X0042541Y0065189D02*
X0042541Y0058299D01*
X0042541Y0056715D01*
X0040605Y0054778D01*
X0042541Y0052842D01*
X0042541Y0051409D01*
X0042541Y0055543D01*
X0041776Y0054778D01*
X0040605Y0054778D01*
X0042541Y0055543D02*
X0042541Y0058299D01*
X0049234Y0058299D02*
X0049234Y0051409D01*
X0051803Y0051409D01*
X0052000Y0051213D01*
X0073260Y0051213D01*
X0078732Y0036685D02*
X0079972Y0036685D01*
X0079972Y0035465D01*
X0084697Y0030740D01*
X0084697Y0027837D01*
X0084697Y0030740D02*
X0084697Y0031961D01*
X0079972Y0036685D01*
X0101606Y0023654D02*
X0105150Y0027197D01*
X0113417Y0027197D01*
X0119717Y0027197D01*
X0123260Y0030740D01*
X0123260Y0034283D01*
X0123260Y0038614D01*
X0117157Y0044717D01*
X0117157Y0046685D01*
X0101606Y0062236D01*
X0098260Y0065583D02*
X0096882Y0066961D01*
X0108299Y0060661D02*
X0129953Y0039008D01*
X0131134Y0037827D01*
X0133496Y0037827D01*
X0133496Y0037433D01*
X0132118Y0036055D01*
X0132118Y0034087D01*
X0135858Y0037827D01*
X0163838Y0037827D01*
X0165386Y0036279D01*
X0135858Y0037827D02*
X0133496Y0037827D01*
X0131134Y0037827D02*
X0129953Y0037827D01*
X0129953Y0033890D01*
X0132118Y0036055D01*
X0132118Y0034087D02*
X0132118Y0029362D01*
X0132118Y0024047D01*
X0129953Y0026213D01*
X0129953Y0031528D01*
X0129953Y0033890D01*
X0129953Y0031528D02*
X0132118Y0029362D01*
X0125425Y0029953D02*
X0125425Y0027984D01*
X0125425Y0027098D01*
X0125425Y0022571D01*
X0122472Y0022571D01*
X0125425Y0025524D01*
X0125425Y0026409D01*
X0125425Y0027098D02*
X0124589Y0026262D01*
X0124589Y0034283D01*
X0124589Y0039254D01*
X0123260Y0040583D01*
X0123260Y0038614D01*
X0124589Y0039254D02*
X0125622Y0038220D01*
X0125622Y0031528D01*
X0125425Y0031331D02*
X0125425Y0029953D01*
X0120898Y0025425D01*
X0115189Y0025425D01*
X0118043Y0022571D01*
X0120898Y0025425D01*
X0121685Y0027197D02*
X0119717Y0027197D01*
X0121685Y0027197D02*
X0123260Y0028772D01*
X0123260Y0030740D01*
X0123654Y0027197D02*
X0121685Y0027197D01*
X0123654Y0027197D02*
X0124589Y0026262D01*
X0120898Y0022571D01*
X0122472Y0022571D01*
X0120898Y0022571D02*
X0118043Y0022571D01*
X0115189Y0025425D02*
X0113417Y0027197D01*
X0101606Y0023654D02*
X0101606Y0022472D01*
X0132118Y0022571D02*
X0132118Y0024047D01*
X0129953Y0037827D02*
X0129953Y0039008D01*
X0123260Y0040583D02*
X0117157Y0046685D01*
X0036252Y0020504D02*
X0029559Y0020504D01*
X0026035Y0024028D01*
X0026035Y0025425D01*
X0032827Y0038220D02*
X0032728Y0038319D01*
X0032827Y0038220D02*
X0035858Y0038220D01*
X0035858Y0044913D02*
X0032876Y0044913D01*
X0032728Y0044766D01*
X0032728Y0051213D02*
X0035465Y0051213D01*
X0035465Y0057512D02*
X0032876Y0057512D01*
X0032728Y0057659D01*
D21*
X0035317Y0057659D01*
X0035465Y0057512D01*
X0042157Y0065189D02*
X0042541Y0065189D01*
X0038846Y0076223D02*
X0037849Y0077220D01*
X0037849Y0078184D01*
X0037157Y0078876D01*
X0037157Y0083214D01*
X0039923Y0084943D02*
X0042157Y0082709D01*
X0044913Y0082709D01*
X0039923Y0084943D02*
X0039923Y0087929D01*
X0037157Y0090694D01*
X0035465Y0077197D02*
X0035268Y0077000D01*
X0032728Y0077000D01*
X0032728Y0044766D02*
X0035711Y0044766D01*
X0035858Y0044913D01*
X0035760Y0038319D02*
X0032728Y0038319D01*
X0035760Y0038319D02*
X0035858Y0038220D01*
X0040189Y0035465D02*
X0036596Y0031872D01*
X0032728Y0031872D01*
X0032728Y0025425D02*
X0044323Y0025425D01*
X0044520Y0025228D01*
X0053575Y0041370D02*
X0056331Y0044126D01*
X0061077Y0041250D02*
X0061520Y0041693D01*
X0063488Y0043661D01*
X0063850Y0044024D01*
X0063850Y0044126D01*
D22*
X0053575Y0041370D03*
X0050425Y0036646D03*
X0055472Y0034677D03*
X0053181Y0031921D03*
X0044520Y0025228D03*
X0046094Y0020504D03*
X0036252Y0020504D03*
X0026409Y0020504D03*
X0040189Y0035465D03*
X0035858Y0038220D03*
X0035858Y0044913D03*
X0035465Y0051213D03*
X0040605Y0054778D03*
X0035465Y0057512D03*
X0038385Y0061070D03*
X0038185Y0064764D03*
X0040376Y0067354D03*
X0035465Y0070504D03*
X0030191Y0064205D03*
X0035465Y0077197D03*
X0038846Y0076223D03*
X0044913Y0082709D03*
X0028772Y0083608D03*
X0072472Y0091764D03*
X0052000Y0051213D03*
X0078534Y0043650D03*
X0081915Y0044850D03*
X0085496Y0044945D03*
X0090189Y0049244D03*
X0125622Y0031528D03*
X0129953Y0031528D03*
X0141764Y0031528D03*
X0137827Y0020139D03*
X0165386Y0031528D03*
X0173260Y0031134D03*
X0184649Y0031528D03*
X0184649Y0039402D03*
X0174806Y0039402D03*
X0174806Y0047276D03*
X0184649Y0047276D03*
X0184649Y0055150D03*
X0174806Y0055150D03*
X0174806Y0063024D03*
X0184649Y0063024D03*
X0184649Y0070898D03*
X0174806Y0070898D03*
X0174806Y0078772D03*
X0184649Y0078772D03*
D23*
X0032095Y0083608D02*
X0028772Y0083608D01*
X0026449Y0083608D01*
X0026035Y0083194D01*
X0025622Y0083608D01*
X0026035Y0083194D02*
X0026035Y0077000D01*
X0026035Y0070553D01*
X0026035Y0068142D01*
X0026035Y0064106D01*
X0026035Y0057659D01*
X0026035Y0051213D01*
X0026035Y0044766D01*
X0026035Y0038319D01*
X0026035Y0031872D01*
X0026035Y0025425D01*
D24*
X0098260Y0065583D02*
X0098260Y0068339D01*
X0096882Y0066961D01*
X0098260Y0068339D02*
X0109480Y0079559D01*
X0143339Y0079559D01*
X0144717Y0080937D01*
X0144913Y0080740D01*
X0144913Y0079559D01*
X0143339Y0079559D01*
X0144913Y0079559D02*
X0145701Y0079559D01*
X0145701Y0080740D01*
X0146882Y0079559D01*
X0145701Y0079559D01*
X0146882Y0079559D02*
X0154362Y0079559D01*
X0157315Y0082512D01*
X0157315Y0091764D01*
X0150622Y0091764D02*
X0150622Y0083693D01*
X0149638Y0082709D01*
X0145701Y0080740D02*
X0145110Y0081331D01*
X0144717Y0080937D01*
X0145110Y0081331D02*
X0145110Y0091764D01*
X0141370Y0088811D02*
X0141370Y0083102D01*
X0141370Y0088811D02*
X0138417Y0091764D01*
X0184649Y0031528D02*
X0184649Y0026086D01*
X0181134Y0022571D01*
X0162187Y0022571D02*
X0162187Y0021636D01*
X0149933Y0021980D02*
X0147201Y0019248D01*
X0140583Y0019248D01*
X0139692Y0020139D01*
X0138614Y0020139D01*
X0138717Y0020035D01*
X0138717Y0019248D01*
X0140583Y0019248D01*
X0139692Y0020139D02*
X0137679Y0022152D01*
X0137679Y0022571D01*
X0137827Y0020139D02*
X0138614Y0020139D01*
X0137827Y0020139D02*
X0138717Y0019248D01*
X0149933Y0021980D02*
X0149933Y0022571D01*
D25*
X0153280Y0025621D02*
X0152564Y0026336D01*
X0147302Y0026336D01*
X0147153Y0026187D01*
X0147003Y0026336D01*
X0144164Y0026336D01*
X0144164Y0029698D01*
X0144299Y0029834D01*
X0144754Y0030933D01*
X0144754Y0032122D01*
X0144299Y0033222D01*
X0143458Y0034063D01*
X0142359Y0034518D01*
X0141169Y0034518D01*
X0140070Y0034063D01*
X0139229Y0033222D01*
X0138773Y0032122D01*
X0138773Y0030933D01*
X0139229Y0029834D01*
X0139364Y0029698D01*
X0139364Y0026336D01*
X0135171Y0026336D01*
X0135055Y0026403D01*
X0134547Y0026539D01*
X0132118Y0026539D01*
X0129689Y0026539D01*
X0129181Y0026403D01*
X0128725Y0026140D01*
X0128489Y0025904D01*
X0128253Y0026139D01*
X0128225Y0026139D01*
X0128225Y0029997D01*
X0128613Y0030933D01*
X0128613Y0032122D01*
X0128422Y0032582D01*
X0128422Y0038777D01*
X0127996Y0039807D01*
X0126962Y0040840D01*
X0125634Y0042169D01*
X0124846Y0042956D01*
X0124846Y0042956D01*
X0119531Y0048271D01*
X0118744Y0049059D01*
X0103980Y0063822D01*
X0103980Y0063822D01*
X0103192Y0064610D01*
X0100634Y0067169D01*
X0100360Y0067442D01*
X0100360Y0067469D01*
X0110350Y0077459D01*
X0135002Y0077459D01*
X0134765Y0076886D01*
X0134765Y0075869D01*
X0133823Y0074928D01*
X0133625Y0075126D01*
X0132490Y0075596D01*
X0131261Y0075596D01*
X0130126Y0075126D01*
X0129257Y0074257D01*
X0128787Y0073122D01*
X0128787Y0072018D01*
X0128551Y0072018D01*
X0127416Y0071548D01*
X0126547Y0070679D01*
X0126076Y0069544D01*
X0126076Y0068315D01*
X0126547Y0067179D01*
X0127265Y0066461D01*
X0127265Y0049342D01*
X0130013Y0046594D01*
X0130013Y0045578D01*
X0130484Y0044442D01*
X0131145Y0043781D01*
X0130484Y0043120D01*
X0130013Y0041985D01*
X0130013Y0040756D01*
X0130484Y0039620D01*
X0131353Y0038751D01*
X0132488Y0038281D01*
X0133717Y0038281D01*
X0134852Y0038751D01*
X0135571Y0039470D01*
X0163418Y0039470D01*
X0167423Y0035465D01*
X0167423Y0033720D01*
X0167080Y0034063D01*
X0165981Y0034518D01*
X0164791Y0034518D01*
X0163692Y0034063D01*
X0163557Y0033928D01*
X0158216Y0033928D01*
X0157333Y0033562D01*
X0154591Y0030820D01*
X0154226Y0029938D01*
X0154226Y0026336D01*
X0153995Y0026336D01*
X0153280Y0025621D01*
X0153653Y0025994D02*
X0152906Y0025994D01*
X0154226Y0027993D02*
X0144164Y0027993D01*
X0144364Y0029991D02*
X0154248Y0029991D01*
X0155761Y0031990D02*
X0144754Y0031990D01*
X0143532Y0033988D02*
X0163617Y0033988D01*
X0167154Y0033988D02*
X0167423Y0033988D01*
X0166901Y0035987D02*
X0128422Y0035987D01*
X0128422Y0037985D02*
X0164903Y0037985D01*
X0168278Y0039984D02*
X0185039Y0039984D01*
X0185039Y0041982D02*
X0166280Y0041982D01*
X0164992Y0043270D02*
X0135571Y0043270D01*
X0135060Y0043781D01*
X0135721Y0044442D01*
X0136191Y0045578D01*
X0136191Y0046807D01*
X0135721Y0047942D01*
X0134852Y0048811D01*
X0133717Y0049281D01*
X0132700Y0049281D01*
X0131065Y0050916D01*
X0131065Y0052791D01*
X0131326Y0052531D01*
X0132461Y0052061D01*
X0133690Y0052061D01*
X0134825Y0052531D01*
X0135465Y0053170D01*
X0136104Y0052531D01*
X0137239Y0052061D01*
X0138468Y0052061D01*
X0139603Y0052531D01*
X0140472Y0053400D01*
X0140943Y0054535D01*
X0140943Y0055764D01*
X0140800Y0056108D01*
X0140803Y0056109D01*
X0141672Y0056978D01*
X0142143Y0058113D01*
X0142143Y0059342D01*
X0141672Y0060477D01*
X0140803Y0061346D01*
X0139668Y0061817D01*
X0138439Y0061817D01*
X0137304Y0061346D01*
X0136585Y0060628D01*
X0135544Y0060628D01*
X0134825Y0061346D01*
X0133690Y0061817D01*
X0132461Y0061817D01*
X0131326Y0061346D01*
X0131065Y0061086D01*
X0131065Y0066461D01*
X0131120Y0066516D01*
X0131326Y0066310D01*
X0132461Y0065840D01*
X0133690Y0065840D01*
X0134825Y0066310D01*
X0135544Y0067029D01*
X0137785Y0067029D01*
X0138504Y0066310D01*
X0139639Y0065840D01*
X0140868Y0065840D01*
X0142003Y0066310D01*
X0142872Y0067179D01*
X0143343Y0068315D01*
X0143343Y0069544D01*
X0142872Y0070679D01*
X0142003Y0071548D01*
X0140868Y0072018D01*
X0139639Y0072018D01*
X0138504Y0071548D01*
X0137785Y0070829D01*
X0135544Y0070829D01*
X0135321Y0071052D01*
X0137452Y0073182D01*
X0138468Y0073182D01*
X0139603Y0073653D01*
X0140472Y0074522D01*
X0140943Y0075657D01*
X0140943Y0076886D01*
X0140705Y0077459D01*
X0155232Y0077459D01*
X0159415Y0081642D01*
X0159415Y0087998D01*
X0159946Y0087998D01*
X0160883Y0088936D01*
X0160883Y0094488D01*
X0183102Y0094488D01*
X0183480Y0094451D01*
X0184179Y0094162D01*
X0184713Y0093627D01*
X0185002Y0092929D01*
X0185039Y0092551D01*
X0185039Y0025235D01*
X0184966Y0025508D01*
X0184703Y0025964D01*
X0184330Y0026337D01*
X0183874Y0026600D01*
X0183366Y0026736D01*
X0181134Y0026736D01*
X0181134Y0022571D01*
X0181134Y0022571D01*
X0181134Y0026736D01*
X0178902Y0026736D01*
X0178393Y0026600D01*
X0177937Y0026337D01*
X0177565Y0025964D01*
X0177521Y0025888D01*
X0177072Y0026336D01*
X0175660Y0026336D01*
X0175660Y0029305D01*
X0175795Y0029440D01*
X0176250Y0030539D01*
X0176250Y0031729D01*
X0175795Y0032828D01*
X0174954Y0033669D01*
X0173855Y0034124D01*
X0172665Y0034124D01*
X0171566Y0033669D01*
X0171223Y0033326D01*
X0171223Y0037039D01*
X0170110Y0038152D01*
X0164992Y0043270D01*
X0170277Y0037985D02*
X0185039Y0037985D01*
X0185039Y0035987D02*
X0171223Y0035987D01*
X0171223Y0033988D02*
X0172336Y0033988D01*
X0174184Y0033988D02*
X0185039Y0033988D01*
X0185039Y0031990D02*
X0176142Y0031990D01*
X0176023Y0029991D02*
X0185039Y0029991D01*
X0185039Y0027993D02*
X0175660Y0027993D01*
X0177414Y0025994D02*
X0177595Y0025994D01*
X0181134Y0025994D02*
X0181134Y0025994D01*
X0181134Y0023996D02*
X0181134Y0023996D01*
X0184673Y0025994D02*
X0185039Y0025994D01*
X0185039Y0043981D02*
X0135259Y0043981D01*
X0136191Y0045979D02*
X0185039Y0045979D01*
X0185039Y0047978D02*
X0135685Y0047978D01*
X0132005Y0049976D02*
X0185039Y0049976D01*
X0185039Y0051975D02*
X0131065Y0051975D01*
X0127265Y0051975D02*
X0115828Y0051975D01*
X0113829Y0053973D02*
X0127265Y0053973D01*
X0127265Y0055972D02*
X0111830Y0055972D01*
X0109832Y0057970D02*
X0127265Y0057970D01*
X0127265Y0059969D02*
X0107833Y0059969D01*
X0105835Y0061967D02*
X0127265Y0061967D01*
X0127265Y0063966D02*
X0103836Y0063966D01*
X0103192Y0064610D02*
X0103192Y0064610D01*
X0101838Y0065964D02*
X0127265Y0065964D01*
X0126222Y0067963D02*
X0100854Y0067963D01*
X0100634Y0067169D02*
X0100634Y0067169D01*
X0102852Y0069961D02*
X0126249Y0069961D01*
X0128410Y0071960D02*
X0104851Y0071960D01*
X0106849Y0073958D02*
X0129133Y0073958D01*
X0134765Y0075957D02*
X0108848Y0075957D01*
X0104907Y0077955D02*
X0085154Y0077955D01*
X0085154Y0077841D02*
X0085154Y0078746D01*
X0085182Y0078746D01*
X0086120Y0079684D01*
X0086120Y0082221D01*
X0087951Y0084052D01*
X0093462Y0084052D01*
X0095932Y0086522D01*
X0095932Y0087755D01*
X0096225Y0087876D01*
X0097462Y0089114D01*
X0097669Y0089613D01*
X0097876Y0089114D01*
X0099114Y0087876D01*
X0100731Y0087206D01*
X0102482Y0087206D01*
X0104099Y0087876D01*
X0105080Y0088858D01*
X0105080Y0088144D01*
X0106018Y0087206D01*
X0112943Y0087206D01*
X0113880Y0088144D01*
X0113880Y0094488D01*
X0134849Y0094488D01*
X0134849Y0088936D01*
X0135786Y0087998D01*
X0139213Y0087998D01*
X0139270Y0087941D01*
X0139270Y0085371D01*
X0138751Y0084852D01*
X0138281Y0083717D01*
X0138281Y0082488D01*
X0138624Y0081659D01*
X0108610Y0081659D01*
X0097390Y0070439D01*
X0096712Y0069761D01*
X0089632Y0069761D01*
X0082687Y0069761D01*
X0081969Y0070479D01*
X0084986Y0070479D01*
X0085923Y0071416D01*
X0085923Y0077072D01*
X0085154Y0077841D01*
X0085923Y0075957D02*
X0102908Y0075957D01*
X0100910Y0073958D02*
X0085923Y0073958D01*
X0085923Y0071960D02*
X0098911Y0071960D01*
X0097390Y0070439D02*
X0097390Y0070439D01*
X0096913Y0069961D02*
X0082487Y0069961D01*
X0088087Y0062783D02*
X0094147Y0062783D01*
X0096280Y0060650D01*
X0097067Y0059862D01*
X0098097Y0059436D01*
X0098272Y0059436D01*
X0097718Y0058883D01*
X0097248Y0057748D01*
X0097248Y0056731D01*
X0096144Y0055627D01*
X0096144Y0054053D01*
X0096144Y0052875D01*
X0095425Y0052156D01*
X0094955Y0051021D01*
X0094955Y0049792D01*
X0095425Y0048657D01*
X0096294Y0047788D01*
X0097430Y0047317D01*
X0098659Y0047317D01*
X0099794Y0047788D01*
X0100663Y0048657D01*
X0100826Y0049050D01*
X0100826Y0048599D01*
X0103486Y0045939D01*
X0103486Y0042157D01*
X0103118Y0041790D01*
X0091493Y0041790D01*
X0089727Y0043556D01*
X0089727Y0046640D01*
X0087351Y0049016D01*
X0088014Y0049679D01*
X0088014Y0056604D01*
X0087077Y0057542D01*
X0086928Y0057542D01*
X0087275Y0057889D01*
X0087719Y0058500D01*
X0088062Y0059173D01*
X0088296Y0059892D01*
X0088414Y0060638D01*
X0088414Y0061016D01*
X0088414Y0061394D01*
X0088296Y0062140D01*
X0088087Y0062783D01*
X0088323Y0061967D02*
X0094963Y0061967D01*
X0096961Y0059969D02*
X0088308Y0059969D01*
X0088260Y0061016D02*
X0090189Y0059087D01*
X0090189Y0049244D01*
X0088389Y0047978D02*
X0096104Y0047978D01*
X0094955Y0049976D02*
X0088014Y0049976D01*
X0088014Y0051975D02*
X0095350Y0051975D01*
X0096144Y0053973D02*
X0088014Y0053973D01*
X0088014Y0055972D02*
X0096489Y0055972D01*
X0097340Y0057970D02*
X0087335Y0057970D01*
X0088260Y0061016D02*
X0083614Y0061016D01*
X0088414Y0061016D01*
X0083614Y0061016D01*
X0083614Y0061016D01*
X0099984Y0047978D02*
X0101447Y0047978D01*
X0103446Y0045979D02*
X0089727Y0045979D01*
X0089727Y0043981D02*
X0103486Y0043981D01*
X0103311Y0041982D02*
X0091300Y0041982D01*
X0079972Y0036685D02*
X0079972Y0032110D01*
X0079972Y0036685D01*
X0077561Y0036685D01*
X0077561Y0036685D01*
X0079972Y0036685D01*
X0079972Y0036685D01*
X0079972Y0036685D01*
X0079972Y0035987D02*
X0079972Y0035987D01*
X0079972Y0033988D02*
X0079972Y0033988D01*
X0079972Y0032110D02*
X0080332Y0032110D01*
X0081044Y0032223D01*
X0081729Y0032445D01*
X0082370Y0032772D01*
X0082953Y0033196D01*
X0083462Y0033705D01*
X0083885Y0034287D01*
X0084212Y0034929D01*
X0084281Y0035142D01*
X0086320Y0033103D01*
X0087433Y0031990D01*
X0113024Y0031990D01*
X0113024Y0031307D01*
X0113494Y0030171D01*
X0113669Y0029997D01*
X0104593Y0029997D01*
X0103564Y0029571D01*
X0102776Y0028783D01*
X0100865Y0026872D01*
X0100731Y0026872D01*
X0099114Y0026203D01*
X0098132Y0025221D01*
X0098132Y0025935D01*
X0097195Y0026872D01*
X0090270Y0026872D01*
X0089332Y0025935D01*
X0089332Y0019748D01*
X0025622Y0019748D01*
X0025244Y0019785D01*
X0024546Y0020074D01*
X0024011Y0020609D01*
X0023722Y0021307D01*
X0023708Y0021457D01*
X0026035Y0021457D01*
X0026035Y0025425D01*
X0026035Y0025425D01*
X0026035Y0029394D01*
X0026035Y0031872D01*
X0026035Y0031872D01*
X0026035Y0038319D01*
X0026035Y0042287D01*
X0026035Y0044766D01*
X0026035Y0047244D01*
X0026035Y0051212D01*
X0026035Y0051212D01*
X0026035Y0044766D01*
X0026035Y0044766D01*
X0026035Y0044766D01*
X0026035Y0038319D01*
X0026035Y0038319D01*
X0026035Y0038319D01*
X0026035Y0034350D01*
X0026035Y0031872D01*
X0026035Y0031872D01*
X0026035Y0025425D01*
X0026035Y0025425D01*
X0026035Y0021457D01*
X0028464Y0021457D01*
X0028973Y0021593D01*
X0029429Y0021856D01*
X0029665Y0022092D01*
X0029900Y0021857D01*
X0035556Y0021857D01*
X0036494Y0022794D01*
X0036494Y0023431D01*
X0042087Y0023431D01*
X0042826Y0022693D01*
X0043925Y0022238D01*
X0045115Y0022238D01*
X0046214Y0022693D01*
X0047055Y0023534D01*
X0047510Y0024633D01*
X0047510Y0025823D01*
X0047055Y0026922D01*
X0046214Y0027764D01*
X0045115Y0028219D01*
X0043925Y0028219D01*
X0042826Y0027764D01*
X0042481Y0027419D01*
X0036494Y0027419D01*
X0036494Y0028056D01*
X0035902Y0028649D01*
X0036494Y0029241D01*
X0036494Y0029878D01*
X0037422Y0029878D01*
X0040018Y0032474D01*
X0040784Y0032474D01*
X0041883Y0032929D01*
X0042724Y0033771D01*
X0043180Y0034870D01*
X0043180Y0036059D01*
X0042724Y0037159D01*
X0041883Y0038000D01*
X0040784Y0038455D01*
X0039594Y0038455D01*
X0038849Y0038146D01*
X0038849Y0038815D01*
X0038415Y0039864D01*
X0046094Y0039864D01*
X0051975Y0045745D01*
X0051975Y0043944D01*
X0051881Y0043905D01*
X0051040Y0043064D01*
X0050584Y0041965D01*
X0050584Y0040775D01*
X0051040Y0039676D01*
X0051121Y0039594D01*
X0051020Y0039636D01*
X0049830Y0039636D01*
X0048731Y0039181D01*
X0047890Y0038340D01*
X0047435Y0037241D01*
X0047435Y0036051D01*
X0047890Y0034952D01*
X0048731Y0034110D01*
X0049830Y0033655D01*
X0050686Y0033655D01*
X0050646Y0033615D01*
X0050191Y0032516D01*
X0050191Y0031326D01*
X0050646Y0030227D01*
X0051487Y0029386D01*
X0052322Y0029040D01*
X0052307Y0029004D01*
X0052154Y0028231D01*
X0052154Y0027837D01*
X0052154Y0027443D01*
X0052274Y0026837D01*
X0052154Y0026231D01*
X0052154Y0025837D01*
X0052154Y0025443D01*
X0052274Y0024837D01*
X0052154Y0024231D01*
X0052154Y0023837D01*
X0052154Y0023443D01*
X0052307Y0022670D01*
X0052609Y0021942D01*
X0053047Y0021287D01*
X0053604Y0020730D01*
X0054259Y0020292D01*
X0054987Y0019991D01*
X0055760Y0019837D01*
X0056153Y0019837D01*
X0056153Y0023837D01*
X0056154Y0023837D01*
X0056154Y0025837D01*
X0056153Y0025837D01*
X0056153Y0023837D01*
X0056154Y0023837D01*
X0056154Y0019837D01*
X0056548Y0019837D01*
X0057320Y0019991D01*
X0058048Y0020292D01*
X0058703Y0020730D01*
X0059261Y0021287D01*
X0059698Y0021942D01*
X0060000Y0022670D01*
X0060154Y0023443D01*
X0060154Y0023837D01*
X0060154Y0024231D01*
X0060033Y0024837D01*
X0060154Y0025443D01*
X0060154Y0025837D01*
X0060154Y0026231D01*
X0060033Y0026837D01*
X0060154Y0027443D01*
X0060154Y0027837D01*
X0060154Y0028231D01*
X0060032Y0028840D01*
X0069716Y0028840D01*
X0070829Y0029953D01*
X0075757Y0034881D01*
X0076060Y0034287D01*
X0076483Y0033705D01*
X0076992Y0033196D01*
X0077575Y0032772D01*
X0078216Y0032445D01*
X0078901Y0032223D01*
X0079612Y0032110D01*
X0079972Y0032110D01*
X0081590Y0030387D02*
X0082147Y0030944D01*
X0082802Y0031382D01*
X0083530Y0031683D01*
X0084303Y0031837D01*
X0084697Y0031837D01*
X0084697Y0027837D01*
X0084697Y0025837D01*
X0084697Y0023837D01*
X0084697Y0019837D01*
X0085091Y0019837D01*
X0085864Y0019991D01*
X0086592Y0020292D01*
X0087247Y0020730D01*
X0087804Y0021287D01*
X0088242Y0021942D01*
X0088543Y0022670D01*
X0088697Y0023443D01*
X0088697Y0023837D01*
X0088697Y0024231D01*
X0088576Y0024837D01*
X0088697Y0025443D01*
X0088697Y0025837D01*
X0088697Y0026231D01*
X0088576Y0026837D01*
X0088697Y0027443D01*
X0088697Y0027837D01*
X0088697Y0028231D01*
X0088543Y0029004D01*
X0088242Y0029732D01*
X0087804Y0030387D01*
X0087247Y0030944D01*
X0086592Y0031382D01*
X0085864Y0031683D01*
X0085091Y0031837D01*
X0084697Y0031837D01*
X0084697Y0027837D01*
X0084697Y0027837D01*
X0084697Y0027837D01*
X0084697Y0025837D01*
X0084697Y0025837D01*
X0084697Y0025837D01*
X0084697Y0023837D01*
X0084697Y0023837D01*
X0084697Y0023837D01*
X0084697Y0019837D01*
X0084303Y0019837D01*
X0083530Y0019991D01*
X0082802Y0020292D01*
X0082147Y0020730D01*
X0081590Y0021287D01*
X0081152Y0021942D01*
X0080851Y0022670D01*
X0080697Y0023443D01*
X0080697Y0023837D01*
X0081223Y0023837D01*
X0081222Y0023837D01*
X0080697Y0023837D01*
X0080697Y0024231D01*
X0080817Y0024837D01*
X0080697Y0025443D01*
X0080697Y0025837D01*
X0081222Y0025837D01*
X0081222Y0025837D01*
X0081222Y0025837D01*
X0080697Y0025837D01*
X0080697Y0026231D01*
X0080817Y0026837D01*
X0080697Y0027443D01*
X0080697Y0027837D01*
X0081222Y0027837D01*
X0081222Y0027837D01*
X0080697Y0027837D01*
X0080697Y0028231D01*
X0080851Y0029004D01*
X0081152Y0029732D01*
X0081590Y0030387D01*
X0081325Y0029991D02*
X0070867Y0029991D01*
X0072866Y0031990D02*
X0113024Y0031990D01*
X0104579Y0029991D02*
X0088068Y0029991D01*
X0088697Y0027993D02*
X0101986Y0027993D01*
X0098905Y0025994D02*
X0098073Y0025994D01*
X0089391Y0025994D02*
X0088697Y0025994D01*
X0088697Y0025837D02*
X0088171Y0025837D01*
X0088171Y0025837D01*
X0088171Y0025837D01*
X0088697Y0025837D01*
X0088697Y0023996D02*
X0089332Y0023996D01*
X0088697Y0023837D02*
X0088171Y0023837D01*
X0088171Y0023837D01*
X0088697Y0023837D01*
X0088264Y0021997D02*
X0089332Y0021997D01*
X0089332Y0019999D02*
X0085883Y0019999D01*
X0084697Y0019999D02*
X0084697Y0019999D01*
X0083511Y0019999D02*
X0057339Y0019999D01*
X0056154Y0019999D02*
X0056153Y0019999D01*
X0054968Y0019999D02*
X0024729Y0019999D01*
X0026035Y0021997D02*
X0026035Y0021997D01*
X0026035Y0023996D02*
X0026035Y0023996D01*
X0026035Y0025994D02*
X0026035Y0025994D01*
X0026035Y0027993D02*
X0026035Y0027993D01*
X0026035Y0029991D02*
X0026035Y0029991D01*
X0026035Y0031990D02*
X0026035Y0031990D01*
X0026035Y0033988D02*
X0026035Y0033988D01*
X0026035Y0035987D02*
X0026035Y0035987D01*
X0026035Y0037985D02*
X0026035Y0037985D01*
X0026035Y0039984D02*
X0026035Y0039984D01*
X0026035Y0041982D02*
X0026035Y0041982D01*
X0026035Y0043981D02*
X0026035Y0043981D01*
X0026035Y0045979D02*
X0026035Y0045979D01*
X0026035Y0047978D02*
X0026035Y0047978D01*
X0026035Y0049976D02*
X0026035Y0049976D01*
X0026035Y0051213D02*
X0026035Y0055181D01*
X0026035Y0057659D01*
X0026035Y0057659D01*
X0026035Y0051213D01*
X0026035Y0051213D01*
X0026035Y0051975D02*
X0026035Y0051975D01*
X0026035Y0053973D02*
X0026035Y0053973D01*
X0026035Y0055972D02*
X0026035Y0055972D01*
X0026035Y0057660D02*
X0026035Y0061628D01*
X0026035Y0064106D01*
X0026035Y0064106D01*
X0026035Y0057660D01*
X0026035Y0057660D01*
X0026035Y0057970D02*
X0026035Y0057970D01*
X0026035Y0059969D02*
X0026035Y0059969D01*
X0026035Y0061967D02*
X0026035Y0061967D01*
X0026035Y0063966D02*
X0026035Y0063966D01*
X0026035Y0064106D02*
X0026035Y0068075D01*
X0026035Y0070553D01*
X0026035Y0070553D01*
X0026035Y0073031D01*
X0026035Y0077000D01*
X0026035Y0077000D01*
X0026035Y0070553D01*
X0026035Y0070553D01*
X0026035Y0064106D01*
X0026035Y0064106D01*
X0026035Y0065964D02*
X0026035Y0065964D01*
X0026035Y0067963D02*
X0026035Y0067963D01*
X0026035Y0069961D02*
X0026035Y0069961D01*
X0026035Y0071960D02*
X0026035Y0071960D01*
X0026035Y0073958D02*
X0026035Y0073958D01*
X0026035Y0075957D02*
X0026035Y0075957D01*
X0035902Y0073777D02*
X0036482Y0074357D01*
X0037152Y0073688D01*
X0038251Y0073232D01*
X0039441Y0073232D01*
X0040540Y0073688D01*
X0041381Y0074529D01*
X0041836Y0075628D01*
X0041836Y0076818D01*
X0041381Y0077917D01*
X0040540Y0078758D01*
X0039780Y0079073D01*
X0039151Y0079702D01*
X0039151Y0080039D01*
X0039592Y0080039D01*
X0040529Y0080977D01*
X0040529Y0081518D01*
X0041332Y0080715D01*
X0042678Y0080715D01*
X0043219Y0080173D01*
X0044319Y0079718D01*
X0045508Y0079718D01*
X0046607Y0080173D01*
X0047449Y0081015D01*
X0047904Y0082114D01*
X0047904Y0082271D01*
X0055519Y0082271D01*
X0055519Y0078561D01*
X0048030Y0078561D01*
X0047093Y0077623D01*
X0047093Y0068954D01*
X0046603Y0068954D01*
X0046154Y0068506D01*
X0046110Y0068582D01*
X0045738Y0068955D01*
X0045282Y0069218D01*
X0044773Y0069354D01*
X0042541Y0069354D01*
X0040310Y0069354D01*
X0039801Y0069218D01*
X0039345Y0068955D01*
X0038972Y0068582D01*
X0038709Y0068126D01*
X0038609Y0067754D01*
X0037590Y0067754D01*
X0036491Y0067299D01*
X0036212Y0067020D01*
X0035902Y0067330D01*
X0036103Y0067532D01*
X0037159Y0067969D01*
X0038000Y0068810D01*
X0038455Y0069909D01*
X0038455Y0071099D01*
X0038000Y0072198D01*
X0037159Y0073039D01*
X0036271Y0073407D01*
X0035902Y0073777D01*
X0036083Y0073958D02*
X0036881Y0073958D01*
X0038098Y0071960D02*
X0047093Y0071960D01*
X0047093Y0073958D02*
X0040811Y0073958D01*
X0041836Y0075957D02*
X0047093Y0075957D01*
X0047425Y0077955D02*
X0041342Y0077955D01*
X0039151Y0079954D02*
X0043749Y0079954D01*
X0046078Y0079954D02*
X0055519Y0079954D01*
X0055519Y0081952D02*
X0047837Y0081952D01*
X0032095Y0083608D02*
X0029591Y0083608D01*
X0025622Y0083608D01*
X0032095Y0083608D01*
X0032095Y0083608D01*
X0025622Y0083608D02*
X0025622Y0083608D01*
X0038455Y0069961D02*
X0047093Y0069961D01*
X0042541Y0069354D02*
X0042541Y0065189D01*
X0041175Y0065189D01*
X0041175Y0065189D01*
X0042541Y0065189D01*
X0042541Y0065189D01*
X0042541Y0069354D01*
X0042541Y0067963D02*
X0042541Y0067963D01*
X0038665Y0067963D02*
X0037145Y0067963D01*
X0042541Y0065964D02*
X0042541Y0065964D01*
X0042541Y0065189D02*
X0042541Y0065189D01*
X0042541Y0065189D01*
X0042541Y0058299D01*
X0042541Y0058299D01*
X0042541Y0055378D01*
X0042541Y0051410D01*
X0042541Y0051410D01*
X0042541Y0058299D01*
X0042541Y0058299D01*
X0042541Y0061024D01*
X0042541Y0065189D01*
X0042541Y0063966D02*
X0042541Y0063966D01*
X0042541Y0061967D02*
X0042541Y0061967D01*
X0042541Y0059969D02*
X0042541Y0059969D01*
X0042541Y0057970D02*
X0042541Y0057970D01*
X0042541Y0055972D02*
X0042541Y0055972D01*
X0042541Y0053973D02*
X0042541Y0053973D01*
X0042541Y0051975D02*
X0042541Y0051975D01*
X0050211Y0043981D02*
X0051975Y0043981D01*
X0050591Y0041982D02*
X0048212Y0041982D01*
X0046214Y0039984D02*
X0050912Y0039984D01*
X0047743Y0037985D02*
X0041898Y0037985D01*
X0043180Y0035987D02*
X0047461Y0035987D01*
X0049026Y0033988D02*
X0042814Y0033988D01*
X0039534Y0031990D02*
X0050191Y0031990D01*
X0050882Y0029991D02*
X0037535Y0029991D01*
X0036494Y0027993D02*
X0043379Y0027993D01*
X0045661Y0027993D02*
X0052154Y0027993D01*
X0052154Y0027837D02*
X0052679Y0027837D01*
X0052154Y0027837D01*
X0052679Y0027837D02*
X0052679Y0027837D01*
X0056153Y0027837D02*
X0056154Y0027837D01*
X0056154Y0025837D01*
X0056153Y0025837D01*
X0056153Y0027837D01*
X0056153Y0025994D02*
X0056154Y0025994D01*
X0052679Y0025837D02*
X0052679Y0025837D01*
X0052154Y0025837D01*
X0052679Y0025837D01*
X0052679Y0025837D01*
X0052154Y0025994D02*
X0047439Y0025994D01*
X0047246Y0023996D02*
X0052154Y0023996D01*
X0052154Y0023837D02*
X0052679Y0023837D01*
X0052679Y0023837D01*
X0052154Y0023837D01*
X0056153Y0023996D02*
X0056154Y0023996D01*
X0056153Y0021997D02*
X0056154Y0021997D01*
X0052586Y0021997D02*
X0035697Y0021997D01*
X0029760Y0021997D02*
X0029570Y0021997D01*
X0059628Y0023837D02*
X0059628Y0023837D01*
X0060154Y0023837D01*
X0059628Y0023837D01*
X0060154Y0023996D02*
X0080697Y0023996D01*
X0080697Y0025994D02*
X0060154Y0025994D01*
X0060154Y0025837D02*
X0059628Y0025837D01*
X0059628Y0025837D01*
X0059628Y0025837D01*
X0060154Y0025837D01*
X0060154Y0027837D02*
X0059628Y0027837D01*
X0059628Y0027837D01*
X0060154Y0027837D01*
X0060154Y0027993D02*
X0080697Y0027993D01*
X0084697Y0027993D02*
X0084697Y0027993D01*
X0084697Y0029991D02*
X0084697Y0029991D01*
X0088171Y0027837D02*
X0088697Y0027837D01*
X0088171Y0027837D01*
X0088171Y0027837D01*
X0084697Y0025994D02*
X0084697Y0025994D01*
X0084697Y0023996D02*
X0084697Y0023996D01*
X0084697Y0021997D02*
X0084697Y0021997D01*
X0081129Y0021997D02*
X0059721Y0021997D01*
X0064466Y0033840D02*
X0064791Y0034287D01*
X0065118Y0034929D01*
X0065340Y0035614D01*
X0065453Y0036325D01*
X0065453Y0036685D01*
X0065453Y0037045D01*
X0065340Y0037756D01*
X0065118Y0038441D01*
X0064791Y0039083D01*
X0064367Y0039665D01*
X0064263Y0039770D01*
X0067269Y0039770D01*
X0067288Y0039789D01*
X0067307Y0039770D01*
X0067763Y0039506D01*
X0068272Y0039370D01*
X0070913Y0039370D01*
X0070913Y0043748D01*
X0071669Y0043748D01*
X0071669Y0039370D01*
X0073175Y0039370D01*
X0067645Y0033840D01*
X0064466Y0033840D01*
X0064573Y0033988D02*
X0067793Y0033988D01*
X0069792Y0035987D02*
X0065399Y0035987D01*
X0065453Y0036685D02*
X0060878Y0036685D01*
X0060878Y0036685D01*
X0065453Y0036685D01*
X0065266Y0037985D02*
X0071790Y0037985D01*
X0071669Y0039984D02*
X0070913Y0039984D01*
X0070913Y0041982D02*
X0071669Y0041982D01*
X0071669Y0043748D02*
X0075543Y0043748D01*
X0075543Y0044245D01*
X0075650Y0044504D01*
X0071669Y0044504D01*
X0071669Y0043748D01*
X0071669Y0043981D02*
X0075543Y0043981D01*
X0074864Y0033988D02*
X0076277Y0033988D01*
X0083668Y0033988D02*
X0085435Y0033988D01*
X0086320Y0033103D02*
X0086320Y0033103D01*
X0118744Y0049059D02*
X0118744Y0049059D01*
X0119531Y0048271D02*
X0119531Y0048271D01*
X0119825Y0047978D02*
X0128630Y0047978D01*
X0127265Y0049976D02*
X0117826Y0049976D01*
X0121823Y0045979D02*
X0130013Y0045979D01*
X0130945Y0043981D02*
X0123822Y0043981D01*
X0125634Y0042169D02*
X0125634Y0042169D01*
X0125820Y0041982D02*
X0130013Y0041982D01*
X0126962Y0040840D02*
X0126962Y0040840D01*
X0127819Y0039984D02*
X0130333Y0039984D01*
X0124589Y0034283D02*
X0123260Y0034283D01*
X0124047Y0031528D02*
X0125622Y0031528D01*
X0124835Y0030740D01*
X0123260Y0030740D01*
X0124047Y0031528D01*
X0125425Y0031331D02*
X0125622Y0031528D01*
X0128225Y0029991D02*
X0139163Y0029991D01*
X0139364Y0027993D02*
X0128225Y0027993D01*
X0132118Y0026539D02*
X0132118Y0022571D01*
X0132118Y0022571D01*
X0132118Y0026539D01*
X0132118Y0025994D02*
X0132118Y0025994D01*
X0128579Y0025994D02*
X0128399Y0025994D01*
X0125425Y0026409D02*
X0125425Y0027984D01*
X0125425Y0026409D02*
X0125425Y0022571D01*
X0132118Y0023996D02*
X0132118Y0023996D01*
X0137679Y0022571D02*
X0137679Y0020286D01*
X0137827Y0020139D01*
X0138773Y0031990D02*
X0128613Y0031990D01*
X0128422Y0033988D02*
X0139995Y0033988D01*
X0140710Y0053973D02*
X0185039Y0053973D01*
X0185039Y0055972D02*
X0140856Y0055972D01*
X0142083Y0057970D02*
X0185039Y0057970D01*
X0185039Y0059969D02*
X0141883Y0059969D01*
X0141168Y0065964D02*
X0185039Y0065964D01*
X0185039Y0063966D02*
X0131065Y0063966D01*
X0131065Y0061967D02*
X0185039Y0061967D01*
X0185039Y0067963D02*
X0143197Y0067963D01*
X0143169Y0069961D02*
X0185039Y0069961D01*
X0185039Y0071960D02*
X0141009Y0071960D01*
X0139499Y0071960D02*
X0136229Y0071960D01*
X0139909Y0073958D02*
X0185039Y0073958D01*
X0185039Y0075957D02*
X0140943Y0075957D01*
X0138503Y0081952D02*
X0086120Y0081952D01*
X0086120Y0079954D02*
X0106905Y0079954D01*
X0095360Y0085949D02*
X0139270Y0085949D01*
X0138378Y0083951D02*
X0087850Y0083951D01*
X0084839Y0087163D02*
X0083560Y0085883D01*
X0079526Y0085883D01*
X0079291Y0085648D01*
X0079055Y0085884D01*
X0078599Y0086147D01*
X0078090Y0086283D01*
X0075661Y0086283D01*
X0075272Y0086283D01*
X0075272Y0087643D01*
X0075469Y0087501D01*
X0076142Y0087158D01*
X0076860Y0086924D01*
X0077606Y0086806D01*
X0077984Y0086806D01*
X0077984Y0091606D01*
X0077984Y0091606D01*
X0077984Y0086806D01*
X0078362Y0086806D01*
X0079108Y0086924D01*
X0079827Y0087158D01*
X0080500Y0087501D01*
X0081111Y0087945D01*
X0081645Y0088479D01*
X0082090Y0089091D01*
X0082116Y0089143D01*
X0082128Y0089114D01*
X0083366Y0087876D01*
X0084912Y0087236D01*
X0084839Y0087163D01*
X0083294Y0087948D02*
X0081114Y0087948D01*
X0078941Y0085949D02*
X0083626Y0085949D01*
X0077984Y0087948D02*
X0077984Y0087948D01*
X0075661Y0086283D02*
X0075661Y0082315D01*
X0075661Y0086283D01*
X0075661Y0085949D02*
X0075661Y0085949D01*
X0075661Y0083951D02*
X0075661Y0083951D01*
X0075661Y0082315D02*
X0075661Y0082315D01*
X0077984Y0089946D02*
X0077984Y0089946D01*
X0096296Y0087948D02*
X0099042Y0087948D01*
X0104170Y0087948D02*
X0105276Y0087948D01*
X0113685Y0087948D02*
X0139263Y0087948D01*
X0134849Y0089946D02*
X0113880Y0089946D01*
X0113880Y0091945D02*
X0134849Y0091945D01*
X0134849Y0093944D02*
X0113880Y0093944D01*
X0155728Y0077955D02*
X0185039Y0077955D01*
X0185039Y0079954D02*
X0157727Y0079954D01*
X0159415Y0081952D02*
X0185039Y0081952D01*
X0185039Y0083951D02*
X0159415Y0083951D01*
X0159415Y0085949D02*
X0185039Y0085949D01*
X0185039Y0087948D02*
X0159415Y0087948D01*
X0160883Y0089946D02*
X0185039Y0089946D01*
X0185039Y0091945D02*
X0160883Y0091945D01*
X0160883Y0093944D02*
X0184397Y0093944D01*
X0139339Y0065964D02*
X0133990Y0065964D01*
X0132161Y0065964D02*
X0131065Y0065964D01*
D26*
X0093732Y0087433D02*
X0092551Y0086252D01*
X0087039Y0086252D01*
X0083102Y0082315D01*
X0082354Y0082315D01*
X0093732Y0087433D02*
X0093732Y0091606D01*
X0042541Y0065189D02*
X0040376Y0067354D01*
X0039598Y0067354D01*
X0041764Y0065189D01*
X0039598Y0067354D02*
X0029165Y0067354D01*
X0026035Y0064224D01*
X0026035Y0064106D01*
X0027787Y0065858D01*
X0027787Y0068732D01*
X0026035Y0070484D01*
X0026035Y0070553D01*
X0027787Y0068732D02*
X0029165Y0067354D01*
X0026823Y0067354D01*
X0026035Y0068142D01*
D27*
X0090583Y0082315D03*
X0102183Y0083935D03*
X0131876Y0072507D03*
X0133076Y0068929D03*
X0129165Y0068929D03*
X0140254Y0068929D03*
X0137854Y0076271D03*
X0149638Y0082709D03*
X0141370Y0083102D03*
X0108299Y0060661D03*
X0100337Y0057133D03*
X0102726Y0054462D03*
X0105256Y0051932D03*
X0107786Y0049402D03*
X0110316Y0046872D03*
X0113417Y0044913D03*
X0098044Y0050406D03*
X0133102Y0046192D03*
X0133102Y0041370D03*
X0116113Y0031921D03*
X0133076Y0055150D03*
X0137854Y0055150D03*
X0139054Y0058728D03*
X0133076Y0058728D03*
X0165386Y0036279D03*
D28*
X0169323Y0036252D02*
X0169323Y0028772D01*
X0164992Y0024441D01*
X0164402Y0023850D01*
X0164057Y0024195D01*
X0164057Y0024441D01*
X0164992Y0024441D01*
X0164402Y0023850D02*
X0163294Y0022743D01*
X0162359Y0022743D01*
X0162187Y0022571D01*
X0162359Y0022743D02*
X0164057Y0024441D01*
X0169323Y0036252D02*
X0164205Y0041370D01*
X0133102Y0041370D01*
X0133102Y0046192D02*
X0129165Y0050129D01*
X0129165Y0068929D01*
X0133076Y0068929D02*
X0140254Y0068929D01*
X0134089Y0072507D02*
X0137854Y0076271D01*
X0134089Y0072507D02*
X0131876Y0072507D01*
X0133076Y0058728D02*
X0139054Y0058728D01*
X0137854Y0055150D02*
X0133076Y0055150D01*
X0113417Y0044913D02*
X0113417Y0040189D01*
X0108318Y0035090D01*
X0088718Y0035090D01*
X0082447Y0041360D01*
X0077852Y0041360D01*
X0068432Y0031940D01*
X0057099Y0031940D01*
X0055472Y0033568D01*
X0055472Y0034677D01*
X0052787Y0036646D02*
X0050425Y0036646D01*
X0052787Y0036646D02*
X0056612Y0040470D01*
X0059459Y0040470D01*
X0060117Y0041127D01*
X0060954Y0041127D01*
X0061520Y0041693D01*
X0060240Y0041250D02*
X0062651Y0043661D01*
X0063488Y0043661D01*
X0060240Y0041250D02*
X0060117Y0041127D01*
X0051606Y0048063D02*
X0085617Y0048063D01*
X0087827Y0045853D01*
X0087827Y0042769D01*
X0090706Y0039890D01*
X0103905Y0039890D01*
X0105386Y0041370D01*
X0105386Y0046726D01*
X0102726Y0049386D01*
X0102726Y0054462D01*
X0105256Y0051932D02*
X0105397Y0051791D01*
X0105397Y0048412D01*
X0106586Y0047223D01*
X0106586Y0040566D01*
X0104709Y0038690D01*
X0090209Y0038690D01*
X0085496Y0043403D01*
X0085496Y0044945D01*
X0083442Y0043760D02*
X0089712Y0037490D01*
X0105206Y0037490D01*
X0107786Y0040069D01*
X0107786Y0049402D01*
X0110316Y0046872D02*
X0110403Y0046784D01*
X0110403Y0038872D01*
X0107821Y0036290D01*
X0089215Y0036290D01*
X0082945Y0042560D01*
X0079550Y0042560D01*
X0078534Y0043576D01*
X0078534Y0043650D01*
X0081915Y0044850D02*
X0083006Y0043760D01*
X0083442Y0043760D01*
X0081950Y0040160D02*
X0078349Y0040160D01*
X0068929Y0030740D01*
X0054362Y0030740D01*
X0053181Y0031921D01*
X0056154Y0027837D02*
X0056154Y0023837D01*
X0056154Y0025837D01*
X0084697Y0025837D02*
X0084697Y0023837D01*
X0088220Y0033890D02*
X0114144Y0033890D01*
X0116113Y0031921D01*
X0088220Y0033890D02*
X0081950Y0040160D01*
X0098044Y0050406D02*
X0098044Y0054840D01*
X0100337Y0057133D01*
X0051606Y0048063D02*
X0045307Y0041764D01*
X0030346Y0041764D01*
X0030213Y0041897D01*
X0030190Y0041897D01*
X0029559Y0042528D01*
X0029559Y0060268D01*
X0030346Y0061055D01*
X0035307Y0061055D01*
X0036095Y0061843D01*
X0036095Y0062674D01*
X0038185Y0064764D01*
X0032728Y0064106D02*
X0030290Y0064106D01*
X0030191Y0064205D01*
X0038385Y0061070D02*
X0038385Y0055798D01*
X0038314Y0055727D01*
X0038314Y0049150D01*
X0039402Y0048063D01*
X0045307Y0048063D01*
X0046094Y0048850D01*
X0046094Y0062049D01*
X0049234Y0065189D01*
D29*
X0141764Y0031528D02*
X0141764Y0025179D01*
X0144372Y0022571D01*
X0156626Y0022571D02*
X0156626Y0029461D01*
X0158693Y0031528D01*
X0165386Y0031528D01*
X0173260Y0031134D02*
X0173260Y0026409D01*
X0171685Y0024835D01*
X0171685Y0022571D01*
X0168880Y0022571D01*
X0169421Y0022571D01*
X0171685Y0024835D01*
X0173260Y0023752D02*
X0173260Y0026409D01*
X0173260Y0023752D02*
X0174441Y0022571D01*
X0171685Y0022571D01*
M02*
