%
M48
M72
T01C0.01181
T02C0.01378
T03C0.02000
T04C0.03150
T05C0.03600
%
T01
X26409Y20504
X36252Y20504
X44520Y25228
X46094Y20504
X53181Y31921
X55472Y34677
X50425Y36646
X53575Y41370
X40189Y35465
X35858Y38220
X35858Y44913
X35465Y51213
X40605Y54778
X35465Y57512
X38385Y61070
X38185Y64764
X40376Y67354
X35465Y70504
X30191Y64205
X35465Y77197
X38846Y76223
X44913Y82709
X28772Y83608
X72472Y91764
X52000Y51213
X78534Y43650
X81915Y44850
X85496Y44945
X90189Y49244
X125622Y31528
X129953Y31528
X141764Y31528
X137827Y20139
X165386Y31528
X173260Y31134
X184649Y31528
X184649Y39402
X174806Y39402
X174806Y47276
X184649Y47276
X184649Y55150
X174806Y55150
X174806Y63024
X184649Y63024
X184649Y70898
X174806Y70898
X174806Y78772
X184649Y78772
T02
X165386Y36279
X133102Y41370
X133102Y46192
X133076Y55150
X137854Y55150
X139054Y58728
X133076Y58728
X133076Y68929
X129165Y68929
X131876Y72507
X137854Y76271
X149638Y82709
X141370Y83102
X140254Y68929
X108299Y60661
X100337Y57133
X102726Y54462
X105256Y51932
X107786Y49402
X110316Y46872
X113417Y44913
X98044Y50406
X116113Y31921
X90583Y82315
X102183Y83935
T03
X56154Y23837
X56154Y25837
X56154Y27837
X84697Y27837
X84697Y25837
X84697Y23837
T04
X60878Y36685
X79972Y36685
T05
X93732Y22472
X101606Y22472
X109480Y22472
X83614Y53142
X83614Y61016
X85858Y91606
X93732Y91606
X101606Y91606
X109480Y91606
X77984Y91606
M30
