G75*
%MOIN*%
%OFA0B0*%
%FSLAX25Y25*%
%IPPOS*%
%LPD*%
%AMOC8*
5,1,8,0,0,1.08239X$1,22.5*
%
%ADD10C,0.00000*%
%ADD11R,0.03937X0.04331*%
%ADD12R,0.04331X0.03937*%
%ADD13R,0.05512X0.05512*%
%ADD14R,0.06000X0.01181*%
%ADD15R,0.11600X0.11200*%
%ADD16R,0.02362X0.04921*%
%ADD17R,0.03543X0.03150*%
%ADD18R,0.04724X0.07874*%
%ADD19R,0.07874X0.04724*%
%ADD20R,0.04724X0.02165*%
%ADD21R,0.01575X0.05315*%
%ADD22C,0.03740*%
D10*
X0025622Y0017748D02*
X0183102Y0017748D01*
X0183226Y0017750D01*
X0183349Y0017756D01*
X0183473Y0017765D01*
X0183595Y0017779D01*
X0183718Y0017796D01*
X0183840Y0017818D01*
X0183961Y0017843D01*
X0184081Y0017872D01*
X0184200Y0017904D01*
X0184319Y0017941D01*
X0184436Y0017981D01*
X0184551Y0018024D01*
X0184666Y0018072D01*
X0184778Y0018123D01*
X0184889Y0018177D01*
X0184999Y0018235D01*
X0185106Y0018296D01*
X0185212Y0018361D01*
X0185315Y0018429D01*
X0185416Y0018500D01*
X0185515Y0018574D01*
X0185612Y0018651D01*
X0185706Y0018732D01*
X0185797Y0018815D01*
X0185886Y0018901D01*
X0185972Y0018990D01*
X0186055Y0019081D01*
X0186136Y0019175D01*
X0186213Y0019272D01*
X0186287Y0019371D01*
X0186358Y0019472D01*
X0186426Y0019575D01*
X0186491Y0019681D01*
X0186552Y0019788D01*
X0186610Y0019898D01*
X0186664Y0020009D01*
X0186715Y0020121D01*
X0186763Y0020236D01*
X0186806Y0020351D01*
X0186846Y0020468D01*
X0186883Y0020587D01*
X0186915Y0020706D01*
X0186944Y0020826D01*
X0186969Y0020947D01*
X0186991Y0021069D01*
X0187008Y0021192D01*
X0187022Y0021314D01*
X0187031Y0021438D01*
X0187037Y0021561D01*
X0187039Y0021685D01*
X0187039Y0092551D01*
X0187037Y0092675D01*
X0187031Y0092798D01*
X0187022Y0092922D01*
X0187008Y0093044D01*
X0186991Y0093167D01*
X0186969Y0093289D01*
X0186944Y0093410D01*
X0186915Y0093530D01*
X0186883Y0093649D01*
X0186846Y0093768D01*
X0186806Y0093885D01*
X0186763Y0094000D01*
X0186715Y0094115D01*
X0186664Y0094227D01*
X0186610Y0094338D01*
X0186552Y0094448D01*
X0186491Y0094555D01*
X0186426Y0094661D01*
X0186358Y0094764D01*
X0186287Y0094865D01*
X0186213Y0094964D01*
X0186136Y0095061D01*
X0186055Y0095155D01*
X0185972Y0095246D01*
X0185886Y0095335D01*
X0185797Y0095421D01*
X0185706Y0095504D01*
X0185612Y0095585D01*
X0185515Y0095662D01*
X0185416Y0095736D01*
X0185315Y0095807D01*
X0185212Y0095875D01*
X0185106Y0095940D01*
X0184999Y0096001D01*
X0184889Y0096059D01*
X0184778Y0096113D01*
X0184666Y0096164D01*
X0184551Y0096212D01*
X0184436Y0096255D01*
X0184319Y0096295D01*
X0184200Y0096332D01*
X0184081Y0096364D01*
X0183961Y0096393D01*
X0183840Y0096418D01*
X0183718Y0096440D01*
X0183595Y0096457D01*
X0183473Y0096471D01*
X0183349Y0096480D01*
X0183226Y0096486D01*
X0183102Y0096488D01*
X0025622Y0096488D01*
X0025498Y0096486D01*
X0025375Y0096480D01*
X0025251Y0096471D01*
X0025129Y0096457D01*
X0025006Y0096440D01*
X0024884Y0096418D01*
X0024763Y0096393D01*
X0024643Y0096364D01*
X0024524Y0096332D01*
X0024405Y0096295D01*
X0024288Y0096255D01*
X0024173Y0096212D01*
X0024058Y0096164D01*
X0023946Y0096113D01*
X0023835Y0096059D01*
X0023725Y0096001D01*
X0023618Y0095940D01*
X0023512Y0095875D01*
X0023409Y0095807D01*
X0023308Y0095736D01*
X0023209Y0095662D01*
X0023112Y0095585D01*
X0023018Y0095504D01*
X0022927Y0095421D01*
X0022838Y0095335D01*
X0022752Y0095246D01*
X0022669Y0095155D01*
X0022588Y0095061D01*
X0022511Y0094964D01*
X0022437Y0094865D01*
X0022366Y0094764D01*
X0022298Y0094661D01*
X0022233Y0094555D01*
X0022172Y0094448D01*
X0022114Y0094338D01*
X0022060Y0094227D01*
X0022009Y0094115D01*
X0021961Y0094000D01*
X0021918Y0093885D01*
X0021878Y0093768D01*
X0021841Y0093649D01*
X0021809Y0093530D01*
X0021780Y0093410D01*
X0021755Y0093289D01*
X0021733Y0093167D01*
X0021716Y0093044D01*
X0021702Y0092922D01*
X0021693Y0092798D01*
X0021687Y0092675D01*
X0021685Y0092551D01*
X0021685Y0021685D01*
X0021687Y0021561D01*
X0021693Y0021438D01*
X0021702Y0021314D01*
X0021716Y0021192D01*
X0021733Y0021069D01*
X0021755Y0020947D01*
X0021780Y0020826D01*
X0021809Y0020706D01*
X0021841Y0020587D01*
X0021878Y0020468D01*
X0021918Y0020351D01*
X0021961Y0020236D01*
X0022009Y0020121D01*
X0022060Y0020009D01*
X0022114Y0019898D01*
X0022172Y0019788D01*
X0022233Y0019681D01*
X0022298Y0019575D01*
X0022366Y0019472D01*
X0022437Y0019371D01*
X0022511Y0019272D01*
X0022588Y0019175D01*
X0022669Y0019081D01*
X0022752Y0018990D01*
X0022838Y0018901D01*
X0022927Y0018815D01*
X0023018Y0018732D01*
X0023112Y0018651D01*
X0023209Y0018574D01*
X0023308Y0018500D01*
X0023409Y0018429D01*
X0023512Y0018361D01*
X0023618Y0018296D01*
X0023725Y0018235D01*
X0023835Y0018177D01*
X0023946Y0018123D01*
X0024058Y0018072D01*
X0024173Y0018024D01*
X0024288Y0017981D01*
X0024405Y0017941D01*
X0024524Y0017904D01*
X0024643Y0017872D01*
X0024763Y0017843D01*
X0024884Y0017818D01*
X0025006Y0017796D01*
X0025129Y0017779D01*
X0025251Y0017765D01*
X0025375Y0017756D01*
X0025498Y0017750D01*
X0025622Y0017748D01*
D11*
X0066409Y0045504D03*
X0073102Y0045504D03*
X0090110Y0043063D03*
X0096803Y0043063D03*
X0089992Y0037197D03*
X0089992Y0030504D03*
X0090583Y0053772D03*
X0090583Y0060465D03*
D12*
X0073890Y0066370D03*
X0067197Y0066370D03*
X0053181Y0077197D03*
X0053181Y0083890D03*
X0061134Y0090386D03*
X0067827Y0090386D03*
D13*
X0059874Y0065780D03*
X0059874Y0050819D03*
D14*
X0045709Y0050217D03*
X0045709Y0052185D03*
X0045709Y0054154D03*
X0045709Y0056122D03*
X0045709Y0058091D03*
X0045709Y0060059D03*
X0045709Y0062028D03*
X0045709Y0063996D03*
X0045709Y0065965D03*
X0045709Y0067933D03*
X0045709Y0069902D03*
X0045709Y0071870D03*
X0045709Y0073839D03*
X0045709Y0075807D03*
X0045709Y0077776D03*
X0045709Y0079744D03*
X0045709Y0048248D03*
X0045709Y0046280D03*
X0045709Y0044311D03*
X0045709Y0042343D03*
X0045709Y0040374D03*
X0045709Y0038406D03*
X0045709Y0036437D03*
X0045709Y0034469D03*
D15*
X0036109Y0027606D03*
X0036109Y0086606D03*
D16*
X0060583Y0083063D03*
X0068063Y0083063D03*
X0068063Y0073220D03*
X0064323Y0073220D03*
X0060583Y0073220D03*
D17*
X0066646Y0059480D03*
X0074520Y0055740D03*
X0066646Y0052000D03*
D18*
X0125925Y0025634D03*
X0133799Y0025634D03*
X0141673Y0025634D03*
X0149547Y0025634D03*
X0157421Y0025634D03*
X0165295Y0025634D03*
X0173169Y0025634D03*
X0181043Y0025634D03*
X0181043Y0088626D03*
X0173169Y0088626D03*
X0165295Y0088626D03*
X0157421Y0088626D03*
X0149547Y0088626D03*
X0141673Y0088626D03*
X0133799Y0088626D03*
X0125925Y0088626D03*
D19*
X0120098Y0076815D03*
X0120098Y0068941D03*
X0120098Y0061067D03*
X0120098Y0053193D03*
X0120098Y0045319D03*
X0120098Y0037445D03*
D20*
X0108181Y0037827D03*
X0108181Y0034087D03*
X0108181Y0030346D03*
X0097944Y0030346D03*
X0097944Y0037827D03*
D21*
X0075543Y0037256D03*
X0072984Y0037256D03*
X0070425Y0037256D03*
X0067866Y0037256D03*
X0065307Y0037256D03*
D22*
X0067571Y0027807D02*
X0067571Y0024067D01*
X0063831Y0024067D01*
X0063831Y0027807D01*
X0067571Y0027807D01*
X0067571Y0027806D02*
X0063831Y0027806D01*
X0077020Y0027807D02*
X0077020Y0024067D01*
X0073280Y0024067D01*
X0073280Y0027807D01*
X0077020Y0027807D01*
X0077020Y0027806D02*
X0073280Y0027806D01*
M02*
