G75*
%MOIN*%
%OFA0B0*%
%FSLAX25Y25*%
%IPPOS*%
%LPD*%
%AMOC8*
5,1,8,0,0,1.08239X$1,22.5*
%
%ADD10C,0.00000*%
%ADD11C,0.00600*%
%ADD12C,0.00500*%
%ADD13C,0.00800*%
%ADD14C,0.00400*%
%ADD15R,0.01969X0.03740*%
%ADD16R,0.03740X0.01969*%
%ADD17C,0.01000*%
%ADD18R,0.03346X0.02953*%
%ADD19R,0.05315X0.03543*%
%ADD20R,0.01969X0.01969*%
%ADD21R,0.01600X0.03400*%
%ADD22R,0.03400X0.01600*%
D10*
X0025622Y0017748D02*
X0183102Y0017748D01*
X0183226Y0017750D01*
X0183349Y0017756D01*
X0183473Y0017765D01*
X0183595Y0017779D01*
X0183718Y0017796D01*
X0183840Y0017818D01*
X0183961Y0017843D01*
X0184081Y0017872D01*
X0184200Y0017904D01*
X0184319Y0017941D01*
X0184436Y0017981D01*
X0184551Y0018024D01*
X0184666Y0018072D01*
X0184778Y0018123D01*
X0184889Y0018177D01*
X0184999Y0018235D01*
X0185106Y0018296D01*
X0185212Y0018361D01*
X0185315Y0018429D01*
X0185416Y0018500D01*
X0185515Y0018574D01*
X0185612Y0018651D01*
X0185706Y0018732D01*
X0185797Y0018815D01*
X0185886Y0018901D01*
X0185972Y0018990D01*
X0186055Y0019081D01*
X0186136Y0019175D01*
X0186213Y0019272D01*
X0186287Y0019371D01*
X0186358Y0019472D01*
X0186426Y0019575D01*
X0186491Y0019681D01*
X0186552Y0019788D01*
X0186610Y0019898D01*
X0186664Y0020009D01*
X0186715Y0020121D01*
X0186763Y0020236D01*
X0186806Y0020351D01*
X0186846Y0020468D01*
X0186883Y0020587D01*
X0186915Y0020706D01*
X0186944Y0020826D01*
X0186969Y0020947D01*
X0186991Y0021069D01*
X0187008Y0021192D01*
X0187022Y0021314D01*
X0187031Y0021438D01*
X0187037Y0021561D01*
X0187039Y0021685D01*
X0187039Y0092551D01*
X0187037Y0092675D01*
X0187031Y0092798D01*
X0187022Y0092922D01*
X0187008Y0093044D01*
X0186991Y0093167D01*
X0186969Y0093289D01*
X0186944Y0093410D01*
X0186915Y0093530D01*
X0186883Y0093649D01*
X0186846Y0093768D01*
X0186806Y0093885D01*
X0186763Y0094000D01*
X0186715Y0094115D01*
X0186664Y0094227D01*
X0186610Y0094338D01*
X0186552Y0094448D01*
X0186491Y0094555D01*
X0186426Y0094661D01*
X0186358Y0094764D01*
X0186287Y0094865D01*
X0186213Y0094964D01*
X0186136Y0095061D01*
X0186055Y0095155D01*
X0185972Y0095246D01*
X0185886Y0095335D01*
X0185797Y0095421D01*
X0185706Y0095504D01*
X0185612Y0095585D01*
X0185515Y0095662D01*
X0185416Y0095736D01*
X0185315Y0095807D01*
X0185212Y0095875D01*
X0185106Y0095940D01*
X0184999Y0096001D01*
X0184889Y0096059D01*
X0184778Y0096113D01*
X0184666Y0096164D01*
X0184551Y0096212D01*
X0184436Y0096255D01*
X0184319Y0096295D01*
X0184200Y0096332D01*
X0184081Y0096364D01*
X0183961Y0096393D01*
X0183840Y0096418D01*
X0183718Y0096440D01*
X0183595Y0096457D01*
X0183473Y0096471D01*
X0183349Y0096480D01*
X0183226Y0096486D01*
X0183102Y0096488D01*
X0025622Y0096488D01*
X0025498Y0096486D01*
X0025375Y0096480D01*
X0025251Y0096471D01*
X0025129Y0096457D01*
X0025006Y0096440D01*
X0024884Y0096418D01*
X0024763Y0096393D01*
X0024643Y0096364D01*
X0024524Y0096332D01*
X0024405Y0096295D01*
X0024288Y0096255D01*
X0024173Y0096212D01*
X0024058Y0096164D01*
X0023946Y0096113D01*
X0023835Y0096059D01*
X0023725Y0096001D01*
X0023618Y0095940D01*
X0023512Y0095875D01*
X0023409Y0095807D01*
X0023308Y0095736D01*
X0023209Y0095662D01*
X0023112Y0095585D01*
X0023018Y0095504D01*
X0022927Y0095421D01*
X0022838Y0095335D01*
X0022752Y0095246D01*
X0022669Y0095155D01*
X0022588Y0095061D01*
X0022511Y0094964D01*
X0022437Y0094865D01*
X0022366Y0094764D01*
X0022298Y0094661D01*
X0022233Y0094555D01*
X0022172Y0094448D01*
X0022114Y0094338D01*
X0022060Y0094227D01*
X0022009Y0094115D01*
X0021961Y0094000D01*
X0021918Y0093885D01*
X0021878Y0093768D01*
X0021841Y0093649D01*
X0021809Y0093530D01*
X0021780Y0093410D01*
X0021755Y0093289D01*
X0021733Y0093167D01*
X0021716Y0093044D01*
X0021702Y0092922D01*
X0021693Y0092798D01*
X0021687Y0092675D01*
X0021685Y0092551D01*
X0021685Y0021685D01*
X0021687Y0021561D01*
X0021693Y0021438D01*
X0021702Y0021314D01*
X0021716Y0021192D01*
X0021733Y0021069D01*
X0021755Y0020947D01*
X0021780Y0020826D01*
X0021809Y0020706D01*
X0021841Y0020587D01*
X0021878Y0020468D01*
X0021918Y0020351D01*
X0021961Y0020236D01*
X0022009Y0020121D01*
X0022060Y0020009D01*
X0022114Y0019898D01*
X0022172Y0019788D01*
X0022233Y0019681D01*
X0022298Y0019575D01*
X0022366Y0019472D01*
X0022437Y0019371D01*
X0022511Y0019272D01*
X0022588Y0019175D01*
X0022669Y0019081D01*
X0022752Y0018990D01*
X0022838Y0018901D01*
X0022927Y0018815D01*
X0023018Y0018732D01*
X0023112Y0018651D01*
X0023209Y0018574D01*
X0023308Y0018500D01*
X0023409Y0018429D01*
X0023512Y0018361D01*
X0023618Y0018296D01*
X0023725Y0018235D01*
X0023835Y0018177D01*
X0023946Y0018123D01*
X0024058Y0018072D01*
X0024173Y0018024D01*
X0024288Y0017981D01*
X0024405Y0017941D01*
X0024524Y0017904D01*
X0024643Y0017872D01*
X0024763Y0017843D01*
X0024884Y0017818D01*
X0025006Y0017796D01*
X0025129Y0017779D01*
X0025251Y0017765D01*
X0025375Y0017756D01*
X0025498Y0017750D01*
X0025622Y0017748D01*
D11*
X0088614Y0018142D02*
X0088614Y0026409D01*
X0089795Y0027591D01*
X0094126Y0027591D01*
X0094913Y0028378D01*
X0094913Y0028117D02*
X0114598Y0028117D01*
X0114205Y0028117D02*
X0124047Y0028117D01*
X0124047Y0027591D02*
X0124047Y0030740D01*
X0114205Y0030740D01*
X0114205Y0027591D01*
X0124047Y0027591D01*
X0124047Y0028716D02*
X0114205Y0028716D01*
X0114598Y0028716D02*
X0094913Y0028716D01*
X0094913Y0029314D02*
X0114598Y0029314D01*
X0114205Y0029314D02*
X0124047Y0029314D01*
X0124047Y0029913D02*
X0114205Y0029913D01*
X0114598Y0029913D02*
X0094913Y0029913D01*
X0094913Y0030511D02*
X0114598Y0030511D01*
X0114598Y0030740D02*
X0185858Y0030740D01*
X0124835Y0030740D01*
X0124047Y0029953D01*
X0124047Y0030511D02*
X0114205Y0030511D01*
X0114598Y0030740D02*
X0114598Y0027591D01*
X0094913Y0027591D01*
X0094913Y0067354D01*
X0088614Y0067354D01*
X0088614Y0086646D01*
X0185858Y0086646D01*
X0185858Y0030740D01*
X0186055Y0030740D02*
X0186055Y0086646D01*
X0186252Y0086646D01*
X0186252Y0030740D01*
X0182709Y0030740D01*
X0182709Y0027197D01*
X0186252Y0027197D01*
X0186252Y0030740D01*
X0186252Y0030511D02*
X0182709Y0030511D01*
X0182709Y0029953D02*
X0181528Y0031134D01*
X0182709Y0029913D02*
X0186252Y0029913D01*
X0186252Y0029314D02*
X0182709Y0029314D01*
X0182709Y0028716D02*
X0186252Y0028716D01*
X0186252Y0028117D02*
X0182709Y0028117D01*
X0182709Y0027519D02*
X0186252Y0027519D01*
X0179488Y0023972D02*
X0176087Y0023972D01*
X0176087Y0021169D02*
X0179488Y0021169D01*
X0167234Y0021169D02*
X0163833Y0021169D01*
X0163833Y0023972D02*
X0167234Y0023972D01*
X0154980Y0023972D02*
X0151579Y0023972D01*
X0151579Y0021169D02*
X0154980Y0021169D01*
X0142726Y0021169D02*
X0139325Y0021169D01*
X0139325Y0023972D02*
X0142726Y0023972D01*
X0124835Y0030740D02*
X0114598Y0030740D01*
X0114598Y0027591D01*
X0094126Y0027591D01*
X0089795Y0027591D02*
X0089598Y0027591D01*
X0088614Y0028575D01*
X0088614Y0027591D01*
X0088614Y0026409D01*
X0088614Y0027591D02*
X0089598Y0027591D01*
X0088614Y0028575D02*
X0088614Y0047276D01*
X0087827Y0048063D01*
X0087827Y0048457D02*
X0088614Y0049244D01*
X0088614Y0047276D01*
X0088614Y0049244D02*
X0088614Y0064992D01*
X0087827Y0065780D01*
X0087827Y0066173D02*
X0089008Y0067354D01*
X0089402Y0067354D02*
X0088614Y0066567D01*
X0088614Y0064992D01*
X0088614Y0066567D02*
X0088614Y0085858D01*
X0087827Y0086646D01*
X0088614Y0086646D02*
X0088614Y0085858D01*
X0088614Y0085574D02*
X0185858Y0085574D01*
X0185858Y0084976D02*
X0088614Y0084976D01*
X0088614Y0084377D02*
X0185858Y0084377D01*
X0185858Y0083779D02*
X0088614Y0083779D01*
X0088614Y0083180D02*
X0185858Y0083180D01*
X0185858Y0082582D02*
X0088614Y0082582D01*
X0088614Y0081983D02*
X0185858Y0081983D01*
X0185858Y0081385D02*
X0088614Y0081385D01*
X0088614Y0080786D02*
X0185858Y0080786D01*
X0185858Y0080188D02*
X0088614Y0080188D01*
X0088614Y0079589D02*
X0185858Y0079589D01*
X0185858Y0078991D02*
X0088614Y0078991D01*
X0088614Y0078392D02*
X0185858Y0078392D01*
X0185858Y0077794D02*
X0088614Y0077794D01*
X0088614Y0077195D02*
X0185858Y0077195D01*
X0185858Y0076597D02*
X0088614Y0076597D01*
X0088614Y0075998D02*
X0185858Y0075998D01*
X0185858Y0075400D02*
X0088614Y0075400D01*
X0088614Y0074801D02*
X0185858Y0074801D01*
X0185858Y0074203D02*
X0088614Y0074203D01*
X0088614Y0073604D02*
X0185858Y0073604D01*
X0185858Y0073006D02*
X0088614Y0073006D01*
X0088614Y0072407D02*
X0185858Y0072407D01*
X0185858Y0071809D02*
X0088614Y0071809D01*
X0088614Y0071210D02*
X0185858Y0071210D01*
X0185858Y0070612D02*
X0088614Y0070612D01*
X0088614Y0070013D02*
X0185858Y0070013D01*
X0185858Y0069415D02*
X0088614Y0069415D01*
X0088614Y0068816D02*
X0185858Y0068816D01*
X0185858Y0068217D02*
X0088614Y0068217D01*
X0088614Y0067619D02*
X0185858Y0067619D01*
X0185858Y0067020D02*
X0094913Y0067020D01*
X0094913Y0066567D02*
X0094126Y0067354D01*
X0094913Y0066422D02*
X0185858Y0066422D01*
X0185858Y0065823D02*
X0094913Y0065823D01*
X0094913Y0065225D02*
X0185858Y0065225D01*
X0185858Y0064626D02*
X0094913Y0064626D01*
X0094913Y0064028D02*
X0185858Y0064028D01*
X0185858Y0063429D02*
X0094913Y0063429D01*
X0094913Y0062831D02*
X0185858Y0062831D01*
X0185858Y0062232D02*
X0094913Y0062232D01*
X0094913Y0061634D02*
X0185858Y0061634D01*
X0185858Y0061035D02*
X0094913Y0061035D01*
X0094913Y0060437D02*
X0185858Y0060437D01*
X0185858Y0059838D02*
X0094913Y0059838D01*
X0094913Y0059240D02*
X0185858Y0059240D01*
X0185858Y0058641D02*
X0094913Y0058641D01*
X0094913Y0058043D02*
X0185858Y0058043D01*
X0185858Y0057444D02*
X0094913Y0057444D01*
X0094913Y0056846D02*
X0185858Y0056846D01*
X0185858Y0056247D02*
X0094913Y0056247D01*
X0094913Y0055649D02*
X0185858Y0055649D01*
X0185858Y0055050D02*
X0094913Y0055050D01*
X0094913Y0054452D02*
X0185858Y0054452D01*
X0185858Y0053853D02*
X0094913Y0053853D01*
X0094913Y0053255D02*
X0185858Y0053255D01*
X0185858Y0052656D02*
X0094913Y0052656D01*
X0094913Y0052058D02*
X0185858Y0052058D01*
X0185858Y0051459D02*
X0094913Y0051459D01*
X0094913Y0050861D02*
X0185858Y0050861D01*
X0185858Y0050262D02*
X0094913Y0050262D01*
X0094913Y0049664D02*
X0185858Y0049664D01*
X0185858Y0049065D02*
X0094913Y0049065D01*
X0094913Y0048467D02*
X0185858Y0048467D01*
X0185858Y0047868D02*
X0094913Y0047868D01*
X0094913Y0047270D02*
X0185858Y0047270D01*
X0185858Y0046671D02*
X0094913Y0046671D01*
X0094913Y0046073D02*
X0185858Y0046073D01*
X0185858Y0045474D02*
X0094913Y0045474D01*
X0094913Y0044876D02*
X0185858Y0044876D01*
X0185858Y0044277D02*
X0094913Y0044277D01*
X0094913Y0043679D02*
X0185858Y0043679D01*
X0185858Y0043080D02*
X0094913Y0043080D01*
X0094913Y0042481D02*
X0185858Y0042481D01*
X0185858Y0041883D02*
X0094913Y0041883D01*
X0094913Y0041284D02*
X0185858Y0041284D01*
X0185858Y0040686D02*
X0094913Y0040686D01*
X0094913Y0040087D02*
X0185858Y0040087D01*
X0185858Y0039489D02*
X0094913Y0039489D01*
X0094913Y0038890D02*
X0185858Y0038890D01*
X0185858Y0038292D02*
X0094913Y0038292D01*
X0094913Y0037693D02*
X0185858Y0037693D01*
X0185858Y0037095D02*
X0094913Y0037095D01*
X0094913Y0036496D02*
X0185858Y0036496D01*
X0185858Y0035898D02*
X0094913Y0035898D01*
X0094913Y0035299D02*
X0185858Y0035299D01*
X0185858Y0034701D02*
X0094913Y0034701D01*
X0094913Y0034102D02*
X0185858Y0034102D01*
X0185858Y0033504D02*
X0094913Y0033504D01*
X0094913Y0032905D02*
X0185858Y0032905D01*
X0185858Y0032307D02*
X0094913Y0032307D01*
X0094913Y0031708D02*
X0185858Y0031708D01*
X0185858Y0031110D02*
X0094913Y0031110D01*
X0113417Y0027197D02*
X0114205Y0026409D01*
X0115386Y0027591D01*
X0115780Y0027591D02*
X0114598Y0026409D01*
X0114205Y0026409D02*
X0114205Y0017748D01*
X0047589Y0063787D02*
X0044187Y0063787D01*
X0044187Y0066591D02*
X0047589Y0066591D01*
X0043694Y0081354D02*
X0038494Y0081354D01*
X0038494Y0092554D01*
X0043694Y0092554D01*
X0043694Y0081354D01*
X0033497Y0085254D02*
X0033497Y0088655D01*
X0030694Y0088655D02*
X0030694Y0085254D01*
X0077307Y0075646D02*
X0080709Y0075646D01*
X0080709Y0072843D02*
X0077307Y0072843D01*
X0088614Y0086173D02*
X0185858Y0086173D01*
X0186055Y0086646D02*
X0115386Y0086646D01*
X0114598Y0087433D01*
X0114205Y0087433D01*
X0113417Y0086646D01*
X0088614Y0086646D01*
X0113417Y0086646D02*
X0115386Y0086646D01*
X0140063Y0090362D02*
X0143465Y0090362D01*
X0143465Y0093165D02*
X0140063Y0093165D01*
X0152268Y0093165D02*
X0155669Y0093165D01*
X0155669Y0090362D02*
X0152268Y0090362D01*
D12*
X0160955Y0090789D02*
X0160955Y0093045D01*
X0161581Y0093045D01*
X0161581Y0093046D02*
X0161630Y0093044D01*
X0161679Y0093038D01*
X0161727Y0093029D01*
X0161775Y0093015D01*
X0161821Y0092998D01*
X0161866Y0092978D01*
X0161909Y0092954D01*
X0161950Y0092926D01*
X0161988Y0092896D01*
X0162024Y0092862D01*
X0162058Y0092826D01*
X0162088Y0092788D01*
X0162116Y0092747D01*
X0162140Y0092704D01*
X0162160Y0092659D01*
X0162177Y0092613D01*
X0162191Y0092565D01*
X0162200Y0092517D01*
X0162206Y0092468D01*
X0162208Y0092419D01*
X0162206Y0092370D01*
X0162200Y0092321D01*
X0162191Y0092273D01*
X0162177Y0092225D01*
X0162160Y0092179D01*
X0162140Y0092134D01*
X0162116Y0092091D01*
X0162088Y0092050D01*
X0162058Y0092012D01*
X0162024Y0091976D01*
X0161988Y0091942D01*
X0161950Y0091912D01*
X0161909Y0091884D01*
X0161866Y0091860D01*
X0161821Y0091840D01*
X0161775Y0091823D01*
X0161727Y0091809D01*
X0161679Y0091800D01*
X0161630Y0091794D01*
X0161581Y0091792D01*
X0160955Y0091792D01*
X0161707Y0091792D02*
X0162208Y0090789D01*
X0163409Y0091291D02*
X0164662Y0091291D01*
X0164286Y0091792D02*
X0164286Y0090789D01*
X0163409Y0091291D02*
X0163910Y0093045D01*
X0135135Y0093045D02*
X0133881Y0093045D01*
X0133881Y0092043D01*
X0134633Y0092043D01*
X0134633Y0092042D02*
X0134677Y0092040D01*
X0134720Y0092034D01*
X0134763Y0092025D01*
X0134804Y0092012D01*
X0134845Y0091995D01*
X0134884Y0091975D01*
X0134920Y0091951D01*
X0134955Y0091925D01*
X0134987Y0091895D01*
X0135017Y0091863D01*
X0135043Y0091828D01*
X0135067Y0091792D01*
X0135087Y0091753D01*
X0135104Y0091712D01*
X0135117Y0091671D01*
X0135126Y0091628D01*
X0135132Y0091585D01*
X0135134Y0091541D01*
X0135135Y0091541D02*
X0135135Y0091291D01*
X0135134Y0091291D02*
X0135132Y0091247D01*
X0135126Y0091204D01*
X0135117Y0091161D01*
X0135104Y0091120D01*
X0135087Y0091079D01*
X0135067Y0091041D01*
X0135043Y0091004D01*
X0135017Y0090969D01*
X0134987Y0090937D01*
X0134955Y0090907D01*
X0134920Y0090881D01*
X0134884Y0090857D01*
X0134845Y0090837D01*
X0134804Y0090820D01*
X0134763Y0090807D01*
X0134720Y0090798D01*
X0134677Y0090792D01*
X0134633Y0090790D01*
X0134633Y0090789D02*
X0133881Y0090789D01*
X0132680Y0090789D02*
X0132179Y0091792D01*
X0132054Y0091792D02*
X0131427Y0091792D01*
X0132054Y0091792D02*
X0132103Y0091794D01*
X0132152Y0091800D01*
X0132200Y0091809D01*
X0132248Y0091823D01*
X0132294Y0091840D01*
X0132339Y0091860D01*
X0132382Y0091884D01*
X0132423Y0091912D01*
X0132461Y0091942D01*
X0132497Y0091976D01*
X0132531Y0092012D01*
X0132561Y0092050D01*
X0132589Y0092091D01*
X0132613Y0092134D01*
X0132633Y0092179D01*
X0132650Y0092225D01*
X0132664Y0092273D01*
X0132673Y0092321D01*
X0132679Y0092370D01*
X0132681Y0092419D01*
X0132679Y0092468D01*
X0132673Y0092517D01*
X0132664Y0092565D01*
X0132650Y0092613D01*
X0132633Y0092659D01*
X0132613Y0092704D01*
X0132589Y0092747D01*
X0132561Y0092788D01*
X0132531Y0092826D01*
X0132497Y0092862D01*
X0132461Y0092896D01*
X0132423Y0092926D01*
X0132382Y0092954D01*
X0132339Y0092978D01*
X0132294Y0092998D01*
X0132248Y0093015D01*
X0132200Y0093029D01*
X0132152Y0093038D01*
X0132103Y0093044D01*
X0132054Y0093046D01*
X0132054Y0093045D02*
X0131427Y0093045D01*
X0131427Y0090789D01*
X0118600Y0091431D02*
X0118600Y0092183D01*
X0117347Y0092183D01*
X0117347Y0091807D01*
X0116846Y0090930D02*
X0116802Y0090932D01*
X0116759Y0090938D01*
X0116716Y0090947D01*
X0116675Y0090960D01*
X0116634Y0090977D01*
X0116596Y0090997D01*
X0116559Y0091021D01*
X0116524Y0091047D01*
X0116492Y0091077D01*
X0116462Y0091109D01*
X0116436Y0091144D01*
X0116412Y0091180D01*
X0116392Y0091219D01*
X0116375Y0091260D01*
X0116362Y0091301D01*
X0116353Y0091344D01*
X0116347Y0091387D01*
X0116345Y0091431D01*
X0116344Y0091431D02*
X0116344Y0092183D01*
X0116846Y0090930D02*
X0118099Y0090930D01*
X0118143Y0090932D01*
X0118186Y0090938D01*
X0118229Y0090947D01*
X0118270Y0090960D01*
X0118311Y0090977D01*
X0118350Y0090997D01*
X0118386Y0091021D01*
X0118421Y0091047D01*
X0118453Y0091077D01*
X0118483Y0091109D01*
X0118509Y0091144D01*
X0118533Y0091181D01*
X0118553Y0091219D01*
X0118570Y0091260D01*
X0118583Y0091301D01*
X0118592Y0091344D01*
X0118598Y0091387D01*
X0118600Y0091431D01*
X0118600Y0093616D02*
X0116344Y0093616D01*
X0117598Y0094368D01*
X0116344Y0095120D01*
X0118600Y0095120D01*
X0117598Y0089136D02*
X0117598Y0088510D01*
X0117598Y0089136D02*
X0117596Y0089185D01*
X0117590Y0089234D01*
X0117581Y0089282D01*
X0117567Y0089330D01*
X0117550Y0089376D01*
X0117530Y0089421D01*
X0117506Y0089464D01*
X0117478Y0089505D01*
X0117448Y0089543D01*
X0117414Y0089579D01*
X0117378Y0089613D01*
X0117340Y0089643D01*
X0117299Y0089671D01*
X0117256Y0089695D01*
X0117211Y0089715D01*
X0117165Y0089732D01*
X0117117Y0089746D01*
X0117069Y0089755D01*
X0117020Y0089761D01*
X0116971Y0089763D01*
X0116922Y0089761D01*
X0116873Y0089755D01*
X0116825Y0089746D01*
X0116777Y0089732D01*
X0116731Y0089715D01*
X0116686Y0089695D01*
X0116643Y0089671D01*
X0116602Y0089643D01*
X0116564Y0089613D01*
X0116528Y0089579D01*
X0116494Y0089543D01*
X0116464Y0089505D01*
X0116436Y0089464D01*
X0116412Y0089421D01*
X0116392Y0089376D01*
X0116375Y0089330D01*
X0116361Y0089282D01*
X0116352Y0089234D01*
X0116346Y0089185D01*
X0116344Y0089136D01*
X0116344Y0088510D01*
X0118600Y0088510D01*
X0087821Y0084638D02*
X0086818Y0084638D01*
X0087320Y0085014D02*
X0087320Y0083761D01*
X0085565Y0084262D01*
X0085565Y0081907D02*
X0087821Y0081907D01*
X0087821Y0082533D02*
X0087821Y0081280D01*
X0087821Y0080204D02*
X0087821Y0079703D01*
X0087819Y0079659D01*
X0087813Y0079616D01*
X0087804Y0079573D01*
X0087791Y0079532D01*
X0087774Y0079491D01*
X0087754Y0079453D01*
X0087730Y0079416D01*
X0087704Y0079381D01*
X0087674Y0079349D01*
X0087642Y0079319D01*
X0087607Y0079293D01*
X0087571Y0079269D01*
X0087532Y0079249D01*
X0087491Y0079232D01*
X0087450Y0079219D01*
X0087407Y0079210D01*
X0087364Y0079204D01*
X0087320Y0079202D01*
X0087320Y0079201D02*
X0086066Y0079201D01*
X0086066Y0079202D02*
X0086022Y0079204D01*
X0085979Y0079210D01*
X0085936Y0079219D01*
X0085895Y0079232D01*
X0085854Y0079249D01*
X0085816Y0079269D01*
X0085779Y0079293D01*
X0085744Y0079319D01*
X0085712Y0079349D01*
X0085682Y0079381D01*
X0085656Y0079416D01*
X0085632Y0079452D01*
X0085612Y0079491D01*
X0085595Y0079532D01*
X0085582Y0079573D01*
X0085573Y0079616D01*
X0085567Y0079659D01*
X0085565Y0079703D01*
X0085565Y0080204D01*
X0086066Y0081280D02*
X0085565Y0081907D01*
X0086477Y0076164D02*
X0087730Y0075099D01*
X0087730Y0076352D01*
X0085976Y0075098D02*
X0085928Y0075116D01*
X0085882Y0075136D01*
X0085837Y0075160D01*
X0085794Y0075187D01*
X0085753Y0075216D01*
X0085714Y0075249D01*
X0085678Y0075284D01*
X0085644Y0075322D01*
X0085613Y0075362D01*
X0085584Y0075404D01*
X0085559Y0075447D01*
X0085537Y0075493D01*
X0085518Y0075540D01*
X0085502Y0075588D01*
X0085490Y0075637D01*
X0085481Y0075687D01*
X0085476Y0075737D01*
X0085474Y0075788D01*
X0085476Y0075835D01*
X0085482Y0075881D01*
X0085491Y0075926D01*
X0085505Y0075971D01*
X0085522Y0076015D01*
X0085542Y0076056D01*
X0085566Y0076096D01*
X0085593Y0076134D01*
X0085623Y0076170D01*
X0085656Y0076203D01*
X0085692Y0076233D01*
X0085730Y0076260D01*
X0085770Y0076284D01*
X0085811Y0076304D01*
X0085855Y0076321D01*
X0085900Y0076335D01*
X0085945Y0076344D01*
X0085991Y0076350D01*
X0086038Y0076352D01*
X0086038Y0076353D02*
X0086083Y0076351D01*
X0086127Y0076346D01*
X0086171Y0076338D01*
X0086214Y0076327D01*
X0086256Y0076312D01*
X0086297Y0076295D01*
X0086337Y0076274D01*
X0086375Y0076251D01*
X0086411Y0076225D01*
X0086445Y0076196D01*
X0086477Y0076165D01*
X0087730Y0073898D02*
X0086728Y0073397D01*
X0086728Y0073272D02*
X0086728Y0072645D01*
X0086728Y0073272D02*
X0086726Y0073321D01*
X0086720Y0073370D01*
X0086711Y0073418D01*
X0086697Y0073466D01*
X0086680Y0073512D01*
X0086660Y0073557D01*
X0086636Y0073600D01*
X0086608Y0073641D01*
X0086578Y0073679D01*
X0086544Y0073715D01*
X0086508Y0073749D01*
X0086470Y0073779D01*
X0086429Y0073807D01*
X0086386Y0073831D01*
X0086341Y0073851D01*
X0086295Y0073868D01*
X0086247Y0073882D01*
X0086199Y0073891D01*
X0086150Y0073897D01*
X0086101Y0073899D01*
X0086052Y0073897D01*
X0086003Y0073891D01*
X0085955Y0073882D01*
X0085907Y0073868D01*
X0085861Y0073851D01*
X0085816Y0073831D01*
X0085773Y0073807D01*
X0085732Y0073779D01*
X0085694Y0073749D01*
X0085658Y0073715D01*
X0085624Y0073679D01*
X0085594Y0073641D01*
X0085566Y0073600D01*
X0085542Y0073557D01*
X0085522Y0073512D01*
X0085505Y0073466D01*
X0085491Y0073418D01*
X0085482Y0073370D01*
X0085476Y0073321D01*
X0085474Y0073272D01*
X0085474Y0072645D01*
X0087730Y0072645D01*
X0091764Y0064971D02*
X0092892Y0064971D01*
X0092892Y0063969D02*
X0090636Y0063969D01*
X0091388Y0063969D02*
X0091388Y0064595D01*
X0091390Y0064632D01*
X0091395Y0064668D01*
X0091404Y0064704D01*
X0091417Y0064739D01*
X0091432Y0064772D01*
X0091451Y0064804D01*
X0091473Y0064834D01*
X0091498Y0064861D01*
X0091525Y0064886D01*
X0091555Y0064908D01*
X0091587Y0064927D01*
X0091620Y0064942D01*
X0091655Y0064955D01*
X0091691Y0064964D01*
X0091727Y0064969D01*
X0091764Y0064971D01*
X0092328Y0062636D02*
X0092328Y0061508D01*
X0092892Y0061320D02*
X0090636Y0062072D01*
X0092892Y0062824D01*
X0092892Y0060096D02*
X0091764Y0060096D01*
X0091727Y0060094D01*
X0091691Y0060089D01*
X0091655Y0060080D01*
X0091620Y0060067D01*
X0091587Y0060052D01*
X0091555Y0060033D01*
X0091525Y0060011D01*
X0091498Y0059986D01*
X0091473Y0059959D01*
X0091451Y0059929D01*
X0091432Y0059897D01*
X0091417Y0059864D01*
X0091404Y0059829D01*
X0091395Y0059793D01*
X0091390Y0059757D01*
X0091388Y0059720D01*
X0091388Y0058592D01*
X0092892Y0058592D01*
X0092892Y0059344D02*
X0091388Y0059344D01*
X0091764Y0055989D02*
X0091848Y0055991D01*
X0091932Y0055997D01*
X0092016Y0056006D01*
X0092099Y0056020D01*
X0092182Y0056037D01*
X0092264Y0056057D01*
X0092344Y0056082D01*
X0092424Y0056110D01*
X0092502Y0056142D01*
X0092579Y0056177D01*
X0092390Y0056114D02*
X0091137Y0057117D01*
X0090950Y0057055D02*
X0090911Y0057040D01*
X0090875Y0057022D01*
X0090840Y0057000D01*
X0090807Y0056975D01*
X0090776Y0056948D01*
X0090748Y0056918D01*
X0090722Y0056886D01*
X0090700Y0056851D01*
X0090681Y0056815D01*
X0090665Y0056777D01*
X0090652Y0056738D01*
X0090643Y0056698D01*
X0090638Y0056657D01*
X0090636Y0056616D01*
X0090638Y0056575D01*
X0090643Y0056534D01*
X0090652Y0056494D01*
X0090665Y0056455D01*
X0090681Y0056417D01*
X0090700Y0056381D01*
X0090722Y0056346D01*
X0090748Y0056314D01*
X0090776Y0056284D01*
X0090807Y0056257D01*
X0090840Y0056232D01*
X0090875Y0056210D01*
X0090911Y0056192D01*
X0090950Y0056177D01*
X0090949Y0057054D02*
X0091026Y0057089D01*
X0091104Y0057121D01*
X0091184Y0057149D01*
X0091264Y0057174D01*
X0091346Y0057194D01*
X0091429Y0057211D01*
X0091512Y0057225D01*
X0091596Y0057234D01*
X0091680Y0057240D01*
X0091764Y0057242D01*
X0091764Y0055989D02*
X0091680Y0055991D01*
X0091596Y0055997D01*
X0091512Y0056006D01*
X0091429Y0056020D01*
X0091346Y0056037D01*
X0091264Y0056057D01*
X0091184Y0056082D01*
X0091104Y0056110D01*
X0091026Y0056142D01*
X0090949Y0056177D01*
X0091764Y0057242D02*
X0091848Y0057240D01*
X0091932Y0057234D01*
X0092016Y0057225D01*
X0092099Y0057211D01*
X0092182Y0057194D01*
X0092264Y0057174D01*
X0092344Y0057149D01*
X0092424Y0057121D01*
X0092502Y0057089D01*
X0092579Y0057054D01*
X0092578Y0057055D02*
X0092617Y0057040D01*
X0092654Y0057022D01*
X0092689Y0057000D01*
X0092721Y0056975D01*
X0092752Y0056948D01*
X0092780Y0056918D01*
X0092806Y0056886D01*
X0092828Y0056851D01*
X0092847Y0056815D01*
X0092863Y0056777D01*
X0092876Y0056738D01*
X0092885Y0056698D01*
X0092890Y0056657D01*
X0092892Y0056616D01*
X0092890Y0056575D01*
X0092885Y0056534D01*
X0092876Y0056494D01*
X0092863Y0056455D01*
X0092847Y0056417D01*
X0092828Y0056381D01*
X0092806Y0056346D01*
X0092780Y0056314D01*
X0092752Y0056284D01*
X0092721Y0056257D01*
X0092689Y0056232D01*
X0092654Y0056210D01*
X0092617Y0056192D01*
X0092578Y0056177D01*
X0092892Y0054762D02*
X0092892Y0053509D01*
X0092892Y0054135D02*
X0090636Y0054135D01*
X0091137Y0053509D01*
X0092892Y0052282D02*
X0092892Y0051028D01*
X0092892Y0051655D02*
X0090636Y0051655D01*
X0091137Y0051028D01*
X0091952Y0048311D02*
X0091576Y0047621D01*
X0090636Y0047872D02*
X0090638Y0047932D01*
X0090644Y0047993D01*
X0090653Y0048052D01*
X0090667Y0048111D01*
X0090684Y0048169D01*
X0090705Y0048226D01*
X0090730Y0048281D01*
X0090758Y0048335D01*
X0090789Y0048386D01*
X0090824Y0048436D01*
X0091576Y0047622D02*
X0091552Y0047585D01*
X0091524Y0047550D01*
X0091495Y0047518D01*
X0091462Y0047488D01*
X0091427Y0047462D01*
X0091390Y0047438D01*
X0091350Y0047418D01*
X0091310Y0047401D01*
X0091268Y0047388D01*
X0091225Y0047379D01*
X0091181Y0047373D01*
X0091137Y0047371D01*
X0091093Y0047373D01*
X0091050Y0047379D01*
X0091007Y0047388D01*
X0090966Y0047401D01*
X0090925Y0047418D01*
X0090887Y0047438D01*
X0090850Y0047462D01*
X0090815Y0047488D01*
X0090783Y0047518D01*
X0090753Y0047550D01*
X0090727Y0047585D01*
X0090703Y0047622D01*
X0090683Y0047660D01*
X0090666Y0047701D01*
X0090653Y0047742D01*
X0090644Y0047785D01*
X0090638Y0047828D01*
X0090636Y0047872D01*
X0092579Y0047308D02*
X0092623Y0047355D01*
X0092664Y0047404D01*
X0092703Y0047456D01*
X0092738Y0047510D01*
X0092769Y0047565D01*
X0092798Y0047623D01*
X0092822Y0047683D01*
X0092844Y0047743D01*
X0092861Y0047805D01*
X0092874Y0047868D01*
X0092884Y0047932D01*
X0092890Y0047996D01*
X0092892Y0048060D01*
X0092891Y0048060D02*
X0092889Y0048104D01*
X0092883Y0048147D01*
X0092874Y0048190D01*
X0092861Y0048231D01*
X0092844Y0048272D01*
X0092824Y0048311D01*
X0092800Y0048347D01*
X0092774Y0048382D01*
X0092744Y0048414D01*
X0092712Y0048444D01*
X0092677Y0048470D01*
X0092641Y0048494D01*
X0092602Y0048514D01*
X0092561Y0048531D01*
X0092520Y0048544D01*
X0092477Y0048553D01*
X0092434Y0048559D01*
X0092390Y0048561D01*
X0092346Y0048559D01*
X0092302Y0048553D01*
X0092259Y0048544D01*
X0092217Y0048531D01*
X0092177Y0048514D01*
X0092137Y0048494D01*
X0092100Y0048470D01*
X0092065Y0048444D01*
X0092033Y0048414D01*
X0092003Y0048382D01*
X0091975Y0048347D01*
X0091951Y0048310D01*
X0092892Y0046164D02*
X0092892Y0044910D01*
X0092892Y0045537D02*
X0090636Y0045537D01*
X0091137Y0044910D01*
X0091388Y0042483D02*
X0093644Y0041731D01*
X0093644Y0041481D01*
X0092892Y0041982D02*
X0091388Y0041481D01*
X0091388Y0040685D02*
X0091638Y0040685D01*
X0091388Y0040685D02*
X0091388Y0039933D01*
X0092892Y0039933D01*
X0092892Y0038680D02*
X0092892Y0038053D01*
X0092890Y0038016D01*
X0092885Y0037980D01*
X0092876Y0037944D01*
X0092863Y0037909D01*
X0092848Y0037876D01*
X0092829Y0037844D01*
X0092807Y0037814D01*
X0092782Y0037787D01*
X0092755Y0037762D01*
X0092725Y0037740D01*
X0092693Y0037721D01*
X0092660Y0037706D01*
X0092625Y0037693D01*
X0092589Y0037684D01*
X0092553Y0037679D01*
X0092516Y0037677D01*
X0091889Y0037677D01*
X0092140Y0037677D02*
X0092140Y0038680D01*
X0091889Y0038680D01*
X0091845Y0038678D01*
X0091802Y0038672D01*
X0091759Y0038663D01*
X0091718Y0038650D01*
X0091677Y0038633D01*
X0091639Y0038613D01*
X0091602Y0038589D01*
X0091567Y0038563D01*
X0091535Y0038533D01*
X0091505Y0038501D01*
X0091479Y0038466D01*
X0091455Y0038430D01*
X0091435Y0038391D01*
X0091418Y0038350D01*
X0091405Y0038309D01*
X0091396Y0038266D01*
X0091390Y0038223D01*
X0091388Y0038179D01*
X0091390Y0038135D01*
X0091396Y0038092D01*
X0091405Y0038049D01*
X0091418Y0038008D01*
X0091435Y0037967D01*
X0091455Y0037929D01*
X0091479Y0037892D01*
X0091505Y0037857D01*
X0091535Y0037825D01*
X0091567Y0037795D01*
X0091602Y0037769D01*
X0091639Y0037745D01*
X0091677Y0037725D01*
X0091718Y0037708D01*
X0091759Y0037695D01*
X0091802Y0037686D01*
X0091845Y0037680D01*
X0091889Y0037678D01*
X0091388Y0036620D02*
X0091388Y0035868D01*
X0090636Y0036119D02*
X0092516Y0036119D01*
X0092553Y0036121D01*
X0092589Y0036126D01*
X0092625Y0036135D01*
X0092660Y0036148D01*
X0092693Y0036163D01*
X0092725Y0036182D01*
X0092755Y0036204D01*
X0092782Y0036229D01*
X0092807Y0036256D01*
X0092829Y0036286D01*
X0092848Y0036318D01*
X0092863Y0036351D01*
X0092876Y0036386D01*
X0092885Y0036422D01*
X0092890Y0036458D01*
X0092892Y0036495D01*
X0092892Y0036620D01*
X0092892Y0035050D02*
X0092892Y0034924D01*
X0092890Y0034887D01*
X0092885Y0034851D01*
X0092876Y0034815D01*
X0092863Y0034780D01*
X0092848Y0034747D01*
X0092829Y0034715D01*
X0092807Y0034685D01*
X0092782Y0034658D01*
X0092755Y0034633D01*
X0092725Y0034611D01*
X0092693Y0034592D01*
X0092660Y0034577D01*
X0092625Y0034564D01*
X0092589Y0034555D01*
X0092553Y0034550D01*
X0092516Y0034548D01*
X0090636Y0034548D01*
X0091388Y0034298D02*
X0091388Y0035050D01*
X0091764Y0033285D02*
X0092892Y0033285D01*
X0092892Y0032721D01*
X0092890Y0032680D01*
X0092885Y0032640D01*
X0092875Y0032601D01*
X0092862Y0032562D01*
X0092846Y0032525D01*
X0092826Y0032490D01*
X0092803Y0032456D01*
X0092777Y0032425D01*
X0092749Y0032397D01*
X0092718Y0032371D01*
X0092684Y0032348D01*
X0092649Y0032328D01*
X0092612Y0032312D01*
X0092573Y0032299D01*
X0092534Y0032289D01*
X0092494Y0032284D01*
X0092453Y0032282D01*
X0092412Y0032284D01*
X0092372Y0032289D01*
X0092333Y0032299D01*
X0092294Y0032312D01*
X0092257Y0032328D01*
X0092222Y0032348D01*
X0092188Y0032371D01*
X0092157Y0032397D01*
X0092129Y0032425D01*
X0092103Y0032456D01*
X0092080Y0032490D01*
X0092060Y0032525D01*
X0092044Y0032562D01*
X0092031Y0032601D01*
X0092021Y0032640D01*
X0092016Y0032680D01*
X0092014Y0032721D01*
X0092014Y0033285D01*
X0091764Y0033285D02*
X0091727Y0033283D01*
X0091691Y0033278D01*
X0091655Y0033269D01*
X0091620Y0033256D01*
X0091587Y0033241D01*
X0091555Y0033222D01*
X0091525Y0033200D01*
X0091498Y0033175D01*
X0091473Y0033148D01*
X0091451Y0033118D01*
X0091432Y0033086D01*
X0091417Y0033053D01*
X0091404Y0033018D01*
X0091395Y0032982D01*
X0091390Y0032946D01*
X0091388Y0032909D01*
X0091388Y0032408D01*
X0091638Y0030633D02*
X0091638Y0030006D01*
X0091638Y0030633D02*
X0091636Y0030677D01*
X0091630Y0030720D01*
X0091621Y0030763D01*
X0091608Y0030804D01*
X0091591Y0030845D01*
X0091571Y0030884D01*
X0091547Y0030920D01*
X0091521Y0030955D01*
X0091491Y0030987D01*
X0091459Y0031017D01*
X0091424Y0031043D01*
X0091388Y0031067D01*
X0091349Y0031087D01*
X0091308Y0031104D01*
X0091267Y0031117D01*
X0091224Y0031126D01*
X0091181Y0031132D01*
X0091137Y0031134D01*
X0091093Y0031132D01*
X0091050Y0031126D01*
X0091007Y0031117D01*
X0090966Y0031104D01*
X0090925Y0031087D01*
X0090887Y0031067D01*
X0090850Y0031043D01*
X0090815Y0031017D01*
X0090783Y0030987D01*
X0090753Y0030955D01*
X0090727Y0030920D01*
X0090703Y0030884D01*
X0090683Y0030845D01*
X0090666Y0030804D01*
X0090653Y0030763D01*
X0090644Y0030720D01*
X0090638Y0030677D01*
X0090636Y0030633D01*
X0090636Y0030006D01*
X0092892Y0030006D01*
X0092892Y0030633D01*
X0092890Y0030682D01*
X0092884Y0030731D01*
X0092875Y0030779D01*
X0092861Y0030827D01*
X0092844Y0030873D01*
X0092824Y0030918D01*
X0092800Y0030961D01*
X0092772Y0031002D01*
X0092742Y0031040D01*
X0092708Y0031076D01*
X0092672Y0031110D01*
X0092634Y0031140D01*
X0092593Y0031168D01*
X0092550Y0031192D01*
X0092505Y0031212D01*
X0092459Y0031229D01*
X0092411Y0031243D01*
X0092363Y0031252D01*
X0092314Y0031258D01*
X0092265Y0031260D01*
X0092216Y0031258D01*
X0092167Y0031252D01*
X0092119Y0031243D01*
X0092071Y0031229D01*
X0092025Y0031212D01*
X0091980Y0031192D01*
X0091937Y0031168D01*
X0091896Y0031140D01*
X0091858Y0031110D01*
X0091822Y0031076D01*
X0091788Y0031040D01*
X0091758Y0031002D01*
X0091730Y0030961D01*
X0091706Y0030918D01*
X0091686Y0030873D01*
X0091669Y0030827D01*
X0091655Y0030779D01*
X0091646Y0030731D01*
X0091640Y0030682D01*
X0091638Y0030633D01*
X0072616Y0034927D02*
X0072616Y0035554D01*
X0072617Y0035554D02*
X0072615Y0035603D01*
X0072609Y0035652D01*
X0072600Y0035700D01*
X0072586Y0035748D01*
X0072569Y0035794D01*
X0072549Y0035839D01*
X0072525Y0035882D01*
X0072497Y0035923D01*
X0072467Y0035961D01*
X0072433Y0035997D01*
X0072397Y0036031D01*
X0072359Y0036061D01*
X0072318Y0036089D01*
X0072275Y0036113D01*
X0072230Y0036133D01*
X0072184Y0036150D01*
X0072136Y0036164D01*
X0072088Y0036173D01*
X0072039Y0036179D01*
X0071990Y0036181D01*
X0071990Y0036180D02*
X0070987Y0036180D01*
X0070987Y0036181D02*
X0070938Y0036179D01*
X0070889Y0036173D01*
X0070841Y0036164D01*
X0070793Y0036150D01*
X0070747Y0036133D01*
X0070702Y0036113D01*
X0070659Y0036089D01*
X0070618Y0036061D01*
X0070580Y0036031D01*
X0070544Y0035997D01*
X0070510Y0035961D01*
X0070480Y0035923D01*
X0070452Y0035882D01*
X0070428Y0035839D01*
X0070408Y0035794D01*
X0070391Y0035748D01*
X0070377Y0035700D01*
X0070368Y0035652D01*
X0070362Y0035603D01*
X0070360Y0035554D01*
X0070360Y0034927D01*
X0072616Y0034927D01*
X0072616Y0037490D02*
X0072616Y0038743D01*
X0072616Y0038117D02*
X0070360Y0038117D01*
X0070862Y0037490D01*
X0067459Y0037490D02*
X0067459Y0038743D01*
X0067459Y0037490D02*
X0066205Y0038555D01*
X0065202Y0038179D02*
X0065204Y0038128D01*
X0065209Y0038078D01*
X0065218Y0038028D01*
X0065230Y0037979D01*
X0065246Y0037931D01*
X0065265Y0037884D01*
X0065287Y0037838D01*
X0065312Y0037795D01*
X0065341Y0037753D01*
X0065372Y0037713D01*
X0065406Y0037675D01*
X0065442Y0037640D01*
X0065481Y0037607D01*
X0065522Y0037578D01*
X0065565Y0037551D01*
X0065610Y0037527D01*
X0065656Y0037507D01*
X0065704Y0037489D01*
X0066206Y0038556D02*
X0066174Y0038587D01*
X0066140Y0038616D01*
X0066104Y0038642D01*
X0066066Y0038665D01*
X0066026Y0038686D01*
X0065985Y0038703D01*
X0065943Y0038718D01*
X0065900Y0038729D01*
X0065856Y0038737D01*
X0065812Y0038742D01*
X0065767Y0038744D01*
X0065767Y0038743D02*
X0065720Y0038741D01*
X0065674Y0038735D01*
X0065629Y0038726D01*
X0065584Y0038712D01*
X0065540Y0038695D01*
X0065499Y0038675D01*
X0065459Y0038651D01*
X0065421Y0038624D01*
X0065385Y0038594D01*
X0065352Y0038561D01*
X0065322Y0038525D01*
X0065295Y0038487D01*
X0065271Y0038447D01*
X0065251Y0038406D01*
X0065234Y0038362D01*
X0065220Y0038317D01*
X0065211Y0038272D01*
X0065205Y0038226D01*
X0065203Y0038179D01*
X0065829Y0036180D02*
X0066832Y0036180D01*
X0066832Y0036181D02*
X0066881Y0036179D01*
X0066930Y0036173D01*
X0066978Y0036164D01*
X0067026Y0036150D01*
X0067072Y0036133D01*
X0067117Y0036113D01*
X0067160Y0036089D01*
X0067201Y0036061D01*
X0067239Y0036031D01*
X0067275Y0035997D01*
X0067309Y0035961D01*
X0067339Y0035923D01*
X0067367Y0035882D01*
X0067391Y0035839D01*
X0067411Y0035794D01*
X0067428Y0035748D01*
X0067442Y0035700D01*
X0067451Y0035652D01*
X0067457Y0035603D01*
X0067459Y0035554D01*
X0067459Y0034927D01*
X0065203Y0034927D01*
X0065203Y0035554D01*
X0065202Y0035554D02*
X0065204Y0035603D01*
X0065210Y0035652D01*
X0065219Y0035700D01*
X0065233Y0035748D01*
X0065250Y0035794D01*
X0065270Y0035839D01*
X0065294Y0035882D01*
X0065322Y0035923D01*
X0065352Y0035961D01*
X0065386Y0035997D01*
X0065422Y0036031D01*
X0065460Y0036061D01*
X0065501Y0036089D01*
X0065544Y0036113D01*
X0065589Y0036133D01*
X0065635Y0036150D01*
X0065683Y0036164D01*
X0065731Y0036173D01*
X0065780Y0036179D01*
X0065829Y0036181D01*
X0056081Y0035554D02*
X0056081Y0034927D01*
X0053825Y0034927D01*
X0053825Y0035554D01*
X0053824Y0035554D02*
X0053826Y0035603D01*
X0053832Y0035652D01*
X0053841Y0035700D01*
X0053855Y0035748D01*
X0053872Y0035794D01*
X0053892Y0035839D01*
X0053916Y0035882D01*
X0053944Y0035923D01*
X0053974Y0035961D01*
X0054008Y0035997D01*
X0054044Y0036031D01*
X0054082Y0036061D01*
X0054123Y0036089D01*
X0054166Y0036113D01*
X0054211Y0036133D01*
X0054257Y0036150D01*
X0054305Y0036164D01*
X0054353Y0036173D01*
X0054402Y0036179D01*
X0054451Y0036181D01*
X0054451Y0036180D02*
X0055454Y0036180D01*
X0055454Y0036181D02*
X0055503Y0036179D01*
X0055552Y0036173D01*
X0055600Y0036164D01*
X0055648Y0036150D01*
X0055694Y0036133D01*
X0055739Y0036113D01*
X0055782Y0036089D01*
X0055823Y0036061D01*
X0055861Y0036031D01*
X0055897Y0035997D01*
X0055931Y0035961D01*
X0055961Y0035923D01*
X0055989Y0035882D01*
X0056013Y0035839D01*
X0056033Y0035794D01*
X0056050Y0035748D01*
X0056064Y0035700D01*
X0056073Y0035652D01*
X0056079Y0035603D01*
X0056081Y0035554D01*
X0056081Y0037490D02*
X0056081Y0038117D01*
X0056079Y0038166D01*
X0056073Y0038215D01*
X0056064Y0038263D01*
X0056050Y0038311D01*
X0056033Y0038357D01*
X0056013Y0038402D01*
X0055989Y0038445D01*
X0055961Y0038486D01*
X0055931Y0038524D01*
X0055897Y0038560D01*
X0055861Y0038594D01*
X0055823Y0038624D01*
X0055782Y0038652D01*
X0055739Y0038676D01*
X0055694Y0038696D01*
X0055648Y0038713D01*
X0055600Y0038727D01*
X0055552Y0038736D01*
X0055503Y0038742D01*
X0055454Y0038744D01*
X0055405Y0038742D01*
X0055356Y0038736D01*
X0055308Y0038727D01*
X0055260Y0038713D01*
X0055214Y0038696D01*
X0055169Y0038676D01*
X0055126Y0038652D01*
X0055085Y0038624D01*
X0055047Y0038594D01*
X0055011Y0038560D01*
X0054977Y0038524D01*
X0054947Y0038486D01*
X0054919Y0038445D01*
X0054895Y0038402D01*
X0054875Y0038357D01*
X0054858Y0038311D01*
X0054844Y0038263D01*
X0054835Y0038215D01*
X0054829Y0038166D01*
X0054827Y0038117D01*
X0054827Y0038242D02*
X0054827Y0037741D01*
X0054827Y0038242D02*
X0054825Y0038286D01*
X0054819Y0038329D01*
X0054810Y0038372D01*
X0054797Y0038413D01*
X0054780Y0038454D01*
X0054760Y0038493D01*
X0054736Y0038529D01*
X0054710Y0038564D01*
X0054680Y0038596D01*
X0054648Y0038626D01*
X0054613Y0038652D01*
X0054577Y0038676D01*
X0054538Y0038696D01*
X0054497Y0038713D01*
X0054456Y0038726D01*
X0054413Y0038735D01*
X0054370Y0038741D01*
X0054326Y0038743D01*
X0054282Y0038741D01*
X0054239Y0038735D01*
X0054196Y0038726D01*
X0054155Y0038713D01*
X0054114Y0038696D01*
X0054076Y0038676D01*
X0054039Y0038652D01*
X0054004Y0038626D01*
X0053972Y0038596D01*
X0053942Y0038564D01*
X0053916Y0038529D01*
X0053892Y0038493D01*
X0053872Y0038454D01*
X0053855Y0038413D01*
X0053842Y0038372D01*
X0053833Y0038329D01*
X0053827Y0038286D01*
X0053825Y0038242D01*
X0053825Y0037490D01*
X0047584Y0037444D02*
X0046331Y0037444D01*
X0046832Y0039199D01*
X0047208Y0037946D02*
X0047208Y0036943D01*
X0045255Y0036943D02*
X0044753Y0036943D01*
X0044709Y0036945D01*
X0044666Y0036951D01*
X0044623Y0036960D01*
X0044582Y0036973D01*
X0044541Y0036990D01*
X0044503Y0037010D01*
X0044466Y0037034D01*
X0044431Y0037060D01*
X0044399Y0037090D01*
X0044369Y0037122D01*
X0044343Y0037157D01*
X0044319Y0037194D01*
X0044299Y0037232D01*
X0044282Y0037273D01*
X0044269Y0037314D01*
X0044260Y0037357D01*
X0044254Y0037400D01*
X0044252Y0037444D01*
X0044252Y0038698D01*
X0044254Y0038742D01*
X0044260Y0038785D01*
X0044269Y0038828D01*
X0044282Y0038869D01*
X0044299Y0038910D01*
X0044319Y0038948D01*
X0044343Y0038985D01*
X0044369Y0039020D01*
X0044399Y0039052D01*
X0044431Y0039082D01*
X0044466Y0039108D01*
X0044502Y0039132D01*
X0044541Y0039152D01*
X0044582Y0039169D01*
X0044623Y0039182D01*
X0044666Y0039191D01*
X0044709Y0039197D01*
X0044753Y0039199D01*
X0045255Y0039199D01*
X0045255Y0040683D02*
X0044753Y0040683D01*
X0044709Y0040685D01*
X0044666Y0040691D01*
X0044623Y0040700D01*
X0044582Y0040713D01*
X0044541Y0040730D01*
X0044503Y0040750D01*
X0044466Y0040774D01*
X0044431Y0040800D01*
X0044399Y0040830D01*
X0044369Y0040862D01*
X0044343Y0040897D01*
X0044319Y0040934D01*
X0044299Y0040972D01*
X0044282Y0041013D01*
X0044269Y0041054D01*
X0044260Y0041097D01*
X0044254Y0041140D01*
X0044252Y0041184D01*
X0044252Y0042438D01*
X0044254Y0042482D01*
X0044260Y0042525D01*
X0044269Y0042568D01*
X0044282Y0042609D01*
X0044299Y0042650D01*
X0044319Y0042688D01*
X0044343Y0042725D01*
X0044369Y0042760D01*
X0044399Y0042792D01*
X0044431Y0042822D01*
X0044466Y0042848D01*
X0044502Y0042872D01*
X0044541Y0042892D01*
X0044582Y0042909D01*
X0044623Y0042922D01*
X0044666Y0042931D01*
X0044709Y0042937D01*
X0044753Y0042939D01*
X0045255Y0042939D01*
X0046331Y0042939D02*
X0047083Y0042939D01*
X0047127Y0042937D01*
X0047170Y0042931D01*
X0047213Y0042922D01*
X0047254Y0042909D01*
X0047295Y0042892D01*
X0047334Y0042872D01*
X0047370Y0042848D01*
X0047405Y0042822D01*
X0047437Y0042792D01*
X0047467Y0042760D01*
X0047493Y0042725D01*
X0047517Y0042689D01*
X0047537Y0042650D01*
X0047554Y0042609D01*
X0047567Y0042568D01*
X0047576Y0042525D01*
X0047582Y0042482D01*
X0047584Y0042438D01*
X0047582Y0042394D01*
X0047576Y0042351D01*
X0047567Y0042308D01*
X0047554Y0042267D01*
X0047537Y0042226D01*
X0047517Y0042188D01*
X0047493Y0042151D01*
X0047467Y0042116D01*
X0047437Y0042084D01*
X0047405Y0042054D01*
X0047370Y0042028D01*
X0047334Y0042004D01*
X0047295Y0041984D01*
X0047254Y0041967D01*
X0047213Y0041954D01*
X0047170Y0041945D01*
X0047127Y0041939D01*
X0047083Y0041937D01*
X0047083Y0041936D02*
X0046581Y0041936D01*
X0046957Y0041937D02*
X0047006Y0041935D01*
X0047055Y0041929D01*
X0047103Y0041920D01*
X0047151Y0041906D01*
X0047197Y0041889D01*
X0047242Y0041869D01*
X0047285Y0041845D01*
X0047326Y0041817D01*
X0047364Y0041787D01*
X0047400Y0041753D01*
X0047434Y0041717D01*
X0047464Y0041679D01*
X0047492Y0041638D01*
X0047516Y0041595D01*
X0047536Y0041550D01*
X0047553Y0041504D01*
X0047567Y0041456D01*
X0047576Y0041408D01*
X0047582Y0041359D01*
X0047584Y0041310D01*
X0047582Y0041261D01*
X0047576Y0041212D01*
X0047567Y0041164D01*
X0047553Y0041116D01*
X0047536Y0041070D01*
X0047516Y0041025D01*
X0047492Y0040982D01*
X0047464Y0040941D01*
X0047434Y0040903D01*
X0047400Y0040867D01*
X0047364Y0040833D01*
X0047326Y0040803D01*
X0047285Y0040775D01*
X0047242Y0040751D01*
X0047197Y0040731D01*
X0047151Y0040714D01*
X0047103Y0040700D01*
X0047055Y0040691D01*
X0047006Y0040685D01*
X0046957Y0040683D01*
X0046331Y0040683D01*
X0039793Y0038119D02*
X0039793Y0037617D01*
X0039791Y0037573D01*
X0039785Y0037530D01*
X0039776Y0037487D01*
X0039763Y0037446D01*
X0039746Y0037405D01*
X0039726Y0037367D01*
X0039702Y0037330D01*
X0039676Y0037295D01*
X0039646Y0037263D01*
X0039614Y0037233D01*
X0039579Y0037207D01*
X0039543Y0037183D01*
X0039504Y0037163D01*
X0039463Y0037146D01*
X0039422Y0037133D01*
X0039379Y0037124D01*
X0039336Y0037118D01*
X0039292Y0037116D01*
X0038039Y0037116D01*
X0037995Y0037118D01*
X0037952Y0037124D01*
X0037909Y0037133D01*
X0037868Y0037146D01*
X0037827Y0037163D01*
X0037789Y0037183D01*
X0037752Y0037207D01*
X0037717Y0037233D01*
X0037685Y0037263D01*
X0037655Y0037295D01*
X0037629Y0037330D01*
X0037605Y0037366D01*
X0037585Y0037405D01*
X0037568Y0037446D01*
X0037555Y0037487D01*
X0037546Y0037530D01*
X0037540Y0037573D01*
X0037538Y0037617D01*
X0037537Y0037617D02*
X0037537Y0038119D01*
X0038164Y0039195D02*
X0038289Y0039195D01*
X0038333Y0039197D01*
X0038376Y0039203D01*
X0038419Y0039212D01*
X0038460Y0039225D01*
X0038501Y0039242D01*
X0038540Y0039262D01*
X0038576Y0039286D01*
X0038611Y0039312D01*
X0038643Y0039342D01*
X0038673Y0039374D01*
X0038699Y0039409D01*
X0038723Y0039446D01*
X0038743Y0039484D01*
X0038760Y0039525D01*
X0038773Y0039566D01*
X0038782Y0039609D01*
X0038788Y0039652D01*
X0038790Y0039696D01*
X0038791Y0039696D02*
X0038791Y0040448D01*
X0038164Y0040448D01*
X0038115Y0040446D01*
X0038066Y0040440D01*
X0038018Y0040431D01*
X0037970Y0040417D01*
X0037924Y0040400D01*
X0037879Y0040380D01*
X0037836Y0040356D01*
X0037795Y0040328D01*
X0037757Y0040298D01*
X0037721Y0040264D01*
X0037687Y0040228D01*
X0037657Y0040190D01*
X0037629Y0040149D01*
X0037605Y0040106D01*
X0037585Y0040061D01*
X0037568Y0040015D01*
X0037554Y0039967D01*
X0037545Y0039919D01*
X0037539Y0039870D01*
X0037537Y0039821D01*
X0037539Y0039772D01*
X0037545Y0039723D01*
X0037554Y0039675D01*
X0037568Y0039627D01*
X0037585Y0039581D01*
X0037605Y0039536D01*
X0037629Y0039493D01*
X0037657Y0039452D01*
X0037687Y0039414D01*
X0037721Y0039378D01*
X0037757Y0039344D01*
X0037795Y0039314D01*
X0037836Y0039286D01*
X0037879Y0039262D01*
X0037924Y0039242D01*
X0037970Y0039225D01*
X0038018Y0039211D01*
X0038066Y0039202D01*
X0038115Y0039196D01*
X0038164Y0039194D01*
X0038791Y0040448D02*
X0038852Y0040446D01*
X0038912Y0040441D01*
X0038972Y0040432D01*
X0039031Y0040419D01*
X0039089Y0040403D01*
X0039147Y0040383D01*
X0039203Y0040360D01*
X0039257Y0040333D01*
X0039310Y0040303D01*
X0039361Y0040270D01*
X0039410Y0040235D01*
X0039456Y0040196D01*
X0039500Y0040154D01*
X0039542Y0040110D01*
X0039581Y0040064D01*
X0039616Y0040015D01*
X0039649Y0039964D01*
X0039679Y0039911D01*
X0039706Y0039857D01*
X0039729Y0039801D01*
X0039749Y0039743D01*
X0039765Y0039685D01*
X0039778Y0039626D01*
X0039787Y0039566D01*
X0039792Y0039506D01*
X0039794Y0039445D01*
X0039046Y0043415D02*
X0037793Y0043415D01*
X0037793Y0043416D02*
X0037749Y0043418D01*
X0037706Y0043424D01*
X0037663Y0043433D01*
X0037622Y0043446D01*
X0037581Y0043463D01*
X0037543Y0043483D01*
X0037506Y0043507D01*
X0037471Y0043533D01*
X0037439Y0043563D01*
X0037409Y0043595D01*
X0037383Y0043630D01*
X0037359Y0043666D01*
X0037339Y0043705D01*
X0037322Y0043746D01*
X0037309Y0043787D01*
X0037300Y0043830D01*
X0037294Y0043873D01*
X0037292Y0043917D01*
X0037291Y0043917D02*
X0037291Y0044418D01*
X0037793Y0045620D02*
X0037837Y0045622D01*
X0037880Y0045628D01*
X0037923Y0045637D01*
X0037964Y0045650D01*
X0038005Y0045667D01*
X0038044Y0045687D01*
X0038080Y0045711D01*
X0038115Y0045737D01*
X0038147Y0045767D01*
X0038177Y0045799D01*
X0038203Y0045834D01*
X0038227Y0045871D01*
X0038247Y0045909D01*
X0038264Y0045950D01*
X0038277Y0045991D01*
X0038286Y0046034D01*
X0038292Y0046077D01*
X0038294Y0046121D01*
X0038292Y0046165D01*
X0038286Y0046208D01*
X0038277Y0046251D01*
X0038264Y0046292D01*
X0038247Y0046333D01*
X0038227Y0046372D01*
X0038203Y0046408D01*
X0038177Y0046443D01*
X0038147Y0046475D01*
X0038115Y0046505D01*
X0038080Y0046531D01*
X0038044Y0046555D01*
X0038005Y0046575D01*
X0037964Y0046592D01*
X0037923Y0046605D01*
X0037880Y0046614D01*
X0037837Y0046620D01*
X0037793Y0046622D01*
X0037749Y0046620D01*
X0037706Y0046614D01*
X0037663Y0046605D01*
X0037622Y0046592D01*
X0037581Y0046575D01*
X0037543Y0046555D01*
X0037506Y0046531D01*
X0037471Y0046505D01*
X0037439Y0046475D01*
X0037409Y0046443D01*
X0037383Y0046408D01*
X0037359Y0046372D01*
X0037339Y0046333D01*
X0037322Y0046292D01*
X0037309Y0046251D01*
X0037300Y0046208D01*
X0037294Y0046165D01*
X0037292Y0046121D01*
X0037294Y0046077D01*
X0037300Y0046034D01*
X0037309Y0045991D01*
X0037322Y0045950D01*
X0037339Y0045909D01*
X0037359Y0045871D01*
X0037383Y0045834D01*
X0037409Y0045799D01*
X0037439Y0045767D01*
X0037471Y0045737D01*
X0037506Y0045711D01*
X0037543Y0045687D01*
X0037581Y0045667D01*
X0037622Y0045650D01*
X0037663Y0045637D01*
X0037706Y0045628D01*
X0037749Y0045622D01*
X0037793Y0045620D01*
X0038921Y0045494D02*
X0038970Y0045496D01*
X0039019Y0045502D01*
X0039067Y0045511D01*
X0039115Y0045525D01*
X0039161Y0045542D01*
X0039206Y0045562D01*
X0039249Y0045586D01*
X0039290Y0045614D01*
X0039328Y0045644D01*
X0039364Y0045678D01*
X0039398Y0045714D01*
X0039428Y0045752D01*
X0039456Y0045793D01*
X0039480Y0045836D01*
X0039500Y0045881D01*
X0039517Y0045927D01*
X0039531Y0045975D01*
X0039540Y0046023D01*
X0039546Y0046072D01*
X0039548Y0046121D01*
X0039546Y0046170D01*
X0039540Y0046219D01*
X0039531Y0046267D01*
X0039517Y0046315D01*
X0039500Y0046361D01*
X0039480Y0046406D01*
X0039456Y0046449D01*
X0039428Y0046490D01*
X0039398Y0046528D01*
X0039364Y0046564D01*
X0039328Y0046598D01*
X0039290Y0046628D01*
X0039249Y0046656D01*
X0039206Y0046680D01*
X0039161Y0046700D01*
X0039115Y0046717D01*
X0039067Y0046731D01*
X0039019Y0046740D01*
X0038970Y0046746D01*
X0038921Y0046748D01*
X0038872Y0046746D01*
X0038823Y0046740D01*
X0038775Y0046731D01*
X0038727Y0046717D01*
X0038681Y0046700D01*
X0038636Y0046680D01*
X0038593Y0046656D01*
X0038552Y0046628D01*
X0038514Y0046598D01*
X0038478Y0046564D01*
X0038444Y0046528D01*
X0038414Y0046490D01*
X0038386Y0046449D01*
X0038362Y0046406D01*
X0038342Y0046361D01*
X0038325Y0046315D01*
X0038311Y0046267D01*
X0038302Y0046219D01*
X0038296Y0046170D01*
X0038294Y0046121D01*
X0038296Y0046072D01*
X0038302Y0046023D01*
X0038311Y0045975D01*
X0038325Y0045927D01*
X0038342Y0045881D01*
X0038362Y0045836D01*
X0038386Y0045793D01*
X0038414Y0045752D01*
X0038444Y0045714D01*
X0038478Y0045678D01*
X0038514Y0045644D01*
X0038552Y0045614D01*
X0038593Y0045586D01*
X0038636Y0045562D01*
X0038681Y0045542D01*
X0038727Y0045525D01*
X0038775Y0045511D01*
X0038823Y0045502D01*
X0038872Y0045496D01*
X0038921Y0045494D01*
X0039547Y0044418D02*
X0039547Y0043917D01*
X0039545Y0043873D01*
X0039539Y0043830D01*
X0039530Y0043787D01*
X0039517Y0043746D01*
X0039500Y0043705D01*
X0039480Y0043667D01*
X0039456Y0043630D01*
X0039430Y0043595D01*
X0039400Y0043563D01*
X0039368Y0043533D01*
X0039333Y0043507D01*
X0039297Y0043483D01*
X0039258Y0043463D01*
X0039217Y0043446D01*
X0039176Y0043433D01*
X0039133Y0043424D01*
X0039090Y0043418D01*
X0039046Y0043416D01*
X0044213Y0044530D02*
X0044213Y0046785D01*
X0044839Y0046785D01*
X0044839Y0046786D02*
X0044888Y0046784D01*
X0044937Y0046778D01*
X0044985Y0046769D01*
X0045033Y0046755D01*
X0045079Y0046738D01*
X0045124Y0046718D01*
X0045167Y0046694D01*
X0045208Y0046666D01*
X0045246Y0046636D01*
X0045282Y0046602D01*
X0045316Y0046566D01*
X0045346Y0046528D01*
X0045374Y0046487D01*
X0045398Y0046444D01*
X0045418Y0046399D01*
X0045435Y0046353D01*
X0045449Y0046305D01*
X0045458Y0046257D01*
X0045464Y0046208D01*
X0045466Y0046159D01*
X0045464Y0046110D01*
X0045458Y0046061D01*
X0045449Y0046013D01*
X0045435Y0045965D01*
X0045418Y0045919D01*
X0045398Y0045874D01*
X0045374Y0045831D01*
X0045346Y0045790D01*
X0045316Y0045752D01*
X0045282Y0045716D01*
X0045246Y0045682D01*
X0045208Y0045652D01*
X0045167Y0045624D01*
X0045124Y0045600D01*
X0045079Y0045580D01*
X0045033Y0045563D01*
X0044985Y0045549D01*
X0044937Y0045540D01*
X0044888Y0045534D01*
X0044839Y0045532D01*
X0044213Y0045532D01*
X0044965Y0045532D02*
X0045466Y0044530D01*
X0047293Y0044530D02*
X0047920Y0046785D01*
X0046667Y0046785D01*
X0046667Y0046535D01*
X0039695Y0050216D02*
X0039695Y0050717D01*
X0039695Y0050216D02*
X0039693Y0050172D01*
X0039687Y0050129D01*
X0039678Y0050086D01*
X0039665Y0050045D01*
X0039648Y0050004D01*
X0039628Y0049966D01*
X0039604Y0049929D01*
X0039578Y0049894D01*
X0039548Y0049862D01*
X0039516Y0049832D01*
X0039481Y0049806D01*
X0039445Y0049782D01*
X0039406Y0049762D01*
X0039365Y0049745D01*
X0039324Y0049732D01*
X0039281Y0049723D01*
X0039238Y0049717D01*
X0039194Y0049715D01*
X0037940Y0049715D01*
X0037896Y0049717D01*
X0037853Y0049723D01*
X0037810Y0049732D01*
X0037769Y0049745D01*
X0037728Y0049762D01*
X0037690Y0049782D01*
X0037653Y0049806D01*
X0037618Y0049832D01*
X0037586Y0049862D01*
X0037556Y0049894D01*
X0037530Y0049929D01*
X0037506Y0049965D01*
X0037486Y0050004D01*
X0037469Y0050045D01*
X0037456Y0050086D01*
X0037447Y0050129D01*
X0037441Y0050172D01*
X0037439Y0050216D01*
X0037439Y0050717D01*
X0037439Y0051793D02*
X0037439Y0053047D01*
X0039695Y0052420D01*
X0037690Y0051793D02*
X0037439Y0051793D01*
X0037694Y0056014D02*
X0038948Y0056014D01*
X0038992Y0056016D01*
X0039035Y0056022D01*
X0039078Y0056031D01*
X0039119Y0056044D01*
X0039160Y0056061D01*
X0039199Y0056081D01*
X0039235Y0056105D01*
X0039270Y0056131D01*
X0039302Y0056161D01*
X0039332Y0056193D01*
X0039358Y0056228D01*
X0039382Y0056265D01*
X0039402Y0056303D01*
X0039419Y0056344D01*
X0039432Y0056385D01*
X0039441Y0056428D01*
X0039447Y0056471D01*
X0039449Y0056515D01*
X0039449Y0057016D01*
X0038822Y0058092D02*
X0038196Y0058092D01*
X0038196Y0058844D01*
X0038196Y0058092D02*
X0038133Y0058094D01*
X0038070Y0058100D01*
X0038008Y0058110D01*
X0037947Y0058124D01*
X0037886Y0058141D01*
X0037827Y0058162D01*
X0037769Y0058187D01*
X0037713Y0058216D01*
X0037659Y0058248D01*
X0037606Y0058284D01*
X0037557Y0058322D01*
X0037509Y0058364D01*
X0037465Y0058408D01*
X0037423Y0058456D01*
X0037385Y0058505D01*
X0037349Y0058558D01*
X0037317Y0058612D01*
X0037288Y0058668D01*
X0037263Y0058726D01*
X0037242Y0058785D01*
X0037225Y0058846D01*
X0037211Y0058907D01*
X0037201Y0058969D01*
X0037195Y0059032D01*
X0037193Y0059095D01*
X0038196Y0058844D02*
X0038198Y0058888D01*
X0038204Y0058931D01*
X0038213Y0058974D01*
X0038226Y0059015D01*
X0038243Y0059056D01*
X0038263Y0059095D01*
X0038287Y0059131D01*
X0038313Y0059166D01*
X0038343Y0059198D01*
X0038375Y0059228D01*
X0038410Y0059254D01*
X0038447Y0059278D01*
X0038485Y0059298D01*
X0038526Y0059315D01*
X0038567Y0059328D01*
X0038610Y0059337D01*
X0038653Y0059343D01*
X0038697Y0059345D01*
X0038697Y0059346D02*
X0038822Y0059346D01*
X0038871Y0059344D01*
X0038920Y0059338D01*
X0038968Y0059329D01*
X0039016Y0059315D01*
X0039062Y0059298D01*
X0039107Y0059278D01*
X0039150Y0059254D01*
X0039191Y0059226D01*
X0039229Y0059196D01*
X0039265Y0059162D01*
X0039299Y0059126D01*
X0039329Y0059088D01*
X0039357Y0059047D01*
X0039381Y0059004D01*
X0039401Y0058959D01*
X0039418Y0058913D01*
X0039432Y0058865D01*
X0039441Y0058817D01*
X0039447Y0058768D01*
X0039449Y0058719D01*
X0039447Y0058670D01*
X0039441Y0058621D01*
X0039432Y0058573D01*
X0039418Y0058525D01*
X0039401Y0058479D01*
X0039381Y0058434D01*
X0039357Y0058391D01*
X0039329Y0058350D01*
X0039299Y0058312D01*
X0039265Y0058276D01*
X0039229Y0058242D01*
X0039191Y0058212D01*
X0039150Y0058184D01*
X0039107Y0058160D01*
X0039062Y0058140D01*
X0039016Y0058123D01*
X0038968Y0058109D01*
X0038920Y0058100D01*
X0038871Y0058094D01*
X0038822Y0058092D01*
X0037193Y0056515D02*
X0037195Y0056471D01*
X0037201Y0056428D01*
X0037210Y0056385D01*
X0037223Y0056344D01*
X0037240Y0056303D01*
X0037260Y0056264D01*
X0037284Y0056228D01*
X0037310Y0056193D01*
X0037340Y0056161D01*
X0037372Y0056131D01*
X0037407Y0056105D01*
X0037444Y0056081D01*
X0037482Y0056061D01*
X0037523Y0056044D01*
X0037564Y0056031D01*
X0037607Y0056022D01*
X0037650Y0056016D01*
X0037694Y0056014D01*
X0037193Y0056515D02*
X0037193Y0057016D01*
X0036938Y0062829D02*
X0036436Y0062829D01*
X0036392Y0062831D01*
X0036349Y0062837D01*
X0036306Y0062846D01*
X0036265Y0062859D01*
X0036224Y0062876D01*
X0036186Y0062896D01*
X0036149Y0062920D01*
X0036114Y0062946D01*
X0036082Y0062976D01*
X0036052Y0063008D01*
X0036026Y0063043D01*
X0036002Y0063080D01*
X0035982Y0063118D01*
X0035965Y0063159D01*
X0035952Y0063200D01*
X0035943Y0063243D01*
X0035937Y0063286D01*
X0035935Y0063330D01*
X0035935Y0064583D01*
X0035937Y0064627D01*
X0035943Y0064670D01*
X0035952Y0064713D01*
X0035965Y0064754D01*
X0035982Y0064795D01*
X0036002Y0064833D01*
X0036026Y0064870D01*
X0036052Y0064905D01*
X0036082Y0064937D01*
X0036114Y0064967D01*
X0036149Y0064993D01*
X0036185Y0065017D01*
X0036224Y0065037D01*
X0036265Y0065054D01*
X0036306Y0065067D01*
X0036349Y0065076D01*
X0036392Y0065082D01*
X0036436Y0065084D01*
X0036436Y0065085D02*
X0036938Y0065085D01*
X0038014Y0065085D02*
X0039267Y0065085D01*
X0038766Y0064082D02*
X0038014Y0064082D01*
X0038014Y0065085D01*
X0038766Y0064082D02*
X0038810Y0064080D01*
X0038853Y0064074D01*
X0038896Y0064065D01*
X0038937Y0064052D01*
X0038978Y0064035D01*
X0039017Y0064015D01*
X0039053Y0063991D01*
X0039088Y0063965D01*
X0039120Y0063935D01*
X0039150Y0063903D01*
X0039176Y0063868D01*
X0039200Y0063832D01*
X0039220Y0063793D01*
X0039237Y0063752D01*
X0039250Y0063711D01*
X0039259Y0063668D01*
X0039265Y0063625D01*
X0039267Y0063581D01*
X0039267Y0063330D01*
X0039265Y0063286D01*
X0039259Y0063243D01*
X0039250Y0063200D01*
X0039237Y0063159D01*
X0039220Y0063118D01*
X0039200Y0063080D01*
X0039176Y0063043D01*
X0039150Y0063008D01*
X0039120Y0062976D01*
X0039088Y0062946D01*
X0039053Y0062920D01*
X0039017Y0062896D01*
X0038978Y0062876D01*
X0038937Y0062859D01*
X0038896Y0062846D01*
X0038853Y0062837D01*
X0038810Y0062831D01*
X0038766Y0062829D01*
X0038014Y0062829D01*
X0038777Y0069793D02*
X0040030Y0069793D01*
X0040030Y0069794D02*
X0040074Y0069796D01*
X0040117Y0069802D01*
X0040160Y0069811D01*
X0040201Y0069824D01*
X0040242Y0069841D01*
X0040281Y0069861D01*
X0040317Y0069885D01*
X0040352Y0069911D01*
X0040384Y0069941D01*
X0040414Y0069973D01*
X0040440Y0070008D01*
X0040464Y0070045D01*
X0040484Y0070083D01*
X0040501Y0070124D01*
X0040514Y0070165D01*
X0040523Y0070208D01*
X0040529Y0070251D01*
X0040531Y0070295D01*
X0040531Y0070796D01*
X0040531Y0071872D02*
X0040531Y0073125D01*
X0040531Y0071872D02*
X0039278Y0072937D01*
X0038275Y0072561D02*
X0038277Y0072510D01*
X0038282Y0072460D01*
X0038291Y0072410D01*
X0038303Y0072361D01*
X0038319Y0072313D01*
X0038338Y0072266D01*
X0038360Y0072220D01*
X0038385Y0072177D01*
X0038414Y0072135D01*
X0038445Y0072095D01*
X0038479Y0072057D01*
X0038515Y0072022D01*
X0038554Y0071989D01*
X0038595Y0071960D01*
X0038638Y0071933D01*
X0038683Y0071909D01*
X0038729Y0071889D01*
X0038777Y0071871D01*
X0039279Y0072938D02*
X0039247Y0072969D01*
X0039213Y0072998D01*
X0039177Y0073024D01*
X0039139Y0073047D01*
X0039099Y0073068D01*
X0039058Y0073085D01*
X0039016Y0073100D01*
X0038973Y0073111D01*
X0038929Y0073119D01*
X0038885Y0073124D01*
X0038840Y0073126D01*
X0038840Y0073125D02*
X0038793Y0073123D01*
X0038747Y0073117D01*
X0038702Y0073108D01*
X0038657Y0073094D01*
X0038613Y0073077D01*
X0038572Y0073057D01*
X0038532Y0073033D01*
X0038494Y0073006D01*
X0038458Y0072976D01*
X0038425Y0072943D01*
X0038395Y0072907D01*
X0038368Y0072869D01*
X0038344Y0072829D01*
X0038324Y0072788D01*
X0038307Y0072744D01*
X0038293Y0072699D01*
X0038284Y0072654D01*
X0038278Y0072608D01*
X0038276Y0072561D01*
X0038276Y0070796D02*
X0038276Y0070295D01*
X0038278Y0070251D01*
X0038284Y0070208D01*
X0038293Y0070165D01*
X0038306Y0070124D01*
X0038323Y0070083D01*
X0038343Y0070044D01*
X0038367Y0070008D01*
X0038393Y0069973D01*
X0038423Y0069941D01*
X0038455Y0069911D01*
X0038490Y0069885D01*
X0038527Y0069861D01*
X0038565Y0069841D01*
X0038606Y0069824D01*
X0038647Y0069811D01*
X0038690Y0069802D01*
X0038733Y0069796D01*
X0038777Y0069794D01*
X0044230Y0070635D02*
X0046486Y0070635D01*
X0046486Y0071637D01*
X0046486Y0072694D02*
X0046486Y0073947D01*
X0046486Y0073320D02*
X0044230Y0073320D01*
X0044732Y0072694D01*
X0048102Y0070465D02*
X0048102Y0094087D01*
X0046994Y0093931D02*
X0046994Y0095184D01*
X0046994Y0094558D02*
X0044738Y0094558D01*
X0045240Y0093931D01*
X0045365Y0092858D02*
X0046367Y0092858D01*
X0046493Y0092607D02*
X0046994Y0093109D01*
X0046367Y0092858D02*
X0046416Y0092856D01*
X0046465Y0092850D01*
X0046513Y0092841D01*
X0046561Y0092827D01*
X0046607Y0092810D01*
X0046652Y0092790D01*
X0046695Y0092766D01*
X0046736Y0092738D01*
X0046774Y0092708D01*
X0046810Y0092674D01*
X0046844Y0092638D01*
X0046874Y0092600D01*
X0046902Y0092559D01*
X0046926Y0092516D01*
X0046946Y0092471D01*
X0046963Y0092425D01*
X0046977Y0092377D01*
X0046986Y0092329D01*
X0046992Y0092280D01*
X0046994Y0092231D01*
X0046992Y0092182D01*
X0046986Y0092133D01*
X0046977Y0092085D01*
X0046963Y0092037D01*
X0046946Y0091991D01*
X0046926Y0091946D01*
X0046902Y0091903D01*
X0046874Y0091862D01*
X0046844Y0091824D01*
X0046810Y0091788D01*
X0046774Y0091754D01*
X0046736Y0091724D01*
X0046695Y0091696D01*
X0046652Y0091672D01*
X0046607Y0091652D01*
X0046561Y0091635D01*
X0046513Y0091621D01*
X0046465Y0091612D01*
X0046416Y0091606D01*
X0046367Y0091604D01*
X0046367Y0091605D02*
X0045365Y0091605D01*
X0045365Y0091604D02*
X0045316Y0091606D01*
X0045267Y0091612D01*
X0045219Y0091621D01*
X0045171Y0091635D01*
X0045125Y0091652D01*
X0045080Y0091672D01*
X0045037Y0091696D01*
X0044996Y0091724D01*
X0044958Y0091754D01*
X0044922Y0091788D01*
X0044888Y0091824D01*
X0044858Y0091862D01*
X0044830Y0091903D01*
X0044806Y0091946D01*
X0044786Y0091991D01*
X0044769Y0092037D01*
X0044755Y0092085D01*
X0044746Y0092133D01*
X0044740Y0092182D01*
X0044738Y0092231D01*
X0044740Y0092280D01*
X0044746Y0092329D01*
X0044755Y0092377D01*
X0044769Y0092425D01*
X0044786Y0092471D01*
X0044806Y0092516D01*
X0044830Y0092559D01*
X0044858Y0092600D01*
X0044888Y0092638D01*
X0044922Y0092674D01*
X0044958Y0092708D01*
X0044996Y0092738D01*
X0045037Y0092766D01*
X0045080Y0092790D01*
X0045125Y0092810D01*
X0045171Y0092827D01*
X0045219Y0092841D01*
X0045267Y0092850D01*
X0045316Y0092856D01*
X0045365Y0092858D01*
X0036391Y0093371D02*
X0035765Y0093371D01*
X0036391Y0093371D02*
X0036440Y0093373D01*
X0036489Y0093379D01*
X0036537Y0093388D01*
X0036585Y0093402D01*
X0036631Y0093419D01*
X0036676Y0093439D01*
X0036719Y0093463D01*
X0036760Y0093491D01*
X0036798Y0093521D01*
X0036834Y0093555D01*
X0036868Y0093591D01*
X0036898Y0093629D01*
X0036926Y0093670D01*
X0036950Y0093713D01*
X0036970Y0093758D01*
X0036987Y0093804D01*
X0037001Y0093852D01*
X0037010Y0093900D01*
X0037016Y0093949D01*
X0037018Y0093998D01*
X0037016Y0094047D01*
X0037010Y0094096D01*
X0037001Y0094144D01*
X0036987Y0094192D01*
X0036970Y0094238D01*
X0036950Y0094283D01*
X0036926Y0094326D01*
X0036898Y0094367D01*
X0036868Y0094405D01*
X0036834Y0094441D01*
X0036798Y0094475D01*
X0036760Y0094505D01*
X0036719Y0094533D01*
X0036676Y0094557D01*
X0036631Y0094577D01*
X0036585Y0094594D01*
X0036537Y0094608D01*
X0036489Y0094617D01*
X0036440Y0094623D01*
X0036391Y0094625D01*
X0036517Y0094625D02*
X0036015Y0094625D01*
X0036517Y0094625D02*
X0036561Y0094627D01*
X0036604Y0094633D01*
X0036647Y0094642D01*
X0036688Y0094655D01*
X0036729Y0094672D01*
X0036768Y0094692D01*
X0036804Y0094716D01*
X0036839Y0094742D01*
X0036871Y0094772D01*
X0036901Y0094804D01*
X0036927Y0094839D01*
X0036951Y0094876D01*
X0036971Y0094914D01*
X0036988Y0094955D01*
X0037001Y0094996D01*
X0037010Y0095039D01*
X0037016Y0095082D01*
X0037018Y0095126D01*
X0037016Y0095170D01*
X0037010Y0095213D01*
X0037001Y0095256D01*
X0036988Y0095297D01*
X0036971Y0095338D01*
X0036951Y0095377D01*
X0036927Y0095413D01*
X0036901Y0095448D01*
X0036871Y0095480D01*
X0036839Y0095510D01*
X0036804Y0095536D01*
X0036768Y0095560D01*
X0036729Y0095580D01*
X0036688Y0095597D01*
X0036647Y0095610D01*
X0036604Y0095619D01*
X0036561Y0095625D01*
X0036517Y0095627D01*
X0035765Y0095627D01*
X0033937Y0095627D02*
X0033311Y0095627D01*
X0033311Y0093371D01*
X0033311Y0094374D02*
X0033937Y0094374D01*
X0034063Y0094374D02*
X0034564Y0093371D01*
X0033937Y0094374D02*
X0033986Y0094376D01*
X0034035Y0094382D01*
X0034083Y0094391D01*
X0034131Y0094405D01*
X0034177Y0094422D01*
X0034222Y0094442D01*
X0034265Y0094466D01*
X0034306Y0094494D01*
X0034344Y0094524D01*
X0034380Y0094558D01*
X0034414Y0094594D01*
X0034444Y0094632D01*
X0034472Y0094673D01*
X0034496Y0094716D01*
X0034516Y0094761D01*
X0034533Y0094807D01*
X0034547Y0094855D01*
X0034556Y0094903D01*
X0034562Y0094952D01*
X0034564Y0095001D01*
X0034562Y0095050D01*
X0034556Y0095099D01*
X0034547Y0095147D01*
X0034533Y0095195D01*
X0034516Y0095241D01*
X0034496Y0095286D01*
X0034472Y0095329D01*
X0034444Y0095370D01*
X0034414Y0095408D01*
X0034380Y0095444D01*
X0034344Y0095478D01*
X0034306Y0095508D01*
X0034265Y0095536D01*
X0034222Y0095560D01*
X0034177Y0095580D01*
X0034131Y0095597D01*
X0034083Y0095611D01*
X0034035Y0095620D01*
X0033986Y0095626D01*
X0033937Y0095628D01*
X0030837Y0094692D02*
X0029772Y0093439D01*
X0031025Y0093439D01*
X0028545Y0093439D02*
X0027292Y0093439D01*
X0027918Y0093439D02*
X0027918Y0095695D01*
X0027292Y0095194D01*
X0026216Y0095695D02*
X0025714Y0095695D01*
X0025670Y0095693D01*
X0025627Y0095687D01*
X0025584Y0095678D01*
X0025543Y0095665D01*
X0025502Y0095648D01*
X0025463Y0095628D01*
X0025427Y0095604D01*
X0025392Y0095578D01*
X0025360Y0095548D01*
X0025330Y0095516D01*
X0025304Y0095481D01*
X0025280Y0095444D01*
X0025260Y0095406D01*
X0025243Y0095365D01*
X0025230Y0095324D01*
X0025221Y0095281D01*
X0025215Y0095238D01*
X0025213Y0095194D01*
X0025213Y0093940D01*
X0025215Y0093896D01*
X0025221Y0093853D01*
X0025230Y0093810D01*
X0025243Y0093769D01*
X0025260Y0093728D01*
X0025280Y0093690D01*
X0025304Y0093653D01*
X0025330Y0093618D01*
X0025360Y0093586D01*
X0025392Y0093556D01*
X0025427Y0093530D01*
X0025464Y0093506D01*
X0025502Y0093486D01*
X0025543Y0093469D01*
X0025584Y0093456D01*
X0025627Y0093447D01*
X0025670Y0093441D01*
X0025714Y0093439D01*
X0026216Y0093439D01*
X0029771Y0095193D02*
X0029789Y0095241D01*
X0029809Y0095287D01*
X0029833Y0095332D01*
X0029860Y0095375D01*
X0029889Y0095416D01*
X0029922Y0095455D01*
X0029957Y0095491D01*
X0029995Y0095525D01*
X0030035Y0095556D01*
X0030077Y0095585D01*
X0030120Y0095610D01*
X0030166Y0095632D01*
X0030213Y0095651D01*
X0030261Y0095667D01*
X0030310Y0095679D01*
X0030360Y0095688D01*
X0030410Y0095693D01*
X0030461Y0095695D01*
X0030508Y0095693D01*
X0030554Y0095687D01*
X0030599Y0095678D01*
X0030644Y0095664D01*
X0030688Y0095647D01*
X0030729Y0095627D01*
X0030769Y0095603D01*
X0030807Y0095576D01*
X0030843Y0095546D01*
X0030876Y0095513D01*
X0030906Y0095477D01*
X0030933Y0095439D01*
X0030957Y0095399D01*
X0030977Y0095358D01*
X0030994Y0095314D01*
X0031008Y0095269D01*
X0031017Y0095224D01*
X0031023Y0095178D01*
X0031025Y0095131D01*
X0031026Y0095131D02*
X0031024Y0095086D01*
X0031019Y0095042D01*
X0031011Y0094998D01*
X0031000Y0094955D01*
X0030985Y0094913D01*
X0030968Y0094872D01*
X0030947Y0094832D01*
X0030924Y0094794D01*
X0030898Y0094758D01*
X0030869Y0094724D01*
X0030838Y0094692D01*
X0044222Y0079700D02*
X0044222Y0078447D01*
X0044222Y0079073D02*
X0041967Y0079073D01*
X0042468Y0078447D01*
X0041967Y0077371D02*
X0041967Y0076869D01*
X0041969Y0076825D01*
X0041975Y0076782D01*
X0041984Y0076739D01*
X0041997Y0076698D01*
X0042014Y0076657D01*
X0042034Y0076618D01*
X0042058Y0076582D01*
X0042084Y0076547D01*
X0042114Y0076515D01*
X0042146Y0076485D01*
X0042181Y0076459D01*
X0042218Y0076435D01*
X0042256Y0076415D01*
X0042297Y0076398D01*
X0042338Y0076385D01*
X0042381Y0076376D01*
X0042424Y0076370D01*
X0042468Y0076368D01*
X0043721Y0076368D01*
X0043765Y0076370D01*
X0043808Y0076376D01*
X0043851Y0076385D01*
X0043892Y0076398D01*
X0043933Y0076415D01*
X0043972Y0076435D01*
X0044008Y0076459D01*
X0044043Y0076485D01*
X0044075Y0076515D01*
X0044105Y0076547D01*
X0044131Y0076582D01*
X0044155Y0076619D01*
X0044175Y0076657D01*
X0044192Y0076698D01*
X0044205Y0076739D01*
X0044214Y0076782D01*
X0044220Y0076825D01*
X0044222Y0076869D01*
X0044222Y0077371D01*
X0067509Y0065965D02*
X0067509Y0064712D01*
X0067511Y0064668D01*
X0067517Y0064625D01*
X0067526Y0064582D01*
X0067539Y0064541D01*
X0067556Y0064500D01*
X0067576Y0064462D01*
X0067600Y0064425D01*
X0067626Y0064390D01*
X0067656Y0064358D01*
X0067688Y0064328D01*
X0067723Y0064302D01*
X0067760Y0064278D01*
X0067798Y0064258D01*
X0067839Y0064241D01*
X0067880Y0064228D01*
X0067923Y0064219D01*
X0067966Y0064213D01*
X0068010Y0064211D01*
X0068511Y0064211D01*
X0069587Y0064211D02*
X0070841Y0064211D01*
X0070214Y0064211D02*
X0070214Y0066467D01*
X0069587Y0065965D01*
X0068511Y0066467D02*
X0068010Y0066467D01*
X0068010Y0066466D02*
X0067966Y0066464D01*
X0067923Y0066458D01*
X0067880Y0066449D01*
X0067839Y0066436D01*
X0067798Y0066419D01*
X0067759Y0066399D01*
X0067723Y0066375D01*
X0067688Y0066349D01*
X0067656Y0066319D01*
X0067626Y0066287D01*
X0067600Y0066252D01*
X0067576Y0066215D01*
X0067556Y0066177D01*
X0067539Y0066136D01*
X0067526Y0066095D01*
X0067517Y0066052D01*
X0067511Y0066009D01*
X0067509Y0065965D01*
X0072068Y0066467D02*
X0072820Y0066467D01*
X0072820Y0066466D02*
X0072864Y0066464D01*
X0072907Y0066458D01*
X0072950Y0066449D01*
X0072991Y0066436D01*
X0073032Y0066419D01*
X0073071Y0066399D01*
X0073107Y0066375D01*
X0073142Y0066349D01*
X0073174Y0066319D01*
X0073204Y0066287D01*
X0073230Y0066252D01*
X0073254Y0066216D01*
X0073274Y0066177D01*
X0073291Y0066136D01*
X0073304Y0066095D01*
X0073313Y0066052D01*
X0073319Y0066009D01*
X0073321Y0065965D01*
X0073319Y0065921D01*
X0073313Y0065878D01*
X0073304Y0065835D01*
X0073291Y0065794D01*
X0073274Y0065753D01*
X0073254Y0065715D01*
X0073230Y0065678D01*
X0073204Y0065643D01*
X0073174Y0065611D01*
X0073142Y0065581D01*
X0073107Y0065555D01*
X0073071Y0065531D01*
X0073032Y0065511D01*
X0072991Y0065494D01*
X0072950Y0065481D01*
X0072907Y0065472D01*
X0072864Y0065466D01*
X0072820Y0065464D01*
X0072318Y0065464D01*
X0072694Y0065464D02*
X0072743Y0065462D01*
X0072792Y0065456D01*
X0072840Y0065447D01*
X0072888Y0065433D01*
X0072934Y0065416D01*
X0072979Y0065396D01*
X0073022Y0065372D01*
X0073063Y0065344D01*
X0073101Y0065314D01*
X0073137Y0065280D01*
X0073171Y0065244D01*
X0073201Y0065206D01*
X0073229Y0065165D01*
X0073253Y0065122D01*
X0073273Y0065077D01*
X0073290Y0065031D01*
X0073304Y0064983D01*
X0073313Y0064935D01*
X0073319Y0064886D01*
X0073321Y0064837D01*
X0073319Y0064788D01*
X0073313Y0064739D01*
X0073304Y0064691D01*
X0073290Y0064643D01*
X0073273Y0064597D01*
X0073253Y0064552D01*
X0073229Y0064509D01*
X0073201Y0064468D01*
X0073171Y0064430D01*
X0073137Y0064394D01*
X0073101Y0064360D01*
X0073063Y0064330D01*
X0073022Y0064302D01*
X0072979Y0064278D01*
X0072934Y0064258D01*
X0072888Y0064241D01*
X0072840Y0064227D01*
X0072792Y0064218D01*
X0072743Y0064212D01*
X0072694Y0064210D01*
X0072694Y0064211D02*
X0072068Y0064211D01*
X0075277Y0061696D02*
X0075277Y0060442D01*
X0075277Y0061069D02*
X0077533Y0061069D01*
X0077533Y0059506D02*
X0075277Y0058754D01*
X0077533Y0058002D01*
X0076969Y0058190D02*
X0076969Y0059318D01*
X0077533Y0056416D02*
X0077531Y0056465D01*
X0077525Y0056514D01*
X0077516Y0056562D01*
X0077502Y0056610D01*
X0077485Y0056656D01*
X0077465Y0056701D01*
X0077441Y0056744D01*
X0077413Y0056785D01*
X0077383Y0056823D01*
X0077349Y0056859D01*
X0077313Y0056893D01*
X0077275Y0056923D01*
X0077234Y0056951D01*
X0077191Y0056975D01*
X0077146Y0056995D01*
X0077100Y0057012D01*
X0077052Y0057026D01*
X0077004Y0057035D01*
X0076955Y0057041D01*
X0076906Y0057043D01*
X0076857Y0057041D01*
X0076808Y0057035D01*
X0076760Y0057026D01*
X0076712Y0057012D01*
X0076666Y0056995D01*
X0076621Y0056975D01*
X0076578Y0056951D01*
X0076537Y0056923D01*
X0076499Y0056893D01*
X0076463Y0056859D01*
X0076429Y0056823D01*
X0076399Y0056785D01*
X0076371Y0056744D01*
X0076347Y0056701D01*
X0076327Y0056656D01*
X0076310Y0056610D01*
X0076296Y0056562D01*
X0076287Y0056514D01*
X0076281Y0056465D01*
X0076279Y0056416D01*
X0076279Y0055790D01*
X0076279Y0056416D02*
X0076277Y0056460D01*
X0076271Y0056503D01*
X0076262Y0056546D01*
X0076249Y0056587D01*
X0076232Y0056628D01*
X0076212Y0056667D01*
X0076188Y0056703D01*
X0076162Y0056738D01*
X0076132Y0056770D01*
X0076100Y0056800D01*
X0076065Y0056826D01*
X0076029Y0056850D01*
X0075990Y0056870D01*
X0075949Y0056887D01*
X0075908Y0056900D01*
X0075865Y0056909D01*
X0075822Y0056915D01*
X0075778Y0056917D01*
X0075734Y0056915D01*
X0075691Y0056909D01*
X0075648Y0056900D01*
X0075607Y0056887D01*
X0075566Y0056870D01*
X0075528Y0056850D01*
X0075491Y0056826D01*
X0075456Y0056800D01*
X0075424Y0056770D01*
X0075394Y0056738D01*
X0075368Y0056703D01*
X0075344Y0056667D01*
X0075324Y0056628D01*
X0075307Y0056587D01*
X0075294Y0056546D01*
X0075285Y0056503D01*
X0075279Y0056460D01*
X0075277Y0056416D01*
X0075277Y0055790D01*
X0077533Y0055790D01*
X0077533Y0056416D01*
X0077533Y0053793D02*
X0075277Y0054545D01*
X0075277Y0053041D02*
X0077533Y0053793D01*
X0071724Y0070465D02*
X0071724Y0094087D01*
X0039821Y0033146D02*
X0039821Y0030890D01*
X0039195Y0030890D02*
X0040448Y0030890D01*
X0042740Y0031203D02*
X0042775Y0031280D01*
X0042807Y0031358D01*
X0042835Y0031438D01*
X0042860Y0031518D01*
X0042880Y0031600D01*
X0042897Y0031683D01*
X0042911Y0031766D01*
X0042920Y0031850D01*
X0042926Y0031934D01*
X0042928Y0032018D01*
X0041675Y0032018D02*
X0041677Y0032102D01*
X0041683Y0032186D01*
X0041692Y0032270D01*
X0041706Y0032353D01*
X0041723Y0032436D01*
X0041743Y0032518D01*
X0041768Y0032598D01*
X0041796Y0032678D01*
X0041828Y0032756D01*
X0041863Y0032833D01*
X0042302Y0033146D02*
X0042343Y0033144D01*
X0042384Y0033139D01*
X0042424Y0033130D01*
X0042463Y0033117D01*
X0042501Y0033101D01*
X0042537Y0033082D01*
X0042572Y0033060D01*
X0042604Y0033034D01*
X0042634Y0033006D01*
X0042661Y0032975D01*
X0042686Y0032942D01*
X0042708Y0032907D01*
X0042726Y0032871D01*
X0042741Y0032832D01*
X0042803Y0032644D02*
X0041800Y0031391D01*
X0042302Y0030889D02*
X0042343Y0030891D01*
X0042384Y0030896D01*
X0042424Y0030905D01*
X0042463Y0030918D01*
X0042501Y0030934D01*
X0042537Y0030953D01*
X0042572Y0030975D01*
X0042604Y0031001D01*
X0042634Y0031029D01*
X0042661Y0031060D01*
X0042686Y0031092D01*
X0042708Y0031127D01*
X0042726Y0031164D01*
X0042741Y0031203D01*
X0042302Y0030889D02*
X0042261Y0030891D01*
X0042220Y0030896D01*
X0042180Y0030905D01*
X0042141Y0030918D01*
X0042103Y0030934D01*
X0042067Y0030953D01*
X0042032Y0030975D01*
X0042000Y0031001D01*
X0041970Y0031029D01*
X0041943Y0031060D01*
X0041918Y0031092D01*
X0041896Y0031127D01*
X0041878Y0031164D01*
X0041863Y0031203D01*
X0042928Y0032018D02*
X0042926Y0032102D01*
X0042920Y0032186D01*
X0042911Y0032270D01*
X0042897Y0032353D01*
X0042880Y0032436D01*
X0042860Y0032518D01*
X0042835Y0032598D01*
X0042807Y0032678D01*
X0042775Y0032756D01*
X0042740Y0032833D01*
X0042302Y0033146D02*
X0042261Y0033144D01*
X0042220Y0033139D01*
X0042180Y0033130D01*
X0042141Y0033117D01*
X0042103Y0033101D01*
X0042067Y0033082D01*
X0042032Y0033060D01*
X0042000Y0033034D01*
X0041970Y0033006D01*
X0041943Y0032975D01*
X0041918Y0032943D01*
X0041896Y0032908D01*
X0041878Y0032871D01*
X0041863Y0032832D01*
X0041675Y0032018D02*
X0041677Y0031934D01*
X0041683Y0031850D01*
X0041692Y0031766D01*
X0041706Y0031683D01*
X0041723Y0031600D01*
X0041743Y0031518D01*
X0041768Y0031438D01*
X0041796Y0031358D01*
X0041828Y0031280D01*
X0041863Y0031203D01*
X0039821Y0033146D02*
X0039195Y0032644D01*
X0038119Y0033146D02*
X0037617Y0033146D01*
X0037617Y0033145D02*
X0037573Y0033143D01*
X0037530Y0033137D01*
X0037487Y0033128D01*
X0037446Y0033115D01*
X0037405Y0033098D01*
X0037366Y0033078D01*
X0037330Y0033054D01*
X0037295Y0033028D01*
X0037263Y0032998D01*
X0037233Y0032966D01*
X0037207Y0032931D01*
X0037183Y0032894D01*
X0037163Y0032856D01*
X0037146Y0032815D01*
X0037133Y0032774D01*
X0037124Y0032731D01*
X0037118Y0032688D01*
X0037116Y0032644D01*
X0037116Y0031391D01*
X0037118Y0031347D01*
X0037124Y0031304D01*
X0037133Y0031261D01*
X0037146Y0031220D01*
X0037163Y0031179D01*
X0037183Y0031141D01*
X0037207Y0031104D01*
X0037233Y0031069D01*
X0037263Y0031037D01*
X0037295Y0031007D01*
X0037330Y0030981D01*
X0037367Y0030957D01*
X0037405Y0030937D01*
X0037446Y0030920D01*
X0037487Y0030907D01*
X0037530Y0030898D01*
X0037573Y0030892D01*
X0037617Y0030890D01*
X0038119Y0030890D01*
X0038119Y0026600D02*
X0037617Y0026600D01*
X0037573Y0026598D01*
X0037530Y0026592D01*
X0037487Y0026583D01*
X0037446Y0026570D01*
X0037405Y0026553D01*
X0037366Y0026533D01*
X0037330Y0026509D01*
X0037295Y0026483D01*
X0037263Y0026453D01*
X0037233Y0026421D01*
X0037207Y0026386D01*
X0037183Y0026349D01*
X0037163Y0026311D01*
X0037146Y0026270D01*
X0037133Y0026229D01*
X0037124Y0026186D01*
X0037118Y0026143D01*
X0037116Y0026099D01*
X0037116Y0024846D01*
X0037118Y0024802D01*
X0037124Y0024759D01*
X0037133Y0024716D01*
X0037146Y0024675D01*
X0037163Y0024634D01*
X0037183Y0024596D01*
X0037207Y0024559D01*
X0037233Y0024524D01*
X0037263Y0024492D01*
X0037295Y0024462D01*
X0037330Y0024436D01*
X0037367Y0024412D01*
X0037405Y0024392D01*
X0037446Y0024375D01*
X0037487Y0024362D01*
X0037530Y0024353D01*
X0037573Y0024347D01*
X0037617Y0024345D01*
X0037617Y0024344D02*
X0038119Y0024344D01*
X0039195Y0024344D02*
X0040448Y0024344D01*
X0039821Y0024344D02*
X0039821Y0026600D01*
X0039195Y0026099D01*
X0041675Y0026099D02*
X0042302Y0026600D01*
X0042302Y0024344D01*
X0042928Y0024344D02*
X0041675Y0024344D01*
X0116187Y0024570D02*
X0116187Y0025197D01*
X0116187Y0024570D02*
X0118443Y0024570D01*
X0117440Y0024570D02*
X0117440Y0025197D01*
X0117440Y0025322D02*
X0118443Y0025824D01*
X0117441Y0025197D02*
X0117439Y0025246D01*
X0117433Y0025295D01*
X0117424Y0025343D01*
X0117410Y0025391D01*
X0117393Y0025437D01*
X0117373Y0025482D01*
X0117349Y0025525D01*
X0117321Y0025566D01*
X0117291Y0025604D01*
X0117257Y0025640D01*
X0117221Y0025674D01*
X0117183Y0025704D01*
X0117142Y0025732D01*
X0117099Y0025756D01*
X0117054Y0025776D01*
X0117008Y0025793D01*
X0116960Y0025807D01*
X0116912Y0025816D01*
X0116863Y0025822D01*
X0116814Y0025824D01*
X0116765Y0025822D01*
X0116716Y0025816D01*
X0116668Y0025807D01*
X0116620Y0025793D01*
X0116574Y0025776D01*
X0116529Y0025756D01*
X0116486Y0025732D01*
X0116445Y0025704D01*
X0116407Y0025674D01*
X0116371Y0025640D01*
X0116337Y0025604D01*
X0116307Y0025566D01*
X0116279Y0025525D01*
X0116255Y0025482D01*
X0116235Y0025437D01*
X0116218Y0025391D01*
X0116204Y0025343D01*
X0116195Y0025295D01*
X0116189Y0025246D01*
X0116187Y0025197D01*
X0116187Y0023280D02*
X0118443Y0022779D01*
X0116939Y0022277D01*
X0118443Y0021776D01*
X0116187Y0021275D01*
X0116187Y0019609D02*
X0116187Y0018982D01*
X0118443Y0018982D01*
X0117440Y0018982D02*
X0117440Y0019609D01*
X0117441Y0019609D02*
X0117439Y0019658D01*
X0117433Y0019707D01*
X0117424Y0019755D01*
X0117410Y0019803D01*
X0117393Y0019849D01*
X0117373Y0019894D01*
X0117349Y0019937D01*
X0117321Y0019978D01*
X0117291Y0020016D01*
X0117257Y0020052D01*
X0117221Y0020086D01*
X0117183Y0020116D01*
X0117142Y0020144D01*
X0117099Y0020168D01*
X0117054Y0020188D01*
X0117008Y0020205D01*
X0116960Y0020219D01*
X0116912Y0020228D01*
X0116863Y0020234D01*
X0116814Y0020236D01*
X0116765Y0020234D01*
X0116716Y0020228D01*
X0116668Y0020219D01*
X0116620Y0020205D01*
X0116574Y0020188D01*
X0116529Y0020168D01*
X0116486Y0020144D01*
X0116445Y0020116D01*
X0116407Y0020086D01*
X0116371Y0020052D01*
X0116337Y0020016D01*
X0116307Y0019978D01*
X0116279Y0019937D01*
X0116255Y0019894D01*
X0116235Y0019849D01*
X0116218Y0019803D01*
X0116204Y0019755D01*
X0116195Y0019707D01*
X0116189Y0019658D01*
X0116187Y0019609D01*
X0126014Y0027011D02*
X0126014Y0028264D01*
X0126016Y0028308D01*
X0126022Y0028351D01*
X0126031Y0028394D01*
X0126044Y0028435D01*
X0126061Y0028476D01*
X0126081Y0028514D01*
X0126105Y0028551D01*
X0126131Y0028586D01*
X0126161Y0028618D01*
X0126193Y0028648D01*
X0126228Y0028674D01*
X0126264Y0028698D01*
X0126303Y0028718D01*
X0126344Y0028735D01*
X0126385Y0028748D01*
X0126428Y0028757D01*
X0126471Y0028763D01*
X0126515Y0028765D01*
X0126515Y0028766D02*
X0127016Y0028766D01*
X0128092Y0028264D02*
X0128719Y0028766D01*
X0128719Y0026510D01*
X0128092Y0026510D02*
X0129346Y0026510D01*
X0130573Y0026510D02*
X0131325Y0026510D01*
X0131369Y0026512D01*
X0131412Y0026518D01*
X0131455Y0026527D01*
X0131496Y0026540D01*
X0131537Y0026557D01*
X0131576Y0026577D01*
X0131612Y0026601D01*
X0131647Y0026627D01*
X0131679Y0026657D01*
X0131709Y0026689D01*
X0131735Y0026724D01*
X0131759Y0026761D01*
X0131779Y0026799D01*
X0131796Y0026840D01*
X0131809Y0026881D01*
X0131818Y0026924D01*
X0131824Y0026967D01*
X0131826Y0027011D01*
X0131826Y0027262D01*
X0131824Y0027306D01*
X0131818Y0027349D01*
X0131809Y0027392D01*
X0131796Y0027433D01*
X0131779Y0027474D01*
X0131759Y0027513D01*
X0131735Y0027549D01*
X0131709Y0027584D01*
X0131679Y0027616D01*
X0131647Y0027646D01*
X0131612Y0027672D01*
X0131576Y0027696D01*
X0131537Y0027716D01*
X0131496Y0027733D01*
X0131455Y0027746D01*
X0131412Y0027755D01*
X0131369Y0027761D01*
X0131325Y0027763D01*
X0130573Y0027763D01*
X0130573Y0028766D01*
X0131826Y0028766D01*
X0127016Y0026510D02*
X0126515Y0026510D01*
X0126471Y0026512D01*
X0126428Y0026518D01*
X0126385Y0026527D01*
X0126344Y0026540D01*
X0126303Y0026557D01*
X0126265Y0026577D01*
X0126228Y0026601D01*
X0126193Y0026627D01*
X0126161Y0026657D01*
X0126131Y0026689D01*
X0126105Y0026724D01*
X0126081Y0026761D01*
X0126061Y0026799D01*
X0126044Y0026840D01*
X0126031Y0026881D01*
X0126022Y0026924D01*
X0126016Y0026967D01*
X0126014Y0027011D01*
X0138061Y0026606D02*
X0138061Y0028862D01*
X0138688Y0028862D01*
X0138688Y0028863D02*
X0138737Y0028861D01*
X0138786Y0028855D01*
X0138834Y0028846D01*
X0138882Y0028832D01*
X0138928Y0028815D01*
X0138973Y0028795D01*
X0139016Y0028771D01*
X0139057Y0028743D01*
X0139095Y0028713D01*
X0139131Y0028679D01*
X0139165Y0028643D01*
X0139195Y0028605D01*
X0139223Y0028564D01*
X0139247Y0028521D01*
X0139267Y0028476D01*
X0139284Y0028430D01*
X0139298Y0028382D01*
X0139307Y0028334D01*
X0139313Y0028285D01*
X0139315Y0028236D01*
X0139313Y0028187D01*
X0139307Y0028138D01*
X0139298Y0028090D01*
X0139284Y0028042D01*
X0139267Y0027996D01*
X0139247Y0027951D01*
X0139223Y0027908D01*
X0139195Y0027867D01*
X0139165Y0027829D01*
X0139131Y0027793D01*
X0139095Y0027759D01*
X0139057Y0027729D01*
X0139016Y0027701D01*
X0138973Y0027677D01*
X0138928Y0027657D01*
X0138882Y0027640D01*
X0138834Y0027626D01*
X0138786Y0027617D01*
X0138737Y0027611D01*
X0138688Y0027609D01*
X0138061Y0027609D01*
X0138813Y0027609D02*
X0139314Y0026606D01*
X0140515Y0026606D02*
X0141769Y0026606D01*
X0141142Y0026606D02*
X0141142Y0028862D01*
X0140515Y0028361D01*
X0142996Y0028862D02*
X0143748Y0028862D01*
X0143792Y0028860D01*
X0143835Y0028854D01*
X0143878Y0028845D01*
X0143919Y0028832D01*
X0143960Y0028815D01*
X0143999Y0028795D01*
X0144035Y0028771D01*
X0144070Y0028745D01*
X0144102Y0028715D01*
X0144132Y0028683D01*
X0144158Y0028648D01*
X0144182Y0028612D01*
X0144202Y0028573D01*
X0144219Y0028532D01*
X0144232Y0028491D01*
X0144241Y0028448D01*
X0144247Y0028405D01*
X0144249Y0028361D01*
X0144247Y0028317D01*
X0144241Y0028274D01*
X0144232Y0028231D01*
X0144219Y0028190D01*
X0144202Y0028149D01*
X0144182Y0028111D01*
X0144158Y0028074D01*
X0144132Y0028039D01*
X0144102Y0028007D01*
X0144070Y0027977D01*
X0144035Y0027951D01*
X0143999Y0027927D01*
X0143960Y0027907D01*
X0143919Y0027890D01*
X0143878Y0027877D01*
X0143835Y0027868D01*
X0143792Y0027862D01*
X0143748Y0027860D01*
X0143246Y0027860D01*
X0143622Y0027860D02*
X0143671Y0027858D01*
X0143720Y0027852D01*
X0143768Y0027843D01*
X0143816Y0027829D01*
X0143862Y0027812D01*
X0143907Y0027792D01*
X0143950Y0027768D01*
X0143991Y0027740D01*
X0144029Y0027710D01*
X0144065Y0027676D01*
X0144099Y0027640D01*
X0144129Y0027602D01*
X0144157Y0027561D01*
X0144181Y0027518D01*
X0144201Y0027473D01*
X0144218Y0027427D01*
X0144232Y0027379D01*
X0144241Y0027331D01*
X0144247Y0027282D01*
X0144249Y0027233D01*
X0144247Y0027184D01*
X0144241Y0027135D01*
X0144232Y0027087D01*
X0144218Y0027039D01*
X0144201Y0026993D01*
X0144181Y0026948D01*
X0144157Y0026905D01*
X0144129Y0026864D01*
X0144099Y0026826D01*
X0144065Y0026790D01*
X0144029Y0026756D01*
X0143991Y0026726D01*
X0143950Y0026698D01*
X0143907Y0026674D01*
X0143862Y0026654D01*
X0143816Y0026637D01*
X0143768Y0026623D01*
X0143720Y0026614D01*
X0143671Y0026608D01*
X0143622Y0026606D01*
X0142996Y0026606D01*
X0151801Y0026518D02*
X0151801Y0028774D01*
X0152428Y0028774D01*
X0152477Y0028772D01*
X0152526Y0028766D01*
X0152574Y0028757D01*
X0152622Y0028743D01*
X0152668Y0028726D01*
X0152713Y0028706D01*
X0152756Y0028682D01*
X0152797Y0028654D01*
X0152835Y0028624D01*
X0152871Y0028590D01*
X0152905Y0028554D01*
X0152935Y0028516D01*
X0152963Y0028475D01*
X0152987Y0028432D01*
X0153007Y0028387D01*
X0153024Y0028341D01*
X0153038Y0028293D01*
X0153047Y0028245D01*
X0153053Y0028196D01*
X0153055Y0028147D01*
X0153053Y0028098D01*
X0153047Y0028049D01*
X0153038Y0028001D01*
X0153024Y0027953D01*
X0153007Y0027907D01*
X0152987Y0027862D01*
X0152963Y0027819D01*
X0152935Y0027778D01*
X0152905Y0027740D01*
X0152871Y0027704D01*
X0152835Y0027670D01*
X0152797Y0027640D01*
X0152756Y0027612D01*
X0152713Y0027588D01*
X0152668Y0027568D01*
X0152622Y0027551D01*
X0152574Y0027537D01*
X0152526Y0027528D01*
X0152477Y0027522D01*
X0152428Y0027520D01*
X0151801Y0027520D01*
X0152553Y0027520D02*
X0153054Y0026518D01*
X0154255Y0027144D02*
X0154255Y0027771D01*
X0155007Y0027771D01*
X0154255Y0027771D02*
X0154257Y0027834D01*
X0154263Y0027897D01*
X0154273Y0027959D01*
X0154287Y0028020D01*
X0154304Y0028081D01*
X0154325Y0028140D01*
X0154350Y0028198D01*
X0154379Y0028254D01*
X0154411Y0028308D01*
X0154447Y0028361D01*
X0154485Y0028410D01*
X0154527Y0028458D01*
X0154571Y0028502D01*
X0154619Y0028544D01*
X0154668Y0028582D01*
X0154721Y0028618D01*
X0154775Y0028650D01*
X0154831Y0028679D01*
X0154889Y0028704D01*
X0154948Y0028725D01*
X0155009Y0028742D01*
X0155070Y0028756D01*
X0155132Y0028766D01*
X0155195Y0028772D01*
X0155258Y0028774D01*
X0155007Y0027771D02*
X0155051Y0027769D01*
X0155094Y0027763D01*
X0155137Y0027754D01*
X0155178Y0027741D01*
X0155219Y0027724D01*
X0155258Y0027704D01*
X0155294Y0027680D01*
X0155329Y0027654D01*
X0155361Y0027624D01*
X0155391Y0027592D01*
X0155417Y0027557D01*
X0155441Y0027521D01*
X0155461Y0027482D01*
X0155478Y0027441D01*
X0155491Y0027400D01*
X0155500Y0027357D01*
X0155506Y0027314D01*
X0155508Y0027270D01*
X0155509Y0027270D02*
X0155509Y0027144D01*
X0155507Y0027095D01*
X0155501Y0027046D01*
X0155492Y0026998D01*
X0155478Y0026950D01*
X0155461Y0026904D01*
X0155441Y0026859D01*
X0155417Y0026816D01*
X0155389Y0026775D01*
X0155359Y0026737D01*
X0155325Y0026701D01*
X0155289Y0026667D01*
X0155251Y0026637D01*
X0155210Y0026609D01*
X0155167Y0026585D01*
X0155122Y0026565D01*
X0155076Y0026548D01*
X0155028Y0026534D01*
X0154980Y0026525D01*
X0154931Y0026519D01*
X0154882Y0026517D01*
X0154833Y0026519D01*
X0154784Y0026525D01*
X0154736Y0026534D01*
X0154688Y0026548D01*
X0154642Y0026565D01*
X0154597Y0026585D01*
X0154554Y0026609D01*
X0154513Y0026637D01*
X0154475Y0026667D01*
X0154439Y0026701D01*
X0154405Y0026737D01*
X0154375Y0026775D01*
X0154347Y0026816D01*
X0154323Y0026859D01*
X0154303Y0026904D01*
X0154286Y0026950D01*
X0154272Y0026998D01*
X0154263Y0027046D01*
X0154257Y0027095D01*
X0154255Y0027144D01*
X0162874Y0027638D02*
X0163501Y0027638D01*
X0163626Y0027638D02*
X0164127Y0026636D01*
X0165328Y0026636D02*
X0166581Y0026636D01*
X0165955Y0026636D02*
X0165955Y0028892D01*
X0165328Y0028390D01*
X0163501Y0028892D02*
X0163550Y0028890D01*
X0163599Y0028884D01*
X0163647Y0028875D01*
X0163695Y0028861D01*
X0163741Y0028844D01*
X0163786Y0028824D01*
X0163829Y0028800D01*
X0163870Y0028772D01*
X0163908Y0028742D01*
X0163944Y0028708D01*
X0163978Y0028672D01*
X0164008Y0028634D01*
X0164036Y0028593D01*
X0164060Y0028550D01*
X0164080Y0028505D01*
X0164097Y0028459D01*
X0164111Y0028411D01*
X0164120Y0028363D01*
X0164126Y0028314D01*
X0164128Y0028265D01*
X0164126Y0028216D01*
X0164120Y0028167D01*
X0164111Y0028119D01*
X0164097Y0028071D01*
X0164080Y0028025D01*
X0164060Y0027980D01*
X0164036Y0027937D01*
X0164008Y0027896D01*
X0163978Y0027858D01*
X0163944Y0027822D01*
X0163908Y0027788D01*
X0163870Y0027758D01*
X0163829Y0027730D01*
X0163786Y0027706D01*
X0163741Y0027686D01*
X0163695Y0027669D01*
X0163647Y0027655D01*
X0163599Y0027646D01*
X0163550Y0027640D01*
X0163501Y0027638D01*
X0162874Y0026636D02*
X0162874Y0028892D01*
X0163501Y0028892D01*
X0167809Y0028390D02*
X0168435Y0028892D01*
X0168435Y0026636D01*
X0167809Y0026636D02*
X0169062Y0026636D01*
X0174931Y0026321D02*
X0174931Y0028577D01*
X0175558Y0028577D01*
X0175607Y0028575D01*
X0175656Y0028569D01*
X0175704Y0028560D01*
X0175752Y0028546D01*
X0175798Y0028529D01*
X0175843Y0028509D01*
X0175886Y0028485D01*
X0175927Y0028457D01*
X0175965Y0028427D01*
X0176001Y0028393D01*
X0176035Y0028357D01*
X0176065Y0028319D01*
X0176093Y0028278D01*
X0176117Y0028235D01*
X0176137Y0028190D01*
X0176154Y0028144D01*
X0176168Y0028096D01*
X0176177Y0028048D01*
X0176183Y0027999D01*
X0176185Y0027950D01*
X0176183Y0027901D01*
X0176177Y0027852D01*
X0176168Y0027804D01*
X0176154Y0027756D01*
X0176137Y0027710D01*
X0176117Y0027665D01*
X0176093Y0027622D01*
X0176065Y0027581D01*
X0176035Y0027543D01*
X0176001Y0027507D01*
X0175965Y0027473D01*
X0175927Y0027443D01*
X0175886Y0027415D01*
X0175843Y0027391D01*
X0175798Y0027371D01*
X0175752Y0027354D01*
X0175704Y0027340D01*
X0175656Y0027331D01*
X0175607Y0027325D01*
X0175558Y0027323D01*
X0174931Y0027323D01*
X0175683Y0027323D02*
X0176184Y0026321D01*
X0177385Y0026321D02*
X0178639Y0026321D01*
X0178012Y0026321D02*
X0178012Y0028577D01*
X0177385Y0028075D01*
X0181119Y0027449D02*
X0181117Y0027365D01*
X0181111Y0027281D01*
X0181102Y0027197D01*
X0181088Y0027114D01*
X0181071Y0027031D01*
X0181051Y0026949D01*
X0181026Y0026869D01*
X0180998Y0026789D01*
X0180966Y0026711D01*
X0180931Y0026634D01*
X0180931Y0026635D02*
X0180916Y0026596D01*
X0180898Y0026559D01*
X0180876Y0026524D01*
X0180851Y0026492D01*
X0180824Y0026461D01*
X0180794Y0026433D01*
X0180762Y0026407D01*
X0180727Y0026385D01*
X0180691Y0026366D01*
X0180653Y0026350D01*
X0180614Y0026337D01*
X0180574Y0026328D01*
X0180533Y0026323D01*
X0180492Y0026321D01*
X0180451Y0026323D01*
X0180410Y0026328D01*
X0180370Y0026337D01*
X0180331Y0026350D01*
X0180293Y0026366D01*
X0180257Y0026385D01*
X0180222Y0026407D01*
X0180190Y0026433D01*
X0180160Y0026461D01*
X0180133Y0026492D01*
X0180108Y0026524D01*
X0180086Y0026559D01*
X0180068Y0026596D01*
X0180053Y0026635D01*
X0179991Y0026822D02*
X0180994Y0028075D01*
X0180931Y0028263D02*
X0180916Y0028302D01*
X0180898Y0028338D01*
X0180876Y0028373D01*
X0180851Y0028406D01*
X0180824Y0028437D01*
X0180794Y0028465D01*
X0180762Y0028491D01*
X0180727Y0028513D01*
X0180691Y0028532D01*
X0180653Y0028548D01*
X0180614Y0028561D01*
X0180574Y0028570D01*
X0180533Y0028575D01*
X0180492Y0028577D01*
X0180451Y0028575D01*
X0180410Y0028570D01*
X0180370Y0028561D01*
X0180331Y0028548D01*
X0180293Y0028532D01*
X0180257Y0028513D01*
X0180222Y0028491D01*
X0180190Y0028465D01*
X0180160Y0028437D01*
X0180133Y0028406D01*
X0180108Y0028374D01*
X0180086Y0028339D01*
X0180068Y0028302D01*
X0180053Y0028263D01*
X0180931Y0028264D02*
X0180966Y0028187D01*
X0180998Y0028109D01*
X0181026Y0028029D01*
X0181051Y0027949D01*
X0181071Y0027867D01*
X0181088Y0027784D01*
X0181102Y0027701D01*
X0181111Y0027617D01*
X0181117Y0027533D01*
X0181119Y0027449D01*
X0179866Y0027449D02*
X0179868Y0027533D01*
X0179874Y0027617D01*
X0179883Y0027701D01*
X0179897Y0027784D01*
X0179914Y0027867D01*
X0179934Y0027949D01*
X0179959Y0028029D01*
X0179987Y0028109D01*
X0180019Y0028187D01*
X0180054Y0028264D01*
X0179866Y0027449D02*
X0179868Y0027365D01*
X0179874Y0027281D01*
X0179883Y0027197D01*
X0179897Y0027114D01*
X0179914Y0027031D01*
X0179934Y0026949D01*
X0179959Y0026869D01*
X0179987Y0026789D01*
X0180019Y0026711D01*
X0180054Y0026634D01*
D13*
X0114402Y0027394D02*
X0114402Y0017551D01*
X0088811Y0017551D01*
X0088811Y0027394D01*
X0114402Y0027394D01*
X0083693Y0043440D02*
X0083693Y0046240D01*
X0082293Y0044840D02*
X0085093Y0044840D01*
X0088535Y0048220D02*
X0078693Y0048220D01*
X0078693Y0065937D01*
X0088535Y0065937D01*
X0088535Y0048220D01*
X0085093Y0068659D02*
X0082293Y0068659D01*
X0073063Y0086685D02*
X0114402Y0086685D01*
X0114402Y0096528D01*
X0073063Y0096528D01*
X0073063Y0086685D01*
X0043850Y0083805D02*
X0043850Y0081443D01*
X0040701Y0081443D01*
X0043850Y0090104D02*
X0043850Y0092466D01*
X0040701Y0092466D01*
D14*
X0027323Y0088356D02*
X0027323Y0085553D01*
X0023972Y0085553D02*
X0023972Y0088356D01*
X0027980Y0078650D02*
X0030783Y0078650D01*
X0030783Y0075299D02*
X0027980Y0075299D01*
X0027980Y0072203D02*
X0030783Y0072203D01*
X0030783Y0068852D02*
X0027980Y0068852D01*
X0027980Y0065756D02*
X0030783Y0065756D01*
X0030783Y0062406D02*
X0027980Y0062406D01*
X0027980Y0059309D02*
X0030783Y0059309D01*
X0030783Y0055959D02*
X0027980Y0055959D01*
X0027980Y0052862D02*
X0030783Y0052862D01*
X0030783Y0049512D02*
X0027980Y0049512D01*
X0027980Y0046415D02*
X0030783Y0046415D01*
X0030783Y0043065D02*
X0027980Y0043065D01*
X0027980Y0039969D02*
X0030783Y0039969D01*
X0030783Y0036618D02*
X0027980Y0036618D01*
X0027980Y0033522D02*
X0030783Y0033522D01*
X0030783Y0030171D02*
X0027980Y0030171D01*
X0027980Y0027075D02*
X0030783Y0027075D01*
X0030783Y0023724D02*
X0027980Y0023724D01*
X0059688Y0024260D02*
X0059688Y0022260D01*
X0060244Y0022260D01*
X0060244Y0022259D02*
X0060290Y0022261D01*
X0060336Y0022267D01*
X0060380Y0022276D01*
X0060425Y0022289D01*
X0060467Y0022306D01*
X0060509Y0022326D01*
X0060548Y0022350D01*
X0060585Y0022376D01*
X0060621Y0022406D01*
X0060653Y0022438D01*
X0060683Y0022473D01*
X0060709Y0022511D01*
X0060733Y0022550D01*
X0060753Y0022592D01*
X0060770Y0022634D01*
X0060783Y0022679D01*
X0060792Y0022723D01*
X0060798Y0022769D01*
X0060800Y0022815D01*
X0060800Y0023704D01*
X0060798Y0023750D01*
X0060792Y0023796D01*
X0060783Y0023840D01*
X0060770Y0023885D01*
X0060753Y0023927D01*
X0060733Y0023969D01*
X0060709Y0024008D01*
X0060683Y0024046D01*
X0060653Y0024081D01*
X0060621Y0024113D01*
X0060586Y0024143D01*
X0060548Y0024169D01*
X0060509Y0024193D01*
X0060467Y0024213D01*
X0060425Y0024230D01*
X0060380Y0024243D01*
X0060336Y0024252D01*
X0060290Y0024258D01*
X0060244Y0024260D01*
X0059688Y0024260D01*
X0061982Y0023593D02*
X0062426Y0023593D01*
X0062461Y0023591D01*
X0062495Y0023586D01*
X0062529Y0023577D01*
X0062561Y0023564D01*
X0062593Y0023548D01*
X0062622Y0023529D01*
X0062649Y0023507D01*
X0062673Y0023483D01*
X0062695Y0023456D01*
X0062714Y0023427D01*
X0062730Y0023395D01*
X0062743Y0023363D01*
X0062752Y0023329D01*
X0062757Y0023295D01*
X0062759Y0023260D01*
X0062759Y0022260D01*
X0062259Y0022260D01*
X0062221Y0022262D01*
X0062183Y0022267D01*
X0062146Y0022277D01*
X0062110Y0022290D01*
X0062076Y0022306D01*
X0062043Y0022326D01*
X0062012Y0022348D01*
X0061984Y0022374D01*
X0061958Y0022402D01*
X0061936Y0022433D01*
X0061916Y0022466D01*
X0061900Y0022500D01*
X0061887Y0022536D01*
X0061877Y0022573D01*
X0061872Y0022611D01*
X0061870Y0022649D01*
X0061872Y0022687D01*
X0061877Y0022725D01*
X0061887Y0022762D01*
X0061900Y0022798D01*
X0061916Y0022832D01*
X0061936Y0022865D01*
X0061958Y0022896D01*
X0061984Y0022924D01*
X0062012Y0022950D01*
X0062043Y0022972D01*
X0062076Y0022992D01*
X0062110Y0023008D01*
X0062146Y0023021D01*
X0062183Y0023031D01*
X0062221Y0023036D01*
X0062259Y0023038D01*
X0062759Y0023038D01*
X0063628Y0023593D02*
X0064294Y0023593D01*
X0063850Y0024260D02*
X0063850Y0022593D01*
X0063852Y0022558D01*
X0063857Y0022524D01*
X0063866Y0022490D01*
X0063879Y0022458D01*
X0063895Y0022427D01*
X0063914Y0022397D01*
X0063936Y0022370D01*
X0063960Y0022346D01*
X0063987Y0022324D01*
X0064017Y0022305D01*
X0064048Y0022289D01*
X0064080Y0022276D01*
X0064114Y0022267D01*
X0064148Y0022262D01*
X0064183Y0022260D01*
X0064294Y0022260D01*
X0065200Y0022593D02*
X0065200Y0023149D01*
X0065200Y0022927D02*
X0066088Y0022927D01*
X0066088Y0023149D01*
X0066086Y0023190D01*
X0066080Y0023231D01*
X0066071Y0023271D01*
X0066058Y0023309D01*
X0066041Y0023347D01*
X0066021Y0023383D01*
X0065998Y0023417D01*
X0065972Y0023448D01*
X0065943Y0023477D01*
X0065912Y0023503D01*
X0065878Y0023526D01*
X0065842Y0023546D01*
X0065804Y0023563D01*
X0065766Y0023576D01*
X0065726Y0023585D01*
X0065685Y0023591D01*
X0065644Y0023593D01*
X0065603Y0023591D01*
X0065562Y0023585D01*
X0065522Y0023576D01*
X0065484Y0023563D01*
X0065446Y0023546D01*
X0065410Y0023526D01*
X0065376Y0023503D01*
X0065345Y0023477D01*
X0065316Y0023448D01*
X0065290Y0023417D01*
X0065267Y0023383D01*
X0065247Y0023347D01*
X0065230Y0023309D01*
X0065217Y0023271D01*
X0065208Y0023231D01*
X0065202Y0023190D01*
X0065200Y0023149D01*
X0065200Y0022593D02*
X0065202Y0022558D01*
X0065207Y0022524D01*
X0065216Y0022490D01*
X0065229Y0022458D01*
X0065245Y0022427D01*
X0065264Y0022397D01*
X0065286Y0022370D01*
X0065310Y0022346D01*
X0065337Y0022324D01*
X0065367Y0022305D01*
X0065398Y0022289D01*
X0065430Y0022276D01*
X0065464Y0022267D01*
X0065498Y0022262D01*
X0065533Y0022260D01*
X0066088Y0022260D01*
X0067028Y0022427D02*
X0067140Y0022427D01*
X0067140Y0022538D01*
X0067028Y0022538D01*
X0067028Y0022427D01*
X0067028Y0023315D02*
X0067140Y0023315D01*
X0067140Y0023427D01*
X0067028Y0023427D01*
X0067028Y0023315D01*
X0068112Y0022704D02*
X0069224Y0022704D01*
X0068890Y0022260D02*
X0068890Y0023149D01*
X0068112Y0022704D02*
X0068557Y0024260D01*
X0071056Y0024482D02*
X0070167Y0022038D01*
X0072000Y0022260D02*
X0073111Y0022260D01*
X0072556Y0022260D02*
X0072556Y0024260D01*
X0072000Y0023815D01*
X0074160Y0023815D02*
X0074716Y0024260D01*
X0074716Y0022260D01*
X0075271Y0022260D02*
X0074160Y0022260D01*
X0076215Y0022038D02*
X0077104Y0024482D01*
X0078048Y0023815D02*
X0078604Y0024260D01*
X0078604Y0022260D01*
X0079159Y0022260D02*
X0078048Y0022260D01*
X0080208Y0022815D02*
X0080210Y0022769D01*
X0080216Y0022723D01*
X0080225Y0022679D01*
X0080238Y0022634D01*
X0080255Y0022592D01*
X0080275Y0022550D01*
X0080299Y0022511D01*
X0080325Y0022473D01*
X0080355Y0022438D01*
X0080387Y0022406D01*
X0080422Y0022376D01*
X0080460Y0022350D01*
X0080499Y0022326D01*
X0080541Y0022306D01*
X0080583Y0022289D01*
X0080628Y0022276D01*
X0080672Y0022267D01*
X0080718Y0022261D01*
X0080764Y0022259D01*
X0080810Y0022261D01*
X0080856Y0022267D01*
X0080900Y0022276D01*
X0080945Y0022289D01*
X0080987Y0022306D01*
X0081029Y0022326D01*
X0081068Y0022350D01*
X0081106Y0022376D01*
X0081141Y0022406D01*
X0081173Y0022438D01*
X0081203Y0022473D01*
X0081229Y0022511D01*
X0081253Y0022550D01*
X0081273Y0022592D01*
X0081290Y0022634D01*
X0081303Y0022679D01*
X0081312Y0022723D01*
X0081318Y0022769D01*
X0081320Y0022815D01*
X0081318Y0022861D01*
X0081312Y0022907D01*
X0081303Y0022951D01*
X0081290Y0022996D01*
X0081273Y0023038D01*
X0081253Y0023080D01*
X0081229Y0023119D01*
X0081203Y0023157D01*
X0081173Y0023192D01*
X0081141Y0023224D01*
X0081106Y0023254D01*
X0081068Y0023280D01*
X0081029Y0023304D01*
X0080987Y0023324D01*
X0080945Y0023341D01*
X0080900Y0023354D01*
X0080856Y0023363D01*
X0080810Y0023369D01*
X0080764Y0023371D01*
X0080718Y0023369D01*
X0080672Y0023363D01*
X0080628Y0023354D01*
X0080583Y0023341D01*
X0080541Y0023324D01*
X0080499Y0023304D01*
X0080460Y0023280D01*
X0080422Y0023254D01*
X0080387Y0023224D01*
X0080355Y0023192D01*
X0080325Y0023157D01*
X0080299Y0023119D01*
X0080275Y0023080D01*
X0080255Y0023038D01*
X0080238Y0022996D01*
X0080225Y0022951D01*
X0080216Y0022907D01*
X0080210Y0022861D01*
X0080208Y0022815D01*
X0080320Y0023815D02*
X0080322Y0023774D01*
X0080328Y0023733D01*
X0080337Y0023693D01*
X0080350Y0023655D01*
X0080367Y0023617D01*
X0080387Y0023581D01*
X0080410Y0023547D01*
X0080436Y0023516D01*
X0080465Y0023487D01*
X0080496Y0023461D01*
X0080530Y0023438D01*
X0080566Y0023418D01*
X0080604Y0023401D01*
X0080642Y0023388D01*
X0080682Y0023379D01*
X0080723Y0023373D01*
X0080764Y0023371D01*
X0080805Y0023373D01*
X0080846Y0023379D01*
X0080886Y0023388D01*
X0080924Y0023401D01*
X0080962Y0023418D01*
X0080998Y0023438D01*
X0081032Y0023461D01*
X0081063Y0023487D01*
X0081092Y0023516D01*
X0081118Y0023547D01*
X0081141Y0023581D01*
X0081161Y0023617D01*
X0081178Y0023655D01*
X0081191Y0023693D01*
X0081200Y0023733D01*
X0081206Y0023774D01*
X0081208Y0023815D01*
X0081206Y0023856D01*
X0081200Y0023897D01*
X0081191Y0023937D01*
X0081178Y0023975D01*
X0081161Y0024013D01*
X0081141Y0024049D01*
X0081118Y0024083D01*
X0081092Y0024114D01*
X0081063Y0024143D01*
X0081032Y0024169D01*
X0080998Y0024192D01*
X0080962Y0024212D01*
X0080924Y0024229D01*
X0080886Y0024242D01*
X0080846Y0024251D01*
X0080805Y0024257D01*
X0080764Y0024259D01*
X0080723Y0024257D01*
X0080682Y0024251D01*
X0080642Y0024242D01*
X0080604Y0024229D01*
X0080566Y0024212D01*
X0080530Y0024192D01*
X0080496Y0024169D01*
X0080465Y0024143D01*
X0080436Y0024114D01*
X0080410Y0024083D01*
X0080387Y0024049D01*
X0080367Y0024013D01*
X0080350Y0023975D01*
X0080337Y0023937D01*
X0080328Y0023897D01*
X0080322Y0023856D01*
X0080320Y0023815D01*
X0068710Y0025409D02*
X0067598Y0025409D01*
X0068154Y0025409D02*
X0068154Y0027409D01*
X0067598Y0026965D01*
X0065474Y0026576D02*
X0065474Y0026465D01*
X0065362Y0026465D01*
X0065362Y0026576D01*
X0065474Y0026576D01*
X0065474Y0025687D02*
X0065474Y0025576D01*
X0065362Y0025576D01*
X0065362Y0025687D01*
X0065474Y0025687D01*
X0064494Y0026743D02*
X0064050Y0025409D01*
X0063606Y0026743D01*
X0062694Y0026298D02*
X0062694Y0026076D01*
X0061806Y0026076D01*
X0061806Y0026298D02*
X0061806Y0025743D01*
X0061808Y0025708D01*
X0061813Y0025674D01*
X0061822Y0025640D01*
X0061835Y0025608D01*
X0061851Y0025577D01*
X0061870Y0025547D01*
X0061892Y0025520D01*
X0061916Y0025496D01*
X0061943Y0025474D01*
X0061973Y0025455D01*
X0062004Y0025439D01*
X0062036Y0025426D01*
X0062070Y0025417D01*
X0062104Y0025412D01*
X0062139Y0025410D01*
X0062139Y0025409D02*
X0062694Y0025409D01*
X0062694Y0026298D02*
X0062692Y0026339D01*
X0062686Y0026380D01*
X0062677Y0026420D01*
X0062664Y0026458D01*
X0062647Y0026496D01*
X0062627Y0026532D01*
X0062604Y0026566D01*
X0062578Y0026597D01*
X0062549Y0026626D01*
X0062518Y0026652D01*
X0062484Y0026675D01*
X0062448Y0026695D01*
X0062410Y0026712D01*
X0062372Y0026725D01*
X0062332Y0026734D01*
X0062291Y0026740D01*
X0062250Y0026742D01*
X0062209Y0026740D01*
X0062168Y0026734D01*
X0062128Y0026725D01*
X0062090Y0026712D01*
X0062052Y0026695D01*
X0062016Y0026675D01*
X0061982Y0026652D01*
X0061951Y0026626D01*
X0061922Y0026597D01*
X0061896Y0026566D01*
X0061873Y0026532D01*
X0061853Y0026496D01*
X0061836Y0026458D01*
X0061823Y0026420D01*
X0061814Y0026380D01*
X0061808Y0026339D01*
X0061806Y0026298D01*
X0060811Y0025409D02*
X0060367Y0026298D01*
X0060255Y0026298D02*
X0059700Y0026298D01*
X0060255Y0026298D02*
X0060301Y0026300D01*
X0060347Y0026306D01*
X0060391Y0026315D01*
X0060436Y0026328D01*
X0060478Y0026345D01*
X0060520Y0026365D01*
X0060559Y0026389D01*
X0060597Y0026415D01*
X0060632Y0026445D01*
X0060664Y0026477D01*
X0060694Y0026512D01*
X0060720Y0026550D01*
X0060744Y0026589D01*
X0060764Y0026631D01*
X0060781Y0026673D01*
X0060794Y0026718D01*
X0060803Y0026762D01*
X0060809Y0026808D01*
X0060811Y0026854D01*
X0060809Y0026900D01*
X0060803Y0026946D01*
X0060794Y0026990D01*
X0060781Y0027035D01*
X0060764Y0027077D01*
X0060744Y0027119D01*
X0060720Y0027158D01*
X0060694Y0027196D01*
X0060664Y0027231D01*
X0060632Y0027263D01*
X0060597Y0027293D01*
X0060559Y0027319D01*
X0060520Y0027343D01*
X0060478Y0027363D01*
X0060436Y0027380D01*
X0060391Y0027393D01*
X0060347Y0027402D01*
X0060301Y0027408D01*
X0060255Y0027410D01*
X0060255Y0027409D02*
X0059700Y0027409D01*
X0059700Y0025409D01*
X0047289Y0049709D02*
X0044486Y0049709D01*
X0044486Y0053059D02*
X0047289Y0053059D01*
X0047289Y0056598D02*
X0044486Y0056598D01*
X0044486Y0059949D02*
X0047289Y0059949D01*
X0058827Y0063685D02*
X0061630Y0063685D01*
X0061630Y0067035D02*
X0058827Y0067035D01*
X0077606Y0080614D02*
X0080409Y0080614D01*
X0080409Y0083965D02*
X0077606Y0083965D01*
X0127370Y0024272D02*
X0130173Y0024272D01*
X0130173Y0020921D02*
X0127370Y0020921D01*
D15*
X0126456Y0022591D03*
X0131056Y0022591D03*
X0048203Y0051389D03*
X0043603Y0051389D03*
X0031697Y0051193D03*
X0027097Y0051193D03*
X0027097Y0057639D03*
X0031697Y0057639D03*
X0043603Y0058279D03*
X0048203Y0058279D03*
X0057944Y0065366D03*
X0062544Y0065366D03*
X0031697Y0064086D03*
X0027097Y0064086D03*
X0027097Y0070533D03*
X0031697Y0070533D03*
X0031697Y0076980D03*
X0027097Y0076980D03*
X0076723Y0082295D03*
X0081323Y0082295D03*
X0031697Y0044746D03*
X0027097Y0044746D03*
X0027097Y0038299D03*
X0031697Y0038299D03*
X0031697Y0031852D03*
X0027097Y0031852D03*
X0027097Y0025405D03*
X0031697Y0025405D03*
D16*
X0025642Y0084670D03*
X0025642Y0089270D03*
D17*
X0053575Y0055937D02*
X0059087Y0055937D01*
X0059087Y0047276D01*
X0053575Y0047276D01*
X0053575Y0055937D01*
X0061094Y0055937D02*
X0066606Y0055937D01*
X0066606Y0047276D01*
X0061094Y0047276D01*
X0061094Y0055937D01*
X0068535Y0055937D02*
X0074047Y0055937D01*
X0074047Y0047276D01*
X0068535Y0047276D01*
X0068535Y0055937D01*
D18*
X0071390Y0057807D03*
X0063752Y0057807D03*
X0056429Y0057807D03*
X0056429Y0045406D03*
X0063752Y0045406D03*
X0071390Y0045406D03*
D19*
X0071193Y0049244D03*
X0063949Y0053969D03*
X0056232Y0049244D03*
D20*
X0083614Y0053142D03*
X0083614Y0061016D03*
X0085858Y0091606D03*
X0093732Y0091606D03*
X0101606Y0091606D03*
X0109480Y0091606D03*
X0077984Y0091606D03*
X0093732Y0022472D03*
X0101606Y0022472D03*
X0109480Y0022472D03*
D21*
X0138526Y0022571D03*
X0143526Y0022571D03*
X0150780Y0022571D03*
X0155780Y0022571D03*
X0163033Y0022571D03*
X0168033Y0022571D03*
X0175287Y0022571D03*
X0180287Y0022571D03*
X0081508Y0074244D03*
X0076508Y0074244D03*
X0048388Y0065189D03*
X0043388Y0065189D03*
X0139264Y0091764D03*
X0144264Y0091764D03*
X0151469Y0091764D03*
X0156469Y0091764D03*
D22*
X0032095Y0089454D03*
X0032095Y0084454D03*
M02*
