G75*
%MOIN*%
%OFA0B0*%
%FSLAX25Y25*%
%IPPOS*%
%LPD*%
%AMOC8*
5,1,8,0,0,1.08239X$1,22.5*
%
%ADD10C,0.00000*%
%ADD11R,0.03937X0.04331*%
%ADD12R,0.04331X0.03937*%
%ADD13R,0.05512X0.05512*%
%ADD14R,0.06000X0.01181*%
%ADD15R,0.11600X0.11200*%
%ADD16R,0.02362X0.04921*%
%ADD17R,0.05600X0.05600*%
%ADD18C,0.05600*%
%ADD19R,0.03543X0.03150*%
%ADD20R,0.04724X0.07874*%
%ADD21R,0.07874X0.04724*%
%ADD22R,0.04724X0.02165*%
%ADD23R,0.01575X0.05315*%
%ADD24C,0.03740*%
%ADD25C,0.04000*%
%ADD26C,0.05150*%
%ADD27C,0.02781*%
%ADD28C,0.00787*%
%ADD29C,0.02000*%
%ADD30C,0.02400*%
%ADD31C,0.00600*%
%ADD32C,0.02978*%
%ADD33C,0.01600*%
%ADD34C,0.01000*%
D10*
X0025622Y0017748D02*
X0183102Y0017748D01*
X0183226Y0017750D01*
X0183349Y0017756D01*
X0183473Y0017765D01*
X0183595Y0017779D01*
X0183718Y0017796D01*
X0183840Y0017818D01*
X0183961Y0017843D01*
X0184081Y0017872D01*
X0184200Y0017904D01*
X0184319Y0017941D01*
X0184436Y0017981D01*
X0184551Y0018024D01*
X0184666Y0018072D01*
X0184778Y0018123D01*
X0184889Y0018177D01*
X0184999Y0018235D01*
X0185106Y0018296D01*
X0185212Y0018361D01*
X0185315Y0018429D01*
X0185416Y0018500D01*
X0185515Y0018574D01*
X0185612Y0018651D01*
X0185706Y0018732D01*
X0185797Y0018815D01*
X0185886Y0018901D01*
X0185972Y0018990D01*
X0186055Y0019081D01*
X0186136Y0019175D01*
X0186213Y0019272D01*
X0186287Y0019371D01*
X0186358Y0019472D01*
X0186426Y0019575D01*
X0186491Y0019681D01*
X0186552Y0019788D01*
X0186610Y0019898D01*
X0186664Y0020009D01*
X0186715Y0020121D01*
X0186763Y0020236D01*
X0186806Y0020351D01*
X0186846Y0020468D01*
X0186883Y0020587D01*
X0186915Y0020706D01*
X0186944Y0020826D01*
X0186969Y0020947D01*
X0186991Y0021069D01*
X0187008Y0021192D01*
X0187022Y0021314D01*
X0187031Y0021438D01*
X0187037Y0021561D01*
X0187039Y0021685D01*
X0187039Y0092551D01*
X0187037Y0092675D01*
X0187031Y0092798D01*
X0187022Y0092922D01*
X0187008Y0093044D01*
X0186991Y0093167D01*
X0186969Y0093289D01*
X0186944Y0093410D01*
X0186915Y0093530D01*
X0186883Y0093649D01*
X0186846Y0093768D01*
X0186806Y0093885D01*
X0186763Y0094000D01*
X0186715Y0094115D01*
X0186664Y0094227D01*
X0186610Y0094338D01*
X0186552Y0094448D01*
X0186491Y0094555D01*
X0186426Y0094661D01*
X0186358Y0094764D01*
X0186287Y0094865D01*
X0186213Y0094964D01*
X0186136Y0095061D01*
X0186055Y0095155D01*
X0185972Y0095246D01*
X0185886Y0095335D01*
X0185797Y0095421D01*
X0185706Y0095504D01*
X0185612Y0095585D01*
X0185515Y0095662D01*
X0185416Y0095736D01*
X0185315Y0095807D01*
X0185212Y0095875D01*
X0185106Y0095940D01*
X0184999Y0096001D01*
X0184889Y0096059D01*
X0184778Y0096113D01*
X0184666Y0096164D01*
X0184551Y0096212D01*
X0184436Y0096255D01*
X0184319Y0096295D01*
X0184200Y0096332D01*
X0184081Y0096364D01*
X0183961Y0096393D01*
X0183840Y0096418D01*
X0183718Y0096440D01*
X0183595Y0096457D01*
X0183473Y0096471D01*
X0183349Y0096480D01*
X0183226Y0096486D01*
X0183102Y0096488D01*
X0025622Y0096488D01*
X0025498Y0096486D01*
X0025375Y0096480D01*
X0025251Y0096471D01*
X0025129Y0096457D01*
X0025006Y0096440D01*
X0024884Y0096418D01*
X0024763Y0096393D01*
X0024643Y0096364D01*
X0024524Y0096332D01*
X0024405Y0096295D01*
X0024288Y0096255D01*
X0024173Y0096212D01*
X0024058Y0096164D01*
X0023946Y0096113D01*
X0023835Y0096059D01*
X0023725Y0096001D01*
X0023618Y0095940D01*
X0023512Y0095875D01*
X0023409Y0095807D01*
X0023308Y0095736D01*
X0023209Y0095662D01*
X0023112Y0095585D01*
X0023018Y0095504D01*
X0022927Y0095421D01*
X0022838Y0095335D01*
X0022752Y0095246D01*
X0022669Y0095155D01*
X0022588Y0095061D01*
X0022511Y0094964D01*
X0022437Y0094865D01*
X0022366Y0094764D01*
X0022298Y0094661D01*
X0022233Y0094555D01*
X0022172Y0094448D01*
X0022114Y0094338D01*
X0022060Y0094227D01*
X0022009Y0094115D01*
X0021961Y0094000D01*
X0021918Y0093885D01*
X0021878Y0093768D01*
X0021841Y0093649D01*
X0021809Y0093530D01*
X0021780Y0093410D01*
X0021755Y0093289D01*
X0021733Y0093167D01*
X0021716Y0093044D01*
X0021702Y0092922D01*
X0021693Y0092798D01*
X0021687Y0092675D01*
X0021685Y0092551D01*
X0021685Y0021685D01*
X0021687Y0021561D01*
X0021693Y0021438D01*
X0021702Y0021314D01*
X0021716Y0021192D01*
X0021733Y0021069D01*
X0021755Y0020947D01*
X0021780Y0020826D01*
X0021809Y0020706D01*
X0021841Y0020587D01*
X0021878Y0020468D01*
X0021918Y0020351D01*
X0021961Y0020236D01*
X0022009Y0020121D01*
X0022060Y0020009D01*
X0022114Y0019898D01*
X0022172Y0019788D01*
X0022233Y0019681D01*
X0022298Y0019575D01*
X0022366Y0019472D01*
X0022437Y0019371D01*
X0022511Y0019272D01*
X0022588Y0019175D01*
X0022669Y0019081D01*
X0022752Y0018990D01*
X0022838Y0018901D01*
X0022927Y0018815D01*
X0023018Y0018732D01*
X0023112Y0018651D01*
X0023209Y0018574D01*
X0023308Y0018500D01*
X0023409Y0018429D01*
X0023512Y0018361D01*
X0023618Y0018296D01*
X0023725Y0018235D01*
X0023835Y0018177D01*
X0023946Y0018123D01*
X0024058Y0018072D01*
X0024173Y0018024D01*
X0024288Y0017981D01*
X0024405Y0017941D01*
X0024524Y0017904D01*
X0024643Y0017872D01*
X0024763Y0017843D01*
X0024884Y0017818D01*
X0025006Y0017796D01*
X0025129Y0017779D01*
X0025251Y0017765D01*
X0025375Y0017756D01*
X0025498Y0017750D01*
X0025622Y0017748D01*
D11*
X0066409Y0045504D03*
X0073102Y0045504D03*
X0090110Y0043063D03*
X0096803Y0043063D03*
X0089992Y0037197D03*
X0089992Y0030504D03*
X0090583Y0053772D03*
X0090583Y0060465D03*
D12*
X0073890Y0066370D03*
X0067197Y0066370D03*
X0053181Y0077197D03*
X0053181Y0083890D03*
X0061134Y0090386D03*
X0067827Y0090386D03*
D13*
X0059874Y0065780D03*
X0059874Y0050819D03*
D14*
X0045709Y0050217D03*
X0045709Y0052185D03*
X0045709Y0054154D03*
X0045709Y0056122D03*
X0045709Y0058091D03*
X0045709Y0060059D03*
X0045709Y0062028D03*
X0045709Y0063996D03*
X0045709Y0065965D03*
X0045709Y0067933D03*
X0045709Y0069902D03*
X0045709Y0071870D03*
X0045709Y0073839D03*
X0045709Y0075807D03*
X0045709Y0077776D03*
X0045709Y0079744D03*
X0045709Y0048248D03*
X0045709Y0046280D03*
X0045709Y0044311D03*
X0045709Y0042343D03*
X0045709Y0040374D03*
X0045709Y0038406D03*
X0045709Y0036437D03*
X0045709Y0034469D03*
D15*
X0036109Y0027606D03*
X0036109Y0086606D03*
D16*
X0060583Y0083063D03*
X0068063Y0083063D03*
X0068063Y0073220D03*
X0064323Y0073220D03*
X0060583Y0073220D03*
D17*
X0083614Y0053142D03*
X0093732Y0022472D03*
X0109480Y0091606D03*
D18*
X0101606Y0091606D03*
X0093732Y0091606D03*
X0085858Y0091606D03*
X0077984Y0091606D03*
X0083614Y0061016D03*
X0101606Y0022472D03*
X0109480Y0022472D03*
D19*
X0066646Y0052000D03*
X0074520Y0055740D03*
X0066646Y0059480D03*
D20*
X0125925Y0088626D03*
X0133799Y0088626D03*
X0141673Y0088626D03*
X0149547Y0088626D03*
X0157421Y0088626D03*
X0165295Y0088626D03*
X0173169Y0088626D03*
X0181043Y0088626D03*
X0181043Y0025634D03*
X0173169Y0025634D03*
X0165295Y0025634D03*
X0157421Y0025634D03*
X0149547Y0025634D03*
X0141673Y0025634D03*
X0133799Y0025634D03*
X0125925Y0025634D03*
D21*
X0120098Y0037445D03*
X0120098Y0045319D03*
X0120098Y0053193D03*
X0120098Y0061067D03*
X0120098Y0068941D03*
X0120098Y0076815D03*
D22*
X0108181Y0037827D03*
X0108181Y0034087D03*
X0108181Y0030346D03*
X0097944Y0030346D03*
X0097944Y0037827D03*
D23*
X0075543Y0037256D03*
X0072984Y0037256D03*
X0070425Y0037256D03*
X0067866Y0037256D03*
X0065307Y0037256D03*
D24*
X0067571Y0027807D02*
X0067571Y0024067D01*
X0063831Y0024067D01*
X0063831Y0027807D01*
X0067571Y0027807D01*
X0067571Y0027806D02*
X0063831Y0027806D01*
X0077020Y0027807D02*
X0077020Y0024067D01*
X0073280Y0024067D01*
X0073280Y0027807D01*
X0077020Y0027807D01*
X0077020Y0027806D02*
X0073280Y0027806D01*
D25*
X0084697Y0027837D03*
X0084697Y0025837D03*
X0084697Y0023837D03*
X0056154Y0023837D03*
X0056154Y0025837D03*
X0056154Y0027837D03*
D26*
X0060878Y0036685D03*
X0079972Y0036685D03*
D27*
X0078534Y0043650D03*
X0081915Y0044850D03*
X0085496Y0044945D03*
X0090189Y0049244D03*
X0055472Y0034677D03*
X0050425Y0036646D03*
X0053575Y0041370D03*
X0040189Y0035465D03*
X0035858Y0038220D03*
X0035858Y0044913D03*
X0035465Y0051213D03*
X0040605Y0054778D03*
X0035465Y0057512D03*
X0038385Y0061070D03*
X0038185Y0064764D03*
X0040376Y0067354D03*
X0035465Y0070504D03*
X0030191Y0064205D03*
X0035465Y0077197D03*
X0038846Y0076223D03*
X0044913Y0082709D03*
X0028772Y0083608D03*
X0072472Y0091764D03*
X0052000Y0051213D03*
X0053181Y0031921D03*
X0044520Y0025228D03*
X0046094Y0020504D03*
X0036252Y0020504D03*
X0026409Y0020504D03*
X0125622Y0031528D03*
X0129953Y0031528D03*
X0141764Y0031528D03*
X0137827Y0020139D03*
X0165386Y0031528D03*
X0173260Y0031134D03*
X0184649Y0031528D03*
X0184649Y0039402D03*
X0174806Y0039402D03*
X0174806Y0047276D03*
X0184649Y0047276D03*
X0184649Y0055150D03*
X0174806Y0055150D03*
X0174806Y0063024D03*
X0184649Y0063024D03*
X0184649Y0070898D03*
X0174806Y0070898D03*
X0174806Y0078772D03*
X0184649Y0078772D03*
D28*
X0053181Y0077197D02*
X0051791Y0075807D01*
X0050425Y0075807D01*
X0051815Y0077197D01*
X0053181Y0077197D01*
X0051028Y0077197D01*
X0049638Y0075807D01*
X0050425Y0075807D01*
X0049638Y0075807D02*
X0045709Y0075807D01*
X0039261Y0075807D01*
X0038846Y0076223D01*
X0037248Y0073839D02*
X0035465Y0075622D01*
X0035465Y0077197D01*
X0037248Y0073839D02*
X0045709Y0073839D01*
X0045709Y0071870D02*
X0036831Y0071870D01*
X0035465Y0070504D01*
X0045709Y0077776D02*
X0049035Y0077776D01*
X0049702Y0078443D01*
X0049702Y0081463D01*
X0048457Y0082709D01*
X0044913Y0082709D01*
X0035465Y0057512D02*
X0035465Y0054584D01*
X0037849Y0052200D01*
X0037849Y0048257D01*
X0039630Y0046476D01*
X0039630Y0045079D01*
X0040583Y0044126D01*
X0045524Y0044126D01*
X0045709Y0044311D01*
X0045524Y0046094D02*
X0041973Y0046094D01*
X0039236Y0048831D01*
X0039236Y0052775D01*
X0037849Y0054162D01*
X0040605Y0054778D02*
X0040624Y0054759D01*
X0040624Y0049406D01*
X0041782Y0048248D01*
X0045709Y0048248D01*
X0045709Y0046280D02*
X0045524Y0046094D01*
X0045709Y0042343D02*
X0045524Y0042157D01*
X0039402Y0042157D01*
X0038243Y0043317D01*
X0038243Y0045901D01*
X0035465Y0048679D01*
X0035465Y0051213D01*
X0045709Y0051213D02*
X0045709Y0050217D01*
X0045709Y0051213D02*
X0045709Y0052185D01*
X0035858Y0044913D02*
X0035858Y0042157D01*
X0037827Y0040189D01*
X0045524Y0040189D01*
X0045709Y0040374D01*
X0052579Y0040374D01*
X0053575Y0041370D01*
X0045709Y0038406D02*
X0045524Y0038220D01*
X0035858Y0038220D01*
X0040189Y0035465D02*
X0041161Y0036437D01*
X0045709Y0036437D01*
X0045709Y0034469D02*
X0044913Y0034469D01*
X0044705Y0034469D01*
X0043339Y0033102D01*
X0043339Y0034283D01*
X0043524Y0034469D01*
X0044705Y0034469D01*
X0043339Y0033102D02*
X0043339Y0026409D01*
X0044520Y0025228D01*
D29*
X0047055Y0023534D02*
X0047510Y0024633D01*
X0047510Y0025823D01*
X0047055Y0026922D01*
X0046214Y0027764D01*
X0045332Y0028129D01*
X0045332Y0032277D01*
X0045334Y0032278D01*
X0049371Y0032278D01*
X0050309Y0033215D01*
X0050309Y0033655D01*
X0050686Y0033655D01*
X0050646Y0033615D01*
X0050191Y0032516D01*
X0050191Y0031326D01*
X0050646Y0030227D01*
X0051487Y0029386D01*
X0052322Y0029040D01*
X0052307Y0029004D01*
X0052154Y0028231D01*
X0052154Y0027837D01*
X0052154Y0027443D01*
X0052274Y0026837D01*
X0052154Y0026231D01*
X0052154Y0025837D01*
X0052154Y0025443D01*
X0052274Y0024837D01*
X0052154Y0024231D01*
X0052154Y0023837D01*
X0052154Y0023443D01*
X0052307Y0022670D01*
X0052609Y0021942D01*
X0053047Y0021287D01*
X0053604Y0020730D01*
X0054259Y0020292D01*
X0054987Y0019991D01*
X0055760Y0019837D01*
X0056153Y0019837D01*
X0056153Y0023837D01*
X0056154Y0023837D01*
X0056154Y0019837D01*
X0056548Y0019837D01*
X0057320Y0019991D01*
X0058048Y0020292D01*
X0058703Y0020730D01*
X0059261Y0021287D01*
X0059698Y0021942D01*
X0060000Y0022670D01*
X0060081Y0023080D01*
X0060109Y0022938D01*
X0060401Y0022234D01*
X0060825Y0021600D01*
X0061364Y0021061D01*
X0061998Y0020637D01*
X0062702Y0020346D01*
X0063450Y0020197D01*
X0064831Y0020197D01*
X0064831Y0025067D01*
X0066571Y0025067D01*
X0066571Y0026807D01*
X0071441Y0026807D01*
X0074279Y0026807D01*
X0074279Y0025067D01*
X0066571Y0025067D01*
X0066571Y0020197D01*
X0067952Y0020197D01*
X0068700Y0020346D01*
X0069404Y0020637D01*
X0070038Y0021061D01*
X0070425Y0021448D01*
X0070812Y0021061D01*
X0071446Y0020637D01*
X0072151Y0020346D01*
X0072898Y0020197D01*
X0074280Y0020197D01*
X0074280Y0025067D01*
X0076020Y0025067D01*
X0076020Y0026807D01*
X0080811Y0026807D01*
X0080697Y0026231D01*
X0080697Y0025837D01*
X0081222Y0025837D01*
X0081222Y0025837D01*
X0081222Y0025837D01*
X0080697Y0025837D01*
X0080697Y0025443D01*
X0080772Y0025067D01*
X0076020Y0025067D01*
X0076020Y0020197D01*
X0077401Y0020197D01*
X0078149Y0020346D01*
X0078853Y0020637D01*
X0079487Y0021061D01*
X0080026Y0021600D01*
X0080449Y0022234D01*
X0080741Y0022938D01*
X0080769Y0023080D01*
X0080851Y0022670D01*
X0081152Y0021942D01*
X0081590Y0021287D01*
X0082147Y0020730D01*
X0082802Y0020292D01*
X0083530Y0019991D01*
X0084303Y0019837D01*
X0084697Y0019837D01*
X0085091Y0019837D01*
X0085864Y0019991D01*
X0086592Y0020292D01*
X0087247Y0020730D01*
X0087804Y0021287D01*
X0088242Y0021942D01*
X0088543Y0022670D01*
X0088697Y0023443D01*
X0088697Y0023837D01*
X0088697Y0024231D01*
X0088576Y0024837D01*
X0088691Y0025412D01*
X0089332Y0024770D01*
X0089332Y0019748D01*
X0025622Y0019748D01*
X0025244Y0019785D01*
X0024546Y0020074D01*
X0024011Y0020609D01*
X0023722Y0021307D01*
X0023685Y0021685D01*
X0023685Y0092551D01*
X0023722Y0092929D01*
X0024011Y0093627D01*
X0024546Y0094162D01*
X0025244Y0094451D01*
X0025622Y0094488D01*
X0071235Y0094488D01*
X0070778Y0094299D01*
X0070434Y0093954D01*
X0064999Y0093954D01*
X0064763Y0093719D01*
X0064527Y0093955D01*
X0064071Y0094218D01*
X0063563Y0094354D01*
X0061134Y0094354D01*
X0061134Y0090386D01*
X0061134Y0090386D01*
X0061134Y0094354D01*
X0058705Y0094354D01*
X0058197Y0094218D01*
X0057740Y0093955D01*
X0057368Y0093582D01*
X0057105Y0093126D01*
X0056969Y0092618D01*
X0056969Y0090386D01*
X0061134Y0090386D01*
X0061134Y0090386D01*
X0056969Y0090386D01*
X0056969Y0088154D01*
X0057105Y0087645D01*
X0057368Y0087189D01*
X0057740Y0086817D01*
X0058179Y0086564D01*
X0057802Y0086186D01*
X0057802Y0079940D01*
X0058739Y0079002D01*
X0062427Y0079002D01*
X0063364Y0079940D01*
X0063364Y0086186D01*
X0063133Y0086417D01*
X0063563Y0086417D01*
X0064071Y0086554D01*
X0064527Y0086817D01*
X0064763Y0087053D01*
X0064999Y0086817D01*
X0065263Y0086817D01*
X0065263Y0082506D01*
X0065282Y0082460D01*
X0065282Y0079940D01*
X0066219Y0079002D01*
X0069907Y0079002D01*
X0070844Y0079940D01*
X0070844Y0082460D01*
X0070863Y0082506D01*
X0070863Y0087025D01*
X0071423Y0087586D01*
X0071651Y0087586D01*
X0072681Y0088012D01*
X0073706Y0089038D01*
X0073871Y0089106D01*
X0073879Y0089091D01*
X0074323Y0088479D01*
X0074857Y0087945D01*
X0075469Y0087501D01*
X0076142Y0087158D01*
X0076860Y0086924D01*
X0077606Y0086806D01*
X0077984Y0086806D01*
X0077984Y0091606D01*
X0077984Y0091606D01*
X0077984Y0086806D01*
X0078362Y0086806D01*
X0079108Y0086924D01*
X0079827Y0087158D01*
X0080500Y0087501D01*
X0081111Y0087945D01*
X0081645Y0088479D01*
X0082090Y0089091D01*
X0082116Y0089143D01*
X0082128Y0089114D01*
X0083366Y0087876D01*
X0084983Y0087206D01*
X0086733Y0087206D01*
X0087326Y0087452D01*
X0095218Y0079559D01*
X0096331Y0078446D01*
X0114561Y0078446D01*
X0114561Y0073790D01*
X0115473Y0072878D01*
X0114561Y0071966D01*
X0114561Y0067429D01*
X0114505Y0067429D01*
X0113392Y0066316D01*
X0110711Y0063636D01*
X0110711Y0060105D01*
X0109639Y0059033D01*
X0102806Y0059033D01*
X0102087Y0059752D01*
X0100952Y0060222D01*
X0099723Y0060222D01*
X0098587Y0059752D01*
X0097718Y0058883D01*
X0097576Y0058540D01*
X0094551Y0058540D01*
X0094551Y0060464D01*
X0090583Y0060464D01*
X0090583Y0060465D01*
X0090583Y0060465D01*
X0090583Y0064630D01*
X0092814Y0064630D01*
X0093323Y0064494D01*
X0093779Y0064230D01*
X0094152Y0063858D01*
X0094415Y0063402D01*
X0094551Y0062893D01*
X0094551Y0060465D01*
X0090583Y0060465D01*
X0090583Y0064630D01*
X0088351Y0064630D01*
X0087842Y0064494D01*
X0087386Y0064230D01*
X0087285Y0064129D01*
X0087275Y0064143D01*
X0086741Y0064677D01*
X0086130Y0065121D01*
X0085457Y0065464D01*
X0084738Y0065698D01*
X0083992Y0065816D01*
X0083614Y0065816D01*
X0083236Y0065816D01*
X0082490Y0065698D01*
X0081772Y0065464D01*
X0081098Y0065121D01*
X0080487Y0064677D01*
X0079953Y0064143D01*
X0079509Y0063531D01*
X0079166Y0062858D01*
X0078932Y0062140D01*
X0078814Y0061394D01*
X0078814Y0061016D01*
X0083614Y0061016D01*
X0083614Y0065816D01*
X0083614Y0061016D01*
X0083614Y0061016D01*
X0083614Y0061016D01*
X0078814Y0061016D01*
X0078814Y0060638D01*
X0078932Y0059892D01*
X0079166Y0059173D01*
X0079488Y0058540D01*
X0077329Y0058540D01*
X0076954Y0058915D01*
X0072085Y0058915D01*
X0071258Y0058088D01*
X0070571Y0058775D01*
X0070017Y0058775D01*
X0070017Y0061718D01*
X0069446Y0062289D01*
X0069446Y0062802D01*
X0070025Y0062802D01*
X0070260Y0063037D01*
X0070496Y0062801D01*
X0070952Y0062538D01*
X0071461Y0062402D01*
X0073890Y0062402D01*
X0076318Y0062402D01*
X0076827Y0062538D01*
X0077283Y0062801D01*
X0077656Y0063174D01*
X0077919Y0063630D01*
X0078055Y0064138D01*
X0078055Y0066370D01*
X0073890Y0066370D01*
X0073890Y0066370D01*
X0078055Y0066370D01*
X0078055Y0068602D01*
X0077919Y0069111D01*
X0077656Y0069567D01*
X0077283Y0069939D01*
X0076827Y0070202D01*
X0076318Y0070339D01*
X0073890Y0070339D01*
X0073890Y0066370D01*
X0073890Y0062402D01*
X0073890Y0066370D01*
X0073890Y0066370D01*
X0073890Y0066370D01*
X0073890Y0070339D01*
X0071461Y0070339D01*
X0070952Y0070202D01*
X0070863Y0070151D01*
X0070863Y0073777D01*
X0070844Y0073823D01*
X0070844Y0076344D01*
X0069907Y0077281D01*
X0066732Y0077281D01*
X0066732Y0077281D01*
X0066276Y0077545D01*
X0065767Y0077681D01*
X0064323Y0077681D01*
X0064323Y0073221D01*
X0064323Y0073221D01*
X0064323Y0077681D01*
X0062878Y0077681D01*
X0062370Y0077545D01*
X0061914Y0077281D01*
X0061913Y0077281D01*
X0058739Y0077281D01*
X0057802Y0076344D01*
X0057802Y0073823D01*
X0057783Y0073777D01*
X0057783Y0070135D01*
X0056455Y0070135D01*
X0055518Y0069198D01*
X0055518Y0062361D01*
X0056455Y0061424D01*
X0060743Y0061424D01*
X0063274Y0058892D01*
X0063274Y0058775D01*
X0057152Y0058775D01*
X0056187Y0059741D01*
X0055074Y0060854D01*
X0052920Y0060854D01*
X0050309Y0063465D01*
X0050309Y0064146D01*
X0050572Y0064602D01*
X0050709Y0065111D01*
X0050709Y0065964D01*
X0055518Y0065964D01*
X0055518Y0063966D02*
X0050309Y0063966D01*
X0050309Y0064146D02*
X0050309Y0064146D01*
X0050709Y0065964D02*
X0049594Y0065964D01*
X0049593Y0065965D01*
X0050709Y0065965D01*
X0050709Y0066818D01*
X0050572Y0067327D01*
X0050309Y0067783D01*
X0050309Y0067784D01*
X0050309Y0073673D01*
X0050353Y0073628D01*
X0056009Y0073628D01*
X0056946Y0074566D01*
X0056946Y0079828D01*
X0056498Y0080277D01*
X0056574Y0080321D01*
X0056947Y0080693D01*
X0057210Y0081149D01*
X0057346Y0081658D01*
X0057346Y0083890D01*
X0057346Y0086122D01*
X0057210Y0086630D01*
X0056947Y0087086D01*
X0056574Y0087459D01*
X0056118Y0087722D01*
X0055610Y0087858D01*
X0053181Y0087858D01*
X0050752Y0087858D01*
X0050244Y0087722D01*
X0049788Y0087459D01*
X0049415Y0087086D01*
X0049152Y0086630D01*
X0049016Y0086122D01*
X0049016Y0084702D01*
X0047149Y0084702D01*
X0046607Y0085244D01*
X0045508Y0085699D01*
X0044319Y0085699D01*
X0043909Y0085529D01*
X0043909Y0085606D01*
X0037109Y0085606D01*
X0037109Y0087606D01*
X0043909Y0087606D01*
X0043909Y0092470D01*
X0043772Y0092978D01*
X0043509Y0093434D01*
X0043137Y0093807D01*
X0042681Y0094070D01*
X0042172Y0094206D01*
X0037109Y0094206D01*
X0037109Y0087606D01*
X0035109Y0087606D01*
X0035109Y0085606D01*
X0035109Y0080187D01*
X0036059Y0080187D01*
X0037109Y0079753D01*
X0037109Y0085606D01*
X0035109Y0085606D01*
X0028309Y0085606D01*
X0028309Y0080743D01*
X0028445Y0080234D01*
X0028708Y0079778D01*
X0029081Y0079406D01*
X0029537Y0079143D01*
X0030045Y0079006D01*
X0033045Y0079006D01*
X0032929Y0078891D01*
X0032474Y0077792D01*
X0032474Y0076602D01*
X0032929Y0075503D01*
X0033471Y0074961D01*
X0033471Y0074796D01*
X0034801Y0073466D01*
X0033771Y0073039D01*
X0032929Y0072198D01*
X0032474Y0071099D01*
X0032474Y0069909D01*
X0032929Y0068810D01*
X0033771Y0067969D01*
X0034870Y0067513D01*
X0036059Y0067513D01*
X0037159Y0067969D01*
X0038000Y0068810D01*
X0038442Y0069876D01*
X0041109Y0069876D01*
X0041109Y0067784D01*
X0041108Y0067783D01*
X0040845Y0067327D01*
X0040709Y0066818D01*
X0040709Y0066469D01*
X0039879Y0067299D01*
X0038780Y0067754D01*
X0037590Y0067754D01*
X0036491Y0067299D01*
X0035650Y0066458D01*
X0035194Y0065359D01*
X0035194Y0064169D01*
X0035650Y0063070D01*
X0035903Y0062816D01*
X0035850Y0062764D01*
X0035766Y0062561D01*
X0034522Y0062561D01*
X0033182Y0063901D01*
X0033182Y0064800D01*
X0032727Y0065899D01*
X0031885Y0066740D01*
X0030786Y0067195D01*
X0029596Y0067195D01*
X0028497Y0066740D01*
X0027656Y0065899D01*
X0027201Y0064800D01*
X0027201Y0063610D01*
X0027656Y0062511D01*
X0028497Y0061669D01*
X0029596Y0061214D01*
X0030495Y0061214D01*
X0031835Y0059874D01*
X0032805Y0058905D01*
X0032474Y0058107D01*
X0032474Y0056917D01*
X0032929Y0055818D01*
X0033471Y0055276D01*
X0033471Y0053759D01*
X0033626Y0053603D01*
X0032929Y0052907D01*
X0032474Y0051807D01*
X0032474Y0050618D01*
X0032929Y0049519D01*
X0033471Y0048977D01*
X0033471Y0047853D01*
X0034020Y0047304D01*
X0033323Y0046607D01*
X0032868Y0045508D01*
X0032868Y0044319D01*
X0033323Y0043219D01*
X0033865Y0042678D01*
X0033865Y0041332D01*
X0034360Y0040837D01*
X0034164Y0040756D01*
X0033323Y0039914D01*
X0032868Y0038815D01*
X0032868Y0037626D01*
X0033323Y0036526D01*
X0034164Y0035685D01*
X0035263Y0035230D01*
X0036453Y0035230D01*
X0037198Y0035539D01*
X0037198Y0035206D01*
X0037109Y0035206D01*
X0037109Y0028606D01*
X0035109Y0028606D01*
X0035109Y0026606D01*
X0037109Y0026606D01*
X0037109Y0020006D01*
X0042172Y0020006D01*
X0042681Y0020143D01*
X0043137Y0020406D01*
X0043509Y0020778D01*
X0043772Y0021234D01*
X0043909Y0021743D01*
X0043909Y0022245D01*
X0043925Y0022238D01*
X0045115Y0022238D01*
X0046214Y0022693D01*
X0047055Y0023534D01*
X0047246Y0023996D02*
X0052154Y0023996D01*
X0052154Y0023837D02*
X0052679Y0023837D01*
X0052679Y0023837D01*
X0052154Y0023837D01*
X0056153Y0023837D02*
X0056154Y0023837D01*
X0056154Y0025837D01*
X0056154Y0027837D01*
X0056153Y0027837D01*
X0056153Y0025837D01*
X0056154Y0025837D01*
X0056153Y0025837D01*
X0056153Y0023837D01*
X0056154Y0023837D02*
X0056154Y0025622D01*
X0056154Y0027837D01*
X0052679Y0027837D02*
X0052679Y0027837D01*
X0052154Y0027837D01*
X0052679Y0027837D01*
X0052154Y0027993D02*
X0045661Y0027993D01*
X0045332Y0029991D02*
X0050882Y0029991D01*
X0050191Y0031990D02*
X0045332Y0031990D01*
X0037109Y0031990D02*
X0035109Y0031990D01*
X0035109Y0033988D02*
X0037109Y0033988D01*
X0035109Y0035206D02*
X0030045Y0035206D01*
X0029537Y0035070D01*
X0029081Y0034807D01*
X0028708Y0034434D01*
X0028445Y0033978D01*
X0028309Y0033470D01*
X0028309Y0028606D01*
X0035109Y0028606D01*
X0035109Y0035206D01*
X0033863Y0035987D02*
X0023685Y0035987D01*
X0023685Y0037985D02*
X0032868Y0037985D01*
X0033392Y0039984D02*
X0023685Y0039984D01*
X0023685Y0041982D02*
X0033865Y0041982D01*
X0033008Y0043981D02*
X0023685Y0043981D01*
X0023685Y0045979D02*
X0033063Y0045979D01*
X0033471Y0047978D02*
X0023685Y0047978D01*
X0023685Y0049976D02*
X0032740Y0049976D01*
X0032543Y0051975D02*
X0023685Y0051975D01*
X0023685Y0053973D02*
X0033471Y0053973D01*
X0032866Y0055972D02*
X0023685Y0055972D01*
X0023685Y0057970D02*
X0032474Y0057970D01*
X0031835Y0059874D02*
X0031835Y0059874D01*
X0031740Y0059969D02*
X0023685Y0059969D01*
X0023685Y0061967D02*
X0028199Y0061967D01*
X0027201Y0063966D02*
X0023685Y0063966D01*
X0023685Y0065964D02*
X0027722Y0065964D01*
X0023685Y0067963D02*
X0033785Y0067963D01*
X0037145Y0067963D02*
X0041109Y0067963D01*
X0040924Y0065965D02*
X0041824Y0065965D01*
X0041824Y0065965D01*
X0041824Y0065964D01*
X0040925Y0065964D01*
X0040924Y0065965D01*
X0035445Y0065964D02*
X0032661Y0065964D01*
X0033182Y0063966D02*
X0035278Y0063966D01*
X0032474Y0069961D02*
X0023685Y0069961D01*
X0023685Y0071960D02*
X0032831Y0071960D01*
X0034309Y0073958D02*
X0023685Y0073958D01*
X0023685Y0075957D02*
X0032741Y0075957D01*
X0032542Y0077955D02*
X0023685Y0077955D01*
X0023685Y0079954D02*
X0028607Y0079954D01*
X0028309Y0081952D02*
X0023685Y0081952D01*
X0023685Y0083951D02*
X0028309Y0083951D01*
X0023685Y0085949D02*
X0035109Y0085949D01*
X0035109Y0083951D02*
X0037109Y0083951D01*
X0037109Y0085949D02*
X0049016Y0085949D01*
X0053181Y0085949D02*
X0053181Y0085949D01*
X0053181Y0087858D02*
X0053181Y0083890D01*
X0053181Y0083890D01*
X0053181Y0087858D01*
X0057024Y0087948D02*
X0043909Y0087948D01*
X0043909Y0089946D02*
X0056969Y0089946D01*
X0056969Y0091945D02*
X0043909Y0091945D01*
X0042900Y0093944D02*
X0057729Y0093944D01*
X0061134Y0093944D02*
X0061134Y0093944D01*
X0064538Y0093944D02*
X0064988Y0093944D01*
X0061134Y0091945D02*
X0061134Y0091945D01*
X0072526Y0087948D02*
X0074854Y0087948D01*
X0077984Y0087948D02*
X0077984Y0087948D01*
X0077984Y0089946D02*
X0077984Y0089946D01*
X0081114Y0087948D02*
X0083294Y0087948D01*
X0088828Y0085949D02*
X0070863Y0085949D01*
X0070863Y0083951D02*
X0090827Y0083951D01*
X0092825Y0081952D02*
X0070844Y0081952D01*
X0070844Y0079954D02*
X0094824Y0079954D01*
X0101981Y0083446D02*
X0096888Y0088539D01*
X0097462Y0089114D01*
X0097669Y0089613D01*
X0097876Y0089114D01*
X0099114Y0087876D01*
X0100731Y0087206D01*
X0102482Y0087206D01*
X0103074Y0087452D01*
X0104273Y0086252D01*
X0105386Y0085139D01*
X0116567Y0085139D01*
X0117680Y0086252D01*
X0121563Y0090136D01*
X0121563Y0088807D01*
X0125744Y0088807D01*
X0125744Y0088445D01*
X0121563Y0088445D01*
X0121563Y0084426D01*
X0121699Y0083917D01*
X0121963Y0083461D01*
X0121977Y0083446D01*
X0101981Y0083446D01*
X0101476Y0083951D02*
X0121690Y0083951D01*
X0121563Y0085949D02*
X0117377Y0085949D01*
X0119375Y0087948D02*
X0121563Y0087948D01*
X0121563Y0089946D02*
X0121374Y0089946D01*
X0104576Y0085949D02*
X0099478Y0085949D01*
X0099042Y0087948D02*
X0097479Y0087948D01*
X0104273Y0086252D02*
X0104273Y0086252D01*
X0114561Y0077955D02*
X0056946Y0077955D01*
X0056946Y0075957D02*
X0057802Y0075957D01*
X0057802Y0073958D02*
X0056339Y0073958D01*
X0057783Y0071960D02*
X0050309Y0071960D01*
X0050309Y0069961D02*
X0056281Y0069961D01*
X0055518Y0067963D02*
X0050309Y0067963D01*
X0049593Y0065965D02*
X0049593Y0065965D01*
X0051806Y0061967D02*
X0055912Y0061967D01*
X0055958Y0059969D02*
X0062197Y0059969D01*
X0070017Y0059969D02*
X0078920Y0059969D01*
X0078905Y0061967D02*
X0069768Y0061967D01*
X0073890Y0063966D02*
X0073890Y0063966D01*
X0073890Y0065964D02*
X0073890Y0065964D01*
X0073890Y0067963D02*
X0073890Y0067963D01*
X0073890Y0069961D02*
X0073890Y0069961D01*
X0077244Y0069961D02*
X0114561Y0069961D01*
X0114561Y0067963D02*
X0078055Y0067963D01*
X0078055Y0065964D02*
X0113040Y0065964D01*
X0111041Y0063966D02*
X0094044Y0063966D01*
X0094551Y0061967D02*
X0110711Y0061967D01*
X0110575Y0059969D02*
X0101563Y0059969D01*
X0099111Y0059969D02*
X0094551Y0059969D01*
X0090583Y0061967D02*
X0090583Y0061967D01*
X0090583Y0063966D02*
X0090583Y0063966D01*
X0086614Y0061016D02*
X0083614Y0061016D01*
X0083614Y0061016D01*
X0086614Y0061016D01*
X0086614Y0061016D01*
X0083614Y0061967D02*
X0083614Y0061967D01*
X0083614Y0063966D02*
X0083614Y0063966D01*
X0079824Y0063966D02*
X0078009Y0063966D01*
X0070863Y0071960D02*
X0114561Y0071960D01*
X0114561Y0073958D02*
X0070844Y0073958D01*
X0070844Y0075957D02*
X0114561Y0075957D01*
X0142210Y0071341D02*
X0163398Y0071341D01*
X0164511Y0072454D01*
X0167195Y0075138D01*
X0167195Y0083089D01*
X0168320Y0083089D01*
X0169232Y0084001D01*
X0170144Y0083089D01*
X0176194Y0083089D01*
X0177106Y0084001D01*
X0178018Y0083089D01*
X0184068Y0083089D01*
X0185005Y0084026D01*
X0185005Y0092895D01*
X0185039Y0092551D01*
X0185039Y0021685D01*
X0185005Y0021341D01*
X0185005Y0030234D01*
X0184068Y0031171D01*
X0183034Y0031171D01*
X0183034Y0033496D01*
X0181921Y0034609D01*
X0181853Y0034677D01*
X0180740Y0035790D01*
X0163933Y0035790D01*
X0163417Y0036306D01*
X0162630Y0037093D01*
X0144543Y0055180D01*
X0144543Y0067327D01*
X0143430Y0068440D01*
X0143343Y0068527D01*
X0143343Y0069544D01*
X0142872Y0070679D01*
X0142210Y0071341D01*
X0143169Y0069961D02*
X0185039Y0069961D01*
X0185039Y0067963D02*
X0143907Y0067963D01*
X0144543Y0065964D02*
X0185039Y0065964D01*
X0185039Y0063966D02*
X0144543Y0063966D01*
X0144543Y0061967D02*
X0185039Y0061967D01*
X0185039Y0059969D02*
X0144543Y0059969D01*
X0144543Y0057970D02*
X0185039Y0057970D01*
X0185039Y0055972D02*
X0144543Y0055972D01*
X0145749Y0053973D02*
X0185039Y0053973D01*
X0185039Y0051975D02*
X0147748Y0051975D01*
X0149746Y0049976D02*
X0185039Y0049976D01*
X0185039Y0047978D02*
X0151745Y0047978D01*
X0153743Y0045979D02*
X0185039Y0045979D01*
X0185039Y0043981D02*
X0155742Y0043981D01*
X0157740Y0041982D02*
X0185039Y0041982D01*
X0185039Y0039984D02*
X0159739Y0039984D01*
X0161737Y0037985D02*
X0185039Y0037985D01*
X0185039Y0035987D02*
X0163736Y0035987D01*
X0182541Y0033988D02*
X0185039Y0033988D01*
X0185039Y0031990D02*
X0183034Y0031990D01*
X0185005Y0029991D02*
X0185039Y0029991D01*
X0185005Y0027993D02*
X0185039Y0027993D01*
X0185005Y0025994D02*
X0185039Y0025994D01*
X0185005Y0023996D02*
X0185039Y0023996D01*
X0185005Y0021997D02*
X0185039Y0021997D01*
X0137827Y0020139D02*
X0137436Y0019748D01*
X0129134Y0019748D01*
X0125925Y0022957D01*
X0125925Y0025634D01*
X0125925Y0031224D01*
X0125622Y0031528D01*
X0122631Y0031990D02*
X0119202Y0031990D01*
X0122631Y0031990D01*
X0122631Y0030933D01*
X0122640Y0030911D01*
X0121963Y0030234D01*
X0121963Y0021034D01*
X0122900Y0020097D01*
X0125108Y0020097D01*
X0125457Y0019748D01*
X0113434Y0019748D01*
X0113586Y0019957D01*
X0113929Y0020630D01*
X0114162Y0021348D01*
X0114280Y0022095D01*
X0114280Y0022472D01*
X0109480Y0022472D01*
X0109480Y0025622D01*
X0106331Y0025622D01*
X0104953Y0027000D01*
X0108102Y0027000D01*
X0109480Y0025622D01*
X0109480Y0025994D02*
X0109480Y0025994D01*
X0109480Y0027272D02*
X0109480Y0022473D01*
X0109480Y0027272D01*
X0109103Y0027272D01*
X0108356Y0027154D01*
X0107638Y0026921D01*
X0106965Y0026578D01*
X0106353Y0026134D01*
X0105819Y0025599D01*
X0105375Y0024988D01*
X0105348Y0024936D01*
X0105336Y0024965D01*
X0104099Y0026203D01*
X0102482Y0026872D01*
X0100731Y0026872D01*
X0099114Y0026203D01*
X0098132Y0025221D01*
X0098132Y0025935D01*
X0097671Y0026396D01*
X0098939Y0027664D01*
X0100969Y0027664D01*
X0101907Y0028601D01*
X0101907Y0032092D01*
X0100969Y0033029D01*
X0098939Y0033029D01*
X0098236Y0033732D01*
X0097281Y0034128D01*
X0093748Y0034128D01*
X0093824Y0034260D01*
X0093961Y0034768D01*
X0093961Y0037197D01*
X0093961Y0039509D01*
X0093982Y0039487D01*
X0093982Y0036081D01*
X0094920Y0035144D01*
X0100969Y0035144D01*
X0101907Y0036081D01*
X0101907Y0039572D01*
X0100969Y0040509D01*
X0100372Y0040509D01*
X0100372Y0045823D01*
X0105685Y0040509D01*
X0105157Y0040509D01*
X0104219Y0039572D01*
X0104219Y0036398D01*
X0104219Y0036397D01*
X0103956Y0035941D01*
X0103819Y0035433D01*
X0103819Y0034087D01*
X0108181Y0034087D01*
X0108181Y0034087D01*
X0103819Y0034087D01*
X0103819Y0032741D01*
X0103956Y0032232D01*
X0104219Y0031776D01*
X0104219Y0031775D01*
X0104219Y0028601D01*
X0105157Y0027664D01*
X0111206Y0027664D01*
X0111289Y0027746D01*
X0111966Y0027746D01*
X0112922Y0028142D01*
X0114222Y0029443D01*
X0114363Y0029303D01*
X0115498Y0028832D01*
X0116727Y0028832D01*
X0117862Y0029303D01*
X0118731Y0030171D01*
X0119202Y0031307D01*
X0119202Y0031990D01*
X0118551Y0029991D02*
X0121963Y0029991D01*
X0121963Y0027993D02*
X0112560Y0027993D01*
X0111996Y0026578D02*
X0111323Y0026921D01*
X0110604Y0027154D01*
X0109858Y0027272D01*
X0109480Y0027272D01*
X0111996Y0026578D02*
X0112607Y0026134D01*
X0113142Y0025599D01*
X0113586Y0024988D01*
X0113929Y0024315D01*
X0114162Y0023596D01*
X0114280Y0022850D01*
X0114280Y0022472D01*
X0109480Y0022472D01*
X0106331Y0025622D01*
X0106214Y0025994D02*
X0104307Y0025994D01*
X0104953Y0027000D02*
X0102787Y0029165D01*
X0102787Y0032118D01*
X0100819Y0034087D01*
X0097881Y0034087D01*
X0097840Y0034128D01*
X0093061Y0034128D01*
X0092335Y0034854D01*
X0107414Y0034854D01*
X0108181Y0034087D01*
X0104756Y0034087D01*
X0102787Y0032118D01*
X0102787Y0034087D01*
X0100819Y0034087D01*
X0102787Y0034087D02*
X0104756Y0034087D01*
X0103819Y0033988D02*
X0097617Y0033988D01*
X0096763Y0031528D02*
X0097944Y0030346D01*
X0093732Y0026134D01*
X0093732Y0025228D01*
X0091370Y0027591D01*
X0093732Y0027591D01*
X0096488Y0030346D01*
X0094126Y0030346D01*
X0093732Y0029953D01*
X0093732Y0027591D01*
X0092551Y0028772D01*
X0092551Y0031134D01*
X0092157Y0031528D01*
X0096763Y0031528D01*
X0096488Y0030346D02*
X0097944Y0030346D01*
X0094126Y0030346D02*
X0090976Y0030346D01*
X0090150Y0030346D01*
X0089992Y0030504D01*
X0088969Y0031528D01*
X0092157Y0031528D01*
X0090976Y0030346D02*
X0092551Y0028772D01*
X0091370Y0027591D02*
X0090189Y0027591D01*
X0093732Y0024047D01*
X0093732Y0025228D01*
X0093732Y0026134D02*
X0093732Y0027591D01*
X0090189Y0027591D02*
X0086252Y0031528D01*
X0088969Y0031528D01*
X0086252Y0031528D02*
X0077984Y0031528D01*
X0075543Y0033969D01*
X0075543Y0037256D01*
X0075543Y0043063D01*
X0073102Y0045504D01*
X0066409Y0045504D02*
X0065307Y0044402D01*
X0065307Y0037256D01*
X0065307Y0026331D01*
X0065701Y0025937D01*
X0066571Y0025994D02*
X0074279Y0025994D01*
X0074047Y0025937D02*
X0075150Y0025937D01*
X0075228Y0026016D01*
X0079165Y0026016D01*
X0080346Y0026016D02*
X0084697Y0026016D01*
X0084697Y0027837D01*
X0084697Y0025837D01*
X0084697Y0023837D01*
X0084697Y0019837D01*
X0084697Y0023837D01*
X0084697Y0023837D01*
X0084697Y0026016D01*
X0084697Y0025994D02*
X0084697Y0025994D01*
X0084697Y0025837D02*
X0084697Y0027837D01*
X0084697Y0027837D01*
X0084697Y0025837D02*
X0084697Y0025837D01*
X0084697Y0025837D01*
X0084697Y0023837D01*
X0084697Y0023837D01*
X0084697Y0025837D01*
X0084697Y0023996D02*
X0084697Y0023996D01*
X0084697Y0021997D02*
X0084697Y0021997D01*
X0084697Y0019999D02*
X0084697Y0019999D01*
X0085883Y0019999D02*
X0089332Y0019999D01*
X0089332Y0021997D02*
X0088264Y0021997D01*
X0088171Y0023837D02*
X0088171Y0023837D01*
X0088697Y0023837D01*
X0088171Y0023837D01*
X0088697Y0023996D02*
X0089332Y0023996D01*
X0093732Y0024047D02*
X0093732Y0022472D01*
X0098073Y0025994D02*
X0098905Y0025994D01*
X0101298Y0027993D02*
X0104828Y0027993D01*
X0104219Y0029991D02*
X0101907Y0029991D01*
X0101907Y0031990D02*
X0104095Y0031990D01*
X0108181Y0030346D02*
X0111449Y0030346D01*
X0113024Y0031921D01*
X0113024Y0039795D01*
X0099047Y0053772D01*
X0096094Y0053772D01*
X0095307Y0054559D01*
X0095307Y0055740D01*
X0094913Y0053772D02*
X0090583Y0053772D01*
X0084244Y0053772D01*
X0083614Y0053142D01*
X0089452Y0049627D02*
X0089832Y0050006D01*
X0093214Y0050006D01*
X0094151Y0050944D01*
X0094151Y0051172D01*
X0095018Y0051172D01*
X0094955Y0051021D01*
X0094955Y0049792D01*
X0095425Y0048657D01*
X0096294Y0047788D01*
X0097430Y0047317D01*
X0098659Y0047317D01*
X0098813Y0047381D01*
X0099367Y0046828D01*
X0094172Y0046828D01*
X0093723Y0046380D01*
X0093679Y0046456D01*
X0093307Y0046829D01*
X0092851Y0047092D01*
X0092342Y0047228D01*
X0090110Y0047228D01*
X0087878Y0047228D01*
X0087534Y0047136D01*
X0087190Y0047480D01*
X0086091Y0047935D01*
X0084901Y0047935D01*
X0084799Y0047893D01*
X0084279Y0048413D01*
X0087636Y0048413D01*
X0088665Y0048839D01*
X0089452Y0049627D01*
X0089802Y0049976D02*
X0094955Y0049976D01*
X0096104Y0047978D02*
X0084714Y0047978D01*
X0090110Y0047228D02*
X0090110Y0043063D01*
X0090110Y0043063D01*
X0090110Y0049165D01*
X0090189Y0049244D01*
X0090110Y0047228D02*
X0090110Y0043063D01*
X0089992Y0042945D01*
X0089992Y0037197D01*
X0089992Y0037197D01*
X0086024Y0037197D01*
X0086024Y0039626D01*
X0086160Y0040134D01*
X0086239Y0040271D01*
X0086142Y0040634D01*
X0086142Y0041975D01*
X0086091Y0041954D01*
X0084901Y0041954D01*
X0083802Y0042410D01*
X0083753Y0042459D01*
X0083609Y0042315D01*
X0082510Y0041860D01*
X0081320Y0041860D01*
X0081072Y0041963D01*
X0081069Y0041956D01*
X0080367Y0041254D01*
X0081044Y0041147D01*
X0081729Y0040925D01*
X0082370Y0040598D01*
X0082953Y0040174D01*
X0083462Y0039665D01*
X0083885Y0039083D01*
X0084212Y0038441D01*
X0084435Y0037756D01*
X0084547Y0037045D01*
X0084547Y0036685D01*
X0079973Y0036685D01*
X0084547Y0036685D01*
X0084547Y0036325D01*
X0084435Y0035614D01*
X0084212Y0034929D01*
X0083885Y0034287D01*
X0083769Y0034128D01*
X0086236Y0034128D01*
X0086160Y0034260D01*
X0086024Y0034768D01*
X0086024Y0037197D01*
X0089992Y0037197D01*
X0087650Y0034854D01*
X0092335Y0034854D01*
X0089992Y0037197D01*
X0093961Y0037197D01*
X0089992Y0037197D01*
X0089992Y0037197D01*
X0093961Y0037985D02*
X0093982Y0037985D01*
X0093961Y0035987D02*
X0094077Y0035987D01*
X0096803Y0038968D02*
X0097944Y0037827D01*
X0096803Y0038968D02*
X0096803Y0043063D01*
X0100372Y0043981D02*
X0102214Y0043981D01*
X0100372Y0041982D02*
X0104213Y0041982D01*
X0104631Y0039984D02*
X0101495Y0039984D01*
X0101907Y0037985D02*
X0104219Y0037985D01*
X0103982Y0035987D02*
X0101812Y0035987D01*
X0090110Y0043981D02*
X0090110Y0043981D01*
X0090110Y0045979D02*
X0090110Y0045979D01*
X0084834Y0041982D02*
X0082805Y0041982D01*
X0083144Y0039984D02*
X0086120Y0039984D01*
X0086024Y0037985D02*
X0084360Y0037985D01*
X0084494Y0035987D02*
X0086024Y0035987D01*
X0087650Y0034854D02*
X0081803Y0034854D01*
X0079972Y0036685D01*
X0079973Y0036685D02*
X0079973Y0036685D01*
X0074158Y0031677D02*
X0073339Y0032496D01*
X0073131Y0032998D01*
X0067323Y0032998D01*
X0067323Y0032998D01*
X0066866Y0032735D01*
X0066358Y0032598D01*
X0065307Y0032598D01*
X0065307Y0035512D01*
X0065307Y0035512D01*
X0065307Y0032598D01*
X0064256Y0032598D01*
X0063748Y0032735D01*
X0063456Y0032903D01*
X0063276Y0032772D01*
X0062634Y0032445D01*
X0061949Y0032223D01*
X0061238Y0032110D01*
X0060878Y0032110D01*
X0060878Y0036685D01*
X0064736Y0036685D01*
X0065307Y0037256D01*
X0060878Y0036685D02*
X0060878Y0036685D01*
X0060878Y0036685D01*
X0060878Y0032110D01*
X0060518Y0032110D01*
X0059807Y0032223D01*
X0059122Y0032445D01*
X0058480Y0032772D01*
X0058049Y0033085D01*
X0058007Y0032983D01*
X0057166Y0032142D01*
X0056430Y0031837D01*
X0056548Y0031837D01*
X0057320Y0031683D01*
X0058048Y0031382D01*
X0058703Y0030944D01*
X0059261Y0030387D01*
X0059698Y0029732D01*
X0060000Y0029004D01*
X0060061Y0028694D01*
X0060109Y0028936D01*
X0060401Y0029640D01*
X0060825Y0030274D01*
X0061364Y0030813D01*
X0061998Y0031237D01*
X0062702Y0031528D01*
X0063450Y0031677D01*
X0064831Y0031677D01*
X0064831Y0026807D01*
X0066571Y0026807D01*
X0066571Y0031677D01*
X0067952Y0031677D01*
X0068700Y0031528D01*
X0069404Y0031237D01*
X0070038Y0030813D01*
X0070425Y0030426D01*
X0070812Y0030813D01*
X0071446Y0031237D01*
X0072151Y0031528D01*
X0072898Y0031677D01*
X0074158Y0031677D01*
X0073845Y0031990D02*
X0056798Y0031990D01*
X0059525Y0029991D02*
X0060636Y0029991D01*
X0064831Y0029991D02*
X0066571Y0029991D01*
X0066571Y0027993D02*
X0064831Y0027993D01*
X0064831Y0026807D02*
X0060039Y0026807D01*
X0060154Y0026231D01*
X0060154Y0025837D01*
X0059628Y0025837D01*
X0059628Y0025837D01*
X0059628Y0025837D01*
X0060154Y0025837D01*
X0060154Y0025443D01*
X0060079Y0025067D01*
X0064831Y0025067D01*
X0064831Y0026807D01*
X0064831Y0025994D02*
X0060154Y0025994D01*
X0060268Y0025937D02*
X0058254Y0025937D01*
X0056154Y0023837D01*
X0056153Y0023996D02*
X0056154Y0023996D01*
X0056153Y0025994D02*
X0056154Y0025994D01*
X0052679Y0025837D02*
X0052679Y0025837D01*
X0052154Y0025837D01*
X0052679Y0025837D01*
X0052679Y0025837D01*
X0052154Y0025994D02*
X0047439Y0025994D01*
X0043909Y0021997D02*
X0052586Y0021997D01*
X0054968Y0019999D02*
X0024729Y0019999D01*
X0023685Y0021997D02*
X0028309Y0021997D01*
X0028309Y0021743D02*
X0028445Y0021234D01*
X0028708Y0020778D01*
X0029081Y0020406D01*
X0029537Y0020143D01*
X0030045Y0020006D01*
X0035109Y0020006D01*
X0035109Y0026606D01*
X0028309Y0026606D01*
X0028309Y0021743D01*
X0028309Y0023996D02*
X0023685Y0023996D01*
X0023685Y0025994D02*
X0028309Y0025994D01*
X0023685Y0027993D02*
X0035109Y0027993D01*
X0035109Y0029991D02*
X0037109Y0029991D01*
X0037109Y0025994D02*
X0035109Y0025994D01*
X0035109Y0023996D02*
X0037109Y0023996D01*
X0037109Y0021997D02*
X0035109Y0021997D01*
X0028309Y0029991D02*
X0023685Y0029991D01*
X0023685Y0031990D02*
X0028309Y0031990D01*
X0028451Y0033988D02*
X0023685Y0033988D01*
X0056153Y0021997D02*
X0056154Y0021997D01*
X0056153Y0019999D02*
X0056154Y0019999D01*
X0057339Y0019999D02*
X0083511Y0019999D01*
X0081129Y0021997D02*
X0080291Y0021997D01*
X0076020Y0021997D02*
X0074280Y0021997D01*
X0074280Y0023996D02*
X0076020Y0023996D01*
X0076020Y0025994D02*
X0080697Y0025994D01*
X0066571Y0023996D02*
X0064831Y0023996D01*
X0064831Y0021997D02*
X0066571Y0021997D01*
X0060559Y0021997D02*
X0059721Y0021997D01*
X0060878Y0033988D02*
X0060878Y0033988D01*
X0060878Y0035987D02*
X0060878Y0035987D01*
X0060878Y0036685D02*
X0060878Y0041260D01*
X0060878Y0036685D01*
X0060878Y0037985D02*
X0060878Y0037985D01*
X0060878Y0039984D02*
X0060878Y0039984D01*
X0060878Y0041260D02*
X0060518Y0041260D01*
X0059807Y0041147D01*
X0059122Y0040925D01*
X0058965Y0040845D01*
X0058965Y0043907D01*
X0057852Y0045020D01*
X0057391Y0045482D01*
X0057391Y0046463D01*
X0062441Y0046463D01*
X0062441Y0045504D01*
X0066409Y0045504D01*
X0066409Y0045504D01*
X0062441Y0045504D01*
X0062441Y0043075D01*
X0062577Y0042567D01*
X0062841Y0042111D01*
X0063213Y0041738D01*
X0063447Y0041603D01*
X0063292Y0041514D01*
X0062919Y0041141D01*
X0062758Y0040862D01*
X0062634Y0040925D01*
X0061949Y0041147D01*
X0061238Y0041260D01*
X0060878Y0041260D01*
X0058965Y0041982D02*
X0062969Y0041982D01*
X0062441Y0043981D02*
X0058892Y0043981D01*
X0057391Y0045979D02*
X0062441Y0045979D01*
X0041109Y0053722D02*
X0041109Y0056191D01*
X0040578Y0056191D01*
X0039655Y0057113D01*
X0039655Y0055176D01*
X0040062Y0054769D01*
X0041109Y0053722D01*
X0041109Y0053973D02*
X0040857Y0053973D01*
X0041109Y0055972D02*
X0039655Y0055972D01*
X0064323Y0073958D02*
X0064323Y0073958D01*
X0064323Y0075957D02*
X0064323Y0075957D01*
X0063364Y0079954D02*
X0065282Y0079954D01*
X0065282Y0081952D02*
X0063364Y0081952D01*
X0063364Y0083951D02*
X0065263Y0083951D01*
X0065263Y0085949D02*
X0063364Y0085949D01*
X0057802Y0085949D02*
X0057346Y0085949D01*
X0057346Y0083951D02*
X0057802Y0083951D01*
X0057346Y0083890D02*
X0053181Y0083890D01*
X0053181Y0083890D01*
X0057346Y0083890D01*
X0057346Y0081952D02*
X0057802Y0081952D01*
X0057802Y0079954D02*
X0056821Y0079954D01*
X0053181Y0083951D02*
X0053181Y0083951D01*
X0037109Y0081952D02*
X0035109Y0081952D01*
X0036623Y0079954D02*
X0037109Y0079954D01*
X0035109Y0087606D02*
X0028309Y0087606D01*
X0028309Y0092470D01*
X0028445Y0092978D01*
X0028708Y0093434D01*
X0029081Y0093807D01*
X0029537Y0094070D01*
X0030045Y0094206D01*
X0035109Y0094206D01*
X0035109Y0087606D01*
X0035109Y0087948D02*
X0037109Y0087948D01*
X0037109Y0089946D02*
X0035109Y0089946D01*
X0035109Y0091945D02*
X0037109Y0091945D01*
X0037109Y0093944D02*
X0035109Y0093944D01*
X0029318Y0093944D02*
X0024328Y0093944D01*
X0023685Y0091945D02*
X0028309Y0091945D01*
X0028309Y0089946D02*
X0023685Y0089946D01*
X0023685Y0087948D02*
X0028309Y0087948D01*
X0094913Y0053772D02*
X0096094Y0053772D01*
X0065307Y0033988D02*
X0065307Y0033988D01*
X0109480Y0023996D02*
X0109480Y0023996D01*
X0109480Y0022473D02*
X0109480Y0022473D01*
X0109480Y0022472D02*
X0109480Y0022472D01*
X0114032Y0023996D02*
X0121963Y0023996D01*
X0121963Y0025994D02*
X0112747Y0025994D01*
X0114265Y0021997D02*
X0121963Y0021997D01*
X0125206Y0019999D02*
X0113607Y0019999D01*
X0128950Y0031171D02*
X0129862Y0030259D01*
X0130774Y0031171D01*
X0131899Y0031171D01*
X0131899Y0031619D01*
X0131528Y0031990D01*
X0128613Y0031990D01*
X0128613Y0031171D01*
X0128950Y0031171D01*
X0128613Y0031990D02*
X0131528Y0031990D01*
X0164017Y0071960D02*
X0185039Y0071960D01*
X0185039Y0073958D02*
X0166015Y0073958D01*
X0167195Y0075957D02*
X0185039Y0075957D01*
X0185039Y0077955D02*
X0167195Y0077955D01*
X0167195Y0079954D02*
X0185039Y0079954D01*
X0185039Y0081952D02*
X0167195Y0081952D01*
X0169182Y0083951D02*
X0169282Y0083951D01*
X0177056Y0083951D02*
X0177156Y0083951D01*
X0184930Y0083951D02*
X0185039Y0083951D01*
X0185005Y0085949D02*
X0185039Y0085949D01*
X0185005Y0087948D02*
X0185039Y0087948D01*
X0185005Y0089946D02*
X0185039Y0089946D01*
X0185005Y0091945D02*
X0185039Y0091945D01*
X0164511Y0072454D02*
X0164511Y0072454D01*
D30*
X0125925Y0088626D02*
X0120946Y0083646D01*
X0102472Y0083646D01*
X0102183Y0083935D01*
X0090583Y0082315D02*
X0076803Y0082315D01*
X0073890Y0085228D01*
X0073890Y0087197D01*
X0073732Y0087354D01*
X0071685Y0085307D01*
X0071685Y0081921D01*
X0073890Y0081921D01*
X0073890Y0085228D01*
X0073732Y0087354D02*
X0077984Y0091606D01*
X0072472Y0091764D02*
X0071094Y0090386D01*
X0067827Y0090386D01*
X0068063Y0090150D01*
X0068063Y0083063D01*
X0071685Y0081921D02*
X0072079Y0082315D01*
X0076803Y0082315D01*
X0073260Y0078772D01*
X0073260Y0077591D01*
X0071685Y0079165D01*
X0071685Y0076803D01*
X0070504Y0077984D01*
X0071685Y0079165D01*
X0071685Y0081921D01*
X0073890Y0081921D02*
X0073890Y0077591D01*
X0073260Y0077591D01*
X0073890Y0077591D02*
X0073890Y0074598D01*
X0071685Y0076803D01*
X0070504Y0077984D02*
X0066173Y0077984D01*
X0064323Y0076134D01*
X0064323Y0073220D01*
X0068063Y0073220D02*
X0068063Y0070425D01*
X0066173Y0068535D01*
X0068063Y0068535D01*
X0068063Y0067236D01*
X0067197Y0066370D01*
X0060465Y0066370D01*
X0059874Y0065780D01*
X0060583Y0066488D01*
X0060583Y0068535D01*
X0062236Y0068535D01*
X0060583Y0070189D01*
X0060583Y0070898D01*
X0060583Y0073220D01*
X0060583Y0070189D02*
X0060583Y0068535D01*
X0062236Y0068535D02*
X0066173Y0068535D01*
X0068063Y0068535D02*
X0068063Y0070425D01*
X0067197Y0066370D02*
X0066646Y0065819D01*
X0066646Y0063417D01*
X0064283Y0065780D01*
X0062630Y0065780D01*
X0066646Y0061764D01*
X0066646Y0059480D01*
X0061055Y0065071D01*
X0061055Y0065780D01*
X0062630Y0065780D01*
X0061055Y0065780D02*
X0059874Y0065780D01*
X0066646Y0063417D02*
X0066646Y0059480D01*
X0073890Y0063575D02*
X0076449Y0061016D01*
X0077000Y0060465D01*
X0084165Y0060465D01*
X0083614Y0061016D01*
X0087276Y0061016D01*
X0087827Y0060465D01*
X0090583Y0060465D01*
X0108102Y0060465D01*
X0108299Y0060661D01*
X0099047Y0053772D02*
X0097079Y0055740D01*
X0095307Y0055740D01*
X0088614Y0055740D01*
X0090583Y0053772D01*
X0090209Y0054146D01*
X0083496Y0054146D01*
X0083614Y0054028D01*
X0083614Y0053142D01*
X0077118Y0053142D01*
X0077191Y0053069D01*
X0077373Y0053069D01*
X0079230Y0051213D01*
X0087079Y0051213D01*
X0089008Y0053142D01*
X0083614Y0053142D01*
X0083496Y0054146D02*
X0080740Y0054146D01*
X0079146Y0055740D01*
X0088614Y0055740D01*
X0089008Y0053142D02*
X0089953Y0053142D01*
X0090583Y0053772D01*
X0080740Y0054146D02*
X0077374Y0054146D01*
X0077118Y0053142D02*
X0074520Y0055740D01*
X0079146Y0055740D01*
X0075780Y0055740D02*
X0074520Y0055740D01*
X0078929Y0060465D02*
X0087827Y0060465D01*
X0089165Y0061882D02*
X0090583Y0060465D01*
X0089165Y0061882D02*
X0085858Y0061882D01*
X0084992Y0061016D01*
X0083614Y0061016D01*
X0078378Y0061016D01*
X0079244Y0061882D01*
X0082748Y0061882D01*
X0083614Y0061016D01*
X0083614Y0061764D01*
X0083496Y0061882D01*
X0085858Y0061882D01*
X0083496Y0061882D02*
X0082748Y0061882D01*
X0079244Y0061882D02*
X0078378Y0061882D01*
X0078378Y0061016D01*
X0078929Y0060465D01*
X0078378Y0061016D02*
X0076449Y0061016D01*
X0078378Y0061882D02*
X0073890Y0066370D01*
X0073890Y0063575D01*
X0073890Y0066370D02*
X0073890Y0074598D01*
X0066173Y0077984D02*
X0064598Y0079559D01*
X0064323Y0079559D01*
X0064323Y0077984D01*
X0066173Y0077984D01*
X0064323Y0077984D02*
X0064323Y0076134D01*
X0064323Y0079559D02*
X0064323Y0087197D01*
X0061134Y0090386D01*
X0054953Y0090386D01*
X0053181Y0088614D01*
X0051409Y0090386D01*
X0039888Y0090386D01*
X0036791Y0087288D01*
X0036791Y0084532D01*
X0037433Y0083890D01*
X0037151Y0083608D01*
X0032709Y0083608D01*
X0033102Y0084002D01*
X0033102Y0087039D01*
X0032203Y0087039D01*
X0028772Y0083608D01*
X0032709Y0083608D01*
X0036109Y0086606D02*
X0036791Y0087288D01*
X0051409Y0090386D02*
X0053575Y0090386D01*
X0053181Y0089992D01*
X0053181Y0088614D01*
X0053181Y0083890D01*
X0053575Y0090386D02*
X0054953Y0090386D01*
X0060976Y0051921D02*
X0066567Y0051921D01*
X0066567Y0050819D01*
X0060268Y0050819D01*
X0059874Y0050819D01*
X0060976Y0051921D01*
X0066567Y0051921D02*
X0066646Y0052000D01*
X0052000Y0051213D02*
X0045709Y0051213D01*
X0043339Y0051213D01*
X0036109Y0027606D02*
X0036252Y0027463D01*
X0036252Y0020504D01*
X0056154Y0025622D02*
X0056469Y0025937D01*
X0060268Y0025937D01*
X0065701Y0025937D01*
X0069323Y0025937D01*
X0069402Y0026016D01*
X0074126Y0026016D01*
X0074047Y0025937D01*
X0069323Y0025937D01*
X0074126Y0026016D02*
X0079165Y0026016D01*
X0080346Y0026016D01*
X0082876Y0026016D01*
X0084697Y0027837D01*
X0084697Y0026016D02*
X0084618Y0025937D01*
X0075150Y0025937D01*
X0165386Y0036279D02*
X0182682Y0036279D01*
X0184649Y0034312D01*
X0184649Y0031528D01*
D31*
X0181134Y0032709D02*
X0179953Y0033890D01*
X0163146Y0033890D01*
X0163024Y0033890D01*
X0162630Y0033496D01*
X0162630Y0033890D01*
X0161843Y0033890D01*
X0161843Y0035193D01*
X0162236Y0034799D01*
X0162236Y0033102D01*
X0161843Y0032709D01*
X0161843Y0033890D01*
X0162630Y0033890D02*
X0162630Y0034406D01*
X0162236Y0034799D01*
X0162630Y0034406D02*
X0163146Y0033890D01*
X0162630Y0033496D02*
X0162236Y0033102D01*
X0161843Y0032709D02*
X0159480Y0030346D01*
X0159087Y0029953D01*
X0159087Y0027984D01*
X0157421Y0026319D01*
X0157421Y0025634D01*
X0157421Y0027197D01*
X0157421Y0028287D01*
X0158051Y0028917D01*
X0158051Y0026264D01*
X0157421Y0025634D01*
X0159087Y0027299D01*
X0159087Y0027984D01*
X0159480Y0027693D02*
X0159480Y0030346D01*
X0159087Y0029953D02*
X0158051Y0028917D01*
X0159480Y0027693D02*
X0158051Y0026264D01*
X0149547Y0025634D02*
X0149547Y0043823D01*
X0144789Y0048581D01*
X0115510Y0048581D01*
X0113417Y0046488D01*
X0113417Y0044913D01*
X0111997Y0046872D02*
X0114906Y0049781D01*
X0133496Y0049781D01*
X0135465Y0051750D01*
X0135465Y0086961D01*
X0133799Y0088626D01*
X0122203Y0093463D02*
X0169986Y0093463D01*
X0173169Y0090280D01*
X0173169Y0088626D01*
X0177054Y0094663D02*
X0181043Y0090673D01*
X0181043Y0088626D01*
X0177054Y0094663D02*
X0121706Y0094663D01*
X0118649Y0091606D01*
X0109480Y0091606D01*
X0106173Y0087039D02*
X0101606Y0091606D01*
X0093732Y0091606D02*
X0093732Y0089008D01*
X0101194Y0081546D01*
X0133083Y0081546D01*
X0134265Y0080365D01*
X0134265Y0070118D01*
X0133076Y0068929D01*
X0129165Y0068929D02*
X0125765Y0065529D01*
X0119323Y0065529D01*
X0115292Y0065529D01*
X0112611Y0062849D01*
X0112611Y0059318D01*
X0110426Y0057133D01*
X0100337Y0057133D01*
X0102726Y0054462D02*
X0109452Y0054462D01*
X0113845Y0058855D01*
X0115386Y0058855D01*
X0117551Y0061020D01*
X0117551Y0061252D01*
X0118130Y0060673D01*
X0119705Y0060673D01*
X0120098Y0061067D01*
X0119717Y0060685D01*
X0119717Y0059886D01*
X0118917Y0059886D01*
X0119705Y0060673D01*
X0119717Y0059886D02*
X0122854Y0059886D01*
X0123654Y0059087D01*
X0123422Y0058855D01*
X0119323Y0058855D01*
X0116961Y0058855D01*
X0115780Y0058855D01*
X0117354Y0060430D01*
X0117354Y0061449D01*
X0117551Y0061252D01*
X0118917Y0059886D02*
X0117887Y0058855D01*
X0115780Y0058855D02*
X0115386Y0058855D01*
X0114342Y0057655D02*
X0132003Y0057655D01*
X0133076Y0058728D01*
X0131770Y0056455D02*
X0114839Y0056455D01*
X0107786Y0049402D01*
X0110316Y0046872D02*
X0111997Y0046872D01*
X0108619Y0051932D02*
X0105256Y0051932D01*
X0108619Y0051932D02*
X0114342Y0057655D01*
X0098476Y0050406D02*
X0108181Y0040700D01*
X0108181Y0037827D01*
X0113024Y0039795D02*
X0114598Y0041370D01*
X0133102Y0041370D01*
X0133102Y0046192D02*
X0139304Y0046192D01*
X0141764Y0043732D01*
X0141764Y0031528D01*
X0133799Y0032406D02*
X0132315Y0033890D01*
X0118081Y0033890D01*
X0116113Y0031921D01*
X0133799Y0032406D02*
X0133799Y0025634D01*
X0161843Y0035193D02*
X0142643Y0054393D01*
X0142643Y0066540D01*
X0140254Y0068929D01*
X0137865Y0071207D02*
X0139899Y0073241D01*
X0161843Y0073241D01*
X0162217Y0073241D01*
X0162611Y0073241D01*
X0165295Y0075925D01*
X0165295Y0088626D01*
X0157421Y0088626D02*
X0157421Y0078681D01*
X0153181Y0074441D01*
X0139402Y0074441D01*
X0136665Y0071704D01*
X0136665Y0056339D01*
X0137854Y0055150D01*
X0133076Y0055150D02*
X0131770Y0056455D01*
X0137865Y0059443D02*
X0137865Y0071207D01*
X0133065Y0073696D02*
X0131876Y0072507D01*
X0133065Y0073696D02*
X0133065Y0079559D01*
X0132277Y0080346D01*
X0097118Y0080346D01*
X0085858Y0091606D01*
X0106173Y0087039D02*
X0115780Y0087039D01*
X0122203Y0093463D01*
X0149638Y0082709D02*
X0149638Y0077591D01*
X0147688Y0075641D01*
X0138484Y0075641D01*
X0137854Y0076271D01*
X0137865Y0059443D02*
X0138580Y0058728D01*
X0139054Y0058728D01*
X0098476Y0050406D02*
X0098044Y0050406D01*
X0085496Y0044945D02*
X0085060Y0044945D01*
X0082864Y0047141D01*
X0080332Y0047141D01*
X0076504Y0050969D01*
X0073354Y0050969D01*
X0071717Y0052606D01*
X0071717Y0054942D01*
X0069784Y0056875D01*
X0056365Y0056875D01*
X0054287Y0058954D01*
X0052133Y0058954D01*
X0049059Y0062028D01*
X0045709Y0062028D01*
X0045709Y0063996D02*
X0038953Y0063996D01*
X0038185Y0064764D01*
X0040376Y0067354D02*
X0041766Y0065965D01*
X0045709Y0065965D01*
X0038385Y0061070D02*
X0041365Y0058091D01*
X0045709Y0058091D01*
X0048788Y0058091D01*
X0050325Y0056554D01*
X0053293Y0056554D01*
X0055371Y0054475D01*
X0068790Y0054475D01*
X0069317Y0053948D01*
X0069317Y0051612D01*
X0072360Y0048569D01*
X0075509Y0048569D01*
X0078534Y0045545D01*
X0078534Y0043650D01*
X0080925Y0044850D02*
X0076007Y0049769D01*
X0072857Y0049769D01*
X0070517Y0052109D01*
X0070517Y0054445D01*
X0069287Y0055675D01*
X0055868Y0055675D01*
X0053790Y0057754D01*
X0050822Y0057754D01*
X0049609Y0058967D01*
X0049609Y0059054D01*
X0048603Y0060059D01*
X0045709Y0060059D01*
X0045709Y0056122D02*
X0049059Y0056122D01*
X0049828Y0055354D01*
X0052795Y0055354D01*
X0055491Y0052658D01*
X0055491Y0044695D01*
X0057065Y0043120D01*
X0057065Y0038439D01*
X0055472Y0036845D01*
X0055472Y0034677D01*
X0053181Y0036252D02*
X0055865Y0038936D01*
X0055865Y0042623D01*
X0054291Y0044198D01*
X0054291Y0052161D01*
X0052298Y0054154D01*
X0045709Y0054154D01*
X0037849Y0054162D02*
X0037755Y0054256D01*
X0037755Y0058461D01*
X0036413Y0059802D01*
X0036324Y0059802D01*
X0035465Y0060661D01*
X0033735Y0060661D01*
X0030191Y0064205D01*
X0080925Y0044850D02*
X0081915Y0044850D01*
X0053181Y0036252D02*
X0053181Y0031921D01*
X0050217Y0036437D02*
X0045709Y0036437D01*
X0050217Y0036437D02*
X0050425Y0036646D01*
X0181134Y0032709D02*
X0181134Y0025724D01*
X0181043Y0025634D01*
D32*
X0165386Y0036279D03*
X0133102Y0041370D03*
X0133102Y0046192D03*
X0133076Y0055150D03*
X0137854Y0055150D03*
X0139054Y0058728D03*
X0133076Y0058728D03*
X0133076Y0068929D03*
X0129165Y0068929D03*
X0131876Y0072507D03*
X0137854Y0076271D03*
X0149638Y0082709D03*
X0141370Y0083102D03*
X0140254Y0068929D03*
X0108299Y0060661D03*
X0100337Y0057133D03*
X0102726Y0054462D03*
X0105256Y0051932D03*
X0107786Y0049402D03*
X0110316Y0046872D03*
X0113417Y0044913D03*
X0098044Y0050406D03*
X0116113Y0031921D03*
X0090583Y0082315D03*
X0102183Y0083935D03*
D33*
X0067617Y0051028D02*
X0066646Y0052000D01*
X0066567Y0050819D02*
X0067966Y0049420D01*
X0061667Y0049420D01*
X0060268Y0050819D01*
X0067617Y0050908D02*
X0069105Y0049420D01*
X0067966Y0049420D01*
X0069105Y0049420D02*
X0071656Y0046869D01*
X0071776Y0046869D01*
X0073102Y0045543D01*
X0073102Y0045504D01*
X0067617Y0050908D02*
X0067617Y0051028D01*
X0141764Y0031528D02*
X0141764Y0025724D01*
X0141673Y0025634D01*
X0165295Y0025634D02*
X0165386Y0025724D01*
X0165386Y0031528D01*
X0173260Y0031134D02*
X0173260Y0025724D01*
X0173169Y0025634D01*
D34*
X0149638Y0082709D02*
X0149547Y0082799D01*
X0149547Y0088626D01*
X0141673Y0088626D02*
X0141370Y0088323D01*
X0141370Y0083102D01*
M02*
